G04 #@! TF.GenerationSoftware,KiCad,Pcbnew,(5.1.7)-1*
G04 #@! TF.CreationDate,2020-12-07T10:12:24+09:00*
G04 #@! TF.ProjectId,pisces_bottom_plate,70697363-6573-45f6-926f-74746f6d5f70,rev?*
G04 #@! TF.SameCoordinates,Original*
G04 #@! TF.FileFunction,Copper,L2,Bot*
G04 #@! TF.FilePolarity,Positive*
%FSLAX46Y46*%
G04 Gerber Fmt 4.6, Leading zero omitted, Abs format (unit mm)*
G04 Created by KiCad (PCBNEW (5.1.7)-1) date 2020-12-07 10:12:24*
%MOMM*%
%LPD*%
G01*
G04 APERTURE LIST*
G04 #@! TA.AperFunction,ComponentPad*
%ADD10C,4.200000*%
G04 #@! TD*
G04 #@! TA.AperFunction,Conductor*
%ADD11C,0.250000*%
G04 #@! TD*
G04 #@! TA.AperFunction,NonConductor*
%ADD12C,0.254000*%
G04 #@! TD*
G04 #@! TA.AperFunction,NonConductor*
%ADD13C,0.100000*%
G04 #@! TD*
G04 APERTURE END LIST*
D10*
X59525000Y-78575000D03*
X159639000Y-43561000D03*
X135725000Y-59525000D03*
X135725000Y-78575000D03*
X97625000Y-78575000D03*
X189103000Y-72644000D03*
X189103000Y-54864000D03*
X159639000Y-72644000D03*
X97625000Y-59525000D03*
X59525000Y-59525000D03*
D11*
X135814000Y-59436000D02*
X135725000Y-59525000D01*
D12*
X189841222Y-35013096D02*
X190429164Y-35190606D01*
X190971436Y-35478937D01*
X191447364Y-35867094D01*
X191838845Y-36340314D01*
X192130951Y-36880552D01*
X192312563Y-37467244D01*
X192380001Y-38108888D01*
X192380000Y-96487721D01*
X192316904Y-97131221D01*
X192139394Y-97719164D01*
X191851063Y-98261436D01*
X191462906Y-98737364D01*
X190989686Y-99128845D01*
X190449449Y-99420950D01*
X189862756Y-99602563D01*
X189221130Y-99670000D01*
X41942279Y-99670000D01*
X41298779Y-99606904D01*
X40710836Y-99429394D01*
X40168564Y-99141063D01*
X39692636Y-98752906D01*
X39301155Y-98279686D01*
X39009050Y-97739449D01*
X38827437Y-97152756D01*
X38760000Y-96511130D01*
X38760000Y-78305626D01*
X56790000Y-78305626D01*
X56790000Y-78844374D01*
X56895105Y-79372770D01*
X57101275Y-79870508D01*
X57400587Y-80318461D01*
X57781539Y-80699413D01*
X58229492Y-80998725D01*
X58727230Y-81204895D01*
X59255626Y-81310000D01*
X59794374Y-81310000D01*
X60322770Y-81204895D01*
X60820508Y-80998725D01*
X61268461Y-80699413D01*
X61649413Y-80318461D01*
X61948725Y-79870508D01*
X62154895Y-79372770D01*
X62260000Y-78844374D01*
X62260000Y-78305626D01*
X94890000Y-78305626D01*
X94890000Y-78844374D01*
X94995105Y-79372770D01*
X95201275Y-79870508D01*
X95500587Y-80318461D01*
X95881539Y-80699413D01*
X96329492Y-80998725D01*
X96827230Y-81204895D01*
X97355626Y-81310000D01*
X97894374Y-81310000D01*
X98422770Y-81204895D01*
X98920508Y-80998725D01*
X99368461Y-80699413D01*
X99749413Y-80318461D01*
X100048725Y-79870508D01*
X100254895Y-79372770D01*
X100360000Y-78844374D01*
X100360000Y-78305626D01*
X132990000Y-78305626D01*
X132990000Y-78844374D01*
X133095105Y-79372770D01*
X133301275Y-79870508D01*
X133600587Y-80318461D01*
X133981539Y-80699413D01*
X134429492Y-80998725D01*
X134927230Y-81204895D01*
X135455626Y-81310000D01*
X135994374Y-81310000D01*
X136522770Y-81204895D01*
X137020508Y-80998725D01*
X137468461Y-80699413D01*
X137849413Y-80318461D01*
X138148725Y-79870508D01*
X138354895Y-79372770D01*
X138460000Y-78844374D01*
X138460000Y-78305626D01*
X138354895Y-77777230D01*
X138148725Y-77279492D01*
X137849413Y-76831539D01*
X137468461Y-76450587D01*
X137020508Y-76151275D01*
X136522770Y-75945105D01*
X135994374Y-75840000D01*
X135455626Y-75840000D01*
X134927230Y-75945105D01*
X134429492Y-76151275D01*
X133981539Y-76450587D01*
X133600587Y-76831539D01*
X133301275Y-77279492D01*
X133095105Y-77777230D01*
X132990000Y-78305626D01*
X100360000Y-78305626D01*
X100254895Y-77777230D01*
X100048725Y-77279492D01*
X99749413Y-76831539D01*
X99368461Y-76450587D01*
X98920508Y-76151275D01*
X98422770Y-75945105D01*
X97894374Y-75840000D01*
X97355626Y-75840000D01*
X96827230Y-75945105D01*
X96329492Y-76151275D01*
X95881539Y-76450587D01*
X95500587Y-76831539D01*
X95201275Y-77279492D01*
X94995105Y-77777230D01*
X94890000Y-78305626D01*
X62260000Y-78305626D01*
X62154895Y-77777230D01*
X61948725Y-77279492D01*
X61649413Y-76831539D01*
X61268461Y-76450587D01*
X60820508Y-76151275D01*
X60322770Y-75945105D01*
X59794374Y-75840000D01*
X59255626Y-75840000D01*
X58727230Y-75945105D01*
X58229492Y-76151275D01*
X57781539Y-76450587D01*
X57400587Y-76831539D01*
X57101275Y-77279492D01*
X56895105Y-77777230D01*
X56790000Y-78305626D01*
X38760000Y-78305626D01*
X38760000Y-72374626D01*
X156904000Y-72374626D01*
X156904000Y-72913374D01*
X157009105Y-73441770D01*
X157215275Y-73939508D01*
X157514587Y-74387461D01*
X157895539Y-74768413D01*
X158343492Y-75067725D01*
X158841230Y-75273895D01*
X159369626Y-75379000D01*
X159908374Y-75379000D01*
X160436770Y-75273895D01*
X160934508Y-75067725D01*
X161382461Y-74768413D01*
X161763413Y-74387461D01*
X162062725Y-73939508D01*
X162268895Y-73441770D01*
X162374000Y-72913374D01*
X162374000Y-72374626D01*
X186368000Y-72374626D01*
X186368000Y-72913374D01*
X186473105Y-73441770D01*
X186679275Y-73939508D01*
X186978587Y-74387461D01*
X187359539Y-74768413D01*
X187807492Y-75067725D01*
X188305230Y-75273895D01*
X188833626Y-75379000D01*
X189372374Y-75379000D01*
X189900770Y-75273895D01*
X190398508Y-75067725D01*
X190846461Y-74768413D01*
X191227413Y-74387461D01*
X191526725Y-73939508D01*
X191732895Y-73441770D01*
X191838000Y-72913374D01*
X191838000Y-72374626D01*
X191732895Y-71846230D01*
X191526725Y-71348492D01*
X191227413Y-70900539D01*
X190846461Y-70519587D01*
X190398508Y-70220275D01*
X189900770Y-70014105D01*
X189372374Y-69909000D01*
X188833626Y-69909000D01*
X188305230Y-70014105D01*
X187807492Y-70220275D01*
X187359539Y-70519587D01*
X186978587Y-70900539D01*
X186679275Y-71348492D01*
X186473105Y-71846230D01*
X186368000Y-72374626D01*
X162374000Y-72374626D01*
X162268895Y-71846230D01*
X162062725Y-71348492D01*
X161763413Y-70900539D01*
X161382461Y-70519587D01*
X160934508Y-70220275D01*
X160436770Y-70014105D01*
X159908374Y-69909000D01*
X159369626Y-69909000D01*
X158841230Y-70014105D01*
X158343492Y-70220275D01*
X157895539Y-70519587D01*
X157514587Y-70900539D01*
X157215275Y-71348492D01*
X157009105Y-71846230D01*
X156904000Y-72374626D01*
X38760000Y-72374626D01*
X38760000Y-59255626D01*
X56790000Y-59255626D01*
X56790000Y-59794374D01*
X56895105Y-60322770D01*
X57101275Y-60820508D01*
X57400587Y-61268461D01*
X57781539Y-61649413D01*
X58229492Y-61948725D01*
X58727230Y-62154895D01*
X59255626Y-62260000D01*
X59794374Y-62260000D01*
X60322770Y-62154895D01*
X60820508Y-61948725D01*
X61268461Y-61649413D01*
X61649413Y-61268461D01*
X61948725Y-60820508D01*
X62154895Y-60322770D01*
X62260000Y-59794374D01*
X62260000Y-59255626D01*
X94890000Y-59255626D01*
X94890000Y-59794374D01*
X94995105Y-60322770D01*
X95201275Y-60820508D01*
X95500587Y-61268461D01*
X95881539Y-61649413D01*
X96329492Y-61948725D01*
X96827230Y-62154895D01*
X97355626Y-62260000D01*
X97894374Y-62260000D01*
X98422770Y-62154895D01*
X98920508Y-61948725D01*
X99368461Y-61649413D01*
X99749413Y-61268461D01*
X100048725Y-60820508D01*
X100254895Y-60322770D01*
X100360000Y-59794374D01*
X100360000Y-59255626D01*
X132990000Y-59255626D01*
X132990000Y-59794374D01*
X133095105Y-60322770D01*
X133301275Y-60820508D01*
X133600587Y-61268461D01*
X133981539Y-61649413D01*
X134429492Y-61948725D01*
X134927230Y-62154895D01*
X135455626Y-62260000D01*
X135994374Y-62260000D01*
X136522770Y-62154895D01*
X137020508Y-61948725D01*
X137468461Y-61649413D01*
X137849413Y-61268461D01*
X138148725Y-60820508D01*
X138354895Y-60322770D01*
X138460000Y-59794374D01*
X138460000Y-59255626D01*
X138354895Y-58727230D01*
X138148725Y-58229492D01*
X137849413Y-57781539D01*
X137468461Y-57400587D01*
X137020508Y-57101275D01*
X136522770Y-56895105D01*
X135994374Y-56790000D01*
X135455626Y-56790000D01*
X134927230Y-56895105D01*
X134429492Y-57101275D01*
X133981539Y-57400587D01*
X133600587Y-57781539D01*
X133301275Y-58229492D01*
X133095105Y-58727230D01*
X132990000Y-59255626D01*
X100360000Y-59255626D01*
X100254895Y-58727230D01*
X100048725Y-58229492D01*
X99749413Y-57781539D01*
X99368461Y-57400587D01*
X98920508Y-57101275D01*
X98422770Y-56895105D01*
X97894374Y-56790000D01*
X97355626Y-56790000D01*
X96827230Y-56895105D01*
X96329492Y-57101275D01*
X95881539Y-57400587D01*
X95500587Y-57781539D01*
X95201275Y-58229492D01*
X94995105Y-58727230D01*
X94890000Y-59255626D01*
X62260000Y-59255626D01*
X62154895Y-58727230D01*
X61948725Y-58229492D01*
X61649413Y-57781539D01*
X61268461Y-57400587D01*
X60820508Y-57101275D01*
X60322770Y-56895105D01*
X59794374Y-56790000D01*
X59255626Y-56790000D01*
X58727230Y-56895105D01*
X58229492Y-57101275D01*
X57781539Y-57400587D01*
X57400587Y-57781539D01*
X57101275Y-58229492D01*
X56895105Y-58727230D01*
X56790000Y-59255626D01*
X38760000Y-59255626D01*
X38760000Y-54594626D01*
X186368000Y-54594626D01*
X186368000Y-55133374D01*
X186473105Y-55661770D01*
X186679275Y-56159508D01*
X186978587Y-56607461D01*
X187359539Y-56988413D01*
X187807492Y-57287725D01*
X188305230Y-57493895D01*
X188833626Y-57599000D01*
X189372374Y-57599000D01*
X189900770Y-57493895D01*
X190398508Y-57287725D01*
X190846461Y-56988413D01*
X191227413Y-56607461D01*
X191526725Y-56159508D01*
X191732895Y-55661770D01*
X191838000Y-55133374D01*
X191838000Y-54594626D01*
X191732895Y-54066230D01*
X191526725Y-53568492D01*
X191227413Y-53120539D01*
X190846461Y-52739587D01*
X190398508Y-52440275D01*
X189900770Y-52234105D01*
X189372374Y-52129000D01*
X188833626Y-52129000D01*
X188305230Y-52234105D01*
X187807492Y-52440275D01*
X187359539Y-52739587D01*
X186978587Y-53120539D01*
X186679275Y-53568492D01*
X186473105Y-54066230D01*
X186368000Y-54594626D01*
X38760000Y-54594626D01*
X38760000Y-43291626D01*
X156904000Y-43291626D01*
X156904000Y-43830374D01*
X157009105Y-44358770D01*
X157215275Y-44856508D01*
X157514587Y-45304461D01*
X157895539Y-45685413D01*
X158343492Y-45984725D01*
X158841230Y-46190895D01*
X159369626Y-46296000D01*
X159908374Y-46296000D01*
X160436770Y-46190895D01*
X160934508Y-45984725D01*
X161382461Y-45685413D01*
X161763413Y-45304461D01*
X162062725Y-44856508D01*
X162268895Y-44358770D01*
X162374000Y-43830374D01*
X162374000Y-43291626D01*
X162268895Y-42763230D01*
X162062725Y-42265492D01*
X161763413Y-41817539D01*
X161382461Y-41436587D01*
X160934508Y-41137275D01*
X160436770Y-40931105D01*
X159908374Y-40826000D01*
X159369626Y-40826000D01*
X158841230Y-40931105D01*
X158343492Y-41137275D01*
X157895539Y-41436587D01*
X157514587Y-41817539D01*
X157215275Y-42265492D01*
X157009105Y-42763230D01*
X156904000Y-43291626D01*
X38760000Y-43291626D01*
X38760000Y-38132279D01*
X38823096Y-37488778D01*
X39000606Y-36900836D01*
X39288937Y-36358564D01*
X39677094Y-35882636D01*
X40150314Y-35491155D01*
X40690552Y-35199049D01*
X41277244Y-35017437D01*
X41918879Y-34950000D01*
X189197721Y-34950000D01*
X189841222Y-35013096D01*
G04 #@! TA.AperFunction,NonConductor*
D13*
G36*
X189841222Y-35013096D02*
G01*
X190429164Y-35190606D01*
X190971436Y-35478937D01*
X191447364Y-35867094D01*
X191838845Y-36340314D01*
X192130951Y-36880552D01*
X192312563Y-37467244D01*
X192380001Y-38108888D01*
X192380000Y-96487721D01*
X192316904Y-97131221D01*
X192139394Y-97719164D01*
X191851063Y-98261436D01*
X191462906Y-98737364D01*
X190989686Y-99128845D01*
X190449449Y-99420950D01*
X189862756Y-99602563D01*
X189221130Y-99670000D01*
X41942279Y-99670000D01*
X41298779Y-99606904D01*
X40710836Y-99429394D01*
X40168564Y-99141063D01*
X39692636Y-98752906D01*
X39301155Y-98279686D01*
X39009050Y-97739449D01*
X38827437Y-97152756D01*
X38760000Y-96511130D01*
X38760000Y-78305626D01*
X56790000Y-78305626D01*
X56790000Y-78844374D01*
X56895105Y-79372770D01*
X57101275Y-79870508D01*
X57400587Y-80318461D01*
X57781539Y-80699413D01*
X58229492Y-80998725D01*
X58727230Y-81204895D01*
X59255626Y-81310000D01*
X59794374Y-81310000D01*
X60322770Y-81204895D01*
X60820508Y-80998725D01*
X61268461Y-80699413D01*
X61649413Y-80318461D01*
X61948725Y-79870508D01*
X62154895Y-79372770D01*
X62260000Y-78844374D01*
X62260000Y-78305626D01*
X94890000Y-78305626D01*
X94890000Y-78844374D01*
X94995105Y-79372770D01*
X95201275Y-79870508D01*
X95500587Y-80318461D01*
X95881539Y-80699413D01*
X96329492Y-80998725D01*
X96827230Y-81204895D01*
X97355626Y-81310000D01*
X97894374Y-81310000D01*
X98422770Y-81204895D01*
X98920508Y-80998725D01*
X99368461Y-80699413D01*
X99749413Y-80318461D01*
X100048725Y-79870508D01*
X100254895Y-79372770D01*
X100360000Y-78844374D01*
X100360000Y-78305626D01*
X132990000Y-78305626D01*
X132990000Y-78844374D01*
X133095105Y-79372770D01*
X133301275Y-79870508D01*
X133600587Y-80318461D01*
X133981539Y-80699413D01*
X134429492Y-80998725D01*
X134927230Y-81204895D01*
X135455626Y-81310000D01*
X135994374Y-81310000D01*
X136522770Y-81204895D01*
X137020508Y-80998725D01*
X137468461Y-80699413D01*
X137849413Y-80318461D01*
X138148725Y-79870508D01*
X138354895Y-79372770D01*
X138460000Y-78844374D01*
X138460000Y-78305626D01*
X138354895Y-77777230D01*
X138148725Y-77279492D01*
X137849413Y-76831539D01*
X137468461Y-76450587D01*
X137020508Y-76151275D01*
X136522770Y-75945105D01*
X135994374Y-75840000D01*
X135455626Y-75840000D01*
X134927230Y-75945105D01*
X134429492Y-76151275D01*
X133981539Y-76450587D01*
X133600587Y-76831539D01*
X133301275Y-77279492D01*
X133095105Y-77777230D01*
X132990000Y-78305626D01*
X100360000Y-78305626D01*
X100254895Y-77777230D01*
X100048725Y-77279492D01*
X99749413Y-76831539D01*
X99368461Y-76450587D01*
X98920508Y-76151275D01*
X98422770Y-75945105D01*
X97894374Y-75840000D01*
X97355626Y-75840000D01*
X96827230Y-75945105D01*
X96329492Y-76151275D01*
X95881539Y-76450587D01*
X95500587Y-76831539D01*
X95201275Y-77279492D01*
X94995105Y-77777230D01*
X94890000Y-78305626D01*
X62260000Y-78305626D01*
X62154895Y-77777230D01*
X61948725Y-77279492D01*
X61649413Y-76831539D01*
X61268461Y-76450587D01*
X60820508Y-76151275D01*
X60322770Y-75945105D01*
X59794374Y-75840000D01*
X59255626Y-75840000D01*
X58727230Y-75945105D01*
X58229492Y-76151275D01*
X57781539Y-76450587D01*
X57400587Y-76831539D01*
X57101275Y-77279492D01*
X56895105Y-77777230D01*
X56790000Y-78305626D01*
X38760000Y-78305626D01*
X38760000Y-72374626D01*
X156904000Y-72374626D01*
X156904000Y-72913374D01*
X157009105Y-73441770D01*
X157215275Y-73939508D01*
X157514587Y-74387461D01*
X157895539Y-74768413D01*
X158343492Y-75067725D01*
X158841230Y-75273895D01*
X159369626Y-75379000D01*
X159908374Y-75379000D01*
X160436770Y-75273895D01*
X160934508Y-75067725D01*
X161382461Y-74768413D01*
X161763413Y-74387461D01*
X162062725Y-73939508D01*
X162268895Y-73441770D01*
X162374000Y-72913374D01*
X162374000Y-72374626D01*
X186368000Y-72374626D01*
X186368000Y-72913374D01*
X186473105Y-73441770D01*
X186679275Y-73939508D01*
X186978587Y-74387461D01*
X187359539Y-74768413D01*
X187807492Y-75067725D01*
X188305230Y-75273895D01*
X188833626Y-75379000D01*
X189372374Y-75379000D01*
X189900770Y-75273895D01*
X190398508Y-75067725D01*
X190846461Y-74768413D01*
X191227413Y-74387461D01*
X191526725Y-73939508D01*
X191732895Y-73441770D01*
X191838000Y-72913374D01*
X191838000Y-72374626D01*
X191732895Y-71846230D01*
X191526725Y-71348492D01*
X191227413Y-70900539D01*
X190846461Y-70519587D01*
X190398508Y-70220275D01*
X189900770Y-70014105D01*
X189372374Y-69909000D01*
X188833626Y-69909000D01*
X188305230Y-70014105D01*
X187807492Y-70220275D01*
X187359539Y-70519587D01*
X186978587Y-70900539D01*
X186679275Y-71348492D01*
X186473105Y-71846230D01*
X186368000Y-72374626D01*
X162374000Y-72374626D01*
X162268895Y-71846230D01*
X162062725Y-71348492D01*
X161763413Y-70900539D01*
X161382461Y-70519587D01*
X160934508Y-70220275D01*
X160436770Y-70014105D01*
X159908374Y-69909000D01*
X159369626Y-69909000D01*
X158841230Y-70014105D01*
X158343492Y-70220275D01*
X157895539Y-70519587D01*
X157514587Y-70900539D01*
X157215275Y-71348492D01*
X157009105Y-71846230D01*
X156904000Y-72374626D01*
X38760000Y-72374626D01*
X38760000Y-59255626D01*
X56790000Y-59255626D01*
X56790000Y-59794374D01*
X56895105Y-60322770D01*
X57101275Y-60820508D01*
X57400587Y-61268461D01*
X57781539Y-61649413D01*
X58229492Y-61948725D01*
X58727230Y-62154895D01*
X59255626Y-62260000D01*
X59794374Y-62260000D01*
X60322770Y-62154895D01*
X60820508Y-61948725D01*
X61268461Y-61649413D01*
X61649413Y-61268461D01*
X61948725Y-60820508D01*
X62154895Y-60322770D01*
X62260000Y-59794374D01*
X62260000Y-59255626D01*
X94890000Y-59255626D01*
X94890000Y-59794374D01*
X94995105Y-60322770D01*
X95201275Y-60820508D01*
X95500587Y-61268461D01*
X95881539Y-61649413D01*
X96329492Y-61948725D01*
X96827230Y-62154895D01*
X97355626Y-62260000D01*
X97894374Y-62260000D01*
X98422770Y-62154895D01*
X98920508Y-61948725D01*
X99368461Y-61649413D01*
X99749413Y-61268461D01*
X100048725Y-60820508D01*
X100254895Y-60322770D01*
X100360000Y-59794374D01*
X100360000Y-59255626D01*
X132990000Y-59255626D01*
X132990000Y-59794374D01*
X133095105Y-60322770D01*
X133301275Y-60820508D01*
X133600587Y-61268461D01*
X133981539Y-61649413D01*
X134429492Y-61948725D01*
X134927230Y-62154895D01*
X135455626Y-62260000D01*
X135994374Y-62260000D01*
X136522770Y-62154895D01*
X137020508Y-61948725D01*
X137468461Y-61649413D01*
X137849413Y-61268461D01*
X138148725Y-60820508D01*
X138354895Y-60322770D01*
X138460000Y-59794374D01*
X138460000Y-59255626D01*
X138354895Y-58727230D01*
X138148725Y-58229492D01*
X137849413Y-57781539D01*
X137468461Y-57400587D01*
X137020508Y-57101275D01*
X136522770Y-56895105D01*
X135994374Y-56790000D01*
X135455626Y-56790000D01*
X134927230Y-56895105D01*
X134429492Y-57101275D01*
X133981539Y-57400587D01*
X133600587Y-57781539D01*
X133301275Y-58229492D01*
X133095105Y-58727230D01*
X132990000Y-59255626D01*
X100360000Y-59255626D01*
X100254895Y-58727230D01*
X100048725Y-58229492D01*
X99749413Y-57781539D01*
X99368461Y-57400587D01*
X98920508Y-57101275D01*
X98422770Y-56895105D01*
X97894374Y-56790000D01*
X97355626Y-56790000D01*
X96827230Y-56895105D01*
X96329492Y-57101275D01*
X95881539Y-57400587D01*
X95500587Y-57781539D01*
X95201275Y-58229492D01*
X94995105Y-58727230D01*
X94890000Y-59255626D01*
X62260000Y-59255626D01*
X62154895Y-58727230D01*
X61948725Y-58229492D01*
X61649413Y-57781539D01*
X61268461Y-57400587D01*
X60820508Y-57101275D01*
X60322770Y-56895105D01*
X59794374Y-56790000D01*
X59255626Y-56790000D01*
X58727230Y-56895105D01*
X58229492Y-57101275D01*
X57781539Y-57400587D01*
X57400587Y-57781539D01*
X57101275Y-58229492D01*
X56895105Y-58727230D01*
X56790000Y-59255626D01*
X38760000Y-59255626D01*
X38760000Y-54594626D01*
X186368000Y-54594626D01*
X186368000Y-55133374D01*
X186473105Y-55661770D01*
X186679275Y-56159508D01*
X186978587Y-56607461D01*
X187359539Y-56988413D01*
X187807492Y-57287725D01*
X188305230Y-57493895D01*
X188833626Y-57599000D01*
X189372374Y-57599000D01*
X189900770Y-57493895D01*
X190398508Y-57287725D01*
X190846461Y-56988413D01*
X191227413Y-56607461D01*
X191526725Y-56159508D01*
X191732895Y-55661770D01*
X191838000Y-55133374D01*
X191838000Y-54594626D01*
X191732895Y-54066230D01*
X191526725Y-53568492D01*
X191227413Y-53120539D01*
X190846461Y-52739587D01*
X190398508Y-52440275D01*
X189900770Y-52234105D01*
X189372374Y-52129000D01*
X188833626Y-52129000D01*
X188305230Y-52234105D01*
X187807492Y-52440275D01*
X187359539Y-52739587D01*
X186978587Y-53120539D01*
X186679275Y-53568492D01*
X186473105Y-54066230D01*
X186368000Y-54594626D01*
X38760000Y-54594626D01*
X38760000Y-43291626D01*
X156904000Y-43291626D01*
X156904000Y-43830374D01*
X157009105Y-44358770D01*
X157215275Y-44856508D01*
X157514587Y-45304461D01*
X157895539Y-45685413D01*
X158343492Y-45984725D01*
X158841230Y-46190895D01*
X159369626Y-46296000D01*
X159908374Y-46296000D01*
X160436770Y-46190895D01*
X160934508Y-45984725D01*
X161382461Y-45685413D01*
X161763413Y-45304461D01*
X162062725Y-44856508D01*
X162268895Y-44358770D01*
X162374000Y-43830374D01*
X162374000Y-43291626D01*
X162268895Y-42763230D01*
X162062725Y-42265492D01*
X161763413Y-41817539D01*
X161382461Y-41436587D01*
X160934508Y-41137275D01*
X160436770Y-40931105D01*
X159908374Y-40826000D01*
X159369626Y-40826000D01*
X158841230Y-40931105D01*
X158343492Y-41137275D01*
X157895539Y-41436587D01*
X157514587Y-41817539D01*
X157215275Y-42265492D01*
X157009105Y-42763230D01*
X156904000Y-43291626D01*
X38760000Y-43291626D01*
X38760000Y-38132279D01*
X38823096Y-37488778D01*
X39000606Y-36900836D01*
X39288937Y-36358564D01*
X39677094Y-35882636D01*
X40150314Y-35491155D01*
X40690552Y-35199049D01*
X41277244Y-35017437D01*
X41918879Y-34950000D01*
X189197721Y-34950000D01*
X189841222Y-35013096D01*
G37*
G04 #@! TD.AperFunction*
M02*
