G04 #@! TF.GenerationSoftware,KiCad,Pcbnew,(5.1.7)-1*
G04 #@! TF.CreationDate,2021-01-25T07:51:02+09:00*
G04 #@! TF.ProjectId,pisces_top_plate,70697363-6573-45f7-946f-705f706c6174,rev?*
G04 #@! TF.SameCoordinates,Original*
G04 #@! TF.FileFunction,Profile,NP*
%FSLAX46Y46*%
G04 Gerber Fmt 4.6, Leading zero omitted, Abs format (unit mm)*
G04 Created by KiCad (PCBNEW (5.1.7)-1) date 2021-01-25 07:51:02*
%MOMM*%
%LPD*%
G01*
G04 APERTURE LIST*
G04 #@! TA.AperFunction,Profile*
%ADD10C,0.050000*%
G04 #@! TD*
G04 #@! TA.AperFunction,Profile*
%ADD11C,0.100000*%
G04 #@! TD*
G04 APERTURE END LIST*
D10*
X168719500Y-53975000D02*
X176149000Y-53975000D01*
X176149000Y-53975000D02*
G75*
G02*
X176784000Y-54610000I0J-635000D01*
G01*
X167449500Y-38989000D02*
G75*
G02*
X168084500Y-39624000I0J-635000D01*
G01*
X168719500Y-53975000D02*
G75*
G02*
X168084500Y-53340000I0J635000D01*
G01*
X168084500Y-39624000D02*
X168084500Y-53340000D01*
D11*
X95088800Y-57023000D02*
X81089500Y-57023000D01*
X76038800Y-57023000D02*
X62039500Y-57023000D01*
X76038800Y-43023700D02*
X76038800Y-57023000D01*
X42989450Y-57023000D02*
X42989450Y-43023700D01*
X56989000Y-57023000D02*
X42989450Y-57023000D01*
X56989000Y-43023700D02*
X56989000Y-57023000D01*
X81089500Y-57023000D02*
X81089500Y-43023700D01*
X62039500Y-57023000D02*
X62039500Y-43023700D01*
X42989450Y-43023700D02*
X56989000Y-43023700D01*
X62039500Y-43023700D02*
X76038800Y-43023700D01*
X119189500Y-95123160D02*
X119189500Y-81123700D01*
X81089500Y-81123700D02*
X95088800Y-81123700D01*
X100139500Y-95123160D02*
X100139500Y-81123700D01*
X95088800Y-81123700D02*
X95088800Y-95123160D01*
X114138800Y-81123700D02*
X114138800Y-95123160D01*
X76038800Y-81123700D02*
X76038800Y-95123160D01*
X62039500Y-81123700D02*
X76038800Y-81123700D01*
X81089500Y-95123160D02*
X81089500Y-81123700D01*
X95088800Y-95123160D02*
X81089500Y-95123160D01*
X114138800Y-95123160D02*
X100139500Y-95123160D01*
X100139500Y-81123700D02*
X114138800Y-81123700D01*
X56989000Y-95123160D02*
X42989450Y-95123160D01*
X56989000Y-81123700D02*
X56989000Y-95123160D01*
X119189500Y-62073800D02*
X133188800Y-62073800D01*
X42989450Y-81123700D02*
X56989000Y-81123700D01*
X76038800Y-95123160D02*
X62039500Y-95123160D01*
X138238100Y-76073200D02*
X138238100Y-62073800D01*
X152238800Y-76073200D02*
X138238100Y-76073200D01*
X152238800Y-62073800D02*
X152238800Y-76073200D01*
X138238100Y-62073800D02*
X152238800Y-62073800D01*
X42989450Y-95123160D02*
X42989450Y-81123700D01*
X62039500Y-95123160D02*
X62039500Y-81123700D01*
X81089500Y-62073800D02*
X95088800Y-62073800D01*
X100139500Y-62073800D02*
X114138800Y-62073800D01*
X133188800Y-76073200D02*
X119189500Y-76073200D01*
X100139500Y-76073200D02*
X100139500Y-62073800D01*
X95088800Y-76073200D02*
X81089500Y-76073200D01*
X95088800Y-62073800D02*
X95088800Y-76073200D01*
X114138800Y-76073200D02*
X100139500Y-76073200D01*
X133188800Y-62073800D02*
X133188800Y-76073200D01*
X114138800Y-62073800D02*
X114138800Y-76073200D01*
X81089500Y-76073200D02*
X81089500Y-62073800D01*
X119189500Y-76073200D02*
X119189500Y-62073800D01*
X133188800Y-81123700D02*
X133188800Y-95123160D01*
X138238100Y-95123160D02*
X138238100Y-81123700D01*
X157287800Y-95123160D02*
X157287800Y-81123700D01*
X138238100Y-81123700D02*
X152238800Y-81123700D01*
X119189500Y-81123700D02*
X133188800Y-81123700D01*
X152238800Y-95123160D02*
X138238100Y-95123160D01*
X157287800Y-81123700D02*
X171288800Y-81123700D01*
X171288800Y-95123160D02*
X157287800Y-95123160D01*
X171288800Y-81123700D02*
X171288800Y-95123160D01*
X152238800Y-81123700D02*
X152238800Y-95123160D01*
X133188800Y-95123160D02*
X119189500Y-95123160D01*
X76038800Y-62073800D02*
X76038800Y-76073200D01*
X62039500Y-76073200D02*
X62039500Y-62073800D01*
X152238800Y-57023000D02*
X138238100Y-57023000D01*
X42989450Y-62073800D02*
X56989000Y-62073800D01*
X152238800Y-43023700D02*
X152238800Y-57023000D01*
X138238100Y-43023700D02*
X152238800Y-43023700D01*
X56989000Y-76073200D02*
X42989450Y-76073200D01*
X76038800Y-76073200D02*
X62039500Y-76073200D01*
X62039500Y-62073800D02*
X76038800Y-62073800D01*
X42989450Y-76073200D02*
X42989450Y-62073800D01*
X56989000Y-62073800D02*
X56989000Y-76073200D01*
X133188800Y-43023700D02*
X133188800Y-57023000D01*
X81089500Y-43023700D02*
X95088800Y-43023700D01*
X100139500Y-57023000D02*
X100139500Y-43023700D01*
X119189500Y-43023700D02*
X133188800Y-43023700D01*
X114138800Y-57023000D02*
X100139500Y-57023000D01*
X114138800Y-43023700D02*
X114138800Y-57023000D01*
X138238100Y-57023000D02*
X138238100Y-43023700D01*
X100139500Y-43023700D02*
X114138800Y-43023700D01*
X133188800Y-57023000D02*
X119189500Y-57023000D01*
X95088800Y-43023700D02*
X95088800Y-57023000D01*
X119189500Y-57023000D02*
X119189500Y-43023700D01*
D10*
X176784000Y-96520000D02*
G75*
G02*
X174244000Y-99060000I-2540000J0D01*
G01*
X41529000Y-99060000D02*
G75*
G02*
X38989000Y-96520000I0J2540000D01*
G01*
X38989000Y-41529000D02*
G75*
G02*
X41529000Y-38989000I2540000J0D01*
G01*
X167449500Y-38989000D02*
X41529000Y-38989000D01*
X176784000Y-96520000D02*
X176784000Y-54610000D01*
X41529000Y-99060000D02*
X174244000Y-99060000D01*
X38989000Y-41529000D02*
X38989000Y-96520000D01*
M02*
