G04 #@! TF.GenerationSoftware,KiCad,Pcbnew,(5.1.7)-1*
G04 #@! TF.CreationDate,2021-01-25T07:51:01+09:00*
G04 #@! TF.ProjectId,pisces_top_plate,70697363-6573-45f7-946f-705f706c6174,rev?*
G04 #@! TF.SameCoordinates,Original*
G04 #@! TF.FileFunction,Copper,L1,Top*
G04 #@! TF.FilePolarity,Positive*
%FSLAX46Y46*%
G04 Gerber Fmt 4.6, Leading zero omitted, Abs format (unit mm)*
G04 Created by KiCad (PCBNEW (5.1.7)-1) date 2021-01-25 07:51:01*
%MOMM*%
%LPD*%
G01*
G04 APERTURE LIST*
G04 #@! TA.AperFunction,ComponentPad*
%ADD10C,4.200000*%
G04 #@! TD*
G04 #@! TA.AperFunction,NonConductor*
%ADD11C,0.254000*%
G04 #@! TD*
G04 #@! TA.AperFunction,NonConductor*
%ADD12C,0.100000*%
G04 #@! TD*
G04 APERTURE END LIST*
D10*
X135725000Y-78575000D03*
X97625000Y-78575000D03*
X135725000Y-59525000D03*
X97625000Y-59525000D03*
X59525000Y-78575000D03*
X59525000Y-59525000D03*
D11*
X167424013Y-39649666D02*
X167424500Y-39654301D01*
X167424501Y-53372419D01*
X167427258Y-53400410D01*
X167427231Y-53404255D01*
X167428131Y-53413426D01*
X167441086Y-53536677D01*
X167453115Y-53595274D01*
X167464322Y-53654028D01*
X167466986Y-53662850D01*
X167503633Y-53781238D01*
X167526808Y-53836368D01*
X167549222Y-53891847D01*
X167553549Y-53899983D01*
X167612492Y-54008998D01*
X167645937Y-54058582D01*
X167678697Y-54108645D01*
X167684522Y-54115786D01*
X167763518Y-54211276D01*
X167805967Y-54253430D01*
X167847815Y-54296165D01*
X167854916Y-54302039D01*
X167950955Y-54380367D01*
X168000781Y-54413472D01*
X168050138Y-54447267D01*
X168058244Y-54451650D01*
X168167667Y-54509832D01*
X168222959Y-54532621D01*
X168277955Y-54556193D01*
X168286758Y-54558918D01*
X168405399Y-54594737D01*
X168464083Y-54606357D01*
X168522594Y-54618794D01*
X168531750Y-54619756D01*
X168531755Y-54619757D01*
X168531759Y-54619757D01*
X168655097Y-54631850D01*
X168655098Y-54631850D01*
X168687081Y-54635000D01*
X176116725Y-54635000D01*
X176123513Y-54635666D01*
X176124001Y-54640310D01*
X176124000Y-96487721D01*
X176085091Y-96884545D01*
X175979220Y-97235206D01*
X175807257Y-97558623D01*
X175575748Y-97842482D01*
X175293514Y-98075965D01*
X174971304Y-98250184D01*
X174621385Y-98358502D01*
X174226557Y-98400000D01*
X41561279Y-98400000D01*
X41164455Y-98361091D01*
X40813794Y-98255220D01*
X40490377Y-98083257D01*
X40206518Y-97851748D01*
X39973035Y-97569514D01*
X39798816Y-97247304D01*
X39690498Y-96897385D01*
X39649000Y-96502557D01*
X39649000Y-81123700D01*
X42301136Y-81123700D01*
X42304451Y-81157357D01*
X42304450Y-95089513D01*
X42301136Y-95123160D01*
X42314362Y-95257443D01*
X42353531Y-95386566D01*
X42417138Y-95505567D01*
X42502739Y-95609871D01*
X42607043Y-95695472D01*
X42726044Y-95759079D01*
X42855167Y-95798248D01*
X42989450Y-95811474D01*
X43023097Y-95808160D01*
X56955353Y-95808160D01*
X56989000Y-95811474D01*
X57123283Y-95798248D01*
X57252406Y-95759079D01*
X57371407Y-95695472D01*
X57475711Y-95609871D01*
X57561312Y-95505567D01*
X57624919Y-95386566D01*
X57664088Y-95257443D01*
X57674000Y-95156807D01*
X57674000Y-95156806D01*
X57677314Y-95123160D01*
X57674000Y-95089513D01*
X57674000Y-81157347D01*
X57677314Y-81123700D01*
X57664088Y-80989417D01*
X57624919Y-80860294D01*
X57561312Y-80741293D01*
X57475711Y-80636989D01*
X57371407Y-80551388D01*
X57252406Y-80487781D01*
X57123283Y-80448612D01*
X57022647Y-80438700D01*
X56989000Y-80435386D01*
X56955353Y-80438700D01*
X43023097Y-80438700D01*
X42989450Y-80435386D01*
X42955803Y-80438700D01*
X42855167Y-80448612D01*
X42726044Y-80487781D01*
X42607043Y-80551388D01*
X42502739Y-80636989D01*
X42417138Y-80741293D01*
X42353531Y-80860294D01*
X42314362Y-80989417D01*
X42301136Y-81123700D01*
X39649000Y-81123700D01*
X39649000Y-78305626D01*
X56790000Y-78305626D01*
X56790000Y-78844374D01*
X56895105Y-79372770D01*
X57101275Y-79870508D01*
X57400587Y-80318461D01*
X57781539Y-80699413D01*
X58229492Y-80998725D01*
X58727230Y-81204895D01*
X59255626Y-81310000D01*
X59794374Y-81310000D01*
X60322770Y-81204895D01*
X60518791Y-81123700D01*
X61351186Y-81123700D01*
X61354501Y-81157357D01*
X61354500Y-95089513D01*
X61351186Y-95123160D01*
X61364412Y-95257443D01*
X61403581Y-95386566D01*
X61467188Y-95505567D01*
X61552789Y-95609871D01*
X61657093Y-95695472D01*
X61776094Y-95759079D01*
X61905217Y-95798248D01*
X62039500Y-95811474D01*
X62073147Y-95808160D01*
X76005153Y-95808160D01*
X76038800Y-95811474D01*
X76173083Y-95798248D01*
X76302206Y-95759079D01*
X76421207Y-95695472D01*
X76525511Y-95609871D01*
X76611112Y-95505567D01*
X76674719Y-95386566D01*
X76713888Y-95257443D01*
X76723800Y-95156807D01*
X76723800Y-95156806D01*
X76727114Y-95123160D01*
X76723800Y-95089513D01*
X76723800Y-81157347D01*
X76727114Y-81123700D01*
X80401186Y-81123700D01*
X80404501Y-81157357D01*
X80404500Y-95089513D01*
X80401186Y-95123160D01*
X80414412Y-95257443D01*
X80453581Y-95386566D01*
X80517188Y-95505567D01*
X80602789Y-95609871D01*
X80707093Y-95695472D01*
X80826094Y-95759079D01*
X80955217Y-95798248D01*
X81089500Y-95811474D01*
X81123147Y-95808160D01*
X95055153Y-95808160D01*
X95088800Y-95811474D01*
X95223083Y-95798248D01*
X95352206Y-95759079D01*
X95471207Y-95695472D01*
X95575511Y-95609871D01*
X95661112Y-95505567D01*
X95724719Y-95386566D01*
X95763888Y-95257443D01*
X95773800Y-95156807D01*
X95773800Y-95156806D01*
X95777114Y-95123160D01*
X95773800Y-95089513D01*
X95773800Y-81157347D01*
X95777114Y-81123700D01*
X95763888Y-80989417D01*
X95724719Y-80860294D01*
X95661112Y-80741293D01*
X95575511Y-80636989D01*
X95471207Y-80551388D01*
X95352206Y-80487781D01*
X95223083Y-80448612D01*
X95122447Y-80438700D01*
X95088800Y-80435386D01*
X95055153Y-80438700D01*
X81123147Y-80438700D01*
X81089500Y-80435386D01*
X81055853Y-80438700D01*
X80955217Y-80448612D01*
X80826094Y-80487781D01*
X80707093Y-80551388D01*
X80602789Y-80636989D01*
X80517188Y-80741293D01*
X80453581Y-80860294D01*
X80414412Y-80989417D01*
X80401186Y-81123700D01*
X76727114Y-81123700D01*
X76713888Y-80989417D01*
X76674719Y-80860294D01*
X76611112Y-80741293D01*
X76525511Y-80636989D01*
X76421207Y-80551388D01*
X76302206Y-80487781D01*
X76173083Y-80448612D01*
X76072447Y-80438700D01*
X76038800Y-80435386D01*
X76005153Y-80438700D01*
X62073147Y-80438700D01*
X62039500Y-80435386D01*
X62005853Y-80438700D01*
X61905217Y-80448612D01*
X61776094Y-80487781D01*
X61657093Y-80551388D01*
X61552789Y-80636989D01*
X61467188Y-80741293D01*
X61403581Y-80860294D01*
X61364412Y-80989417D01*
X61351186Y-81123700D01*
X60518791Y-81123700D01*
X60820508Y-80998725D01*
X61268461Y-80699413D01*
X61649413Y-80318461D01*
X61948725Y-79870508D01*
X62154895Y-79372770D01*
X62260000Y-78844374D01*
X62260000Y-78305626D01*
X94890000Y-78305626D01*
X94890000Y-78844374D01*
X94995105Y-79372770D01*
X95201275Y-79870508D01*
X95500587Y-80318461D01*
X95881539Y-80699413D01*
X96329492Y-80998725D01*
X96827230Y-81204895D01*
X97355626Y-81310000D01*
X97894374Y-81310000D01*
X98422770Y-81204895D01*
X98618791Y-81123700D01*
X99451186Y-81123700D01*
X99454501Y-81157357D01*
X99454500Y-95089513D01*
X99451186Y-95123160D01*
X99464412Y-95257443D01*
X99503581Y-95386566D01*
X99567188Y-95505567D01*
X99652789Y-95609871D01*
X99757093Y-95695472D01*
X99876094Y-95759079D01*
X100005217Y-95798248D01*
X100139500Y-95811474D01*
X100173147Y-95808160D01*
X114105153Y-95808160D01*
X114138800Y-95811474D01*
X114273083Y-95798248D01*
X114402206Y-95759079D01*
X114521207Y-95695472D01*
X114625511Y-95609871D01*
X114711112Y-95505567D01*
X114774719Y-95386566D01*
X114813888Y-95257443D01*
X114823800Y-95156807D01*
X114823800Y-95156806D01*
X114827114Y-95123160D01*
X114823800Y-95089513D01*
X114823800Y-81157347D01*
X114827114Y-81123700D01*
X118501186Y-81123700D01*
X118504501Y-81157357D01*
X118504500Y-95089513D01*
X118501186Y-95123160D01*
X118514412Y-95257443D01*
X118553581Y-95386566D01*
X118617188Y-95505567D01*
X118702789Y-95609871D01*
X118807093Y-95695472D01*
X118926094Y-95759079D01*
X119055217Y-95798248D01*
X119189500Y-95811474D01*
X119223147Y-95808160D01*
X133155153Y-95808160D01*
X133188800Y-95811474D01*
X133323083Y-95798248D01*
X133452206Y-95759079D01*
X133571207Y-95695472D01*
X133675511Y-95609871D01*
X133761112Y-95505567D01*
X133824719Y-95386566D01*
X133863888Y-95257443D01*
X133873800Y-95156807D01*
X133873800Y-95156806D01*
X133877114Y-95123160D01*
X133873800Y-95089513D01*
X133873800Y-81157347D01*
X133877114Y-81123700D01*
X133863888Y-80989417D01*
X133824719Y-80860294D01*
X133761112Y-80741293D01*
X133675511Y-80636989D01*
X133571207Y-80551388D01*
X133452206Y-80487781D01*
X133323083Y-80448612D01*
X133222447Y-80438700D01*
X133188800Y-80435386D01*
X133155153Y-80438700D01*
X119223147Y-80438700D01*
X119189500Y-80435386D01*
X119155853Y-80438700D01*
X119055217Y-80448612D01*
X118926094Y-80487781D01*
X118807093Y-80551388D01*
X118702789Y-80636989D01*
X118617188Y-80741293D01*
X118553581Y-80860294D01*
X118514412Y-80989417D01*
X118501186Y-81123700D01*
X114827114Y-81123700D01*
X114813888Y-80989417D01*
X114774719Y-80860294D01*
X114711112Y-80741293D01*
X114625511Y-80636989D01*
X114521207Y-80551388D01*
X114402206Y-80487781D01*
X114273083Y-80448612D01*
X114172447Y-80438700D01*
X114138800Y-80435386D01*
X114105153Y-80438700D01*
X100173147Y-80438700D01*
X100139500Y-80435386D01*
X100105853Y-80438700D01*
X100005217Y-80448612D01*
X99876094Y-80487781D01*
X99757093Y-80551388D01*
X99652789Y-80636989D01*
X99567188Y-80741293D01*
X99503581Y-80860294D01*
X99464412Y-80989417D01*
X99451186Y-81123700D01*
X98618791Y-81123700D01*
X98920508Y-80998725D01*
X99368461Y-80699413D01*
X99749413Y-80318461D01*
X100048725Y-79870508D01*
X100254895Y-79372770D01*
X100360000Y-78844374D01*
X100360000Y-78305626D01*
X132990000Y-78305626D01*
X132990000Y-78844374D01*
X133095105Y-79372770D01*
X133301275Y-79870508D01*
X133600587Y-80318461D01*
X133981539Y-80699413D01*
X134429492Y-80998725D01*
X134927230Y-81204895D01*
X135455626Y-81310000D01*
X135994374Y-81310000D01*
X136522770Y-81204895D01*
X136718791Y-81123700D01*
X137549786Y-81123700D01*
X137553101Y-81157357D01*
X137553100Y-95089513D01*
X137549786Y-95123160D01*
X137563012Y-95257443D01*
X137602181Y-95386566D01*
X137665788Y-95505567D01*
X137751389Y-95609871D01*
X137855693Y-95695472D01*
X137974694Y-95759079D01*
X138103817Y-95798248D01*
X138238100Y-95811474D01*
X138271747Y-95808160D01*
X152205153Y-95808160D01*
X152238800Y-95811474D01*
X152373083Y-95798248D01*
X152502206Y-95759079D01*
X152621207Y-95695472D01*
X152725511Y-95609871D01*
X152811112Y-95505567D01*
X152874719Y-95386566D01*
X152913888Y-95257443D01*
X152923800Y-95156807D01*
X152923800Y-95156806D01*
X152927114Y-95123160D01*
X152923800Y-95089513D01*
X152923800Y-81157347D01*
X152927114Y-81123700D01*
X156599486Y-81123700D01*
X156602801Y-81157357D01*
X156602800Y-95089513D01*
X156599486Y-95123160D01*
X156612712Y-95257443D01*
X156651881Y-95386566D01*
X156715488Y-95505567D01*
X156801089Y-95609871D01*
X156905393Y-95695472D01*
X157024394Y-95759079D01*
X157153517Y-95798248D01*
X157287800Y-95811474D01*
X157321447Y-95808160D01*
X171255153Y-95808160D01*
X171288800Y-95811474D01*
X171423083Y-95798248D01*
X171552206Y-95759079D01*
X171671207Y-95695472D01*
X171775511Y-95609871D01*
X171861112Y-95505567D01*
X171924719Y-95386566D01*
X171963888Y-95257443D01*
X171973800Y-95156807D01*
X171973800Y-95156806D01*
X171977114Y-95123160D01*
X171973800Y-95089513D01*
X171973800Y-81157347D01*
X171977114Y-81123700D01*
X171963888Y-80989417D01*
X171924719Y-80860294D01*
X171861112Y-80741293D01*
X171775511Y-80636989D01*
X171671207Y-80551388D01*
X171552206Y-80487781D01*
X171423083Y-80448612D01*
X171322447Y-80438700D01*
X171288800Y-80435386D01*
X171255153Y-80438700D01*
X157321447Y-80438700D01*
X157287800Y-80435386D01*
X157254153Y-80438700D01*
X157153517Y-80448612D01*
X157024394Y-80487781D01*
X156905393Y-80551388D01*
X156801089Y-80636989D01*
X156715488Y-80741293D01*
X156651881Y-80860294D01*
X156612712Y-80989417D01*
X156599486Y-81123700D01*
X152927114Y-81123700D01*
X152913888Y-80989417D01*
X152874719Y-80860294D01*
X152811112Y-80741293D01*
X152725511Y-80636989D01*
X152621207Y-80551388D01*
X152502206Y-80487781D01*
X152373083Y-80448612D01*
X152272447Y-80438700D01*
X152238800Y-80435386D01*
X152205153Y-80438700D01*
X138271747Y-80438700D01*
X138238100Y-80435386D01*
X138204453Y-80438700D01*
X138103817Y-80448612D01*
X137974694Y-80487781D01*
X137855693Y-80551388D01*
X137751389Y-80636989D01*
X137665788Y-80741293D01*
X137602181Y-80860294D01*
X137563012Y-80989417D01*
X137549786Y-81123700D01*
X136718791Y-81123700D01*
X137020508Y-80998725D01*
X137468461Y-80699413D01*
X137849413Y-80318461D01*
X138148725Y-79870508D01*
X138354895Y-79372770D01*
X138460000Y-78844374D01*
X138460000Y-78305626D01*
X138354895Y-77777230D01*
X138148725Y-77279492D01*
X137849413Y-76831539D01*
X137468461Y-76450587D01*
X137020508Y-76151275D01*
X136522770Y-75945105D01*
X135994374Y-75840000D01*
X135455626Y-75840000D01*
X134927230Y-75945105D01*
X134429492Y-76151275D01*
X133981539Y-76450587D01*
X133600587Y-76831539D01*
X133301275Y-77279492D01*
X133095105Y-77777230D01*
X132990000Y-78305626D01*
X100360000Y-78305626D01*
X100254895Y-77777230D01*
X100048725Y-77279492D01*
X99749413Y-76831539D01*
X99368461Y-76450587D01*
X98920508Y-76151275D01*
X98422770Y-75945105D01*
X97894374Y-75840000D01*
X97355626Y-75840000D01*
X96827230Y-75945105D01*
X96329492Y-76151275D01*
X95881539Y-76450587D01*
X95500587Y-76831539D01*
X95201275Y-77279492D01*
X94995105Y-77777230D01*
X94890000Y-78305626D01*
X62260000Y-78305626D01*
X62154895Y-77777230D01*
X61948725Y-77279492D01*
X61649413Y-76831539D01*
X61268461Y-76450587D01*
X60820508Y-76151275D01*
X60322770Y-75945105D01*
X59794374Y-75840000D01*
X59255626Y-75840000D01*
X58727230Y-75945105D01*
X58229492Y-76151275D01*
X57781539Y-76450587D01*
X57400587Y-76831539D01*
X57101275Y-77279492D01*
X56895105Y-77777230D01*
X56790000Y-78305626D01*
X39649000Y-78305626D01*
X39649000Y-62073800D01*
X42301136Y-62073800D01*
X42304451Y-62107457D01*
X42304450Y-76039553D01*
X42301136Y-76073200D01*
X42314362Y-76207483D01*
X42353531Y-76336606D01*
X42417138Y-76455607D01*
X42502739Y-76559911D01*
X42607043Y-76645512D01*
X42726044Y-76709119D01*
X42855167Y-76748288D01*
X42989450Y-76761514D01*
X43023097Y-76758200D01*
X56955353Y-76758200D01*
X56989000Y-76761514D01*
X57123283Y-76748288D01*
X57252406Y-76709119D01*
X57371407Y-76645512D01*
X57475711Y-76559911D01*
X57561312Y-76455607D01*
X57624919Y-76336606D01*
X57664088Y-76207483D01*
X57674000Y-76106847D01*
X57674000Y-76106846D01*
X57677314Y-76073200D01*
X57674000Y-76039553D01*
X57674000Y-62107447D01*
X57677314Y-62073800D01*
X57664088Y-61939517D01*
X57624919Y-61810394D01*
X57561312Y-61691393D01*
X57475711Y-61587089D01*
X57371407Y-61501488D01*
X57252406Y-61437881D01*
X57123283Y-61398712D01*
X57022647Y-61388800D01*
X56989000Y-61385486D01*
X56955353Y-61388800D01*
X43023097Y-61388800D01*
X42989450Y-61385486D01*
X42955803Y-61388800D01*
X42855167Y-61398712D01*
X42726044Y-61437881D01*
X42607043Y-61501488D01*
X42502739Y-61587089D01*
X42417138Y-61691393D01*
X42353531Y-61810394D01*
X42314362Y-61939517D01*
X42301136Y-62073800D01*
X39649000Y-62073800D01*
X39649000Y-59255626D01*
X56790000Y-59255626D01*
X56790000Y-59794374D01*
X56895105Y-60322770D01*
X57101275Y-60820508D01*
X57400587Y-61268461D01*
X57781539Y-61649413D01*
X58229492Y-61948725D01*
X58727230Y-62154895D01*
X59255626Y-62260000D01*
X59794374Y-62260000D01*
X60322770Y-62154895D01*
X60518550Y-62073800D01*
X61351186Y-62073800D01*
X61354501Y-62107457D01*
X61354500Y-76039553D01*
X61351186Y-76073200D01*
X61364412Y-76207483D01*
X61403581Y-76336606D01*
X61467188Y-76455607D01*
X61552789Y-76559911D01*
X61657093Y-76645512D01*
X61776094Y-76709119D01*
X61905217Y-76748288D01*
X62039500Y-76761514D01*
X62073147Y-76758200D01*
X76005153Y-76758200D01*
X76038800Y-76761514D01*
X76173083Y-76748288D01*
X76302206Y-76709119D01*
X76421207Y-76645512D01*
X76525511Y-76559911D01*
X76611112Y-76455607D01*
X76674719Y-76336606D01*
X76713888Y-76207483D01*
X76723800Y-76106847D01*
X76723800Y-76106846D01*
X76727114Y-76073200D01*
X76723800Y-76039553D01*
X76723800Y-62107447D01*
X76727114Y-62073800D01*
X80401186Y-62073800D01*
X80404501Y-62107457D01*
X80404500Y-76039553D01*
X80401186Y-76073200D01*
X80414412Y-76207483D01*
X80453581Y-76336606D01*
X80517188Y-76455607D01*
X80602789Y-76559911D01*
X80707093Y-76645512D01*
X80826094Y-76709119D01*
X80955217Y-76748288D01*
X81089500Y-76761514D01*
X81123147Y-76758200D01*
X95055153Y-76758200D01*
X95088800Y-76761514D01*
X95223083Y-76748288D01*
X95352206Y-76709119D01*
X95471207Y-76645512D01*
X95575511Y-76559911D01*
X95661112Y-76455607D01*
X95724719Y-76336606D01*
X95763888Y-76207483D01*
X95773800Y-76106847D01*
X95773800Y-76106846D01*
X95777114Y-76073200D01*
X95773800Y-76039553D01*
X95773800Y-62107447D01*
X95777114Y-62073800D01*
X95763888Y-61939517D01*
X95724719Y-61810394D01*
X95661112Y-61691393D01*
X95575511Y-61587089D01*
X95471207Y-61501488D01*
X95352206Y-61437881D01*
X95223083Y-61398712D01*
X95122447Y-61388800D01*
X95088800Y-61385486D01*
X95055153Y-61388800D01*
X81123147Y-61388800D01*
X81089500Y-61385486D01*
X81055853Y-61388800D01*
X80955217Y-61398712D01*
X80826094Y-61437881D01*
X80707093Y-61501488D01*
X80602789Y-61587089D01*
X80517188Y-61691393D01*
X80453581Y-61810394D01*
X80414412Y-61939517D01*
X80401186Y-62073800D01*
X76727114Y-62073800D01*
X76713888Y-61939517D01*
X76674719Y-61810394D01*
X76611112Y-61691393D01*
X76525511Y-61587089D01*
X76421207Y-61501488D01*
X76302206Y-61437881D01*
X76173083Y-61398712D01*
X76072447Y-61388800D01*
X76038800Y-61385486D01*
X76005153Y-61388800D01*
X62073147Y-61388800D01*
X62039500Y-61385486D01*
X62005853Y-61388800D01*
X61905217Y-61398712D01*
X61776094Y-61437881D01*
X61657093Y-61501488D01*
X61552789Y-61587089D01*
X61467188Y-61691393D01*
X61403581Y-61810394D01*
X61364412Y-61939517D01*
X61351186Y-62073800D01*
X60518550Y-62073800D01*
X60820508Y-61948725D01*
X61268461Y-61649413D01*
X61649413Y-61268461D01*
X61948725Y-60820508D01*
X62154895Y-60322770D01*
X62260000Y-59794374D01*
X62260000Y-59255626D01*
X94890000Y-59255626D01*
X94890000Y-59794374D01*
X94995105Y-60322770D01*
X95201275Y-60820508D01*
X95500587Y-61268461D01*
X95881539Y-61649413D01*
X96329492Y-61948725D01*
X96827230Y-62154895D01*
X97355626Y-62260000D01*
X97894374Y-62260000D01*
X98422770Y-62154895D01*
X98618550Y-62073800D01*
X99451186Y-62073800D01*
X99454501Y-62107457D01*
X99454500Y-76039553D01*
X99451186Y-76073200D01*
X99464412Y-76207483D01*
X99503581Y-76336606D01*
X99567188Y-76455607D01*
X99652789Y-76559911D01*
X99757093Y-76645512D01*
X99876094Y-76709119D01*
X100005217Y-76748288D01*
X100139500Y-76761514D01*
X100173147Y-76758200D01*
X114105153Y-76758200D01*
X114138800Y-76761514D01*
X114273083Y-76748288D01*
X114402206Y-76709119D01*
X114521207Y-76645512D01*
X114625511Y-76559911D01*
X114711112Y-76455607D01*
X114774719Y-76336606D01*
X114813888Y-76207483D01*
X114823800Y-76106847D01*
X114823800Y-76106846D01*
X114827114Y-76073200D01*
X114823800Y-76039553D01*
X114823800Y-62107447D01*
X114827114Y-62073800D01*
X118501186Y-62073800D01*
X118504501Y-62107457D01*
X118504500Y-76039553D01*
X118501186Y-76073200D01*
X118514412Y-76207483D01*
X118553581Y-76336606D01*
X118617188Y-76455607D01*
X118702789Y-76559911D01*
X118807093Y-76645512D01*
X118926094Y-76709119D01*
X119055217Y-76748288D01*
X119189500Y-76761514D01*
X119223147Y-76758200D01*
X133155153Y-76758200D01*
X133188800Y-76761514D01*
X133323083Y-76748288D01*
X133452206Y-76709119D01*
X133571207Y-76645512D01*
X133675511Y-76559911D01*
X133761112Y-76455607D01*
X133824719Y-76336606D01*
X133863888Y-76207483D01*
X133873800Y-76106847D01*
X133873800Y-76106846D01*
X133877114Y-76073200D01*
X133873800Y-76039553D01*
X133873800Y-62107447D01*
X133877114Y-62073800D01*
X133863888Y-61939517D01*
X133824719Y-61810394D01*
X133761112Y-61691393D01*
X133675511Y-61587089D01*
X133571207Y-61501488D01*
X133452206Y-61437881D01*
X133323083Y-61398712D01*
X133222447Y-61388800D01*
X133188800Y-61385486D01*
X133155153Y-61388800D01*
X119223147Y-61388800D01*
X119189500Y-61385486D01*
X119155853Y-61388800D01*
X119055217Y-61398712D01*
X118926094Y-61437881D01*
X118807093Y-61501488D01*
X118702789Y-61587089D01*
X118617188Y-61691393D01*
X118553581Y-61810394D01*
X118514412Y-61939517D01*
X118501186Y-62073800D01*
X114827114Y-62073800D01*
X114813888Y-61939517D01*
X114774719Y-61810394D01*
X114711112Y-61691393D01*
X114625511Y-61587089D01*
X114521207Y-61501488D01*
X114402206Y-61437881D01*
X114273083Y-61398712D01*
X114172447Y-61388800D01*
X114138800Y-61385486D01*
X114105153Y-61388800D01*
X100173147Y-61388800D01*
X100139500Y-61385486D01*
X100105853Y-61388800D01*
X100005217Y-61398712D01*
X99876094Y-61437881D01*
X99757093Y-61501488D01*
X99652789Y-61587089D01*
X99567188Y-61691393D01*
X99503581Y-61810394D01*
X99464412Y-61939517D01*
X99451186Y-62073800D01*
X98618550Y-62073800D01*
X98920508Y-61948725D01*
X99368461Y-61649413D01*
X99749413Y-61268461D01*
X100048725Y-60820508D01*
X100254895Y-60322770D01*
X100360000Y-59794374D01*
X100360000Y-59255626D01*
X132990000Y-59255626D01*
X132990000Y-59794374D01*
X133095105Y-60322770D01*
X133301275Y-60820508D01*
X133600587Y-61268461D01*
X133981539Y-61649413D01*
X134429492Y-61948725D01*
X134927230Y-62154895D01*
X135455626Y-62260000D01*
X135994374Y-62260000D01*
X136522770Y-62154895D01*
X136718550Y-62073800D01*
X137549786Y-62073800D01*
X137553101Y-62107457D01*
X137553100Y-76039553D01*
X137549786Y-76073200D01*
X137563012Y-76207483D01*
X137602181Y-76336606D01*
X137665788Y-76455607D01*
X137751389Y-76559911D01*
X137855693Y-76645512D01*
X137974694Y-76709119D01*
X138103817Y-76748288D01*
X138238100Y-76761514D01*
X138271747Y-76758200D01*
X152205153Y-76758200D01*
X152238800Y-76761514D01*
X152373083Y-76748288D01*
X152502206Y-76709119D01*
X152621207Y-76645512D01*
X152725511Y-76559911D01*
X152811112Y-76455607D01*
X152874719Y-76336606D01*
X152913888Y-76207483D01*
X152923800Y-76106847D01*
X152923800Y-76106846D01*
X152927114Y-76073200D01*
X152923800Y-76039553D01*
X152923800Y-62107447D01*
X152927114Y-62073800D01*
X152913888Y-61939517D01*
X152874719Y-61810394D01*
X152811112Y-61691393D01*
X152725511Y-61587089D01*
X152621207Y-61501488D01*
X152502206Y-61437881D01*
X152373083Y-61398712D01*
X152272447Y-61388800D01*
X152238800Y-61385486D01*
X152205153Y-61388800D01*
X138271747Y-61388800D01*
X138238100Y-61385486D01*
X138204453Y-61388800D01*
X138103817Y-61398712D01*
X137974694Y-61437881D01*
X137855693Y-61501488D01*
X137751389Y-61587089D01*
X137665788Y-61691393D01*
X137602181Y-61810394D01*
X137563012Y-61939517D01*
X137549786Y-62073800D01*
X136718550Y-62073800D01*
X137020508Y-61948725D01*
X137468461Y-61649413D01*
X137849413Y-61268461D01*
X138148725Y-60820508D01*
X138354895Y-60322770D01*
X138460000Y-59794374D01*
X138460000Y-59255626D01*
X138354895Y-58727230D01*
X138148725Y-58229492D01*
X137849413Y-57781539D01*
X137468461Y-57400587D01*
X137020508Y-57101275D01*
X136522770Y-56895105D01*
X135994374Y-56790000D01*
X135455626Y-56790000D01*
X134927230Y-56895105D01*
X134429492Y-57101275D01*
X133981539Y-57400587D01*
X133600587Y-57781539D01*
X133301275Y-58229492D01*
X133095105Y-58727230D01*
X132990000Y-59255626D01*
X100360000Y-59255626D01*
X100254895Y-58727230D01*
X100048725Y-58229492D01*
X99749413Y-57781539D01*
X99368461Y-57400587D01*
X98920508Y-57101275D01*
X98422770Y-56895105D01*
X97894374Y-56790000D01*
X97355626Y-56790000D01*
X96827230Y-56895105D01*
X96329492Y-57101275D01*
X95881539Y-57400587D01*
X95500587Y-57781539D01*
X95201275Y-58229492D01*
X94995105Y-58727230D01*
X94890000Y-59255626D01*
X62260000Y-59255626D01*
X62154895Y-58727230D01*
X61948725Y-58229492D01*
X61649413Y-57781539D01*
X61268461Y-57400587D01*
X60820508Y-57101275D01*
X60322770Y-56895105D01*
X59794374Y-56790000D01*
X59255626Y-56790000D01*
X58727230Y-56895105D01*
X58229492Y-57101275D01*
X57781539Y-57400587D01*
X57400587Y-57781539D01*
X57101275Y-58229492D01*
X56895105Y-58727230D01*
X56790000Y-59255626D01*
X39649000Y-59255626D01*
X39649000Y-43023700D01*
X42301136Y-43023700D01*
X42304451Y-43057357D01*
X42304450Y-56989353D01*
X42301136Y-57023000D01*
X42314362Y-57157283D01*
X42353531Y-57286406D01*
X42417138Y-57405407D01*
X42502739Y-57509711D01*
X42607043Y-57595312D01*
X42726044Y-57658919D01*
X42855167Y-57698088D01*
X42989450Y-57711314D01*
X43023097Y-57708000D01*
X56955353Y-57708000D01*
X56989000Y-57711314D01*
X57123283Y-57698088D01*
X57252406Y-57658919D01*
X57371407Y-57595312D01*
X57475711Y-57509711D01*
X57561312Y-57405407D01*
X57624919Y-57286406D01*
X57664088Y-57157283D01*
X57674000Y-57056647D01*
X57674000Y-57056646D01*
X57677314Y-57023000D01*
X57674000Y-56989353D01*
X57674000Y-43057347D01*
X57677314Y-43023700D01*
X61351186Y-43023700D01*
X61354501Y-43057357D01*
X61354500Y-56989353D01*
X61351186Y-57023000D01*
X61364412Y-57157283D01*
X61403581Y-57286406D01*
X61467188Y-57405407D01*
X61552789Y-57509711D01*
X61657093Y-57595312D01*
X61776094Y-57658919D01*
X61905217Y-57698088D01*
X62039500Y-57711314D01*
X62073147Y-57708000D01*
X76005153Y-57708000D01*
X76038800Y-57711314D01*
X76173083Y-57698088D01*
X76302206Y-57658919D01*
X76421207Y-57595312D01*
X76525511Y-57509711D01*
X76611112Y-57405407D01*
X76674719Y-57286406D01*
X76713888Y-57157283D01*
X76723800Y-57056647D01*
X76723800Y-57056646D01*
X76727114Y-57023000D01*
X76723800Y-56989353D01*
X76723800Y-43057347D01*
X76727114Y-43023700D01*
X80401186Y-43023700D01*
X80404501Y-43057357D01*
X80404500Y-56989353D01*
X80401186Y-57023000D01*
X80414412Y-57157283D01*
X80453581Y-57286406D01*
X80517188Y-57405407D01*
X80602789Y-57509711D01*
X80707093Y-57595312D01*
X80826094Y-57658919D01*
X80955217Y-57698088D01*
X81089500Y-57711314D01*
X81123147Y-57708000D01*
X95055153Y-57708000D01*
X95088800Y-57711314D01*
X95223083Y-57698088D01*
X95352206Y-57658919D01*
X95471207Y-57595312D01*
X95575511Y-57509711D01*
X95661112Y-57405407D01*
X95724719Y-57286406D01*
X95763888Y-57157283D01*
X95773800Y-57056647D01*
X95773800Y-57056646D01*
X95777114Y-57023000D01*
X95773800Y-56989353D01*
X95773800Y-43057347D01*
X95777114Y-43023700D01*
X99451186Y-43023700D01*
X99454501Y-43057357D01*
X99454500Y-56989353D01*
X99451186Y-57023000D01*
X99464412Y-57157283D01*
X99503581Y-57286406D01*
X99567188Y-57405407D01*
X99652789Y-57509711D01*
X99757093Y-57595312D01*
X99876094Y-57658919D01*
X100005217Y-57698088D01*
X100139500Y-57711314D01*
X100173147Y-57708000D01*
X114105153Y-57708000D01*
X114138800Y-57711314D01*
X114273083Y-57698088D01*
X114402206Y-57658919D01*
X114521207Y-57595312D01*
X114625511Y-57509711D01*
X114711112Y-57405407D01*
X114774719Y-57286406D01*
X114813888Y-57157283D01*
X114823800Y-57056647D01*
X114823800Y-57056646D01*
X114827114Y-57023000D01*
X114823800Y-56989353D01*
X114823800Y-43057347D01*
X114827114Y-43023700D01*
X118501186Y-43023700D01*
X118504501Y-43057357D01*
X118504500Y-56989353D01*
X118501186Y-57023000D01*
X118514412Y-57157283D01*
X118553581Y-57286406D01*
X118617188Y-57405407D01*
X118702789Y-57509711D01*
X118807093Y-57595312D01*
X118926094Y-57658919D01*
X119055217Y-57698088D01*
X119189500Y-57711314D01*
X119223147Y-57708000D01*
X133155153Y-57708000D01*
X133188800Y-57711314D01*
X133323083Y-57698088D01*
X133452206Y-57658919D01*
X133571207Y-57595312D01*
X133675511Y-57509711D01*
X133761112Y-57405407D01*
X133824719Y-57286406D01*
X133863888Y-57157283D01*
X133873800Y-57056647D01*
X133873800Y-57056646D01*
X133877114Y-57023000D01*
X133873800Y-56989353D01*
X133873800Y-43057347D01*
X133877114Y-43023700D01*
X137549786Y-43023700D01*
X137553101Y-43057357D01*
X137553100Y-56989353D01*
X137549786Y-57023000D01*
X137563012Y-57157283D01*
X137602181Y-57286406D01*
X137665788Y-57405407D01*
X137751389Y-57509711D01*
X137855693Y-57595312D01*
X137974694Y-57658919D01*
X138103817Y-57698088D01*
X138238100Y-57711314D01*
X138271747Y-57708000D01*
X152205153Y-57708000D01*
X152238800Y-57711314D01*
X152373083Y-57698088D01*
X152502206Y-57658919D01*
X152621207Y-57595312D01*
X152725511Y-57509711D01*
X152811112Y-57405407D01*
X152874719Y-57286406D01*
X152913888Y-57157283D01*
X152923800Y-57056647D01*
X152923800Y-57056646D01*
X152927114Y-57023000D01*
X152923800Y-56989353D01*
X152923800Y-43057347D01*
X152927114Y-43023700D01*
X152913888Y-42889417D01*
X152874719Y-42760294D01*
X152811112Y-42641293D01*
X152725511Y-42536989D01*
X152621207Y-42451388D01*
X152502206Y-42387781D01*
X152373083Y-42348612D01*
X152272447Y-42338700D01*
X152238800Y-42335386D01*
X152205153Y-42338700D01*
X138271747Y-42338700D01*
X138238100Y-42335386D01*
X138204453Y-42338700D01*
X138103817Y-42348612D01*
X137974694Y-42387781D01*
X137855693Y-42451388D01*
X137751389Y-42536989D01*
X137665788Y-42641293D01*
X137602181Y-42760294D01*
X137563012Y-42889417D01*
X137549786Y-43023700D01*
X133877114Y-43023700D01*
X133863888Y-42889417D01*
X133824719Y-42760294D01*
X133761112Y-42641293D01*
X133675511Y-42536989D01*
X133571207Y-42451388D01*
X133452206Y-42387781D01*
X133323083Y-42348612D01*
X133222447Y-42338700D01*
X133188800Y-42335386D01*
X133155153Y-42338700D01*
X119223147Y-42338700D01*
X119189500Y-42335386D01*
X119155853Y-42338700D01*
X119055217Y-42348612D01*
X118926094Y-42387781D01*
X118807093Y-42451388D01*
X118702789Y-42536989D01*
X118617188Y-42641293D01*
X118553581Y-42760294D01*
X118514412Y-42889417D01*
X118501186Y-43023700D01*
X114827114Y-43023700D01*
X114813888Y-42889417D01*
X114774719Y-42760294D01*
X114711112Y-42641293D01*
X114625511Y-42536989D01*
X114521207Y-42451388D01*
X114402206Y-42387781D01*
X114273083Y-42348612D01*
X114172447Y-42338700D01*
X114138800Y-42335386D01*
X114105153Y-42338700D01*
X100173147Y-42338700D01*
X100139500Y-42335386D01*
X100105853Y-42338700D01*
X100005217Y-42348612D01*
X99876094Y-42387781D01*
X99757093Y-42451388D01*
X99652789Y-42536989D01*
X99567188Y-42641293D01*
X99503581Y-42760294D01*
X99464412Y-42889417D01*
X99451186Y-43023700D01*
X95777114Y-43023700D01*
X95763888Y-42889417D01*
X95724719Y-42760294D01*
X95661112Y-42641293D01*
X95575511Y-42536989D01*
X95471207Y-42451388D01*
X95352206Y-42387781D01*
X95223083Y-42348612D01*
X95122447Y-42338700D01*
X95088800Y-42335386D01*
X95055153Y-42338700D01*
X81123147Y-42338700D01*
X81089500Y-42335386D01*
X81055853Y-42338700D01*
X80955217Y-42348612D01*
X80826094Y-42387781D01*
X80707093Y-42451388D01*
X80602789Y-42536989D01*
X80517188Y-42641293D01*
X80453581Y-42760294D01*
X80414412Y-42889417D01*
X80401186Y-43023700D01*
X76727114Y-43023700D01*
X76713888Y-42889417D01*
X76674719Y-42760294D01*
X76611112Y-42641293D01*
X76525511Y-42536989D01*
X76421207Y-42451388D01*
X76302206Y-42387781D01*
X76173083Y-42348612D01*
X76072447Y-42338700D01*
X76038800Y-42335386D01*
X76005153Y-42338700D01*
X62073147Y-42338700D01*
X62039500Y-42335386D01*
X62005853Y-42338700D01*
X61905217Y-42348612D01*
X61776094Y-42387781D01*
X61657093Y-42451388D01*
X61552789Y-42536989D01*
X61467188Y-42641293D01*
X61403581Y-42760294D01*
X61364412Y-42889417D01*
X61351186Y-43023700D01*
X57677314Y-43023700D01*
X57664088Y-42889417D01*
X57624919Y-42760294D01*
X57561312Y-42641293D01*
X57475711Y-42536989D01*
X57371407Y-42451388D01*
X57252406Y-42387781D01*
X57123283Y-42348612D01*
X57022647Y-42338700D01*
X56989000Y-42335386D01*
X56955353Y-42338700D01*
X43023097Y-42338700D01*
X42989450Y-42335386D01*
X42955803Y-42338700D01*
X42855167Y-42348612D01*
X42726044Y-42387781D01*
X42607043Y-42451388D01*
X42502739Y-42536989D01*
X42417138Y-42641293D01*
X42353531Y-42760294D01*
X42314362Y-42889417D01*
X42301136Y-43023700D01*
X39649000Y-43023700D01*
X39649000Y-41561279D01*
X39687909Y-41164455D01*
X39793780Y-40813792D01*
X39965744Y-40490375D01*
X40197254Y-40206516D01*
X40479486Y-39973035D01*
X40801695Y-39798817D01*
X41151614Y-39690498D01*
X41546443Y-39649000D01*
X167417225Y-39649000D01*
X167424013Y-39649666D01*
G04 #@! TA.AperFunction,NonConductor*
D12*
G36*
X167424013Y-39649666D02*
G01*
X167424500Y-39654301D01*
X167424501Y-53372419D01*
X167427258Y-53400410D01*
X167427231Y-53404255D01*
X167428131Y-53413426D01*
X167441086Y-53536677D01*
X167453115Y-53595274D01*
X167464322Y-53654028D01*
X167466986Y-53662850D01*
X167503633Y-53781238D01*
X167526808Y-53836368D01*
X167549222Y-53891847D01*
X167553549Y-53899983D01*
X167612492Y-54008998D01*
X167645937Y-54058582D01*
X167678697Y-54108645D01*
X167684522Y-54115786D01*
X167763518Y-54211276D01*
X167805967Y-54253430D01*
X167847815Y-54296165D01*
X167854916Y-54302039D01*
X167950955Y-54380367D01*
X168000781Y-54413472D01*
X168050138Y-54447267D01*
X168058244Y-54451650D01*
X168167667Y-54509832D01*
X168222959Y-54532621D01*
X168277955Y-54556193D01*
X168286758Y-54558918D01*
X168405399Y-54594737D01*
X168464083Y-54606357D01*
X168522594Y-54618794D01*
X168531750Y-54619756D01*
X168531755Y-54619757D01*
X168531759Y-54619757D01*
X168655097Y-54631850D01*
X168655098Y-54631850D01*
X168687081Y-54635000D01*
X176116725Y-54635000D01*
X176123513Y-54635666D01*
X176124001Y-54640310D01*
X176124000Y-96487721D01*
X176085091Y-96884545D01*
X175979220Y-97235206D01*
X175807257Y-97558623D01*
X175575748Y-97842482D01*
X175293514Y-98075965D01*
X174971304Y-98250184D01*
X174621385Y-98358502D01*
X174226557Y-98400000D01*
X41561279Y-98400000D01*
X41164455Y-98361091D01*
X40813794Y-98255220D01*
X40490377Y-98083257D01*
X40206518Y-97851748D01*
X39973035Y-97569514D01*
X39798816Y-97247304D01*
X39690498Y-96897385D01*
X39649000Y-96502557D01*
X39649000Y-81123700D01*
X42301136Y-81123700D01*
X42304451Y-81157357D01*
X42304450Y-95089513D01*
X42301136Y-95123160D01*
X42314362Y-95257443D01*
X42353531Y-95386566D01*
X42417138Y-95505567D01*
X42502739Y-95609871D01*
X42607043Y-95695472D01*
X42726044Y-95759079D01*
X42855167Y-95798248D01*
X42989450Y-95811474D01*
X43023097Y-95808160D01*
X56955353Y-95808160D01*
X56989000Y-95811474D01*
X57123283Y-95798248D01*
X57252406Y-95759079D01*
X57371407Y-95695472D01*
X57475711Y-95609871D01*
X57561312Y-95505567D01*
X57624919Y-95386566D01*
X57664088Y-95257443D01*
X57674000Y-95156807D01*
X57674000Y-95156806D01*
X57677314Y-95123160D01*
X57674000Y-95089513D01*
X57674000Y-81157347D01*
X57677314Y-81123700D01*
X57664088Y-80989417D01*
X57624919Y-80860294D01*
X57561312Y-80741293D01*
X57475711Y-80636989D01*
X57371407Y-80551388D01*
X57252406Y-80487781D01*
X57123283Y-80448612D01*
X57022647Y-80438700D01*
X56989000Y-80435386D01*
X56955353Y-80438700D01*
X43023097Y-80438700D01*
X42989450Y-80435386D01*
X42955803Y-80438700D01*
X42855167Y-80448612D01*
X42726044Y-80487781D01*
X42607043Y-80551388D01*
X42502739Y-80636989D01*
X42417138Y-80741293D01*
X42353531Y-80860294D01*
X42314362Y-80989417D01*
X42301136Y-81123700D01*
X39649000Y-81123700D01*
X39649000Y-78305626D01*
X56790000Y-78305626D01*
X56790000Y-78844374D01*
X56895105Y-79372770D01*
X57101275Y-79870508D01*
X57400587Y-80318461D01*
X57781539Y-80699413D01*
X58229492Y-80998725D01*
X58727230Y-81204895D01*
X59255626Y-81310000D01*
X59794374Y-81310000D01*
X60322770Y-81204895D01*
X60518791Y-81123700D01*
X61351186Y-81123700D01*
X61354501Y-81157357D01*
X61354500Y-95089513D01*
X61351186Y-95123160D01*
X61364412Y-95257443D01*
X61403581Y-95386566D01*
X61467188Y-95505567D01*
X61552789Y-95609871D01*
X61657093Y-95695472D01*
X61776094Y-95759079D01*
X61905217Y-95798248D01*
X62039500Y-95811474D01*
X62073147Y-95808160D01*
X76005153Y-95808160D01*
X76038800Y-95811474D01*
X76173083Y-95798248D01*
X76302206Y-95759079D01*
X76421207Y-95695472D01*
X76525511Y-95609871D01*
X76611112Y-95505567D01*
X76674719Y-95386566D01*
X76713888Y-95257443D01*
X76723800Y-95156807D01*
X76723800Y-95156806D01*
X76727114Y-95123160D01*
X76723800Y-95089513D01*
X76723800Y-81157347D01*
X76727114Y-81123700D01*
X80401186Y-81123700D01*
X80404501Y-81157357D01*
X80404500Y-95089513D01*
X80401186Y-95123160D01*
X80414412Y-95257443D01*
X80453581Y-95386566D01*
X80517188Y-95505567D01*
X80602789Y-95609871D01*
X80707093Y-95695472D01*
X80826094Y-95759079D01*
X80955217Y-95798248D01*
X81089500Y-95811474D01*
X81123147Y-95808160D01*
X95055153Y-95808160D01*
X95088800Y-95811474D01*
X95223083Y-95798248D01*
X95352206Y-95759079D01*
X95471207Y-95695472D01*
X95575511Y-95609871D01*
X95661112Y-95505567D01*
X95724719Y-95386566D01*
X95763888Y-95257443D01*
X95773800Y-95156807D01*
X95773800Y-95156806D01*
X95777114Y-95123160D01*
X95773800Y-95089513D01*
X95773800Y-81157347D01*
X95777114Y-81123700D01*
X95763888Y-80989417D01*
X95724719Y-80860294D01*
X95661112Y-80741293D01*
X95575511Y-80636989D01*
X95471207Y-80551388D01*
X95352206Y-80487781D01*
X95223083Y-80448612D01*
X95122447Y-80438700D01*
X95088800Y-80435386D01*
X95055153Y-80438700D01*
X81123147Y-80438700D01*
X81089500Y-80435386D01*
X81055853Y-80438700D01*
X80955217Y-80448612D01*
X80826094Y-80487781D01*
X80707093Y-80551388D01*
X80602789Y-80636989D01*
X80517188Y-80741293D01*
X80453581Y-80860294D01*
X80414412Y-80989417D01*
X80401186Y-81123700D01*
X76727114Y-81123700D01*
X76713888Y-80989417D01*
X76674719Y-80860294D01*
X76611112Y-80741293D01*
X76525511Y-80636989D01*
X76421207Y-80551388D01*
X76302206Y-80487781D01*
X76173083Y-80448612D01*
X76072447Y-80438700D01*
X76038800Y-80435386D01*
X76005153Y-80438700D01*
X62073147Y-80438700D01*
X62039500Y-80435386D01*
X62005853Y-80438700D01*
X61905217Y-80448612D01*
X61776094Y-80487781D01*
X61657093Y-80551388D01*
X61552789Y-80636989D01*
X61467188Y-80741293D01*
X61403581Y-80860294D01*
X61364412Y-80989417D01*
X61351186Y-81123700D01*
X60518791Y-81123700D01*
X60820508Y-80998725D01*
X61268461Y-80699413D01*
X61649413Y-80318461D01*
X61948725Y-79870508D01*
X62154895Y-79372770D01*
X62260000Y-78844374D01*
X62260000Y-78305626D01*
X94890000Y-78305626D01*
X94890000Y-78844374D01*
X94995105Y-79372770D01*
X95201275Y-79870508D01*
X95500587Y-80318461D01*
X95881539Y-80699413D01*
X96329492Y-80998725D01*
X96827230Y-81204895D01*
X97355626Y-81310000D01*
X97894374Y-81310000D01*
X98422770Y-81204895D01*
X98618791Y-81123700D01*
X99451186Y-81123700D01*
X99454501Y-81157357D01*
X99454500Y-95089513D01*
X99451186Y-95123160D01*
X99464412Y-95257443D01*
X99503581Y-95386566D01*
X99567188Y-95505567D01*
X99652789Y-95609871D01*
X99757093Y-95695472D01*
X99876094Y-95759079D01*
X100005217Y-95798248D01*
X100139500Y-95811474D01*
X100173147Y-95808160D01*
X114105153Y-95808160D01*
X114138800Y-95811474D01*
X114273083Y-95798248D01*
X114402206Y-95759079D01*
X114521207Y-95695472D01*
X114625511Y-95609871D01*
X114711112Y-95505567D01*
X114774719Y-95386566D01*
X114813888Y-95257443D01*
X114823800Y-95156807D01*
X114823800Y-95156806D01*
X114827114Y-95123160D01*
X114823800Y-95089513D01*
X114823800Y-81157347D01*
X114827114Y-81123700D01*
X118501186Y-81123700D01*
X118504501Y-81157357D01*
X118504500Y-95089513D01*
X118501186Y-95123160D01*
X118514412Y-95257443D01*
X118553581Y-95386566D01*
X118617188Y-95505567D01*
X118702789Y-95609871D01*
X118807093Y-95695472D01*
X118926094Y-95759079D01*
X119055217Y-95798248D01*
X119189500Y-95811474D01*
X119223147Y-95808160D01*
X133155153Y-95808160D01*
X133188800Y-95811474D01*
X133323083Y-95798248D01*
X133452206Y-95759079D01*
X133571207Y-95695472D01*
X133675511Y-95609871D01*
X133761112Y-95505567D01*
X133824719Y-95386566D01*
X133863888Y-95257443D01*
X133873800Y-95156807D01*
X133873800Y-95156806D01*
X133877114Y-95123160D01*
X133873800Y-95089513D01*
X133873800Y-81157347D01*
X133877114Y-81123700D01*
X133863888Y-80989417D01*
X133824719Y-80860294D01*
X133761112Y-80741293D01*
X133675511Y-80636989D01*
X133571207Y-80551388D01*
X133452206Y-80487781D01*
X133323083Y-80448612D01*
X133222447Y-80438700D01*
X133188800Y-80435386D01*
X133155153Y-80438700D01*
X119223147Y-80438700D01*
X119189500Y-80435386D01*
X119155853Y-80438700D01*
X119055217Y-80448612D01*
X118926094Y-80487781D01*
X118807093Y-80551388D01*
X118702789Y-80636989D01*
X118617188Y-80741293D01*
X118553581Y-80860294D01*
X118514412Y-80989417D01*
X118501186Y-81123700D01*
X114827114Y-81123700D01*
X114813888Y-80989417D01*
X114774719Y-80860294D01*
X114711112Y-80741293D01*
X114625511Y-80636989D01*
X114521207Y-80551388D01*
X114402206Y-80487781D01*
X114273083Y-80448612D01*
X114172447Y-80438700D01*
X114138800Y-80435386D01*
X114105153Y-80438700D01*
X100173147Y-80438700D01*
X100139500Y-80435386D01*
X100105853Y-80438700D01*
X100005217Y-80448612D01*
X99876094Y-80487781D01*
X99757093Y-80551388D01*
X99652789Y-80636989D01*
X99567188Y-80741293D01*
X99503581Y-80860294D01*
X99464412Y-80989417D01*
X99451186Y-81123700D01*
X98618791Y-81123700D01*
X98920508Y-80998725D01*
X99368461Y-80699413D01*
X99749413Y-80318461D01*
X100048725Y-79870508D01*
X100254895Y-79372770D01*
X100360000Y-78844374D01*
X100360000Y-78305626D01*
X132990000Y-78305626D01*
X132990000Y-78844374D01*
X133095105Y-79372770D01*
X133301275Y-79870508D01*
X133600587Y-80318461D01*
X133981539Y-80699413D01*
X134429492Y-80998725D01*
X134927230Y-81204895D01*
X135455626Y-81310000D01*
X135994374Y-81310000D01*
X136522770Y-81204895D01*
X136718791Y-81123700D01*
X137549786Y-81123700D01*
X137553101Y-81157357D01*
X137553100Y-95089513D01*
X137549786Y-95123160D01*
X137563012Y-95257443D01*
X137602181Y-95386566D01*
X137665788Y-95505567D01*
X137751389Y-95609871D01*
X137855693Y-95695472D01*
X137974694Y-95759079D01*
X138103817Y-95798248D01*
X138238100Y-95811474D01*
X138271747Y-95808160D01*
X152205153Y-95808160D01*
X152238800Y-95811474D01*
X152373083Y-95798248D01*
X152502206Y-95759079D01*
X152621207Y-95695472D01*
X152725511Y-95609871D01*
X152811112Y-95505567D01*
X152874719Y-95386566D01*
X152913888Y-95257443D01*
X152923800Y-95156807D01*
X152923800Y-95156806D01*
X152927114Y-95123160D01*
X152923800Y-95089513D01*
X152923800Y-81157347D01*
X152927114Y-81123700D01*
X156599486Y-81123700D01*
X156602801Y-81157357D01*
X156602800Y-95089513D01*
X156599486Y-95123160D01*
X156612712Y-95257443D01*
X156651881Y-95386566D01*
X156715488Y-95505567D01*
X156801089Y-95609871D01*
X156905393Y-95695472D01*
X157024394Y-95759079D01*
X157153517Y-95798248D01*
X157287800Y-95811474D01*
X157321447Y-95808160D01*
X171255153Y-95808160D01*
X171288800Y-95811474D01*
X171423083Y-95798248D01*
X171552206Y-95759079D01*
X171671207Y-95695472D01*
X171775511Y-95609871D01*
X171861112Y-95505567D01*
X171924719Y-95386566D01*
X171963888Y-95257443D01*
X171973800Y-95156807D01*
X171973800Y-95156806D01*
X171977114Y-95123160D01*
X171973800Y-95089513D01*
X171973800Y-81157347D01*
X171977114Y-81123700D01*
X171963888Y-80989417D01*
X171924719Y-80860294D01*
X171861112Y-80741293D01*
X171775511Y-80636989D01*
X171671207Y-80551388D01*
X171552206Y-80487781D01*
X171423083Y-80448612D01*
X171322447Y-80438700D01*
X171288800Y-80435386D01*
X171255153Y-80438700D01*
X157321447Y-80438700D01*
X157287800Y-80435386D01*
X157254153Y-80438700D01*
X157153517Y-80448612D01*
X157024394Y-80487781D01*
X156905393Y-80551388D01*
X156801089Y-80636989D01*
X156715488Y-80741293D01*
X156651881Y-80860294D01*
X156612712Y-80989417D01*
X156599486Y-81123700D01*
X152927114Y-81123700D01*
X152913888Y-80989417D01*
X152874719Y-80860294D01*
X152811112Y-80741293D01*
X152725511Y-80636989D01*
X152621207Y-80551388D01*
X152502206Y-80487781D01*
X152373083Y-80448612D01*
X152272447Y-80438700D01*
X152238800Y-80435386D01*
X152205153Y-80438700D01*
X138271747Y-80438700D01*
X138238100Y-80435386D01*
X138204453Y-80438700D01*
X138103817Y-80448612D01*
X137974694Y-80487781D01*
X137855693Y-80551388D01*
X137751389Y-80636989D01*
X137665788Y-80741293D01*
X137602181Y-80860294D01*
X137563012Y-80989417D01*
X137549786Y-81123700D01*
X136718791Y-81123700D01*
X137020508Y-80998725D01*
X137468461Y-80699413D01*
X137849413Y-80318461D01*
X138148725Y-79870508D01*
X138354895Y-79372770D01*
X138460000Y-78844374D01*
X138460000Y-78305626D01*
X138354895Y-77777230D01*
X138148725Y-77279492D01*
X137849413Y-76831539D01*
X137468461Y-76450587D01*
X137020508Y-76151275D01*
X136522770Y-75945105D01*
X135994374Y-75840000D01*
X135455626Y-75840000D01*
X134927230Y-75945105D01*
X134429492Y-76151275D01*
X133981539Y-76450587D01*
X133600587Y-76831539D01*
X133301275Y-77279492D01*
X133095105Y-77777230D01*
X132990000Y-78305626D01*
X100360000Y-78305626D01*
X100254895Y-77777230D01*
X100048725Y-77279492D01*
X99749413Y-76831539D01*
X99368461Y-76450587D01*
X98920508Y-76151275D01*
X98422770Y-75945105D01*
X97894374Y-75840000D01*
X97355626Y-75840000D01*
X96827230Y-75945105D01*
X96329492Y-76151275D01*
X95881539Y-76450587D01*
X95500587Y-76831539D01*
X95201275Y-77279492D01*
X94995105Y-77777230D01*
X94890000Y-78305626D01*
X62260000Y-78305626D01*
X62154895Y-77777230D01*
X61948725Y-77279492D01*
X61649413Y-76831539D01*
X61268461Y-76450587D01*
X60820508Y-76151275D01*
X60322770Y-75945105D01*
X59794374Y-75840000D01*
X59255626Y-75840000D01*
X58727230Y-75945105D01*
X58229492Y-76151275D01*
X57781539Y-76450587D01*
X57400587Y-76831539D01*
X57101275Y-77279492D01*
X56895105Y-77777230D01*
X56790000Y-78305626D01*
X39649000Y-78305626D01*
X39649000Y-62073800D01*
X42301136Y-62073800D01*
X42304451Y-62107457D01*
X42304450Y-76039553D01*
X42301136Y-76073200D01*
X42314362Y-76207483D01*
X42353531Y-76336606D01*
X42417138Y-76455607D01*
X42502739Y-76559911D01*
X42607043Y-76645512D01*
X42726044Y-76709119D01*
X42855167Y-76748288D01*
X42989450Y-76761514D01*
X43023097Y-76758200D01*
X56955353Y-76758200D01*
X56989000Y-76761514D01*
X57123283Y-76748288D01*
X57252406Y-76709119D01*
X57371407Y-76645512D01*
X57475711Y-76559911D01*
X57561312Y-76455607D01*
X57624919Y-76336606D01*
X57664088Y-76207483D01*
X57674000Y-76106847D01*
X57674000Y-76106846D01*
X57677314Y-76073200D01*
X57674000Y-76039553D01*
X57674000Y-62107447D01*
X57677314Y-62073800D01*
X57664088Y-61939517D01*
X57624919Y-61810394D01*
X57561312Y-61691393D01*
X57475711Y-61587089D01*
X57371407Y-61501488D01*
X57252406Y-61437881D01*
X57123283Y-61398712D01*
X57022647Y-61388800D01*
X56989000Y-61385486D01*
X56955353Y-61388800D01*
X43023097Y-61388800D01*
X42989450Y-61385486D01*
X42955803Y-61388800D01*
X42855167Y-61398712D01*
X42726044Y-61437881D01*
X42607043Y-61501488D01*
X42502739Y-61587089D01*
X42417138Y-61691393D01*
X42353531Y-61810394D01*
X42314362Y-61939517D01*
X42301136Y-62073800D01*
X39649000Y-62073800D01*
X39649000Y-59255626D01*
X56790000Y-59255626D01*
X56790000Y-59794374D01*
X56895105Y-60322770D01*
X57101275Y-60820508D01*
X57400587Y-61268461D01*
X57781539Y-61649413D01*
X58229492Y-61948725D01*
X58727230Y-62154895D01*
X59255626Y-62260000D01*
X59794374Y-62260000D01*
X60322770Y-62154895D01*
X60518550Y-62073800D01*
X61351186Y-62073800D01*
X61354501Y-62107457D01*
X61354500Y-76039553D01*
X61351186Y-76073200D01*
X61364412Y-76207483D01*
X61403581Y-76336606D01*
X61467188Y-76455607D01*
X61552789Y-76559911D01*
X61657093Y-76645512D01*
X61776094Y-76709119D01*
X61905217Y-76748288D01*
X62039500Y-76761514D01*
X62073147Y-76758200D01*
X76005153Y-76758200D01*
X76038800Y-76761514D01*
X76173083Y-76748288D01*
X76302206Y-76709119D01*
X76421207Y-76645512D01*
X76525511Y-76559911D01*
X76611112Y-76455607D01*
X76674719Y-76336606D01*
X76713888Y-76207483D01*
X76723800Y-76106847D01*
X76723800Y-76106846D01*
X76727114Y-76073200D01*
X76723800Y-76039553D01*
X76723800Y-62107447D01*
X76727114Y-62073800D01*
X80401186Y-62073800D01*
X80404501Y-62107457D01*
X80404500Y-76039553D01*
X80401186Y-76073200D01*
X80414412Y-76207483D01*
X80453581Y-76336606D01*
X80517188Y-76455607D01*
X80602789Y-76559911D01*
X80707093Y-76645512D01*
X80826094Y-76709119D01*
X80955217Y-76748288D01*
X81089500Y-76761514D01*
X81123147Y-76758200D01*
X95055153Y-76758200D01*
X95088800Y-76761514D01*
X95223083Y-76748288D01*
X95352206Y-76709119D01*
X95471207Y-76645512D01*
X95575511Y-76559911D01*
X95661112Y-76455607D01*
X95724719Y-76336606D01*
X95763888Y-76207483D01*
X95773800Y-76106847D01*
X95773800Y-76106846D01*
X95777114Y-76073200D01*
X95773800Y-76039553D01*
X95773800Y-62107447D01*
X95777114Y-62073800D01*
X95763888Y-61939517D01*
X95724719Y-61810394D01*
X95661112Y-61691393D01*
X95575511Y-61587089D01*
X95471207Y-61501488D01*
X95352206Y-61437881D01*
X95223083Y-61398712D01*
X95122447Y-61388800D01*
X95088800Y-61385486D01*
X95055153Y-61388800D01*
X81123147Y-61388800D01*
X81089500Y-61385486D01*
X81055853Y-61388800D01*
X80955217Y-61398712D01*
X80826094Y-61437881D01*
X80707093Y-61501488D01*
X80602789Y-61587089D01*
X80517188Y-61691393D01*
X80453581Y-61810394D01*
X80414412Y-61939517D01*
X80401186Y-62073800D01*
X76727114Y-62073800D01*
X76713888Y-61939517D01*
X76674719Y-61810394D01*
X76611112Y-61691393D01*
X76525511Y-61587089D01*
X76421207Y-61501488D01*
X76302206Y-61437881D01*
X76173083Y-61398712D01*
X76072447Y-61388800D01*
X76038800Y-61385486D01*
X76005153Y-61388800D01*
X62073147Y-61388800D01*
X62039500Y-61385486D01*
X62005853Y-61388800D01*
X61905217Y-61398712D01*
X61776094Y-61437881D01*
X61657093Y-61501488D01*
X61552789Y-61587089D01*
X61467188Y-61691393D01*
X61403581Y-61810394D01*
X61364412Y-61939517D01*
X61351186Y-62073800D01*
X60518550Y-62073800D01*
X60820508Y-61948725D01*
X61268461Y-61649413D01*
X61649413Y-61268461D01*
X61948725Y-60820508D01*
X62154895Y-60322770D01*
X62260000Y-59794374D01*
X62260000Y-59255626D01*
X94890000Y-59255626D01*
X94890000Y-59794374D01*
X94995105Y-60322770D01*
X95201275Y-60820508D01*
X95500587Y-61268461D01*
X95881539Y-61649413D01*
X96329492Y-61948725D01*
X96827230Y-62154895D01*
X97355626Y-62260000D01*
X97894374Y-62260000D01*
X98422770Y-62154895D01*
X98618550Y-62073800D01*
X99451186Y-62073800D01*
X99454501Y-62107457D01*
X99454500Y-76039553D01*
X99451186Y-76073200D01*
X99464412Y-76207483D01*
X99503581Y-76336606D01*
X99567188Y-76455607D01*
X99652789Y-76559911D01*
X99757093Y-76645512D01*
X99876094Y-76709119D01*
X100005217Y-76748288D01*
X100139500Y-76761514D01*
X100173147Y-76758200D01*
X114105153Y-76758200D01*
X114138800Y-76761514D01*
X114273083Y-76748288D01*
X114402206Y-76709119D01*
X114521207Y-76645512D01*
X114625511Y-76559911D01*
X114711112Y-76455607D01*
X114774719Y-76336606D01*
X114813888Y-76207483D01*
X114823800Y-76106847D01*
X114823800Y-76106846D01*
X114827114Y-76073200D01*
X114823800Y-76039553D01*
X114823800Y-62107447D01*
X114827114Y-62073800D01*
X118501186Y-62073800D01*
X118504501Y-62107457D01*
X118504500Y-76039553D01*
X118501186Y-76073200D01*
X118514412Y-76207483D01*
X118553581Y-76336606D01*
X118617188Y-76455607D01*
X118702789Y-76559911D01*
X118807093Y-76645512D01*
X118926094Y-76709119D01*
X119055217Y-76748288D01*
X119189500Y-76761514D01*
X119223147Y-76758200D01*
X133155153Y-76758200D01*
X133188800Y-76761514D01*
X133323083Y-76748288D01*
X133452206Y-76709119D01*
X133571207Y-76645512D01*
X133675511Y-76559911D01*
X133761112Y-76455607D01*
X133824719Y-76336606D01*
X133863888Y-76207483D01*
X133873800Y-76106847D01*
X133873800Y-76106846D01*
X133877114Y-76073200D01*
X133873800Y-76039553D01*
X133873800Y-62107447D01*
X133877114Y-62073800D01*
X133863888Y-61939517D01*
X133824719Y-61810394D01*
X133761112Y-61691393D01*
X133675511Y-61587089D01*
X133571207Y-61501488D01*
X133452206Y-61437881D01*
X133323083Y-61398712D01*
X133222447Y-61388800D01*
X133188800Y-61385486D01*
X133155153Y-61388800D01*
X119223147Y-61388800D01*
X119189500Y-61385486D01*
X119155853Y-61388800D01*
X119055217Y-61398712D01*
X118926094Y-61437881D01*
X118807093Y-61501488D01*
X118702789Y-61587089D01*
X118617188Y-61691393D01*
X118553581Y-61810394D01*
X118514412Y-61939517D01*
X118501186Y-62073800D01*
X114827114Y-62073800D01*
X114813888Y-61939517D01*
X114774719Y-61810394D01*
X114711112Y-61691393D01*
X114625511Y-61587089D01*
X114521207Y-61501488D01*
X114402206Y-61437881D01*
X114273083Y-61398712D01*
X114172447Y-61388800D01*
X114138800Y-61385486D01*
X114105153Y-61388800D01*
X100173147Y-61388800D01*
X100139500Y-61385486D01*
X100105853Y-61388800D01*
X100005217Y-61398712D01*
X99876094Y-61437881D01*
X99757093Y-61501488D01*
X99652789Y-61587089D01*
X99567188Y-61691393D01*
X99503581Y-61810394D01*
X99464412Y-61939517D01*
X99451186Y-62073800D01*
X98618550Y-62073800D01*
X98920508Y-61948725D01*
X99368461Y-61649413D01*
X99749413Y-61268461D01*
X100048725Y-60820508D01*
X100254895Y-60322770D01*
X100360000Y-59794374D01*
X100360000Y-59255626D01*
X132990000Y-59255626D01*
X132990000Y-59794374D01*
X133095105Y-60322770D01*
X133301275Y-60820508D01*
X133600587Y-61268461D01*
X133981539Y-61649413D01*
X134429492Y-61948725D01*
X134927230Y-62154895D01*
X135455626Y-62260000D01*
X135994374Y-62260000D01*
X136522770Y-62154895D01*
X136718550Y-62073800D01*
X137549786Y-62073800D01*
X137553101Y-62107457D01*
X137553100Y-76039553D01*
X137549786Y-76073200D01*
X137563012Y-76207483D01*
X137602181Y-76336606D01*
X137665788Y-76455607D01*
X137751389Y-76559911D01*
X137855693Y-76645512D01*
X137974694Y-76709119D01*
X138103817Y-76748288D01*
X138238100Y-76761514D01*
X138271747Y-76758200D01*
X152205153Y-76758200D01*
X152238800Y-76761514D01*
X152373083Y-76748288D01*
X152502206Y-76709119D01*
X152621207Y-76645512D01*
X152725511Y-76559911D01*
X152811112Y-76455607D01*
X152874719Y-76336606D01*
X152913888Y-76207483D01*
X152923800Y-76106847D01*
X152923800Y-76106846D01*
X152927114Y-76073200D01*
X152923800Y-76039553D01*
X152923800Y-62107447D01*
X152927114Y-62073800D01*
X152913888Y-61939517D01*
X152874719Y-61810394D01*
X152811112Y-61691393D01*
X152725511Y-61587089D01*
X152621207Y-61501488D01*
X152502206Y-61437881D01*
X152373083Y-61398712D01*
X152272447Y-61388800D01*
X152238800Y-61385486D01*
X152205153Y-61388800D01*
X138271747Y-61388800D01*
X138238100Y-61385486D01*
X138204453Y-61388800D01*
X138103817Y-61398712D01*
X137974694Y-61437881D01*
X137855693Y-61501488D01*
X137751389Y-61587089D01*
X137665788Y-61691393D01*
X137602181Y-61810394D01*
X137563012Y-61939517D01*
X137549786Y-62073800D01*
X136718550Y-62073800D01*
X137020508Y-61948725D01*
X137468461Y-61649413D01*
X137849413Y-61268461D01*
X138148725Y-60820508D01*
X138354895Y-60322770D01*
X138460000Y-59794374D01*
X138460000Y-59255626D01*
X138354895Y-58727230D01*
X138148725Y-58229492D01*
X137849413Y-57781539D01*
X137468461Y-57400587D01*
X137020508Y-57101275D01*
X136522770Y-56895105D01*
X135994374Y-56790000D01*
X135455626Y-56790000D01*
X134927230Y-56895105D01*
X134429492Y-57101275D01*
X133981539Y-57400587D01*
X133600587Y-57781539D01*
X133301275Y-58229492D01*
X133095105Y-58727230D01*
X132990000Y-59255626D01*
X100360000Y-59255626D01*
X100254895Y-58727230D01*
X100048725Y-58229492D01*
X99749413Y-57781539D01*
X99368461Y-57400587D01*
X98920508Y-57101275D01*
X98422770Y-56895105D01*
X97894374Y-56790000D01*
X97355626Y-56790000D01*
X96827230Y-56895105D01*
X96329492Y-57101275D01*
X95881539Y-57400587D01*
X95500587Y-57781539D01*
X95201275Y-58229492D01*
X94995105Y-58727230D01*
X94890000Y-59255626D01*
X62260000Y-59255626D01*
X62154895Y-58727230D01*
X61948725Y-58229492D01*
X61649413Y-57781539D01*
X61268461Y-57400587D01*
X60820508Y-57101275D01*
X60322770Y-56895105D01*
X59794374Y-56790000D01*
X59255626Y-56790000D01*
X58727230Y-56895105D01*
X58229492Y-57101275D01*
X57781539Y-57400587D01*
X57400587Y-57781539D01*
X57101275Y-58229492D01*
X56895105Y-58727230D01*
X56790000Y-59255626D01*
X39649000Y-59255626D01*
X39649000Y-43023700D01*
X42301136Y-43023700D01*
X42304451Y-43057357D01*
X42304450Y-56989353D01*
X42301136Y-57023000D01*
X42314362Y-57157283D01*
X42353531Y-57286406D01*
X42417138Y-57405407D01*
X42502739Y-57509711D01*
X42607043Y-57595312D01*
X42726044Y-57658919D01*
X42855167Y-57698088D01*
X42989450Y-57711314D01*
X43023097Y-57708000D01*
X56955353Y-57708000D01*
X56989000Y-57711314D01*
X57123283Y-57698088D01*
X57252406Y-57658919D01*
X57371407Y-57595312D01*
X57475711Y-57509711D01*
X57561312Y-57405407D01*
X57624919Y-57286406D01*
X57664088Y-57157283D01*
X57674000Y-57056647D01*
X57674000Y-57056646D01*
X57677314Y-57023000D01*
X57674000Y-56989353D01*
X57674000Y-43057347D01*
X57677314Y-43023700D01*
X61351186Y-43023700D01*
X61354501Y-43057357D01*
X61354500Y-56989353D01*
X61351186Y-57023000D01*
X61364412Y-57157283D01*
X61403581Y-57286406D01*
X61467188Y-57405407D01*
X61552789Y-57509711D01*
X61657093Y-57595312D01*
X61776094Y-57658919D01*
X61905217Y-57698088D01*
X62039500Y-57711314D01*
X62073147Y-57708000D01*
X76005153Y-57708000D01*
X76038800Y-57711314D01*
X76173083Y-57698088D01*
X76302206Y-57658919D01*
X76421207Y-57595312D01*
X76525511Y-57509711D01*
X76611112Y-57405407D01*
X76674719Y-57286406D01*
X76713888Y-57157283D01*
X76723800Y-57056647D01*
X76723800Y-57056646D01*
X76727114Y-57023000D01*
X76723800Y-56989353D01*
X76723800Y-43057347D01*
X76727114Y-43023700D01*
X80401186Y-43023700D01*
X80404501Y-43057357D01*
X80404500Y-56989353D01*
X80401186Y-57023000D01*
X80414412Y-57157283D01*
X80453581Y-57286406D01*
X80517188Y-57405407D01*
X80602789Y-57509711D01*
X80707093Y-57595312D01*
X80826094Y-57658919D01*
X80955217Y-57698088D01*
X81089500Y-57711314D01*
X81123147Y-57708000D01*
X95055153Y-57708000D01*
X95088800Y-57711314D01*
X95223083Y-57698088D01*
X95352206Y-57658919D01*
X95471207Y-57595312D01*
X95575511Y-57509711D01*
X95661112Y-57405407D01*
X95724719Y-57286406D01*
X95763888Y-57157283D01*
X95773800Y-57056647D01*
X95773800Y-57056646D01*
X95777114Y-57023000D01*
X95773800Y-56989353D01*
X95773800Y-43057347D01*
X95777114Y-43023700D01*
X99451186Y-43023700D01*
X99454501Y-43057357D01*
X99454500Y-56989353D01*
X99451186Y-57023000D01*
X99464412Y-57157283D01*
X99503581Y-57286406D01*
X99567188Y-57405407D01*
X99652789Y-57509711D01*
X99757093Y-57595312D01*
X99876094Y-57658919D01*
X100005217Y-57698088D01*
X100139500Y-57711314D01*
X100173147Y-57708000D01*
X114105153Y-57708000D01*
X114138800Y-57711314D01*
X114273083Y-57698088D01*
X114402206Y-57658919D01*
X114521207Y-57595312D01*
X114625511Y-57509711D01*
X114711112Y-57405407D01*
X114774719Y-57286406D01*
X114813888Y-57157283D01*
X114823800Y-57056647D01*
X114823800Y-57056646D01*
X114827114Y-57023000D01*
X114823800Y-56989353D01*
X114823800Y-43057347D01*
X114827114Y-43023700D01*
X118501186Y-43023700D01*
X118504501Y-43057357D01*
X118504500Y-56989353D01*
X118501186Y-57023000D01*
X118514412Y-57157283D01*
X118553581Y-57286406D01*
X118617188Y-57405407D01*
X118702789Y-57509711D01*
X118807093Y-57595312D01*
X118926094Y-57658919D01*
X119055217Y-57698088D01*
X119189500Y-57711314D01*
X119223147Y-57708000D01*
X133155153Y-57708000D01*
X133188800Y-57711314D01*
X133323083Y-57698088D01*
X133452206Y-57658919D01*
X133571207Y-57595312D01*
X133675511Y-57509711D01*
X133761112Y-57405407D01*
X133824719Y-57286406D01*
X133863888Y-57157283D01*
X133873800Y-57056647D01*
X133873800Y-57056646D01*
X133877114Y-57023000D01*
X133873800Y-56989353D01*
X133873800Y-43057347D01*
X133877114Y-43023700D01*
X137549786Y-43023700D01*
X137553101Y-43057357D01*
X137553100Y-56989353D01*
X137549786Y-57023000D01*
X137563012Y-57157283D01*
X137602181Y-57286406D01*
X137665788Y-57405407D01*
X137751389Y-57509711D01*
X137855693Y-57595312D01*
X137974694Y-57658919D01*
X138103817Y-57698088D01*
X138238100Y-57711314D01*
X138271747Y-57708000D01*
X152205153Y-57708000D01*
X152238800Y-57711314D01*
X152373083Y-57698088D01*
X152502206Y-57658919D01*
X152621207Y-57595312D01*
X152725511Y-57509711D01*
X152811112Y-57405407D01*
X152874719Y-57286406D01*
X152913888Y-57157283D01*
X152923800Y-57056647D01*
X152923800Y-57056646D01*
X152927114Y-57023000D01*
X152923800Y-56989353D01*
X152923800Y-43057347D01*
X152927114Y-43023700D01*
X152913888Y-42889417D01*
X152874719Y-42760294D01*
X152811112Y-42641293D01*
X152725511Y-42536989D01*
X152621207Y-42451388D01*
X152502206Y-42387781D01*
X152373083Y-42348612D01*
X152272447Y-42338700D01*
X152238800Y-42335386D01*
X152205153Y-42338700D01*
X138271747Y-42338700D01*
X138238100Y-42335386D01*
X138204453Y-42338700D01*
X138103817Y-42348612D01*
X137974694Y-42387781D01*
X137855693Y-42451388D01*
X137751389Y-42536989D01*
X137665788Y-42641293D01*
X137602181Y-42760294D01*
X137563012Y-42889417D01*
X137549786Y-43023700D01*
X133877114Y-43023700D01*
X133863888Y-42889417D01*
X133824719Y-42760294D01*
X133761112Y-42641293D01*
X133675511Y-42536989D01*
X133571207Y-42451388D01*
X133452206Y-42387781D01*
X133323083Y-42348612D01*
X133222447Y-42338700D01*
X133188800Y-42335386D01*
X133155153Y-42338700D01*
X119223147Y-42338700D01*
X119189500Y-42335386D01*
X119155853Y-42338700D01*
X119055217Y-42348612D01*
X118926094Y-42387781D01*
X118807093Y-42451388D01*
X118702789Y-42536989D01*
X118617188Y-42641293D01*
X118553581Y-42760294D01*
X118514412Y-42889417D01*
X118501186Y-43023700D01*
X114827114Y-43023700D01*
X114813888Y-42889417D01*
X114774719Y-42760294D01*
X114711112Y-42641293D01*
X114625511Y-42536989D01*
X114521207Y-42451388D01*
X114402206Y-42387781D01*
X114273083Y-42348612D01*
X114172447Y-42338700D01*
X114138800Y-42335386D01*
X114105153Y-42338700D01*
X100173147Y-42338700D01*
X100139500Y-42335386D01*
X100105853Y-42338700D01*
X100005217Y-42348612D01*
X99876094Y-42387781D01*
X99757093Y-42451388D01*
X99652789Y-42536989D01*
X99567188Y-42641293D01*
X99503581Y-42760294D01*
X99464412Y-42889417D01*
X99451186Y-43023700D01*
X95777114Y-43023700D01*
X95763888Y-42889417D01*
X95724719Y-42760294D01*
X95661112Y-42641293D01*
X95575511Y-42536989D01*
X95471207Y-42451388D01*
X95352206Y-42387781D01*
X95223083Y-42348612D01*
X95122447Y-42338700D01*
X95088800Y-42335386D01*
X95055153Y-42338700D01*
X81123147Y-42338700D01*
X81089500Y-42335386D01*
X81055853Y-42338700D01*
X80955217Y-42348612D01*
X80826094Y-42387781D01*
X80707093Y-42451388D01*
X80602789Y-42536989D01*
X80517188Y-42641293D01*
X80453581Y-42760294D01*
X80414412Y-42889417D01*
X80401186Y-43023700D01*
X76727114Y-43023700D01*
X76713888Y-42889417D01*
X76674719Y-42760294D01*
X76611112Y-42641293D01*
X76525511Y-42536989D01*
X76421207Y-42451388D01*
X76302206Y-42387781D01*
X76173083Y-42348612D01*
X76072447Y-42338700D01*
X76038800Y-42335386D01*
X76005153Y-42338700D01*
X62073147Y-42338700D01*
X62039500Y-42335386D01*
X62005853Y-42338700D01*
X61905217Y-42348612D01*
X61776094Y-42387781D01*
X61657093Y-42451388D01*
X61552789Y-42536989D01*
X61467188Y-42641293D01*
X61403581Y-42760294D01*
X61364412Y-42889417D01*
X61351186Y-43023700D01*
X57677314Y-43023700D01*
X57664088Y-42889417D01*
X57624919Y-42760294D01*
X57561312Y-42641293D01*
X57475711Y-42536989D01*
X57371407Y-42451388D01*
X57252406Y-42387781D01*
X57123283Y-42348612D01*
X57022647Y-42338700D01*
X56989000Y-42335386D01*
X56955353Y-42338700D01*
X43023097Y-42338700D01*
X42989450Y-42335386D01*
X42955803Y-42338700D01*
X42855167Y-42348612D01*
X42726044Y-42387781D01*
X42607043Y-42451388D01*
X42502739Y-42536989D01*
X42417138Y-42641293D01*
X42353531Y-42760294D01*
X42314362Y-42889417D01*
X42301136Y-43023700D01*
X39649000Y-43023700D01*
X39649000Y-41561279D01*
X39687909Y-41164455D01*
X39793780Y-40813792D01*
X39965744Y-40490375D01*
X40197254Y-40206516D01*
X40479486Y-39973035D01*
X40801695Y-39798817D01*
X41151614Y-39690498D01*
X41546443Y-39649000D01*
X167417225Y-39649000D01*
X167424013Y-39649666D01*
G37*
G04 #@! TD.AperFunction*
M02*
