G04 #@! TF.GenerationSoftware,KiCad,Pcbnew,(5.1.7)-1*
G04 #@! TF.CreationDate,2021-01-25T07:51:01+09:00*
G04 #@! TF.ProjectId,pisces_top_plate,70697363-6573-45f7-946f-705f706c6174,rev?*
G04 #@! TF.SameCoordinates,Original*
G04 #@! TF.FileFunction,Legend,Top*
G04 #@! TF.FilePolarity,Positive*
%FSLAX46Y46*%
G04 Gerber Fmt 4.6, Leading zero omitted, Abs format (unit mm)*
G04 Created by KiCad (PCBNEW (5.1.7)-1) date 2021-01-25 07:51:01*
%MOMM*%
%LPD*%
G01*
G04 APERTURE LIST*
%ADD10C,0.150000*%
G04 APERTURE END LIST*
D10*
X134391666Y-79527380D02*
X134058333Y-79051190D01*
X133820238Y-79527380D02*
X133820238Y-78527380D01*
X134201190Y-78527380D01*
X134296428Y-78575000D01*
X134344047Y-78622619D01*
X134391666Y-78717857D01*
X134391666Y-78860714D01*
X134344047Y-78955952D01*
X134296428Y-79003571D01*
X134201190Y-79051190D01*
X133820238Y-79051190D01*
X134820238Y-79003571D02*
X135153571Y-79003571D01*
X135296428Y-79527380D02*
X134820238Y-79527380D01*
X134820238Y-78527380D01*
X135296428Y-78527380D01*
X136058333Y-79003571D02*
X135725000Y-79003571D01*
X135725000Y-79527380D02*
X135725000Y-78527380D01*
X136201190Y-78527380D01*
X136725000Y-78527380D02*
X136725000Y-78765476D01*
X136486904Y-78670238D02*
X136725000Y-78765476D01*
X136963095Y-78670238D01*
X136582142Y-78955952D02*
X136725000Y-78765476D01*
X136867857Y-78955952D01*
X137486904Y-78527380D02*
X137486904Y-78765476D01*
X137248809Y-78670238D02*
X137486904Y-78765476D01*
X137725000Y-78670238D01*
X137344047Y-78955952D02*
X137486904Y-78765476D01*
X137629761Y-78955952D01*
X96291666Y-79527380D02*
X95958333Y-79051190D01*
X95720238Y-79527380D02*
X95720238Y-78527380D01*
X96101190Y-78527380D01*
X96196428Y-78575000D01*
X96244047Y-78622619D01*
X96291666Y-78717857D01*
X96291666Y-78860714D01*
X96244047Y-78955952D01*
X96196428Y-79003571D01*
X96101190Y-79051190D01*
X95720238Y-79051190D01*
X96720238Y-79003571D02*
X97053571Y-79003571D01*
X97196428Y-79527380D02*
X96720238Y-79527380D01*
X96720238Y-78527380D01*
X97196428Y-78527380D01*
X97958333Y-79003571D02*
X97625000Y-79003571D01*
X97625000Y-79527380D02*
X97625000Y-78527380D01*
X98101190Y-78527380D01*
X98625000Y-78527380D02*
X98625000Y-78765476D01*
X98386904Y-78670238D02*
X98625000Y-78765476D01*
X98863095Y-78670238D01*
X98482142Y-78955952D02*
X98625000Y-78765476D01*
X98767857Y-78955952D01*
X99386904Y-78527380D02*
X99386904Y-78765476D01*
X99148809Y-78670238D02*
X99386904Y-78765476D01*
X99625000Y-78670238D01*
X99244047Y-78955952D02*
X99386904Y-78765476D01*
X99529761Y-78955952D01*
X134391666Y-60477380D02*
X134058333Y-60001190D01*
X133820238Y-60477380D02*
X133820238Y-59477380D01*
X134201190Y-59477380D01*
X134296428Y-59525000D01*
X134344047Y-59572619D01*
X134391666Y-59667857D01*
X134391666Y-59810714D01*
X134344047Y-59905952D01*
X134296428Y-59953571D01*
X134201190Y-60001190D01*
X133820238Y-60001190D01*
X134820238Y-59953571D02*
X135153571Y-59953571D01*
X135296428Y-60477380D02*
X134820238Y-60477380D01*
X134820238Y-59477380D01*
X135296428Y-59477380D01*
X136058333Y-59953571D02*
X135725000Y-59953571D01*
X135725000Y-60477380D02*
X135725000Y-59477380D01*
X136201190Y-59477380D01*
X136725000Y-59477380D02*
X136725000Y-59715476D01*
X136486904Y-59620238D02*
X136725000Y-59715476D01*
X136963095Y-59620238D01*
X136582142Y-59905952D02*
X136725000Y-59715476D01*
X136867857Y-59905952D01*
X137486904Y-59477380D02*
X137486904Y-59715476D01*
X137248809Y-59620238D02*
X137486904Y-59715476D01*
X137725000Y-59620238D01*
X137344047Y-59905952D02*
X137486904Y-59715476D01*
X137629761Y-59905952D01*
X96291666Y-60477380D02*
X95958333Y-60001190D01*
X95720238Y-60477380D02*
X95720238Y-59477380D01*
X96101190Y-59477380D01*
X96196428Y-59525000D01*
X96244047Y-59572619D01*
X96291666Y-59667857D01*
X96291666Y-59810714D01*
X96244047Y-59905952D01*
X96196428Y-59953571D01*
X96101190Y-60001190D01*
X95720238Y-60001190D01*
X96720238Y-59953571D02*
X97053571Y-59953571D01*
X97196428Y-60477380D02*
X96720238Y-60477380D01*
X96720238Y-59477380D01*
X97196428Y-59477380D01*
X97958333Y-59953571D02*
X97625000Y-59953571D01*
X97625000Y-60477380D02*
X97625000Y-59477380D01*
X98101190Y-59477380D01*
X98625000Y-59477380D02*
X98625000Y-59715476D01*
X98386904Y-59620238D02*
X98625000Y-59715476D01*
X98863095Y-59620238D01*
X98482142Y-59905952D02*
X98625000Y-59715476D01*
X98767857Y-59905952D01*
X99386904Y-59477380D02*
X99386904Y-59715476D01*
X99148809Y-59620238D02*
X99386904Y-59715476D01*
X99625000Y-59620238D01*
X99244047Y-59905952D02*
X99386904Y-59715476D01*
X99529761Y-59905952D01*
X58191666Y-79527380D02*
X57858333Y-79051190D01*
X57620238Y-79527380D02*
X57620238Y-78527380D01*
X58001190Y-78527380D01*
X58096428Y-78575000D01*
X58144047Y-78622619D01*
X58191666Y-78717857D01*
X58191666Y-78860714D01*
X58144047Y-78955952D01*
X58096428Y-79003571D01*
X58001190Y-79051190D01*
X57620238Y-79051190D01*
X58620238Y-79003571D02*
X58953571Y-79003571D01*
X59096428Y-79527380D02*
X58620238Y-79527380D01*
X58620238Y-78527380D01*
X59096428Y-78527380D01*
X59858333Y-79003571D02*
X59525000Y-79003571D01*
X59525000Y-79527380D02*
X59525000Y-78527380D01*
X60001190Y-78527380D01*
X60525000Y-78527380D02*
X60525000Y-78765476D01*
X60286904Y-78670238D02*
X60525000Y-78765476D01*
X60763095Y-78670238D01*
X60382142Y-78955952D02*
X60525000Y-78765476D01*
X60667857Y-78955952D01*
X61286904Y-78527380D02*
X61286904Y-78765476D01*
X61048809Y-78670238D02*
X61286904Y-78765476D01*
X61525000Y-78670238D01*
X61144047Y-78955952D02*
X61286904Y-78765476D01*
X61429761Y-78955952D01*
X58191666Y-60477380D02*
X57858333Y-60001190D01*
X57620238Y-60477380D02*
X57620238Y-59477380D01*
X58001190Y-59477380D01*
X58096428Y-59525000D01*
X58144047Y-59572619D01*
X58191666Y-59667857D01*
X58191666Y-59810714D01*
X58144047Y-59905952D01*
X58096428Y-59953571D01*
X58001190Y-60001190D01*
X57620238Y-60001190D01*
X58620238Y-59953571D02*
X58953571Y-59953571D01*
X59096428Y-60477380D02*
X58620238Y-60477380D01*
X58620238Y-59477380D01*
X59096428Y-59477380D01*
X59858333Y-59953571D02*
X59525000Y-59953571D01*
X59525000Y-60477380D02*
X59525000Y-59477380D01*
X60001190Y-59477380D01*
X60525000Y-59477380D02*
X60525000Y-59715476D01*
X60286904Y-59620238D02*
X60525000Y-59715476D01*
X60763095Y-59620238D01*
X60382142Y-59905952D02*
X60525000Y-59715476D01*
X60667857Y-59905952D01*
X61286904Y-59477380D02*
X61286904Y-59715476D01*
X61048809Y-59620238D02*
X61286904Y-59715476D01*
X61525000Y-59620238D01*
X61144047Y-59905952D02*
X61286904Y-59715476D01*
X61429761Y-59905952D01*
M02*
