G04 #@! TF.GenerationSoftware,KiCad,Pcbnew,(5.1.7)-1*
G04 #@! TF.CreationDate,2020-12-07T10:21:47+09:00*
G04 #@! TF.ProjectId,pisces_top_plate,70697363-6573-45f7-946f-705f706c6174,rev?*
G04 #@! TF.SameCoordinates,Original*
G04 #@! TF.FileFunction,Copper,L2,Bot*
G04 #@! TF.FilePolarity,Positive*
%FSLAX46Y46*%
G04 Gerber Fmt 4.6, Leading zero omitted, Abs format (unit mm)*
G04 Created by KiCad (PCBNEW (5.1.7)-1) date 2020-12-07 10:21:47*
%MOMM*%
%LPD*%
G01*
G04 APERTURE LIST*
G04 #@! TA.AperFunction,ComponentPad*
%ADD10C,4.200000*%
G04 #@! TD*
G04 #@! TA.AperFunction,NonConductor*
%ADD11C,0.254000*%
G04 #@! TD*
G04 #@! TA.AperFunction,NonConductor*
%ADD12C,0.100000*%
G04 #@! TD*
G04 APERTURE END LIST*
D10*
X135725000Y-78575000D03*
X135725000Y-59525000D03*
X97625000Y-78575000D03*
X97625000Y-59525000D03*
X59525000Y-78575000D03*
X59525000Y-59525000D03*
D11*
X153011222Y-35013096D02*
X153599164Y-35190606D01*
X154141436Y-35478937D01*
X154617364Y-35867094D01*
X155008845Y-36340314D01*
X155300951Y-36880552D01*
X155482563Y-37467244D01*
X155550000Y-38108879D01*
X155550001Y-77437571D01*
X155546807Y-77470000D01*
X155559550Y-77599383D01*
X155597290Y-77723793D01*
X155658575Y-77838450D01*
X155741052Y-77938948D01*
X155841550Y-78021425D01*
X155956207Y-78082710D01*
X156080617Y-78120450D01*
X156177581Y-78130000D01*
X156210000Y-78133193D01*
X156242419Y-78130000D01*
X172687721Y-78130000D01*
X173084545Y-78168909D01*
X173435208Y-78274780D01*
X173758625Y-78446744D01*
X174042484Y-78678254D01*
X174275965Y-78960486D01*
X174450183Y-79282695D01*
X174558502Y-79632614D01*
X174600001Y-80027452D01*
X174600000Y-96487721D01*
X174536904Y-97131221D01*
X174359394Y-97719164D01*
X174071063Y-98261436D01*
X173682906Y-98737364D01*
X173209686Y-99128845D01*
X172669449Y-99420950D01*
X172082756Y-99602563D01*
X171441130Y-99670000D01*
X41942279Y-99670000D01*
X41298779Y-99606904D01*
X40710836Y-99429394D01*
X40168564Y-99141063D01*
X39692636Y-98752906D01*
X39301155Y-98279686D01*
X39009050Y-97739449D01*
X38827437Y-97152756D01*
X38760000Y-96511130D01*
X38760000Y-81137400D01*
X42299094Y-81137400D01*
X42302651Y-81173515D01*
X42302650Y-95100755D01*
X42299094Y-95136860D01*
X42313285Y-95280945D01*
X42355313Y-95419493D01*
X42423563Y-95547180D01*
X42515412Y-95659098D01*
X42627330Y-95750947D01*
X42755017Y-95819197D01*
X42893565Y-95861225D01*
X43037650Y-95875416D01*
X43073755Y-95871860D01*
X57001095Y-95871860D01*
X57037200Y-95875416D01*
X57073305Y-95871860D01*
X57181285Y-95861225D01*
X57319833Y-95819197D01*
X57447520Y-95750947D01*
X57559438Y-95659098D01*
X57651287Y-95547180D01*
X57719537Y-95419493D01*
X57761565Y-95280945D01*
X57775756Y-95136860D01*
X57772200Y-95100755D01*
X57772200Y-81173505D01*
X57775756Y-81137400D01*
X57761565Y-80993315D01*
X57719537Y-80854767D01*
X57651287Y-80727080D01*
X57559438Y-80615162D01*
X57447520Y-80523313D01*
X57319833Y-80455063D01*
X57181285Y-80413035D01*
X57073305Y-80402400D01*
X57037200Y-80398844D01*
X57001095Y-80402400D01*
X43073755Y-80402400D01*
X43037650Y-80398844D01*
X43001545Y-80402400D01*
X42893565Y-80413035D01*
X42755017Y-80455063D01*
X42627330Y-80523313D01*
X42515412Y-80615162D01*
X42423563Y-80727080D01*
X42355313Y-80854767D01*
X42313285Y-80993315D01*
X42299094Y-81137400D01*
X38760000Y-81137400D01*
X38760000Y-78305626D01*
X56790000Y-78305626D01*
X56790000Y-78844374D01*
X56895105Y-79372770D01*
X57101275Y-79870508D01*
X57400587Y-80318461D01*
X57781539Y-80699413D01*
X58229492Y-80998725D01*
X58727230Y-81204895D01*
X59255626Y-81310000D01*
X59794374Y-81310000D01*
X60322770Y-81204895D01*
X60485717Y-81137400D01*
X61349144Y-81137400D01*
X61352701Y-81173515D01*
X61352700Y-95100755D01*
X61349144Y-95136860D01*
X61363335Y-95280945D01*
X61405363Y-95419493D01*
X61473613Y-95547180D01*
X61565462Y-95659098D01*
X61677380Y-95750947D01*
X61805067Y-95819197D01*
X61943615Y-95861225D01*
X62087700Y-95875416D01*
X62123805Y-95871860D01*
X76050895Y-95871860D01*
X76087000Y-95875416D01*
X76123105Y-95871860D01*
X76231085Y-95861225D01*
X76369633Y-95819197D01*
X76497320Y-95750947D01*
X76609238Y-95659098D01*
X76701087Y-95547180D01*
X76769337Y-95419493D01*
X76811365Y-95280945D01*
X76825556Y-95136860D01*
X76822000Y-95100755D01*
X76822000Y-81173505D01*
X76825556Y-81137400D01*
X80399144Y-81137400D01*
X80402701Y-81173515D01*
X80402700Y-95100755D01*
X80399144Y-95136860D01*
X80413335Y-95280945D01*
X80455363Y-95419493D01*
X80523613Y-95547180D01*
X80615462Y-95659098D01*
X80727380Y-95750947D01*
X80855067Y-95819197D01*
X80993615Y-95861225D01*
X81137700Y-95875416D01*
X81173805Y-95871860D01*
X95100895Y-95871860D01*
X95137000Y-95875416D01*
X95173105Y-95871860D01*
X95281085Y-95861225D01*
X95419633Y-95819197D01*
X95547320Y-95750947D01*
X95659238Y-95659098D01*
X95751087Y-95547180D01*
X95819337Y-95419493D01*
X95861365Y-95280945D01*
X95875556Y-95136860D01*
X95872000Y-95100755D01*
X95872000Y-81173505D01*
X95875556Y-81137400D01*
X95861365Y-80993315D01*
X95819337Y-80854767D01*
X95751087Y-80727080D01*
X95659238Y-80615162D01*
X95547320Y-80523313D01*
X95419633Y-80455063D01*
X95281085Y-80413035D01*
X95173105Y-80402400D01*
X95137000Y-80398844D01*
X95100895Y-80402400D01*
X81173805Y-80402400D01*
X81137700Y-80398844D01*
X81101595Y-80402400D01*
X80993615Y-80413035D01*
X80855067Y-80455063D01*
X80727380Y-80523313D01*
X80615462Y-80615162D01*
X80523613Y-80727080D01*
X80455363Y-80854767D01*
X80413335Y-80993315D01*
X80399144Y-81137400D01*
X76825556Y-81137400D01*
X76811365Y-80993315D01*
X76769337Y-80854767D01*
X76701087Y-80727080D01*
X76609238Y-80615162D01*
X76497320Y-80523313D01*
X76369633Y-80455063D01*
X76231085Y-80413035D01*
X76123105Y-80402400D01*
X76087000Y-80398844D01*
X76050895Y-80402400D01*
X62123805Y-80402400D01*
X62087700Y-80398844D01*
X62051595Y-80402400D01*
X61943615Y-80413035D01*
X61805067Y-80455063D01*
X61677380Y-80523313D01*
X61565462Y-80615162D01*
X61473613Y-80727080D01*
X61405363Y-80854767D01*
X61363335Y-80993315D01*
X61349144Y-81137400D01*
X60485717Y-81137400D01*
X60820508Y-80998725D01*
X61268461Y-80699413D01*
X61649413Y-80318461D01*
X61948725Y-79870508D01*
X62154895Y-79372770D01*
X62260000Y-78844374D01*
X62260000Y-78305626D01*
X94890000Y-78305626D01*
X94890000Y-78844374D01*
X94995105Y-79372770D01*
X95201275Y-79870508D01*
X95500587Y-80318461D01*
X95881539Y-80699413D01*
X96329492Y-80998725D01*
X96827230Y-81204895D01*
X97355626Y-81310000D01*
X97894374Y-81310000D01*
X98422770Y-81204895D01*
X98585717Y-81137400D01*
X99449144Y-81137400D01*
X99452701Y-81173515D01*
X99452700Y-95100755D01*
X99449144Y-95136860D01*
X99463335Y-95280945D01*
X99505363Y-95419493D01*
X99573613Y-95547180D01*
X99665462Y-95659098D01*
X99777380Y-95750947D01*
X99905067Y-95819197D01*
X100043615Y-95861225D01*
X100187700Y-95875416D01*
X100223805Y-95871860D01*
X114150895Y-95871860D01*
X114187000Y-95875416D01*
X114223105Y-95871860D01*
X114331085Y-95861225D01*
X114469633Y-95819197D01*
X114597320Y-95750947D01*
X114709238Y-95659098D01*
X114801087Y-95547180D01*
X114869337Y-95419493D01*
X114911365Y-95280945D01*
X114925556Y-95136860D01*
X114922000Y-95100755D01*
X114922000Y-81173505D01*
X114925556Y-81137400D01*
X118499144Y-81137400D01*
X118502701Y-81173515D01*
X118502700Y-95100755D01*
X118499144Y-95136860D01*
X118513335Y-95280945D01*
X118555363Y-95419493D01*
X118623613Y-95547180D01*
X118715462Y-95659098D01*
X118827380Y-95750947D01*
X118955067Y-95819197D01*
X119093615Y-95861225D01*
X119237700Y-95875416D01*
X119273805Y-95871860D01*
X133200895Y-95871860D01*
X133237000Y-95875416D01*
X133273105Y-95871860D01*
X133381085Y-95861225D01*
X133519633Y-95819197D01*
X133647320Y-95750947D01*
X133759238Y-95659098D01*
X133851087Y-95547180D01*
X133919337Y-95419493D01*
X133961365Y-95280945D01*
X133975556Y-95136860D01*
X133972000Y-95100755D01*
X133972000Y-81173505D01*
X133975556Y-81137400D01*
X133961365Y-80993315D01*
X133919337Y-80854767D01*
X133851087Y-80727080D01*
X133759238Y-80615162D01*
X133647320Y-80523313D01*
X133519633Y-80455063D01*
X133381085Y-80413035D01*
X133273105Y-80402400D01*
X133237000Y-80398844D01*
X133200895Y-80402400D01*
X119273805Y-80402400D01*
X119237700Y-80398844D01*
X119201595Y-80402400D01*
X119093615Y-80413035D01*
X118955067Y-80455063D01*
X118827380Y-80523313D01*
X118715462Y-80615162D01*
X118623613Y-80727080D01*
X118555363Y-80854767D01*
X118513335Y-80993315D01*
X118499144Y-81137400D01*
X114925556Y-81137400D01*
X114911365Y-80993315D01*
X114869337Y-80854767D01*
X114801087Y-80727080D01*
X114709238Y-80615162D01*
X114597320Y-80523313D01*
X114469633Y-80455063D01*
X114331085Y-80413035D01*
X114223105Y-80402400D01*
X114187000Y-80398844D01*
X114150895Y-80402400D01*
X100223805Y-80402400D01*
X100187700Y-80398844D01*
X100151595Y-80402400D01*
X100043615Y-80413035D01*
X99905067Y-80455063D01*
X99777380Y-80523313D01*
X99665462Y-80615162D01*
X99573613Y-80727080D01*
X99505363Y-80854767D01*
X99463335Y-80993315D01*
X99449144Y-81137400D01*
X98585717Y-81137400D01*
X98920508Y-80998725D01*
X99368461Y-80699413D01*
X99749413Y-80318461D01*
X100048725Y-79870508D01*
X100254895Y-79372770D01*
X100360000Y-78844374D01*
X100360000Y-78305626D01*
X132990000Y-78305626D01*
X132990000Y-78844374D01*
X133095105Y-79372770D01*
X133301275Y-79870508D01*
X133600587Y-80318461D01*
X133981539Y-80699413D01*
X134429492Y-80998725D01*
X134927230Y-81204895D01*
X135455626Y-81310000D01*
X135994374Y-81310000D01*
X136522770Y-81204895D01*
X136685717Y-81137400D01*
X137547744Y-81137400D01*
X137551301Y-81173515D01*
X137551300Y-95100755D01*
X137547744Y-95136860D01*
X137561935Y-95280945D01*
X137603963Y-95419493D01*
X137672213Y-95547180D01*
X137764062Y-95659098D01*
X137875980Y-95750947D01*
X138003667Y-95819197D01*
X138142215Y-95861225D01*
X138286300Y-95875416D01*
X138322405Y-95871860D01*
X152250895Y-95871860D01*
X152287000Y-95875416D01*
X152323105Y-95871860D01*
X152431085Y-95861225D01*
X152569633Y-95819197D01*
X152697320Y-95750947D01*
X152809238Y-95659098D01*
X152901087Y-95547180D01*
X152969337Y-95419493D01*
X153011365Y-95280945D01*
X153025556Y-95136860D01*
X153022000Y-95100755D01*
X153022000Y-81173505D01*
X153025556Y-81137400D01*
X156597444Y-81137400D01*
X156601001Y-81173515D01*
X156601000Y-95100755D01*
X156597444Y-95136860D01*
X156611635Y-95280945D01*
X156653663Y-95419493D01*
X156721913Y-95547180D01*
X156813762Y-95659098D01*
X156925680Y-95750947D01*
X157053367Y-95819197D01*
X157191915Y-95861225D01*
X157336000Y-95875416D01*
X157372105Y-95871860D01*
X171300895Y-95871860D01*
X171337000Y-95875416D01*
X171373105Y-95871860D01*
X171481085Y-95861225D01*
X171619633Y-95819197D01*
X171747320Y-95750947D01*
X171859238Y-95659098D01*
X171951087Y-95547180D01*
X172019337Y-95419493D01*
X172061365Y-95280945D01*
X172075556Y-95136860D01*
X172072000Y-95100755D01*
X172072000Y-81173505D01*
X172075556Y-81137400D01*
X172061365Y-80993315D01*
X172019337Y-80854767D01*
X171951087Y-80727080D01*
X171859238Y-80615162D01*
X171747320Y-80523313D01*
X171619633Y-80455063D01*
X171481085Y-80413035D01*
X171373105Y-80402400D01*
X171337000Y-80398844D01*
X171300895Y-80402400D01*
X157372105Y-80402400D01*
X157336000Y-80398844D01*
X157299895Y-80402400D01*
X157191915Y-80413035D01*
X157053367Y-80455063D01*
X156925680Y-80523313D01*
X156813762Y-80615162D01*
X156721913Y-80727080D01*
X156653663Y-80854767D01*
X156611635Y-80993315D01*
X156597444Y-81137400D01*
X153025556Y-81137400D01*
X153011365Y-80993315D01*
X152969337Y-80854767D01*
X152901087Y-80727080D01*
X152809238Y-80615162D01*
X152697320Y-80523313D01*
X152569633Y-80455063D01*
X152431085Y-80413035D01*
X152323105Y-80402400D01*
X152287000Y-80398844D01*
X152250895Y-80402400D01*
X138322405Y-80402400D01*
X138286300Y-80398844D01*
X138250195Y-80402400D01*
X138142215Y-80413035D01*
X138003667Y-80455063D01*
X137875980Y-80523313D01*
X137764062Y-80615162D01*
X137672213Y-80727080D01*
X137603963Y-80854767D01*
X137561935Y-80993315D01*
X137547744Y-81137400D01*
X136685717Y-81137400D01*
X137020508Y-80998725D01*
X137468461Y-80699413D01*
X137849413Y-80318461D01*
X138148725Y-79870508D01*
X138354895Y-79372770D01*
X138460000Y-78844374D01*
X138460000Y-78305626D01*
X138354895Y-77777230D01*
X138148725Y-77279492D01*
X137849413Y-76831539D01*
X137468461Y-76450587D01*
X137020508Y-76151275D01*
X136522770Y-75945105D01*
X135994374Y-75840000D01*
X135455626Y-75840000D01*
X134927230Y-75945105D01*
X134429492Y-76151275D01*
X133981539Y-76450587D01*
X133600587Y-76831539D01*
X133301275Y-77279492D01*
X133095105Y-77777230D01*
X132990000Y-78305626D01*
X100360000Y-78305626D01*
X100254895Y-77777230D01*
X100048725Y-77279492D01*
X99749413Y-76831539D01*
X99368461Y-76450587D01*
X98920508Y-76151275D01*
X98422770Y-75945105D01*
X97894374Y-75840000D01*
X97355626Y-75840000D01*
X96827230Y-75945105D01*
X96329492Y-76151275D01*
X95881539Y-76450587D01*
X95500587Y-76831539D01*
X95201275Y-77279492D01*
X94995105Y-77777230D01*
X94890000Y-78305626D01*
X62260000Y-78305626D01*
X62154895Y-77777230D01*
X61948725Y-77279492D01*
X61649413Y-76831539D01*
X61268461Y-76450587D01*
X60820508Y-76151275D01*
X60322770Y-75945105D01*
X59794374Y-75840000D01*
X59255626Y-75840000D01*
X58727230Y-75945105D01*
X58229492Y-76151275D01*
X57781539Y-76450587D01*
X57400587Y-76831539D01*
X57101275Y-77279492D01*
X56895105Y-77777230D01*
X56790000Y-78305626D01*
X38760000Y-78305626D01*
X38760000Y-62087500D01*
X42299094Y-62087500D01*
X42302651Y-62123615D01*
X42302650Y-76050795D01*
X42299094Y-76086900D01*
X42313285Y-76230985D01*
X42355313Y-76369533D01*
X42423563Y-76497220D01*
X42515412Y-76609138D01*
X42627330Y-76700987D01*
X42755017Y-76769237D01*
X42893565Y-76811265D01*
X43037650Y-76825456D01*
X43073755Y-76821900D01*
X57001095Y-76821900D01*
X57037200Y-76825456D01*
X57073305Y-76821900D01*
X57181285Y-76811265D01*
X57319833Y-76769237D01*
X57447520Y-76700987D01*
X57559438Y-76609138D01*
X57651287Y-76497220D01*
X57719537Y-76369533D01*
X57761565Y-76230985D01*
X57775756Y-76086900D01*
X57772200Y-76050795D01*
X57772200Y-62123605D01*
X57775756Y-62087500D01*
X57761565Y-61943415D01*
X57719537Y-61804867D01*
X57651287Y-61677180D01*
X57559438Y-61565262D01*
X57447520Y-61473413D01*
X57319833Y-61405163D01*
X57181285Y-61363135D01*
X57073305Y-61352500D01*
X57037200Y-61348944D01*
X57001095Y-61352500D01*
X43073755Y-61352500D01*
X43037650Y-61348944D01*
X43001545Y-61352500D01*
X42893565Y-61363135D01*
X42755017Y-61405163D01*
X42627330Y-61473413D01*
X42515412Y-61565262D01*
X42423563Y-61677180D01*
X42355313Y-61804867D01*
X42313285Y-61943415D01*
X42299094Y-62087500D01*
X38760000Y-62087500D01*
X38760000Y-59255626D01*
X56790000Y-59255626D01*
X56790000Y-59794374D01*
X56895105Y-60322770D01*
X57101275Y-60820508D01*
X57400587Y-61268461D01*
X57781539Y-61649413D01*
X58229492Y-61948725D01*
X58727230Y-62154895D01*
X59255626Y-62260000D01*
X59794374Y-62260000D01*
X60322770Y-62154895D01*
X60485475Y-62087500D01*
X61349144Y-62087500D01*
X61352701Y-62123615D01*
X61352700Y-76050795D01*
X61349144Y-76086900D01*
X61363335Y-76230985D01*
X61405363Y-76369533D01*
X61473613Y-76497220D01*
X61565462Y-76609138D01*
X61677380Y-76700987D01*
X61805067Y-76769237D01*
X61943615Y-76811265D01*
X62087700Y-76825456D01*
X62123805Y-76821900D01*
X76050895Y-76821900D01*
X76087000Y-76825456D01*
X76123105Y-76821900D01*
X76231085Y-76811265D01*
X76369633Y-76769237D01*
X76497320Y-76700987D01*
X76609238Y-76609138D01*
X76701087Y-76497220D01*
X76769337Y-76369533D01*
X76811365Y-76230985D01*
X76825556Y-76086900D01*
X76822000Y-76050795D01*
X76822000Y-62123605D01*
X76825556Y-62087500D01*
X80399144Y-62087500D01*
X80402701Y-62123615D01*
X80402700Y-76050795D01*
X80399144Y-76086900D01*
X80413335Y-76230985D01*
X80455363Y-76369533D01*
X80523613Y-76497220D01*
X80615462Y-76609138D01*
X80727380Y-76700987D01*
X80855067Y-76769237D01*
X80993615Y-76811265D01*
X81137700Y-76825456D01*
X81173805Y-76821900D01*
X95100895Y-76821900D01*
X95137000Y-76825456D01*
X95173105Y-76821900D01*
X95281085Y-76811265D01*
X95419633Y-76769237D01*
X95547320Y-76700987D01*
X95659238Y-76609138D01*
X95751087Y-76497220D01*
X95819337Y-76369533D01*
X95861365Y-76230985D01*
X95875556Y-76086900D01*
X95872000Y-76050795D01*
X95872000Y-62123605D01*
X95875556Y-62087500D01*
X95861365Y-61943415D01*
X95819337Y-61804867D01*
X95751087Y-61677180D01*
X95659238Y-61565262D01*
X95547320Y-61473413D01*
X95419633Y-61405163D01*
X95281085Y-61363135D01*
X95173105Y-61352500D01*
X95137000Y-61348944D01*
X95100895Y-61352500D01*
X81173805Y-61352500D01*
X81137700Y-61348944D01*
X81101595Y-61352500D01*
X80993615Y-61363135D01*
X80855067Y-61405163D01*
X80727380Y-61473413D01*
X80615462Y-61565262D01*
X80523613Y-61677180D01*
X80455363Y-61804867D01*
X80413335Y-61943415D01*
X80399144Y-62087500D01*
X76825556Y-62087500D01*
X76811365Y-61943415D01*
X76769337Y-61804867D01*
X76701087Y-61677180D01*
X76609238Y-61565262D01*
X76497320Y-61473413D01*
X76369633Y-61405163D01*
X76231085Y-61363135D01*
X76123105Y-61352500D01*
X76087000Y-61348944D01*
X76050895Y-61352500D01*
X62123805Y-61352500D01*
X62087700Y-61348944D01*
X62051595Y-61352500D01*
X61943615Y-61363135D01*
X61805067Y-61405163D01*
X61677380Y-61473413D01*
X61565462Y-61565262D01*
X61473613Y-61677180D01*
X61405363Y-61804867D01*
X61363335Y-61943415D01*
X61349144Y-62087500D01*
X60485475Y-62087500D01*
X60820508Y-61948725D01*
X61268461Y-61649413D01*
X61649413Y-61268461D01*
X61948725Y-60820508D01*
X62154895Y-60322770D01*
X62260000Y-59794374D01*
X62260000Y-59255626D01*
X94890000Y-59255626D01*
X94890000Y-59794374D01*
X94995105Y-60322770D01*
X95201275Y-60820508D01*
X95500587Y-61268461D01*
X95881539Y-61649413D01*
X96329492Y-61948725D01*
X96827230Y-62154895D01*
X97355626Y-62260000D01*
X97894374Y-62260000D01*
X98422770Y-62154895D01*
X98585475Y-62087500D01*
X99449144Y-62087500D01*
X99452701Y-62123615D01*
X99452700Y-76050795D01*
X99449144Y-76086900D01*
X99463335Y-76230985D01*
X99505363Y-76369533D01*
X99573613Y-76497220D01*
X99665462Y-76609138D01*
X99777380Y-76700987D01*
X99905067Y-76769237D01*
X100043615Y-76811265D01*
X100187700Y-76825456D01*
X100223805Y-76821900D01*
X114150895Y-76821900D01*
X114187000Y-76825456D01*
X114223105Y-76821900D01*
X114331085Y-76811265D01*
X114469633Y-76769237D01*
X114597320Y-76700987D01*
X114709238Y-76609138D01*
X114801087Y-76497220D01*
X114869337Y-76369533D01*
X114911365Y-76230985D01*
X114925556Y-76086900D01*
X114922000Y-76050795D01*
X114922000Y-62123605D01*
X114925556Y-62087500D01*
X118499144Y-62087500D01*
X118502701Y-62123615D01*
X118502700Y-76050795D01*
X118499144Y-76086900D01*
X118513335Y-76230985D01*
X118555363Y-76369533D01*
X118623613Y-76497220D01*
X118715462Y-76609138D01*
X118827380Y-76700987D01*
X118955067Y-76769237D01*
X119093615Y-76811265D01*
X119237700Y-76825456D01*
X119273805Y-76821900D01*
X133200895Y-76821900D01*
X133237000Y-76825456D01*
X133273105Y-76821900D01*
X133381085Y-76811265D01*
X133519633Y-76769237D01*
X133647320Y-76700987D01*
X133759238Y-76609138D01*
X133851087Y-76497220D01*
X133919337Y-76369533D01*
X133961365Y-76230985D01*
X133975556Y-76086900D01*
X133972000Y-76050795D01*
X133972000Y-62123605D01*
X133975556Y-62087500D01*
X133961365Y-61943415D01*
X133919337Y-61804867D01*
X133851087Y-61677180D01*
X133759238Y-61565262D01*
X133647320Y-61473413D01*
X133519633Y-61405163D01*
X133381085Y-61363135D01*
X133273105Y-61352500D01*
X133237000Y-61348944D01*
X133200895Y-61352500D01*
X119273805Y-61352500D01*
X119237700Y-61348944D01*
X119201595Y-61352500D01*
X119093615Y-61363135D01*
X118955067Y-61405163D01*
X118827380Y-61473413D01*
X118715462Y-61565262D01*
X118623613Y-61677180D01*
X118555363Y-61804867D01*
X118513335Y-61943415D01*
X118499144Y-62087500D01*
X114925556Y-62087500D01*
X114911365Y-61943415D01*
X114869337Y-61804867D01*
X114801087Y-61677180D01*
X114709238Y-61565262D01*
X114597320Y-61473413D01*
X114469633Y-61405163D01*
X114331085Y-61363135D01*
X114223105Y-61352500D01*
X114187000Y-61348944D01*
X114150895Y-61352500D01*
X100223805Y-61352500D01*
X100187700Y-61348944D01*
X100151595Y-61352500D01*
X100043615Y-61363135D01*
X99905067Y-61405163D01*
X99777380Y-61473413D01*
X99665462Y-61565262D01*
X99573613Y-61677180D01*
X99505363Y-61804867D01*
X99463335Y-61943415D01*
X99449144Y-62087500D01*
X98585475Y-62087500D01*
X98920508Y-61948725D01*
X99368461Y-61649413D01*
X99749413Y-61268461D01*
X100048725Y-60820508D01*
X100254895Y-60322770D01*
X100360000Y-59794374D01*
X100360000Y-59255626D01*
X132990000Y-59255626D01*
X132990000Y-59794374D01*
X133095105Y-60322770D01*
X133301275Y-60820508D01*
X133600587Y-61268461D01*
X133981539Y-61649413D01*
X134429492Y-61948725D01*
X134927230Y-62154895D01*
X135455626Y-62260000D01*
X135994374Y-62260000D01*
X136522770Y-62154895D01*
X136685475Y-62087500D01*
X137547744Y-62087500D01*
X137551301Y-62123615D01*
X137551300Y-76050795D01*
X137547744Y-76086900D01*
X137561935Y-76230985D01*
X137603963Y-76369533D01*
X137672213Y-76497220D01*
X137764062Y-76609138D01*
X137875980Y-76700987D01*
X138003667Y-76769237D01*
X138142215Y-76811265D01*
X138286300Y-76825456D01*
X138322405Y-76821900D01*
X152250895Y-76821900D01*
X152287000Y-76825456D01*
X152323105Y-76821900D01*
X152431085Y-76811265D01*
X152569633Y-76769237D01*
X152697320Y-76700987D01*
X152809238Y-76609138D01*
X152901087Y-76497220D01*
X152969337Y-76369533D01*
X153011365Y-76230985D01*
X153025556Y-76086900D01*
X153022000Y-76050795D01*
X153022000Y-62123605D01*
X153025556Y-62087500D01*
X153011365Y-61943415D01*
X152969337Y-61804867D01*
X152901087Y-61677180D01*
X152809238Y-61565262D01*
X152697320Y-61473413D01*
X152569633Y-61405163D01*
X152431085Y-61363135D01*
X152323105Y-61352500D01*
X152287000Y-61348944D01*
X152250895Y-61352500D01*
X138322405Y-61352500D01*
X138286300Y-61348944D01*
X138250195Y-61352500D01*
X138142215Y-61363135D01*
X138003667Y-61405163D01*
X137875980Y-61473413D01*
X137764062Y-61565262D01*
X137672213Y-61677180D01*
X137603963Y-61804867D01*
X137561935Y-61943415D01*
X137547744Y-62087500D01*
X136685475Y-62087500D01*
X137020508Y-61948725D01*
X137468461Y-61649413D01*
X137849413Y-61268461D01*
X138148725Y-60820508D01*
X138354895Y-60322770D01*
X138460000Y-59794374D01*
X138460000Y-59255626D01*
X138354895Y-58727230D01*
X138148725Y-58229492D01*
X137849413Y-57781539D01*
X137468461Y-57400587D01*
X137020508Y-57101275D01*
X136522770Y-56895105D01*
X135994374Y-56790000D01*
X135455626Y-56790000D01*
X134927230Y-56895105D01*
X134429492Y-57101275D01*
X133981539Y-57400587D01*
X133600587Y-57781539D01*
X133301275Y-58229492D01*
X133095105Y-58727230D01*
X132990000Y-59255626D01*
X100360000Y-59255626D01*
X100254895Y-58727230D01*
X100048725Y-58229492D01*
X99749413Y-57781539D01*
X99368461Y-57400587D01*
X98920508Y-57101275D01*
X98422770Y-56895105D01*
X97894374Y-56790000D01*
X97355626Y-56790000D01*
X96827230Y-56895105D01*
X96329492Y-57101275D01*
X95881539Y-57400587D01*
X95500587Y-57781539D01*
X95201275Y-58229492D01*
X94995105Y-58727230D01*
X94890000Y-59255626D01*
X62260000Y-59255626D01*
X62154895Y-58727230D01*
X61948725Y-58229492D01*
X61649413Y-57781539D01*
X61268461Y-57400587D01*
X60820508Y-57101275D01*
X60322770Y-56895105D01*
X59794374Y-56790000D01*
X59255626Y-56790000D01*
X58727230Y-56895105D01*
X58229492Y-57101275D01*
X57781539Y-57400587D01*
X57400587Y-57781539D01*
X57101275Y-58229492D01*
X56895105Y-58727230D01*
X56790000Y-59255626D01*
X38760000Y-59255626D01*
X38760000Y-43037400D01*
X42299094Y-43037400D01*
X42302651Y-43073515D01*
X42302650Y-57000595D01*
X42299094Y-57036700D01*
X42313285Y-57180785D01*
X42355313Y-57319333D01*
X42423563Y-57447020D01*
X42515412Y-57558938D01*
X42627330Y-57650787D01*
X42755017Y-57719037D01*
X42893565Y-57761065D01*
X43037650Y-57775256D01*
X43073755Y-57771700D01*
X57001095Y-57771700D01*
X57037200Y-57775256D01*
X57073305Y-57771700D01*
X57181285Y-57761065D01*
X57319833Y-57719037D01*
X57447520Y-57650787D01*
X57559438Y-57558938D01*
X57651287Y-57447020D01*
X57719537Y-57319333D01*
X57761565Y-57180785D01*
X57775756Y-57036700D01*
X57772200Y-57000595D01*
X57772200Y-43073505D01*
X57775756Y-43037400D01*
X61349144Y-43037400D01*
X61352701Y-43073515D01*
X61352700Y-57000595D01*
X61349144Y-57036700D01*
X61363335Y-57180785D01*
X61405363Y-57319333D01*
X61473613Y-57447020D01*
X61565462Y-57558938D01*
X61677380Y-57650787D01*
X61805067Y-57719037D01*
X61943615Y-57761065D01*
X62087700Y-57775256D01*
X62123805Y-57771700D01*
X76050895Y-57771700D01*
X76087000Y-57775256D01*
X76123105Y-57771700D01*
X76231085Y-57761065D01*
X76369633Y-57719037D01*
X76497320Y-57650787D01*
X76609238Y-57558938D01*
X76701087Y-57447020D01*
X76769337Y-57319333D01*
X76811365Y-57180785D01*
X76825556Y-57036700D01*
X76822000Y-57000595D01*
X76822000Y-43073505D01*
X76825556Y-43037400D01*
X80399144Y-43037400D01*
X80402701Y-43073515D01*
X80402700Y-57000595D01*
X80399144Y-57036700D01*
X80413335Y-57180785D01*
X80455363Y-57319333D01*
X80523613Y-57447020D01*
X80615462Y-57558938D01*
X80727380Y-57650787D01*
X80855067Y-57719037D01*
X80993615Y-57761065D01*
X81137700Y-57775256D01*
X81173805Y-57771700D01*
X95100895Y-57771700D01*
X95137000Y-57775256D01*
X95173105Y-57771700D01*
X95281085Y-57761065D01*
X95419633Y-57719037D01*
X95547320Y-57650787D01*
X95659238Y-57558938D01*
X95751087Y-57447020D01*
X95819337Y-57319333D01*
X95861365Y-57180785D01*
X95875556Y-57036700D01*
X95872000Y-57000595D01*
X95872000Y-43073505D01*
X95875556Y-43037400D01*
X99449144Y-43037400D01*
X99452701Y-43073515D01*
X99452700Y-57000595D01*
X99449144Y-57036700D01*
X99463335Y-57180785D01*
X99505363Y-57319333D01*
X99573613Y-57447020D01*
X99665462Y-57558938D01*
X99777380Y-57650787D01*
X99905067Y-57719037D01*
X100043615Y-57761065D01*
X100187700Y-57775256D01*
X100223805Y-57771700D01*
X114150895Y-57771700D01*
X114187000Y-57775256D01*
X114223105Y-57771700D01*
X114331085Y-57761065D01*
X114469633Y-57719037D01*
X114597320Y-57650787D01*
X114709238Y-57558938D01*
X114801087Y-57447020D01*
X114869337Y-57319333D01*
X114911365Y-57180785D01*
X114925556Y-57036700D01*
X114922000Y-57000595D01*
X114922000Y-43073505D01*
X114925556Y-43037400D01*
X118499144Y-43037400D01*
X118502701Y-43073515D01*
X118502700Y-57000595D01*
X118499144Y-57036700D01*
X118513335Y-57180785D01*
X118555363Y-57319333D01*
X118623613Y-57447020D01*
X118715462Y-57558938D01*
X118827380Y-57650787D01*
X118955067Y-57719037D01*
X119093615Y-57761065D01*
X119237700Y-57775256D01*
X119273805Y-57771700D01*
X133200895Y-57771700D01*
X133237000Y-57775256D01*
X133273105Y-57771700D01*
X133381085Y-57761065D01*
X133519633Y-57719037D01*
X133647320Y-57650787D01*
X133759238Y-57558938D01*
X133851087Y-57447020D01*
X133919337Y-57319333D01*
X133961365Y-57180785D01*
X133975556Y-57036700D01*
X133972000Y-57000595D01*
X133972000Y-43073505D01*
X133975556Y-43037400D01*
X137547744Y-43037400D01*
X137551301Y-43073515D01*
X137551300Y-57000595D01*
X137547744Y-57036700D01*
X137561935Y-57180785D01*
X137603963Y-57319333D01*
X137672213Y-57447020D01*
X137764062Y-57558938D01*
X137875980Y-57650787D01*
X138003667Y-57719037D01*
X138142215Y-57761065D01*
X138286300Y-57775256D01*
X138322405Y-57771700D01*
X152250895Y-57771700D01*
X152287000Y-57775256D01*
X152323105Y-57771700D01*
X152431085Y-57761065D01*
X152569633Y-57719037D01*
X152697320Y-57650787D01*
X152809238Y-57558938D01*
X152901087Y-57447020D01*
X152969337Y-57319333D01*
X153011365Y-57180785D01*
X153025556Y-57036700D01*
X153022000Y-57000595D01*
X153022000Y-43073505D01*
X153025556Y-43037400D01*
X153011365Y-42893315D01*
X152969337Y-42754767D01*
X152901087Y-42627080D01*
X152809238Y-42515162D01*
X152697320Y-42423313D01*
X152569633Y-42355063D01*
X152431085Y-42313035D01*
X152323105Y-42302400D01*
X152287000Y-42298844D01*
X152250895Y-42302400D01*
X138322405Y-42302400D01*
X138286300Y-42298844D01*
X138250195Y-42302400D01*
X138142215Y-42313035D01*
X138003667Y-42355063D01*
X137875980Y-42423313D01*
X137764062Y-42515162D01*
X137672213Y-42627080D01*
X137603963Y-42754767D01*
X137561935Y-42893315D01*
X137547744Y-43037400D01*
X133975556Y-43037400D01*
X133961365Y-42893315D01*
X133919337Y-42754767D01*
X133851087Y-42627080D01*
X133759238Y-42515162D01*
X133647320Y-42423313D01*
X133519633Y-42355063D01*
X133381085Y-42313035D01*
X133273105Y-42302400D01*
X133237000Y-42298844D01*
X133200895Y-42302400D01*
X119273805Y-42302400D01*
X119237700Y-42298844D01*
X119201595Y-42302400D01*
X119093615Y-42313035D01*
X118955067Y-42355063D01*
X118827380Y-42423313D01*
X118715462Y-42515162D01*
X118623613Y-42627080D01*
X118555363Y-42754767D01*
X118513335Y-42893315D01*
X118499144Y-43037400D01*
X114925556Y-43037400D01*
X114911365Y-42893315D01*
X114869337Y-42754767D01*
X114801087Y-42627080D01*
X114709238Y-42515162D01*
X114597320Y-42423313D01*
X114469633Y-42355063D01*
X114331085Y-42313035D01*
X114223105Y-42302400D01*
X114187000Y-42298844D01*
X114150895Y-42302400D01*
X100223805Y-42302400D01*
X100187700Y-42298844D01*
X100151595Y-42302400D01*
X100043615Y-42313035D01*
X99905067Y-42355063D01*
X99777380Y-42423313D01*
X99665462Y-42515162D01*
X99573613Y-42627080D01*
X99505363Y-42754767D01*
X99463335Y-42893315D01*
X99449144Y-43037400D01*
X95875556Y-43037400D01*
X95861365Y-42893315D01*
X95819337Y-42754767D01*
X95751087Y-42627080D01*
X95659238Y-42515162D01*
X95547320Y-42423313D01*
X95419633Y-42355063D01*
X95281085Y-42313035D01*
X95173105Y-42302400D01*
X95137000Y-42298844D01*
X95100895Y-42302400D01*
X81173805Y-42302400D01*
X81137700Y-42298844D01*
X81101595Y-42302400D01*
X80993615Y-42313035D01*
X80855067Y-42355063D01*
X80727380Y-42423313D01*
X80615462Y-42515162D01*
X80523613Y-42627080D01*
X80455363Y-42754767D01*
X80413335Y-42893315D01*
X80399144Y-43037400D01*
X76825556Y-43037400D01*
X76811365Y-42893315D01*
X76769337Y-42754767D01*
X76701087Y-42627080D01*
X76609238Y-42515162D01*
X76497320Y-42423313D01*
X76369633Y-42355063D01*
X76231085Y-42313035D01*
X76123105Y-42302400D01*
X76087000Y-42298844D01*
X76050895Y-42302400D01*
X62123805Y-42302400D01*
X62087700Y-42298844D01*
X62051595Y-42302400D01*
X61943615Y-42313035D01*
X61805067Y-42355063D01*
X61677380Y-42423313D01*
X61565462Y-42515162D01*
X61473613Y-42627080D01*
X61405363Y-42754767D01*
X61363335Y-42893315D01*
X61349144Y-43037400D01*
X57775756Y-43037400D01*
X57761565Y-42893315D01*
X57719537Y-42754767D01*
X57651287Y-42627080D01*
X57559438Y-42515162D01*
X57447520Y-42423313D01*
X57319833Y-42355063D01*
X57181285Y-42313035D01*
X57073305Y-42302400D01*
X57037200Y-42298844D01*
X57001095Y-42302400D01*
X43073755Y-42302400D01*
X43037650Y-42298844D01*
X43001545Y-42302400D01*
X42893565Y-42313035D01*
X42755017Y-42355063D01*
X42627330Y-42423313D01*
X42515412Y-42515162D01*
X42423563Y-42627080D01*
X42355313Y-42754767D01*
X42313285Y-42893315D01*
X42299094Y-43037400D01*
X38760000Y-43037400D01*
X38760000Y-38132279D01*
X38823096Y-37488778D01*
X39000606Y-36900836D01*
X39288937Y-36358564D01*
X39677094Y-35882636D01*
X40150314Y-35491155D01*
X40690552Y-35199049D01*
X41277244Y-35017437D01*
X41918879Y-34950000D01*
X152367721Y-34950000D01*
X153011222Y-35013096D01*
G04 #@! TA.AperFunction,NonConductor*
D12*
G36*
X153011222Y-35013096D02*
G01*
X153599164Y-35190606D01*
X154141436Y-35478937D01*
X154617364Y-35867094D01*
X155008845Y-36340314D01*
X155300951Y-36880552D01*
X155482563Y-37467244D01*
X155550000Y-38108879D01*
X155550001Y-77437571D01*
X155546807Y-77470000D01*
X155559550Y-77599383D01*
X155597290Y-77723793D01*
X155658575Y-77838450D01*
X155741052Y-77938948D01*
X155841550Y-78021425D01*
X155956207Y-78082710D01*
X156080617Y-78120450D01*
X156177581Y-78130000D01*
X156210000Y-78133193D01*
X156242419Y-78130000D01*
X172687721Y-78130000D01*
X173084545Y-78168909D01*
X173435208Y-78274780D01*
X173758625Y-78446744D01*
X174042484Y-78678254D01*
X174275965Y-78960486D01*
X174450183Y-79282695D01*
X174558502Y-79632614D01*
X174600001Y-80027452D01*
X174600000Y-96487721D01*
X174536904Y-97131221D01*
X174359394Y-97719164D01*
X174071063Y-98261436D01*
X173682906Y-98737364D01*
X173209686Y-99128845D01*
X172669449Y-99420950D01*
X172082756Y-99602563D01*
X171441130Y-99670000D01*
X41942279Y-99670000D01*
X41298779Y-99606904D01*
X40710836Y-99429394D01*
X40168564Y-99141063D01*
X39692636Y-98752906D01*
X39301155Y-98279686D01*
X39009050Y-97739449D01*
X38827437Y-97152756D01*
X38760000Y-96511130D01*
X38760000Y-81137400D01*
X42299094Y-81137400D01*
X42302651Y-81173515D01*
X42302650Y-95100755D01*
X42299094Y-95136860D01*
X42313285Y-95280945D01*
X42355313Y-95419493D01*
X42423563Y-95547180D01*
X42515412Y-95659098D01*
X42627330Y-95750947D01*
X42755017Y-95819197D01*
X42893565Y-95861225D01*
X43037650Y-95875416D01*
X43073755Y-95871860D01*
X57001095Y-95871860D01*
X57037200Y-95875416D01*
X57073305Y-95871860D01*
X57181285Y-95861225D01*
X57319833Y-95819197D01*
X57447520Y-95750947D01*
X57559438Y-95659098D01*
X57651287Y-95547180D01*
X57719537Y-95419493D01*
X57761565Y-95280945D01*
X57775756Y-95136860D01*
X57772200Y-95100755D01*
X57772200Y-81173505D01*
X57775756Y-81137400D01*
X57761565Y-80993315D01*
X57719537Y-80854767D01*
X57651287Y-80727080D01*
X57559438Y-80615162D01*
X57447520Y-80523313D01*
X57319833Y-80455063D01*
X57181285Y-80413035D01*
X57073305Y-80402400D01*
X57037200Y-80398844D01*
X57001095Y-80402400D01*
X43073755Y-80402400D01*
X43037650Y-80398844D01*
X43001545Y-80402400D01*
X42893565Y-80413035D01*
X42755017Y-80455063D01*
X42627330Y-80523313D01*
X42515412Y-80615162D01*
X42423563Y-80727080D01*
X42355313Y-80854767D01*
X42313285Y-80993315D01*
X42299094Y-81137400D01*
X38760000Y-81137400D01*
X38760000Y-78305626D01*
X56790000Y-78305626D01*
X56790000Y-78844374D01*
X56895105Y-79372770D01*
X57101275Y-79870508D01*
X57400587Y-80318461D01*
X57781539Y-80699413D01*
X58229492Y-80998725D01*
X58727230Y-81204895D01*
X59255626Y-81310000D01*
X59794374Y-81310000D01*
X60322770Y-81204895D01*
X60485717Y-81137400D01*
X61349144Y-81137400D01*
X61352701Y-81173515D01*
X61352700Y-95100755D01*
X61349144Y-95136860D01*
X61363335Y-95280945D01*
X61405363Y-95419493D01*
X61473613Y-95547180D01*
X61565462Y-95659098D01*
X61677380Y-95750947D01*
X61805067Y-95819197D01*
X61943615Y-95861225D01*
X62087700Y-95875416D01*
X62123805Y-95871860D01*
X76050895Y-95871860D01*
X76087000Y-95875416D01*
X76123105Y-95871860D01*
X76231085Y-95861225D01*
X76369633Y-95819197D01*
X76497320Y-95750947D01*
X76609238Y-95659098D01*
X76701087Y-95547180D01*
X76769337Y-95419493D01*
X76811365Y-95280945D01*
X76825556Y-95136860D01*
X76822000Y-95100755D01*
X76822000Y-81173505D01*
X76825556Y-81137400D01*
X80399144Y-81137400D01*
X80402701Y-81173515D01*
X80402700Y-95100755D01*
X80399144Y-95136860D01*
X80413335Y-95280945D01*
X80455363Y-95419493D01*
X80523613Y-95547180D01*
X80615462Y-95659098D01*
X80727380Y-95750947D01*
X80855067Y-95819197D01*
X80993615Y-95861225D01*
X81137700Y-95875416D01*
X81173805Y-95871860D01*
X95100895Y-95871860D01*
X95137000Y-95875416D01*
X95173105Y-95871860D01*
X95281085Y-95861225D01*
X95419633Y-95819197D01*
X95547320Y-95750947D01*
X95659238Y-95659098D01*
X95751087Y-95547180D01*
X95819337Y-95419493D01*
X95861365Y-95280945D01*
X95875556Y-95136860D01*
X95872000Y-95100755D01*
X95872000Y-81173505D01*
X95875556Y-81137400D01*
X95861365Y-80993315D01*
X95819337Y-80854767D01*
X95751087Y-80727080D01*
X95659238Y-80615162D01*
X95547320Y-80523313D01*
X95419633Y-80455063D01*
X95281085Y-80413035D01*
X95173105Y-80402400D01*
X95137000Y-80398844D01*
X95100895Y-80402400D01*
X81173805Y-80402400D01*
X81137700Y-80398844D01*
X81101595Y-80402400D01*
X80993615Y-80413035D01*
X80855067Y-80455063D01*
X80727380Y-80523313D01*
X80615462Y-80615162D01*
X80523613Y-80727080D01*
X80455363Y-80854767D01*
X80413335Y-80993315D01*
X80399144Y-81137400D01*
X76825556Y-81137400D01*
X76811365Y-80993315D01*
X76769337Y-80854767D01*
X76701087Y-80727080D01*
X76609238Y-80615162D01*
X76497320Y-80523313D01*
X76369633Y-80455063D01*
X76231085Y-80413035D01*
X76123105Y-80402400D01*
X76087000Y-80398844D01*
X76050895Y-80402400D01*
X62123805Y-80402400D01*
X62087700Y-80398844D01*
X62051595Y-80402400D01*
X61943615Y-80413035D01*
X61805067Y-80455063D01*
X61677380Y-80523313D01*
X61565462Y-80615162D01*
X61473613Y-80727080D01*
X61405363Y-80854767D01*
X61363335Y-80993315D01*
X61349144Y-81137400D01*
X60485717Y-81137400D01*
X60820508Y-80998725D01*
X61268461Y-80699413D01*
X61649413Y-80318461D01*
X61948725Y-79870508D01*
X62154895Y-79372770D01*
X62260000Y-78844374D01*
X62260000Y-78305626D01*
X94890000Y-78305626D01*
X94890000Y-78844374D01*
X94995105Y-79372770D01*
X95201275Y-79870508D01*
X95500587Y-80318461D01*
X95881539Y-80699413D01*
X96329492Y-80998725D01*
X96827230Y-81204895D01*
X97355626Y-81310000D01*
X97894374Y-81310000D01*
X98422770Y-81204895D01*
X98585717Y-81137400D01*
X99449144Y-81137400D01*
X99452701Y-81173515D01*
X99452700Y-95100755D01*
X99449144Y-95136860D01*
X99463335Y-95280945D01*
X99505363Y-95419493D01*
X99573613Y-95547180D01*
X99665462Y-95659098D01*
X99777380Y-95750947D01*
X99905067Y-95819197D01*
X100043615Y-95861225D01*
X100187700Y-95875416D01*
X100223805Y-95871860D01*
X114150895Y-95871860D01*
X114187000Y-95875416D01*
X114223105Y-95871860D01*
X114331085Y-95861225D01*
X114469633Y-95819197D01*
X114597320Y-95750947D01*
X114709238Y-95659098D01*
X114801087Y-95547180D01*
X114869337Y-95419493D01*
X114911365Y-95280945D01*
X114925556Y-95136860D01*
X114922000Y-95100755D01*
X114922000Y-81173505D01*
X114925556Y-81137400D01*
X118499144Y-81137400D01*
X118502701Y-81173515D01*
X118502700Y-95100755D01*
X118499144Y-95136860D01*
X118513335Y-95280945D01*
X118555363Y-95419493D01*
X118623613Y-95547180D01*
X118715462Y-95659098D01*
X118827380Y-95750947D01*
X118955067Y-95819197D01*
X119093615Y-95861225D01*
X119237700Y-95875416D01*
X119273805Y-95871860D01*
X133200895Y-95871860D01*
X133237000Y-95875416D01*
X133273105Y-95871860D01*
X133381085Y-95861225D01*
X133519633Y-95819197D01*
X133647320Y-95750947D01*
X133759238Y-95659098D01*
X133851087Y-95547180D01*
X133919337Y-95419493D01*
X133961365Y-95280945D01*
X133975556Y-95136860D01*
X133972000Y-95100755D01*
X133972000Y-81173505D01*
X133975556Y-81137400D01*
X133961365Y-80993315D01*
X133919337Y-80854767D01*
X133851087Y-80727080D01*
X133759238Y-80615162D01*
X133647320Y-80523313D01*
X133519633Y-80455063D01*
X133381085Y-80413035D01*
X133273105Y-80402400D01*
X133237000Y-80398844D01*
X133200895Y-80402400D01*
X119273805Y-80402400D01*
X119237700Y-80398844D01*
X119201595Y-80402400D01*
X119093615Y-80413035D01*
X118955067Y-80455063D01*
X118827380Y-80523313D01*
X118715462Y-80615162D01*
X118623613Y-80727080D01*
X118555363Y-80854767D01*
X118513335Y-80993315D01*
X118499144Y-81137400D01*
X114925556Y-81137400D01*
X114911365Y-80993315D01*
X114869337Y-80854767D01*
X114801087Y-80727080D01*
X114709238Y-80615162D01*
X114597320Y-80523313D01*
X114469633Y-80455063D01*
X114331085Y-80413035D01*
X114223105Y-80402400D01*
X114187000Y-80398844D01*
X114150895Y-80402400D01*
X100223805Y-80402400D01*
X100187700Y-80398844D01*
X100151595Y-80402400D01*
X100043615Y-80413035D01*
X99905067Y-80455063D01*
X99777380Y-80523313D01*
X99665462Y-80615162D01*
X99573613Y-80727080D01*
X99505363Y-80854767D01*
X99463335Y-80993315D01*
X99449144Y-81137400D01*
X98585717Y-81137400D01*
X98920508Y-80998725D01*
X99368461Y-80699413D01*
X99749413Y-80318461D01*
X100048725Y-79870508D01*
X100254895Y-79372770D01*
X100360000Y-78844374D01*
X100360000Y-78305626D01*
X132990000Y-78305626D01*
X132990000Y-78844374D01*
X133095105Y-79372770D01*
X133301275Y-79870508D01*
X133600587Y-80318461D01*
X133981539Y-80699413D01*
X134429492Y-80998725D01*
X134927230Y-81204895D01*
X135455626Y-81310000D01*
X135994374Y-81310000D01*
X136522770Y-81204895D01*
X136685717Y-81137400D01*
X137547744Y-81137400D01*
X137551301Y-81173515D01*
X137551300Y-95100755D01*
X137547744Y-95136860D01*
X137561935Y-95280945D01*
X137603963Y-95419493D01*
X137672213Y-95547180D01*
X137764062Y-95659098D01*
X137875980Y-95750947D01*
X138003667Y-95819197D01*
X138142215Y-95861225D01*
X138286300Y-95875416D01*
X138322405Y-95871860D01*
X152250895Y-95871860D01*
X152287000Y-95875416D01*
X152323105Y-95871860D01*
X152431085Y-95861225D01*
X152569633Y-95819197D01*
X152697320Y-95750947D01*
X152809238Y-95659098D01*
X152901087Y-95547180D01*
X152969337Y-95419493D01*
X153011365Y-95280945D01*
X153025556Y-95136860D01*
X153022000Y-95100755D01*
X153022000Y-81173505D01*
X153025556Y-81137400D01*
X156597444Y-81137400D01*
X156601001Y-81173515D01*
X156601000Y-95100755D01*
X156597444Y-95136860D01*
X156611635Y-95280945D01*
X156653663Y-95419493D01*
X156721913Y-95547180D01*
X156813762Y-95659098D01*
X156925680Y-95750947D01*
X157053367Y-95819197D01*
X157191915Y-95861225D01*
X157336000Y-95875416D01*
X157372105Y-95871860D01*
X171300895Y-95871860D01*
X171337000Y-95875416D01*
X171373105Y-95871860D01*
X171481085Y-95861225D01*
X171619633Y-95819197D01*
X171747320Y-95750947D01*
X171859238Y-95659098D01*
X171951087Y-95547180D01*
X172019337Y-95419493D01*
X172061365Y-95280945D01*
X172075556Y-95136860D01*
X172072000Y-95100755D01*
X172072000Y-81173505D01*
X172075556Y-81137400D01*
X172061365Y-80993315D01*
X172019337Y-80854767D01*
X171951087Y-80727080D01*
X171859238Y-80615162D01*
X171747320Y-80523313D01*
X171619633Y-80455063D01*
X171481085Y-80413035D01*
X171373105Y-80402400D01*
X171337000Y-80398844D01*
X171300895Y-80402400D01*
X157372105Y-80402400D01*
X157336000Y-80398844D01*
X157299895Y-80402400D01*
X157191915Y-80413035D01*
X157053367Y-80455063D01*
X156925680Y-80523313D01*
X156813762Y-80615162D01*
X156721913Y-80727080D01*
X156653663Y-80854767D01*
X156611635Y-80993315D01*
X156597444Y-81137400D01*
X153025556Y-81137400D01*
X153011365Y-80993315D01*
X152969337Y-80854767D01*
X152901087Y-80727080D01*
X152809238Y-80615162D01*
X152697320Y-80523313D01*
X152569633Y-80455063D01*
X152431085Y-80413035D01*
X152323105Y-80402400D01*
X152287000Y-80398844D01*
X152250895Y-80402400D01*
X138322405Y-80402400D01*
X138286300Y-80398844D01*
X138250195Y-80402400D01*
X138142215Y-80413035D01*
X138003667Y-80455063D01*
X137875980Y-80523313D01*
X137764062Y-80615162D01*
X137672213Y-80727080D01*
X137603963Y-80854767D01*
X137561935Y-80993315D01*
X137547744Y-81137400D01*
X136685717Y-81137400D01*
X137020508Y-80998725D01*
X137468461Y-80699413D01*
X137849413Y-80318461D01*
X138148725Y-79870508D01*
X138354895Y-79372770D01*
X138460000Y-78844374D01*
X138460000Y-78305626D01*
X138354895Y-77777230D01*
X138148725Y-77279492D01*
X137849413Y-76831539D01*
X137468461Y-76450587D01*
X137020508Y-76151275D01*
X136522770Y-75945105D01*
X135994374Y-75840000D01*
X135455626Y-75840000D01*
X134927230Y-75945105D01*
X134429492Y-76151275D01*
X133981539Y-76450587D01*
X133600587Y-76831539D01*
X133301275Y-77279492D01*
X133095105Y-77777230D01*
X132990000Y-78305626D01*
X100360000Y-78305626D01*
X100254895Y-77777230D01*
X100048725Y-77279492D01*
X99749413Y-76831539D01*
X99368461Y-76450587D01*
X98920508Y-76151275D01*
X98422770Y-75945105D01*
X97894374Y-75840000D01*
X97355626Y-75840000D01*
X96827230Y-75945105D01*
X96329492Y-76151275D01*
X95881539Y-76450587D01*
X95500587Y-76831539D01*
X95201275Y-77279492D01*
X94995105Y-77777230D01*
X94890000Y-78305626D01*
X62260000Y-78305626D01*
X62154895Y-77777230D01*
X61948725Y-77279492D01*
X61649413Y-76831539D01*
X61268461Y-76450587D01*
X60820508Y-76151275D01*
X60322770Y-75945105D01*
X59794374Y-75840000D01*
X59255626Y-75840000D01*
X58727230Y-75945105D01*
X58229492Y-76151275D01*
X57781539Y-76450587D01*
X57400587Y-76831539D01*
X57101275Y-77279492D01*
X56895105Y-77777230D01*
X56790000Y-78305626D01*
X38760000Y-78305626D01*
X38760000Y-62087500D01*
X42299094Y-62087500D01*
X42302651Y-62123615D01*
X42302650Y-76050795D01*
X42299094Y-76086900D01*
X42313285Y-76230985D01*
X42355313Y-76369533D01*
X42423563Y-76497220D01*
X42515412Y-76609138D01*
X42627330Y-76700987D01*
X42755017Y-76769237D01*
X42893565Y-76811265D01*
X43037650Y-76825456D01*
X43073755Y-76821900D01*
X57001095Y-76821900D01*
X57037200Y-76825456D01*
X57073305Y-76821900D01*
X57181285Y-76811265D01*
X57319833Y-76769237D01*
X57447520Y-76700987D01*
X57559438Y-76609138D01*
X57651287Y-76497220D01*
X57719537Y-76369533D01*
X57761565Y-76230985D01*
X57775756Y-76086900D01*
X57772200Y-76050795D01*
X57772200Y-62123605D01*
X57775756Y-62087500D01*
X57761565Y-61943415D01*
X57719537Y-61804867D01*
X57651287Y-61677180D01*
X57559438Y-61565262D01*
X57447520Y-61473413D01*
X57319833Y-61405163D01*
X57181285Y-61363135D01*
X57073305Y-61352500D01*
X57037200Y-61348944D01*
X57001095Y-61352500D01*
X43073755Y-61352500D01*
X43037650Y-61348944D01*
X43001545Y-61352500D01*
X42893565Y-61363135D01*
X42755017Y-61405163D01*
X42627330Y-61473413D01*
X42515412Y-61565262D01*
X42423563Y-61677180D01*
X42355313Y-61804867D01*
X42313285Y-61943415D01*
X42299094Y-62087500D01*
X38760000Y-62087500D01*
X38760000Y-59255626D01*
X56790000Y-59255626D01*
X56790000Y-59794374D01*
X56895105Y-60322770D01*
X57101275Y-60820508D01*
X57400587Y-61268461D01*
X57781539Y-61649413D01*
X58229492Y-61948725D01*
X58727230Y-62154895D01*
X59255626Y-62260000D01*
X59794374Y-62260000D01*
X60322770Y-62154895D01*
X60485475Y-62087500D01*
X61349144Y-62087500D01*
X61352701Y-62123615D01*
X61352700Y-76050795D01*
X61349144Y-76086900D01*
X61363335Y-76230985D01*
X61405363Y-76369533D01*
X61473613Y-76497220D01*
X61565462Y-76609138D01*
X61677380Y-76700987D01*
X61805067Y-76769237D01*
X61943615Y-76811265D01*
X62087700Y-76825456D01*
X62123805Y-76821900D01*
X76050895Y-76821900D01*
X76087000Y-76825456D01*
X76123105Y-76821900D01*
X76231085Y-76811265D01*
X76369633Y-76769237D01*
X76497320Y-76700987D01*
X76609238Y-76609138D01*
X76701087Y-76497220D01*
X76769337Y-76369533D01*
X76811365Y-76230985D01*
X76825556Y-76086900D01*
X76822000Y-76050795D01*
X76822000Y-62123605D01*
X76825556Y-62087500D01*
X80399144Y-62087500D01*
X80402701Y-62123615D01*
X80402700Y-76050795D01*
X80399144Y-76086900D01*
X80413335Y-76230985D01*
X80455363Y-76369533D01*
X80523613Y-76497220D01*
X80615462Y-76609138D01*
X80727380Y-76700987D01*
X80855067Y-76769237D01*
X80993615Y-76811265D01*
X81137700Y-76825456D01*
X81173805Y-76821900D01*
X95100895Y-76821900D01*
X95137000Y-76825456D01*
X95173105Y-76821900D01*
X95281085Y-76811265D01*
X95419633Y-76769237D01*
X95547320Y-76700987D01*
X95659238Y-76609138D01*
X95751087Y-76497220D01*
X95819337Y-76369533D01*
X95861365Y-76230985D01*
X95875556Y-76086900D01*
X95872000Y-76050795D01*
X95872000Y-62123605D01*
X95875556Y-62087500D01*
X95861365Y-61943415D01*
X95819337Y-61804867D01*
X95751087Y-61677180D01*
X95659238Y-61565262D01*
X95547320Y-61473413D01*
X95419633Y-61405163D01*
X95281085Y-61363135D01*
X95173105Y-61352500D01*
X95137000Y-61348944D01*
X95100895Y-61352500D01*
X81173805Y-61352500D01*
X81137700Y-61348944D01*
X81101595Y-61352500D01*
X80993615Y-61363135D01*
X80855067Y-61405163D01*
X80727380Y-61473413D01*
X80615462Y-61565262D01*
X80523613Y-61677180D01*
X80455363Y-61804867D01*
X80413335Y-61943415D01*
X80399144Y-62087500D01*
X76825556Y-62087500D01*
X76811365Y-61943415D01*
X76769337Y-61804867D01*
X76701087Y-61677180D01*
X76609238Y-61565262D01*
X76497320Y-61473413D01*
X76369633Y-61405163D01*
X76231085Y-61363135D01*
X76123105Y-61352500D01*
X76087000Y-61348944D01*
X76050895Y-61352500D01*
X62123805Y-61352500D01*
X62087700Y-61348944D01*
X62051595Y-61352500D01*
X61943615Y-61363135D01*
X61805067Y-61405163D01*
X61677380Y-61473413D01*
X61565462Y-61565262D01*
X61473613Y-61677180D01*
X61405363Y-61804867D01*
X61363335Y-61943415D01*
X61349144Y-62087500D01*
X60485475Y-62087500D01*
X60820508Y-61948725D01*
X61268461Y-61649413D01*
X61649413Y-61268461D01*
X61948725Y-60820508D01*
X62154895Y-60322770D01*
X62260000Y-59794374D01*
X62260000Y-59255626D01*
X94890000Y-59255626D01*
X94890000Y-59794374D01*
X94995105Y-60322770D01*
X95201275Y-60820508D01*
X95500587Y-61268461D01*
X95881539Y-61649413D01*
X96329492Y-61948725D01*
X96827230Y-62154895D01*
X97355626Y-62260000D01*
X97894374Y-62260000D01*
X98422770Y-62154895D01*
X98585475Y-62087500D01*
X99449144Y-62087500D01*
X99452701Y-62123615D01*
X99452700Y-76050795D01*
X99449144Y-76086900D01*
X99463335Y-76230985D01*
X99505363Y-76369533D01*
X99573613Y-76497220D01*
X99665462Y-76609138D01*
X99777380Y-76700987D01*
X99905067Y-76769237D01*
X100043615Y-76811265D01*
X100187700Y-76825456D01*
X100223805Y-76821900D01*
X114150895Y-76821900D01*
X114187000Y-76825456D01*
X114223105Y-76821900D01*
X114331085Y-76811265D01*
X114469633Y-76769237D01*
X114597320Y-76700987D01*
X114709238Y-76609138D01*
X114801087Y-76497220D01*
X114869337Y-76369533D01*
X114911365Y-76230985D01*
X114925556Y-76086900D01*
X114922000Y-76050795D01*
X114922000Y-62123605D01*
X114925556Y-62087500D01*
X118499144Y-62087500D01*
X118502701Y-62123615D01*
X118502700Y-76050795D01*
X118499144Y-76086900D01*
X118513335Y-76230985D01*
X118555363Y-76369533D01*
X118623613Y-76497220D01*
X118715462Y-76609138D01*
X118827380Y-76700987D01*
X118955067Y-76769237D01*
X119093615Y-76811265D01*
X119237700Y-76825456D01*
X119273805Y-76821900D01*
X133200895Y-76821900D01*
X133237000Y-76825456D01*
X133273105Y-76821900D01*
X133381085Y-76811265D01*
X133519633Y-76769237D01*
X133647320Y-76700987D01*
X133759238Y-76609138D01*
X133851087Y-76497220D01*
X133919337Y-76369533D01*
X133961365Y-76230985D01*
X133975556Y-76086900D01*
X133972000Y-76050795D01*
X133972000Y-62123605D01*
X133975556Y-62087500D01*
X133961365Y-61943415D01*
X133919337Y-61804867D01*
X133851087Y-61677180D01*
X133759238Y-61565262D01*
X133647320Y-61473413D01*
X133519633Y-61405163D01*
X133381085Y-61363135D01*
X133273105Y-61352500D01*
X133237000Y-61348944D01*
X133200895Y-61352500D01*
X119273805Y-61352500D01*
X119237700Y-61348944D01*
X119201595Y-61352500D01*
X119093615Y-61363135D01*
X118955067Y-61405163D01*
X118827380Y-61473413D01*
X118715462Y-61565262D01*
X118623613Y-61677180D01*
X118555363Y-61804867D01*
X118513335Y-61943415D01*
X118499144Y-62087500D01*
X114925556Y-62087500D01*
X114911365Y-61943415D01*
X114869337Y-61804867D01*
X114801087Y-61677180D01*
X114709238Y-61565262D01*
X114597320Y-61473413D01*
X114469633Y-61405163D01*
X114331085Y-61363135D01*
X114223105Y-61352500D01*
X114187000Y-61348944D01*
X114150895Y-61352500D01*
X100223805Y-61352500D01*
X100187700Y-61348944D01*
X100151595Y-61352500D01*
X100043615Y-61363135D01*
X99905067Y-61405163D01*
X99777380Y-61473413D01*
X99665462Y-61565262D01*
X99573613Y-61677180D01*
X99505363Y-61804867D01*
X99463335Y-61943415D01*
X99449144Y-62087500D01*
X98585475Y-62087500D01*
X98920508Y-61948725D01*
X99368461Y-61649413D01*
X99749413Y-61268461D01*
X100048725Y-60820508D01*
X100254895Y-60322770D01*
X100360000Y-59794374D01*
X100360000Y-59255626D01*
X132990000Y-59255626D01*
X132990000Y-59794374D01*
X133095105Y-60322770D01*
X133301275Y-60820508D01*
X133600587Y-61268461D01*
X133981539Y-61649413D01*
X134429492Y-61948725D01*
X134927230Y-62154895D01*
X135455626Y-62260000D01*
X135994374Y-62260000D01*
X136522770Y-62154895D01*
X136685475Y-62087500D01*
X137547744Y-62087500D01*
X137551301Y-62123615D01*
X137551300Y-76050795D01*
X137547744Y-76086900D01*
X137561935Y-76230985D01*
X137603963Y-76369533D01*
X137672213Y-76497220D01*
X137764062Y-76609138D01*
X137875980Y-76700987D01*
X138003667Y-76769237D01*
X138142215Y-76811265D01*
X138286300Y-76825456D01*
X138322405Y-76821900D01*
X152250895Y-76821900D01*
X152287000Y-76825456D01*
X152323105Y-76821900D01*
X152431085Y-76811265D01*
X152569633Y-76769237D01*
X152697320Y-76700987D01*
X152809238Y-76609138D01*
X152901087Y-76497220D01*
X152969337Y-76369533D01*
X153011365Y-76230985D01*
X153025556Y-76086900D01*
X153022000Y-76050795D01*
X153022000Y-62123605D01*
X153025556Y-62087500D01*
X153011365Y-61943415D01*
X152969337Y-61804867D01*
X152901087Y-61677180D01*
X152809238Y-61565262D01*
X152697320Y-61473413D01*
X152569633Y-61405163D01*
X152431085Y-61363135D01*
X152323105Y-61352500D01*
X152287000Y-61348944D01*
X152250895Y-61352500D01*
X138322405Y-61352500D01*
X138286300Y-61348944D01*
X138250195Y-61352500D01*
X138142215Y-61363135D01*
X138003667Y-61405163D01*
X137875980Y-61473413D01*
X137764062Y-61565262D01*
X137672213Y-61677180D01*
X137603963Y-61804867D01*
X137561935Y-61943415D01*
X137547744Y-62087500D01*
X136685475Y-62087500D01*
X137020508Y-61948725D01*
X137468461Y-61649413D01*
X137849413Y-61268461D01*
X138148725Y-60820508D01*
X138354895Y-60322770D01*
X138460000Y-59794374D01*
X138460000Y-59255626D01*
X138354895Y-58727230D01*
X138148725Y-58229492D01*
X137849413Y-57781539D01*
X137468461Y-57400587D01*
X137020508Y-57101275D01*
X136522770Y-56895105D01*
X135994374Y-56790000D01*
X135455626Y-56790000D01*
X134927230Y-56895105D01*
X134429492Y-57101275D01*
X133981539Y-57400587D01*
X133600587Y-57781539D01*
X133301275Y-58229492D01*
X133095105Y-58727230D01*
X132990000Y-59255626D01*
X100360000Y-59255626D01*
X100254895Y-58727230D01*
X100048725Y-58229492D01*
X99749413Y-57781539D01*
X99368461Y-57400587D01*
X98920508Y-57101275D01*
X98422770Y-56895105D01*
X97894374Y-56790000D01*
X97355626Y-56790000D01*
X96827230Y-56895105D01*
X96329492Y-57101275D01*
X95881539Y-57400587D01*
X95500587Y-57781539D01*
X95201275Y-58229492D01*
X94995105Y-58727230D01*
X94890000Y-59255626D01*
X62260000Y-59255626D01*
X62154895Y-58727230D01*
X61948725Y-58229492D01*
X61649413Y-57781539D01*
X61268461Y-57400587D01*
X60820508Y-57101275D01*
X60322770Y-56895105D01*
X59794374Y-56790000D01*
X59255626Y-56790000D01*
X58727230Y-56895105D01*
X58229492Y-57101275D01*
X57781539Y-57400587D01*
X57400587Y-57781539D01*
X57101275Y-58229492D01*
X56895105Y-58727230D01*
X56790000Y-59255626D01*
X38760000Y-59255626D01*
X38760000Y-43037400D01*
X42299094Y-43037400D01*
X42302651Y-43073515D01*
X42302650Y-57000595D01*
X42299094Y-57036700D01*
X42313285Y-57180785D01*
X42355313Y-57319333D01*
X42423563Y-57447020D01*
X42515412Y-57558938D01*
X42627330Y-57650787D01*
X42755017Y-57719037D01*
X42893565Y-57761065D01*
X43037650Y-57775256D01*
X43073755Y-57771700D01*
X57001095Y-57771700D01*
X57037200Y-57775256D01*
X57073305Y-57771700D01*
X57181285Y-57761065D01*
X57319833Y-57719037D01*
X57447520Y-57650787D01*
X57559438Y-57558938D01*
X57651287Y-57447020D01*
X57719537Y-57319333D01*
X57761565Y-57180785D01*
X57775756Y-57036700D01*
X57772200Y-57000595D01*
X57772200Y-43073505D01*
X57775756Y-43037400D01*
X61349144Y-43037400D01*
X61352701Y-43073515D01*
X61352700Y-57000595D01*
X61349144Y-57036700D01*
X61363335Y-57180785D01*
X61405363Y-57319333D01*
X61473613Y-57447020D01*
X61565462Y-57558938D01*
X61677380Y-57650787D01*
X61805067Y-57719037D01*
X61943615Y-57761065D01*
X62087700Y-57775256D01*
X62123805Y-57771700D01*
X76050895Y-57771700D01*
X76087000Y-57775256D01*
X76123105Y-57771700D01*
X76231085Y-57761065D01*
X76369633Y-57719037D01*
X76497320Y-57650787D01*
X76609238Y-57558938D01*
X76701087Y-57447020D01*
X76769337Y-57319333D01*
X76811365Y-57180785D01*
X76825556Y-57036700D01*
X76822000Y-57000595D01*
X76822000Y-43073505D01*
X76825556Y-43037400D01*
X80399144Y-43037400D01*
X80402701Y-43073515D01*
X80402700Y-57000595D01*
X80399144Y-57036700D01*
X80413335Y-57180785D01*
X80455363Y-57319333D01*
X80523613Y-57447020D01*
X80615462Y-57558938D01*
X80727380Y-57650787D01*
X80855067Y-57719037D01*
X80993615Y-57761065D01*
X81137700Y-57775256D01*
X81173805Y-57771700D01*
X95100895Y-57771700D01*
X95137000Y-57775256D01*
X95173105Y-57771700D01*
X95281085Y-57761065D01*
X95419633Y-57719037D01*
X95547320Y-57650787D01*
X95659238Y-57558938D01*
X95751087Y-57447020D01*
X95819337Y-57319333D01*
X95861365Y-57180785D01*
X95875556Y-57036700D01*
X95872000Y-57000595D01*
X95872000Y-43073505D01*
X95875556Y-43037400D01*
X99449144Y-43037400D01*
X99452701Y-43073515D01*
X99452700Y-57000595D01*
X99449144Y-57036700D01*
X99463335Y-57180785D01*
X99505363Y-57319333D01*
X99573613Y-57447020D01*
X99665462Y-57558938D01*
X99777380Y-57650787D01*
X99905067Y-57719037D01*
X100043615Y-57761065D01*
X100187700Y-57775256D01*
X100223805Y-57771700D01*
X114150895Y-57771700D01*
X114187000Y-57775256D01*
X114223105Y-57771700D01*
X114331085Y-57761065D01*
X114469633Y-57719037D01*
X114597320Y-57650787D01*
X114709238Y-57558938D01*
X114801087Y-57447020D01*
X114869337Y-57319333D01*
X114911365Y-57180785D01*
X114925556Y-57036700D01*
X114922000Y-57000595D01*
X114922000Y-43073505D01*
X114925556Y-43037400D01*
X118499144Y-43037400D01*
X118502701Y-43073515D01*
X118502700Y-57000595D01*
X118499144Y-57036700D01*
X118513335Y-57180785D01*
X118555363Y-57319333D01*
X118623613Y-57447020D01*
X118715462Y-57558938D01*
X118827380Y-57650787D01*
X118955067Y-57719037D01*
X119093615Y-57761065D01*
X119237700Y-57775256D01*
X119273805Y-57771700D01*
X133200895Y-57771700D01*
X133237000Y-57775256D01*
X133273105Y-57771700D01*
X133381085Y-57761065D01*
X133519633Y-57719037D01*
X133647320Y-57650787D01*
X133759238Y-57558938D01*
X133851087Y-57447020D01*
X133919337Y-57319333D01*
X133961365Y-57180785D01*
X133975556Y-57036700D01*
X133972000Y-57000595D01*
X133972000Y-43073505D01*
X133975556Y-43037400D01*
X137547744Y-43037400D01*
X137551301Y-43073515D01*
X137551300Y-57000595D01*
X137547744Y-57036700D01*
X137561935Y-57180785D01*
X137603963Y-57319333D01*
X137672213Y-57447020D01*
X137764062Y-57558938D01*
X137875980Y-57650787D01*
X138003667Y-57719037D01*
X138142215Y-57761065D01*
X138286300Y-57775256D01*
X138322405Y-57771700D01*
X152250895Y-57771700D01*
X152287000Y-57775256D01*
X152323105Y-57771700D01*
X152431085Y-57761065D01*
X152569633Y-57719037D01*
X152697320Y-57650787D01*
X152809238Y-57558938D01*
X152901087Y-57447020D01*
X152969337Y-57319333D01*
X153011365Y-57180785D01*
X153025556Y-57036700D01*
X153022000Y-57000595D01*
X153022000Y-43073505D01*
X153025556Y-43037400D01*
X153011365Y-42893315D01*
X152969337Y-42754767D01*
X152901087Y-42627080D01*
X152809238Y-42515162D01*
X152697320Y-42423313D01*
X152569633Y-42355063D01*
X152431085Y-42313035D01*
X152323105Y-42302400D01*
X152287000Y-42298844D01*
X152250895Y-42302400D01*
X138322405Y-42302400D01*
X138286300Y-42298844D01*
X138250195Y-42302400D01*
X138142215Y-42313035D01*
X138003667Y-42355063D01*
X137875980Y-42423313D01*
X137764062Y-42515162D01*
X137672213Y-42627080D01*
X137603963Y-42754767D01*
X137561935Y-42893315D01*
X137547744Y-43037400D01*
X133975556Y-43037400D01*
X133961365Y-42893315D01*
X133919337Y-42754767D01*
X133851087Y-42627080D01*
X133759238Y-42515162D01*
X133647320Y-42423313D01*
X133519633Y-42355063D01*
X133381085Y-42313035D01*
X133273105Y-42302400D01*
X133237000Y-42298844D01*
X133200895Y-42302400D01*
X119273805Y-42302400D01*
X119237700Y-42298844D01*
X119201595Y-42302400D01*
X119093615Y-42313035D01*
X118955067Y-42355063D01*
X118827380Y-42423313D01*
X118715462Y-42515162D01*
X118623613Y-42627080D01*
X118555363Y-42754767D01*
X118513335Y-42893315D01*
X118499144Y-43037400D01*
X114925556Y-43037400D01*
X114911365Y-42893315D01*
X114869337Y-42754767D01*
X114801087Y-42627080D01*
X114709238Y-42515162D01*
X114597320Y-42423313D01*
X114469633Y-42355063D01*
X114331085Y-42313035D01*
X114223105Y-42302400D01*
X114187000Y-42298844D01*
X114150895Y-42302400D01*
X100223805Y-42302400D01*
X100187700Y-42298844D01*
X100151595Y-42302400D01*
X100043615Y-42313035D01*
X99905067Y-42355063D01*
X99777380Y-42423313D01*
X99665462Y-42515162D01*
X99573613Y-42627080D01*
X99505363Y-42754767D01*
X99463335Y-42893315D01*
X99449144Y-43037400D01*
X95875556Y-43037400D01*
X95861365Y-42893315D01*
X95819337Y-42754767D01*
X95751087Y-42627080D01*
X95659238Y-42515162D01*
X95547320Y-42423313D01*
X95419633Y-42355063D01*
X95281085Y-42313035D01*
X95173105Y-42302400D01*
X95137000Y-42298844D01*
X95100895Y-42302400D01*
X81173805Y-42302400D01*
X81137700Y-42298844D01*
X81101595Y-42302400D01*
X80993615Y-42313035D01*
X80855067Y-42355063D01*
X80727380Y-42423313D01*
X80615462Y-42515162D01*
X80523613Y-42627080D01*
X80455363Y-42754767D01*
X80413335Y-42893315D01*
X80399144Y-43037400D01*
X76825556Y-43037400D01*
X76811365Y-42893315D01*
X76769337Y-42754767D01*
X76701087Y-42627080D01*
X76609238Y-42515162D01*
X76497320Y-42423313D01*
X76369633Y-42355063D01*
X76231085Y-42313035D01*
X76123105Y-42302400D01*
X76087000Y-42298844D01*
X76050895Y-42302400D01*
X62123805Y-42302400D01*
X62087700Y-42298844D01*
X62051595Y-42302400D01*
X61943615Y-42313035D01*
X61805067Y-42355063D01*
X61677380Y-42423313D01*
X61565462Y-42515162D01*
X61473613Y-42627080D01*
X61405363Y-42754767D01*
X61363335Y-42893315D01*
X61349144Y-43037400D01*
X57775756Y-43037400D01*
X57761565Y-42893315D01*
X57719537Y-42754767D01*
X57651287Y-42627080D01*
X57559438Y-42515162D01*
X57447520Y-42423313D01*
X57319833Y-42355063D01*
X57181285Y-42313035D01*
X57073305Y-42302400D01*
X57037200Y-42298844D01*
X57001095Y-42302400D01*
X43073755Y-42302400D01*
X43037650Y-42298844D01*
X43001545Y-42302400D01*
X42893565Y-42313035D01*
X42755017Y-42355063D01*
X42627330Y-42423313D01*
X42515412Y-42515162D01*
X42423563Y-42627080D01*
X42355313Y-42754767D01*
X42313285Y-42893315D01*
X42299094Y-43037400D01*
X38760000Y-43037400D01*
X38760000Y-38132279D01*
X38823096Y-37488778D01*
X39000606Y-36900836D01*
X39288937Y-36358564D01*
X39677094Y-35882636D01*
X40150314Y-35491155D01*
X40690552Y-35199049D01*
X41277244Y-35017437D01*
X41918879Y-34950000D01*
X152367721Y-34950000D01*
X153011222Y-35013096D01*
G37*
G04 #@! TD.AperFunction*
M02*
