G04 #@! TF.GenerationSoftware,KiCad,Pcbnew,(5.1.7)-1*
G04 #@! TF.CreationDate,2020-12-07T10:21:48+09:00*
G04 #@! TF.ProjectId,pisces_top_plate,70697363-6573-45f7-946f-705f706c6174,rev?*
G04 #@! TF.SameCoordinates,Original*
G04 #@! TF.FileFunction,Profile,NP*
%FSLAX46Y46*%
G04 Gerber Fmt 4.6, Leading zero omitted, Abs format (unit mm)*
G04 Created by KiCad (PCBNEW (5.1.7)-1) date 2020-12-07 10:21:48*
%MOMM*%
%LPD*%
G01*
G04 APERTURE LIST*
G04 #@! TA.AperFunction,Profile*
%ADD10C,0.200000*%
G04 #@! TD*
G04 #@! TA.AperFunction,Profile*
%ADD11C,0.050000*%
G04 #@! TD*
G04 APERTURE END LIST*
D10*
X62087700Y-57036700D02*
X62087700Y-43037400D01*
X76087000Y-43037400D02*
X76087000Y-57036700D01*
X43037650Y-57036700D02*
X43037650Y-43037400D01*
X43037650Y-43037400D02*
X57037200Y-43037400D01*
X57037200Y-43037400D02*
X57037200Y-57036700D01*
X76087000Y-57036700D02*
X62087700Y-57036700D01*
X57037200Y-57036700D02*
X43037650Y-57036700D01*
X152287000Y-57036700D02*
X138286300Y-57036700D01*
X43037650Y-81137400D02*
X57037200Y-81137400D01*
X133237000Y-62087500D02*
X133237000Y-76086900D01*
X100187700Y-57036700D02*
X100187700Y-43037400D01*
X119237700Y-62087500D02*
X133237000Y-62087500D01*
X119237700Y-57036700D02*
X119237700Y-43037400D01*
X100187700Y-62087500D02*
X114187000Y-62087500D01*
X57037200Y-95136860D02*
X43037650Y-95136860D01*
X119237700Y-76086900D02*
X119237700Y-62087500D01*
X100187700Y-43037400D02*
X114187000Y-43037400D01*
X133237000Y-57036700D02*
X119237700Y-57036700D01*
X57037200Y-76086900D02*
X43037650Y-76086900D01*
X57037200Y-62087500D02*
X57037200Y-76086900D01*
X62087700Y-76086900D02*
X62087700Y-62087500D01*
X76087000Y-76086900D02*
X62087700Y-76086900D01*
X62087700Y-95136860D02*
X62087700Y-81137400D01*
X76087000Y-62087500D02*
X76087000Y-76086900D01*
X62087700Y-62087500D02*
X76087000Y-62087500D01*
X81137700Y-76086900D02*
X81137700Y-62087500D01*
X95137000Y-76086900D02*
X81137700Y-76086900D01*
X114187000Y-62087500D02*
X114187000Y-76086900D01*
X95137000Y-62087500D02*
X95137000Y-76086900D01*
X100187700Y-76086900D02*
X100187700Y-62087500D01*
X133237000Y-76086900D02*
X119237700Y-76086900D01*
X138286300Y-62087500D02*
X152287000Y-62087500D01*
X152287000Y-62087500D02*
X152287000Y-76086900D01*
X138286300Y-76086900D02*
X138286300Y-62087500D01*
X95137000Y-57036700D02*
X81137700Y-57036700D01*
X57037200Y-81137400D02*
X57037200Y-95136860D01*
X43037650Y-76086900D02*
X43037650Y-62087500D01*
X43037650Y-95136860D02*
X43037650Y-81137400D01*
X133237000Y-43037400D02*
X133237000Y-57036700D01*
X62087700Y-43037400D02*
X76087000Y-43037400D01*
X114187000Y-43037400D02*
X114187000Y-57036700D01*
X43037650Y-62087500D02*
X57037200Y-62087500D01*
X95137000Y-43037400D02*
X95137000Y-57036700D01*
X138286300Y-57036700D02*
X138286300Y-43037400D01*
X152287000Y-76086900D02*
X138286300Y-76086900D01*
X81137700Y-62087500D02*
X95137000Y-62087500D01*
X114187000Y-76086900D02*
X100187700Y-76086900D01*
X81137700Y-57036700D02*
X81137700Y-43037400D01*
X81137700Y-43037400D02*
X95137000Y-43037400D01*
X114187000Y-57036700D02*
X100187700Y-57036700D01*
X152287000Y-43037400D02*
X152287000Y-57036700D01*
X119237700Y-43037400D02*
X133237000Y-43037400D01*
X138286300Y-43037400D02*
X152287000Y-43037400D01*
X171337000Y-95136860D02*
X157336000Y-95136860D01*
X157336000Y-81137400D02*
X171337000Y-81137400D01*
X95137000Y-81137400D02*
X95137000Y-95136860D01*
X100187700Y-81137400D02*
X114187000Y-81137400D01*
X133237000Y-95136860D02*
X119237700Y-95136860D01*
X152287000Y-95136860D02*
X138286300Y-95136860D01*
X81137700Y-95136860D02*
X81137700Y-81137400D01*
X114187000Y-95136860D02*
X100187700Y-95136860D01*
X81137700Y-81137400D02*
X95137000Y-81137400D01*
X119237700Y-95136860D02*
X119237700Y-81137400D01*
X119237700Y-81137400D02*
X133237000Y-81137400D01*
X157336000Y-95136860D02*
X157336000Y-81137400D01*
X95137000Y-95136860D02*
X81137700Y-95136860D01*
X76087000Y-81137400D02*
X76087000Y-95136860D01*
X138286300Y-95136860D02*
X138286300Y-81137400D01*
X100187700Y-95136860D02*
X100187700Y-81137400D01*
X114187000Y-81137400D02*
X114187000Y-95136860D01*
X138286300Y-81137400D02*
X152287000Y-81137400D01*
X133237000Y-81137400D02*
X133237000Y-95136860D01*
X171337000Y-81137400D02*
X171337000Y-95136860D01*
X152287000Y-81137400D02*
X152287000Y-95136860D01*
X76087000Y-95136860D02*
X62087700Y-95136860D01*
X62087700Y-81137400D02*
X76087000Y-81137400D01*
D11*
X172720000Y-77470000D02*
G75*
G02*
X175260000Y-80010000I0J-2540000D01*
G01*
X156210000Y-77470000D02*
X172720000Y-77470000D01*
X156210000Y-38100000D02*
X156210000Y-77470000D01*
X175260000Y-96520000D02*
X175260000Y-80010000D01*
X38100000Y-38100000D02*
G75*
G02*
X41910000Y-34290000I3810000J0D01*
G01*
X152400000Y-34290000D02*
G75*
G02*
X156210000Y-38100000I0J-3810000D01*
G01*
X175260000Y-96520000D02*
G75*
G02*
X171450000Y-100330000I-3810000J0D01*
G01*
X41910000Y-100330000D02*
G75*
G02*
X38100000Y-96520000I0J3810000D01*
G01*
X152400000Y-34290000D02*
X41910000Y-34290000D01*
X41910000Y-100330000D02*
X171450000Y-100330000D01*
X38100000Y-38100000D02*
X38100000Y-96520000D01*
M02*
