G04 #@! TF.GenerationSoftware,KiCad,Pcbnew,(5.1.7)-1*
G04 #@! TF.CreationDate,2021-03-02T06:51:01+09:00*
G04 #@! TF.ProjectId,pisces,70697363-6573-42e6-9b69-6361645f7063,rev?*
G04 #@! TF.SameCoordinates,Original*
G04 #@! TF.FileFunction,Legend,Top*
G04 #@! TF.FilePolarity,Positive*
%FSLAX46Y46*%
G04 Gerber Fmt 4.6, Leading zero omitted, Abs format (unit mm)*
G04 Created by KiCad (PCBNEW (5.1.7)-1) date 2021-03-02 06:51:01*
%MOMM*%
%LPD*%
G01*
G04 APERTURE LIST*
%ADD10C,0.150000*%
%ADD11C,0.120000*%
%ADD12C,0.127000*%
%ADD13C,0.200000*%
G04 APERTURE END LIST*
D10*
X158059642Y-76715880D02*
X158059642Y-75715880D01*
X158297738Y-75715880D01*
X158440595Y-75763500D01*
X158535833Y-75858738D01*
X158583452Y-75953976D01*
X158631071Y-76144452D01*
X158631071Y-76287309D01*
X158583452Y-76477785D01*
X158535833Y-76573023D01*
X158440595Y-76668261D01*
X158297738Y-76715880D01*
X158059642Y-76715880D01*
X158821547Y-76811119D02*
X159583452Y-76811119D01*
X159821547Y-76715880D02*
X159821547Y-75715880D01*
X159821547Y-76192071D02*
X160392976Y-76192071D01*
X160392976Y-76715880D02*
X160392976Y-75715880D01*
X161392976Y-76715880D02*
X160821547Y-76715880D01*
X161107261Y-76715880D02*
X161107261Y-75715880D01*
X161012023Y-75858738D01*
X160916785Y-75953976D01*
X160821547Y-76001595D01*
X151350000Y-49104000D02*
X147740000Y-49104000D01*
X151350000Y-45150000D02*
X151350000Y-49095000D01*
X140450000Y-43196000D02*
X149075000Y-43196000D01*
X140450000Y-47104000D02*
X140450000Y-43196000D01*
X140450000Y-47150000D02*
X145500000Y-47196000D01*
X151339000Y-45080000D02*
G75*
G03*
X149075000Y-43196000I-2074000J-190000D01*
G01*
X147735000Y-49080000D02*
G75*
G03*
X145475000Y-47200000I-2070000J-190000D01*
G01*
D11*
X158832767Y-59942000D02*
X158540233Y-59942000D01*
X158832767Y-60962000D02*
X158540233Y-60962000D01*
X158540233Y-67943000D02*
X158832767Y-67943000D01*
X158540233Y-68963000D02*
X158832767Y-68963000D01*
X169564267Y-58612500D02*
X169271733Y-58612500D01*
X169564267Y-57592500D02*
X169271733Y-57592500D01*
X164599252Y-59091500D02*
X164076748Y-59091500D01*
X164599252Y-57621500D02*
X164076748Y-57621500D01*
X158832767Y-70927500D02*
X158540233Y-70927500D01*
X158832767Y-71947500D02*
X158540233Y-71947500D01*
X163722267Y-60962000D02*
X163429733Y-60962000D01*
X163722267Y-59942000D02*
X163429733Y-59942000D01*
D10*
X57543000Y-49306500D02*
X59043000Y-49306500D01*
X57543000Y-54706500D02*
X57543000Y-49306500D01*
X59043000Y-54706500D02*
X57543000Y-54706500D01*
X59043000Y-49306500D02*
X59043000Y-54706500D01*
X57793000Y-51506500D02*
X58293000Y-52406500D01*
X58793000Y-51506500D02*
X57793000Y-51506500D01*
X58293000Y-52406500D02*
X58793000Y-51506500D01*
X58793000Y-52506500D02*
X57793000Y-52506500D01*
X58793000Y-71556500D02*
X57793000Y-71556500D01*
X58293000Y-71456500D02*
X58793000Y-70556500D01*
X58793000Y-70556500D02*
X57793000Y-70556500D01*
X57793000Y-70556500D02*
X58293000Y-71456500D01*
X59043000Y-68356500D02*
X59043000Y-73756500D01*
X59043000Y-73756500D02*
X57543000Y-73756500D01*
X57543000Y-73756500D02*
X57543000Y-68356500D01*
X57543000Y-68356500D02*
X59043000Y-68356500D01*
X57543000Y-87406500D02*
X59043000Y-87406500D01*
X57543000Y-92806500D02*
X57543000Y-87406500D01*
X59043000Y-92806500D02*
X57543000Y-92806500D01*
X59043000Y-87406500D02*
X59043000Y-92806500D01*
X57793000Y-89606500D02*
X58293000Y-90506500D01*
X58793000Y-89606500D02*
X57793000Y-89606500D01*
X58293000Y-90506500D02*
X58793000Y-89606500D01*
X58793000Y-90606500D02*
X57793000Y-90606500D01*
X96893000Y-52506500D02*
X95893000Y-52506500D01*
X96393000Y-52406500D02*
X96893000Y-51506500D01*
X96893000Y-51506500D02*
X95893000Y-51506500D01*
X95893000Y-51506500D02*
X96393000Y-52406500D01*
X97143000Y-49306500D02*
X97143000Y-54706500D01*
X97143000Y-54706500D02*
X95643000Y-54706500D01*
X95643000Y-54706500D02*
X95643000Y-49306500D01*
X95643000Y-49306500D02*
X97143000Y-49306500D01*
X95643000Y-68356500D02*
X97143000Y-68356500D01*
X95643000Y-73756500D02*
X95643000Y-68356500D01*
X97143000Y-73756500D02*
X95643000Y-73756500D01*
X97143000Y-68356500D02*
X97143000Y-73756500D01*
X95893000Y-70556500D02*
X96393000Y-71456500D01*
X96893000Y-70556500D02*
X95893000Y-70556500D01*
X96393000Y-71456500D02*
X96893000Y-70556500D01*
X96893000Y-71556500D02*
X95893000Y-71556500D01*
X115943000Y-52506500D02*
X114943000Y-52506500D01*
X115443000Y-52406500D02*
X115943000Y-51506500D01*
X115943000Y-51506500D02*
X114943000Y-51506500D01*
X114943000Y-51506500D02*
X115443000Y-52406500D01*
X116193000Y-49306500D02*
X116193000Y-54706500D01*
X116193000Y-54706500D02*
X114693000Y-54706500D01*
X114693000Y-54706500D02*
X114693000Y-49306500D01*
X114693000Y-49306500D02*
X116193000Y-49306500D01*
X114693000Y-68356500D02*
X116193000Y-68356500D01*
X114693000Y-73756500D02*
X114693000Y-68356500D01*
X116193000Y-73756500D02*
X114693000Y-73756500D01*
X116193000Y-68356500D02*
X116193000Y-73756500D01*
X114943000Y-70556500D02*
X115443000Y-71456500D01*
X115943000Y-70556500D02*
X114943000Y-70556500D01*
X115443000Y-71456500D02*
X115943000Y-70556500D01*
X115943000Y-71556500D02*
X114943000Y-71556500D01*
X114693000Y-87406500D02*
X116193000Y-87406500D01*
X114693000Y-92806500D02*
X114693000Y-87406500D01*
X116193000Y-92806500D02*
X114693000Y-92806500D01*
X116193000Y-87406500D02*
X116193000Y-92806500D01*
X114943000Y-89606500D02*
X115443000Y-90506500D01*
X115943000Y-89606500D02*
X114943000Y-89606500D01*
X115443000Y-90506500D02*
X115943000Y-89606500D01*
X115943000Y-90606500D02*
X114943000Y-90606500D01*
X134993000Y-71556500D02*
X133993000Y-71556500D01*
X134493000Y-71456500D02*
X134993000Y-70556500D01*
X134993000Y-70556500D02*
X133993000Y-70556500D01*
X133993000Y-70556500D02*
X134493000Y-71456500D01*
X135243000Y-68356500D02*
X135243000Y-73756500D01*
X135243000Y-73756500D02*
X133743000Y-73756500D01*
X133743000Y-73756500D02*
X133743000Y-68356500D01*
X133743000Y-68356500D02*
X135243000Y-68356500D01*
X133743000Y-87406500D02*
X135243000Y-87406500D01*
X133743000Y-92806500D02*
X133743000Y-87406500D01*
X135243000Y-92806500D02*
X133743000Y-92806500D01*
X135243000Y-87406500D02*
X135243000Y-92806500D01*
X133993000Y-89606500D02*
X134493000Y-90506500D01*
X134993000Y-89606500D02*
X133993000Y-89606500D01*
X134493000Y-90506500D02*
X134993000Y-89606500D01*
X134993000Y-90606500D02*
X133993000Y-90606500D01*
X154043000Y-71556500D02*
X153043000Y-71556500D01*
X153543000Y-71456500D02*
X154043000Y-70556500D01*
X154043000Y-70556500D02*
X153043000Y-70556500D01*
X153043000Y-70556500D02*
X153543000Y-71456500D01*
X154293000Y-68356500D02*
X154293000Y-73756500D01*
X154293000Y-73756500D02*
X152793000Y-73756500D01*
X152793000Y-73756500D02*
X152793000Y-68356500D01*
X152793000Y-68356500D02*
X154293000Y-68356500D01*
X154043000Y-90606500D02*
X153043000Y-90606500D01*
X153543000Y-90506500D02*
X154043000Y-89606500D01*
X154043000Y-89606500D02*
X153043000Y-89606500D01*
X153043000Y-89606500D02*
X153543000Y-90506500D01*
X154293000Y-87406500D02*
X154293000Y-92806500D01*
X154293000Y-92806500D02*
X152793000Y-92806500D01*
X152793000Y-92806500D02*
X152793000Y-87406500D01*
X152793000Y-87406500D02*
X154293000Y-87406500D01*
D12*
X155945000Y-49384500D02*
X155945000Y-48024500D01*
X157745000Y-49384500D02*
X157745000Y-48024500D01*
D13*
X159348000Y-45759500D02*
G75*
G03*
X159348000Y-45759500I-100000J0D01*
G01*
D11*
X160428000Y-48487064D02*
X160428000Y-48032936D01*
X161898000Y-48487064D02*
X161898000Y-48032936D01*
X159866000Y-48487064D02*
X159866000Y-48032936D01*
X158396000Y-48487064D02*
X158396000Y-48032936D01*
X173762936Y-57558000D02*
X174217064Y-57558000D01*
X173762936Y-59028000D02*
X174217064Y-59028000D01*
X166660564Y-74449000D02*
X166206436Y-74449000D01*
X166660564Y-75919000D02*
X166206436Y-75919000D01*
D10*
X56100000Y-49104000D02*
X52490000Y-49104000D01*
X56100000Y-45150000D02*
X56100000Y-49095000D01*
X45200000Y-43196000D02*
X53825000Y-43196000D01*
X45200000Y-47104000D02*
X45200000Y-43196000D01*
X45200000Y-47150000D02*
X50250000Y-47196000D01*
X56089000Y-45080000D02*
G75*
G03*
X53825000Y-43196000I-2074000J-190000D01*
G01*
X52485000Y-49080000D02*
G75*
G03*
X50225000Y-47200000I-2070000J-190000D01*
G01*
X45200000Y-66200000D02*
X50250000Y-66246000D01*
X45200000Y-66154000D02*
X45200000Y-62246000D01*
X45200000Y-62246000D02*
X53825000Y-62246000D01*
X56100000Y-64200000D02*
X56100000Y-68145000D01*
X56100000Y-68154000D02*
X52490000Y-68154000D01*
X52485000Y-68130000D02*
G75*
G03*
X50225000Y-66250000I-2070000J-190000D01*
G01*
X56089000Y-64130000D02*
G75*
G03*
X53825000Y-62246000I-2074000J-190000D01*
G01*
X56100000Y-87204000D02*
X52490000Y-87204000D01*
X56100000Y-83250000D02*
X56100000Y-87195000D01*
X45200000Y-81296000D02*
X53825000Y-81296000D01*
X45200000Y-85204000D02*
X45200000Y-81296000D01*
X45200000Y-85250000D02*
X50250000Y-85296000D01*
X56089000Y-83180000D02*
G75*
G03*
X53825000Y-81296000I-2074000J-190000D01*
G01*
X52485000Y-87180000D02*
G75*
G03*
X50225000Y-85300000I-2070000J-190000D01*
G01*
X64250000Y-47150000D02*
X69300000Y-47196000D01*
X64250000Y-47104000D02*
X64250000Y-43196000D01*
X64250000Y-43196000D02*
X72875000Y-43196000D01*
X75150000Y-45150000D02*
X75150000Y-49095000D01*
X75150000Y-49104000D02*
X71540000Y-49104000D01*
X71535000Y-49080000D02*
G75*
G03*
X69275000Y-47200000I-2070000J-190000D01*
G01*
X75139000Y-45080000D02*
G75*
G03*
X72875000Y-43196000I-2074000J-190000D01*
G01*
X64250000Y-66200000D02*
X69300000Y-66246000D01*
X64250000Y-66154000D02*
X64250000Y-62246000D01*
X64250000Y-62246000D02*
X72875000Y-62246000D01*
X75150000Y-64200000D02*
X75150000Y-68145000D01*
X75150000Y-68154000D02*
X71540000Y-68154000D01*
X71535000Y-68130000D02*
G75*
G03*
X69275000Y-66250000I-2070000J-190000D01*
G01*
X75139000Y-64130000D02*
G75*
G03*
X72875000Y-62246000I-2074000J-190000D01*
G01*
X75150000Y-87204000D02*
X71540000Y-87204000D01*
X75150000Y-83250000D02*
X75150000Y-87195000D01*
X64250000Y-81296000D02*
X72875000Y-81296000D01*
X64250000Y-85204000D02*
X64250000Y-81296000D01*
X64250000Y-85250000D02*
X69300000Y-85296000D01*
X75139000Y-83180000D02*
G75*
G03*
X72875000Y-81296000I-2074000J-190000D01*
G01*
X71535000Y-87180000D02*
G75*
G03*
X69275000Y-85300000I-2070000J-190000D01*
G01*
X83300000Y-47150000D02*
X88350000Y-47196000D01*
X83300000Y-47104000D02*
X83300000Y-43196000D01*
X83300000Y-43196000D02*
X91925000Y-43196000D01*
X94200000Y-45150000D02*
X94200000Y-49095000D01*
X94200000Y-49104000D02*
X90590000Y-49104000D01*
X90585000Y-49080000D02*
G75*
G03*
X88325000Y-47200000I-2070000J-190000D01*
G01*
X94189000Y-45080000D02*
G75*
G03*
X91925000Y-43196000I-2074000J-190000D01*
G01*
X94200000Y-68154000D02*
X90590000Y-68154000D01*
X94200000Y-64200000D02*
X94200000Y-68145000D01*
X83300000Y-62246000D02*
X91925000Y-62246000D01*
X83300000Y-66154000D02*
X83300000Y-62246000D01*
X83300000Y-66200000D02*
X88350000Y-66246000D01*
X94189000Y-64130000D02*
G75*
G03*
X91925000Y-62246000I-2074000J-190000D01*
G01*
X90585000Y-68130000D02*
G75*
G03*
X88325000Y-66250000I-2070000J-190000D01*
G01*
X94200000Y-87204000D02*
X90590000Y-87204000D01*
X94200000Y-83250000D02*
X94200000Y-87195000D01*
X83300000Y-81296000D02*
X91925000Y-81296000D01*
X83300000Y-85204000D02*
X83300000Y-81296000D01*
X83300000Y-85250000D02*
X88350000Y-85296000D01*
X94189000Y-83180000D02*
G75*
G03*
X91925000Y-81296000I-2074000J-190000D01*
G01*
X90585000Y-87180000D02*
G75*
G03*
X88325000Y-85300000I-2070000J-190000D01*
G01*
X113250000Y-49104000D02*
X109640000Y-49104000D01*
X113250000Y-45150000D02*
X113250000Y-49095000D01*
X102350000Y-43196000D02*
X110975000Y-43196000D01*
X102350000Y-47104000D02*
X102350000Y-43196000D01*
X102350000Y-47150000D02*
X107400000Y-47196000D01*
X113239000Y-45080000D02*
G75*
G03*
X110975000Y-43196000I-2074000J-190000D01*
G01*
X109635000Y-49080000D02*
G75*
G03*
X107375000Y-47200000I-2070000J-190000D01*
G01*
X102350000Y-66200000D02*
X107400000Y-66246000D01*
X102350000Y-66154000D02*
X102350000Y-62246000D01*
X102350000Y-62246000D02*
X110975000Y-62246000D01*
X113250000Y-64200000D02*
X113250000Y-68145000D01*
X113250000Y-68154000D02*
X109640000Y-68154000D01*
X109635000Y-68130000D02*
G75*
G03*
X107375000Y-66250000I-2070000J-190000D01*
G01*
X113239000Y-64130000D02*
G75*
G03*
X110975000Y-62246000I-2074000J-190000D01*
G01*
X113250000Y-87204000D02*
X109640000Y-87204000D01*
X113250000Y-83250000D02*
X113250000Y-87195000D01*
X102350000Y-81296000D02*
X110975000Y-81296000D01*
X102350000Y-85204000D02*
X102350000Y-81296000D01*
X102350000Y-85250000D02*
X107400000Y-85296000D01*
X113239000Y-83180000D02*
G75*
G03*
X110975000Y-81296000I-2074000J-190000D01*
G01*
X109635000Y-87180000D02*
G75*
G03*
X107375000Y-85300000I-2070000J-190000D01*
G01*
X121400000Y-47150000D02*
X126450000Y-47196000D01*
X121400000Y-47104000D02*
X121400000Y-43196000D01*
X121400000Y-43196000D02*
X130025000Y-43196000D01*
X132300000Y-45150000D02*
X132300000Y-49095000D01*
X132300000Y-49104000D02*
X128690000Y-49104000D01*
X128685000Y-49080000D02*
G75*
G03*
X126425000Y-47200000I-2070000J-190000D01*
G01*
X132289000Y-45080000D02*
G75*
G03*
X130025000Y-43196000I-2074000J-190000D01*
G01*
X121400000Y-66200000D02*
X126450000Y-66246000D01*
X121400000Y-66154000D02*
X121400000Y-62246000D01*
X121400000Y-62246000D02*
X130025000Y-62246000D01*
X132300000Y-64200000D02*
X132300000Y-68145000D01*
X132300000Y-68154000D02*
X128690000Y-68154000D01*
X128685000Y-68130000D02*
G75*
G03*
X126425000Y-66250000I-2070000J-190000D01*
G01*
X132289000Y-64130000D02*
G75*
G03*
X130025000Y-62246000I-2074000J-190000D01*
G01*
X121400000Y-85250000D02*
X126450000Y-85296000D01*
X121400000Y-85204000D02*
X121400000Y-81296000D01*
X121400000Y-81296000D02*
X130025000Y-81296000D01*
X132300000Y-83250000D02*
X132300000Y-87195000D01*
X132300000Y-87204000D02*
X128690000Y-87204000D01*
X128685000Y-87180000D02*
G75*
G03*
X126425000Y-85300000I-2070000J-190000D01*
G01*
X132289000Y-83180000D02*
G75*
G03*
X130025000Y-81296000I-2074000J-190000D01*
G01*
X140450000Y-66200000D02*
X145500000Y-66246000D01*
X140450000Y-66154000D02*
X140450000Y-62246000D01*
X140450000Y-62246000D02*
X149075000Y-62246000D01*
X151350000Y-64200000D02*
X151350000Y-68145000D01*
X151350000Y-68154000D02*
X147740000Y-68154000D01*
X147735000Y-68130000D02*
G75*
G03*
X145475000Y-66250000I-2070000J-190000D01*
G01*
X151339000Y-64130000D02*
G75*
G03*
X149075000Y-62246000I-2074000J-190000D01*
G01*
X151350000Y-87204000D02*
X147740000Y-87204000D01*
X151350000Y-83250000D02*
X151350000Y-87195000D01*
X140450000Y-81296000D02*
X149075000Y-81296000D01*
X140450000Y-85204000D02*
X140450000Y-81296000D01*
X140450000Y-85250000D02*
X145500000Y-85296000D01*
X151339000Y-83180000D02*
G75*
G03*
X149075000Y-81296000I-2074000J-190000D01*
G01*
X147735000Y-87180000D02*
G75*
G03*
X145475000Y-85300000I-2070000J-190000D01*
G01*
X170400000Y-87204000D02*
X166790000Y-87204000D01*
X170400000Y-83250000D02*
X170400000Y-87195000D01*
X159500000Y-81296000D02*
X168125000Y-81296000D01*
X159500000Y-85204000D02*
X159500000Y-81296000D01*
X159500000Y-85250000D02*
X164550000Y-85296000D01*
X170389000Y-83180000D02*
G75*
G03*
X168125000Y-81296000I-2074000J-190000D01*
G01*
X166785000Y-87180000D02*
G75*
G03*
X164525000Y-85300000I-2070000J-190000D01*
G01*
X164078500Y-63240500D02*
X164078500Y-63465500D01*
X171328500Y-63240500D02*
X171328500Y-63565500D01*
X171328500Y-70490500D02*
X171328500Y-70165500D01*
X164078500Y-70490500D02*
X164078500Y-70165500D01*
X164078500Y-63240500D02*
X164403500Y-63240500D01*
X164078500Y-70490500D02*
X164403500Y-70490500D01*
X171328500Y-70490500D02*
X171003500Y-70490500D01*
X171328500Y-63240500D02*
X171003500Y-63240500D01*
X164078500Y-63465500D02*
X162653500Y-63465500D01*
D11*
X160243500Y-66525500D02*
X160243500Y-62125500D01*
X160243500Y-62125500D02*
X154843500Y-62125500D01*
X174804000Y-50548000D02*
X176204000Y-50548000D01*
X174804000Y-52098000D02*
X176204000Y-52098000D01*
X168604000Y-51648000D02*
X168604000Y-41123000D01*
X174804000Y-52098000D02*
X174804000Y-53223000D01*
X174804000Y-48148000D02*
X174804000Y-50548000D01*
X174804000Y-45148000D02*
X174804000Y-46498000D01*
X174804000Y-41123000D02*
X174804000Y-43498000D01*
X168604000Y-53223000D02*
X174804000Y-53223000D01*
X174804000Y-41123000D02*
X174204000Y-41123000D01*
X169204000Y-41123000D02*
X168604000Y-41123000D01*
X174204000Y-39123000D02*
X169204000Y-39123000D01*
X174204000Y-41123000D02*
X174204000Y-39123000D01*
X169204000Y-41123000D02*
X169204000Y-39123000D01*
X171147000Y-53922000D02*
X171147000Y-56822000D01*
X171147000Y-56822000D02*
X174547000Y-56822000D01*
X174547000Y-56822000D02*
X174547000Y-53922000D01*
X174547000Y-53922000D02*
X171147000Y-53922000D01*
D10*
X76592999Y-49306500D02*
X78092999Y-49306500D01*
X76592999Y-54706500D02*
X76592999Y-49306500D01*
X78092999Y-54706500D02*
X76592999Y-54706500D01*
X78092999Y-49306500D02*
X78092999Y-54706500D01*
X76842999Y-51506500D02*
X77342999Y-52406500D01*
X77842999Y-51506500D02*
X76842999Y-51506500D01*
X77342999Y-52406500D02*
X77842999Y-51506500D01*
X77842999Y-52506500D02*
X76842999Y-52506500D01*
X77842999Y-71556500D02*
X76842999Y-71556500D01*
X77342999Y-71456500D02*
X77842999Y-70556500D01*
X77842999Y-70556500D02*
X76842999Y-70556500D01*
X76842999Y-70556500D02*
X77342999Y-71456500D01*
X78092999Y-68356500D02*
X78092999Y-73756500D01*
X78092999Y-73756500D02*
X76592999Y-73756500D01*
X76592999Y-73756500D02*
X76592999Y-68356500D01*
X76592999Y-68356500D02*
X78092999Y-68356500D01*
X76592999Y-87406500D02*
X78092999Y-87406500D01*
X76592999Y-92806500D02*
X76592999Y-87406500D01*
X78092999Y-92806500D02*
X76592999Y-92806500D01*
X78092999Y-87406500D02*
X78092999Y-92806500D01*
X76842999Y-89606500D02*
X77342999Y-90506500D01*
X77842999Y-89606500D02*
X76842999Y-89606500D01*
X77342999Y-90506500D02*
X77842999Y-89606500D01*
X77842999Y-90606500D02*
X76842999Y-90606500D01*
X96893000Y-90606500D02*
X95893000Y-90606500D01*
X96393000Y-90506500D02*
X96893000Y-89606500D01*
X96893000Y-89606500D02*
X95893000Y-89606500D01*
X95893000Y-89606500D02*
X96393000Y-90506500D01*
X97143000Y-87406500D02*
X97143000Y-92806500D01*
X97143000Y-92806500D02*
X95643000Y-92806500D01*
X95643000Y-92806500D02*
X95643000Y-87406500D01*
X95643000Y-87406500D02*
X97143000Y-87406500D01*
X133743000Y-49306500D02*
X135243000Y-49306500D01*
X133743000Y-54706500D02*
X133743000Y-49306500D01*
X135243000Y-54706500D02*
X133743000Y-54706500D01*
X135243000Y-49306500D02*
X135243000Y-54706500D01*
X133993000Y-51506500D02*
X134493000Y-52406500D01*
X134993000Y-51506500D02*
X133993000Y-51506500D01*
X134493000Y-52406500D02*
X134993000Y-51506500D01*
X134993000Y-52506500D02*
X133993000Y-52506500D01*
X152793000Y-49306500D02*
X154293000Y-49306500D01*
X152793000Y-54706500D02*
X152793000Y-49306500D01*
X154293000Y-54706500D02*
X152793000Y-54706500D01*
X154293000Y-49306500D02*
X154293000Y-54706500D01*
X153043000Y-51506500D02*
X153543000Y-52406500D01*
X154043000Y-51506500D02*
X153043000Y-51506500D01*
X153543000Y-52406500D02*
X154043000Y-51506500D01*
X154043000Y-52506500D02*
X153043000Y-52506500D01*
X173093000Y-90606500D02*
X172093000Y-90606500D01*
X172593000Y-90506500D02*
X173093000Y-89606500D01*
X173093000Y-89606500D02*
X172093000Y-89606500D01*
X172093000Y-89606500D02*
X172593000Y-90506500D01*
X173343000Y-87406500D02*
X173343000Y-92806500D01*
X173343000Y-92806500D02*
X171843000Y-92806500D01*
X171843000Y-92806500D02*
X171843000Y-87406500D01*
X171843000Y-87406500D02*
X173343000Y-87406500D01*
X159202500Y-73985500D02*
X159202500Y-74985500D01*
X159302500Y-74485500D02*
X160202500Y-73985500D01*
X160202500Y-74985500D02*
X159302500Y-74485500D01*
X160202500Y-73985500D02*
X160202500Y-74985500D01*
X162402500Y-73735500D02*
X162402500Y-75235500D01*
X157002500Y-73735500D02*
X157002500Y-75235500D01*
X162402500Y-73735500D02*
X157002500Y-73735500D01*
X157002500Y-75235500D02*
X162402500Y-75235500D01*
D11*
X165454000Y-48032936D02*
X165454000Y-48487064D01*
X163984000Y-48032936D02*
X163984000Y-48487064D01*
D10*
X158519833Y-59412142D02*
X158472214Y-59459761D01*
X158329357Y-59507380D01*
X158234119Y-59507380D01*
X158091261Y-59459761D01*
X157996023Y-59364523D01*
X157948404Y-59269285D01*
X157900785Y-59078809D01*
X157900785Y-58935952D01*
X157948404Y-58745476D01*
X157996023Y-58650238D01*
X158091261Y-58555000D01*
X158234119Y-58507380D01*
X158329357Y-58507380D01*
X158472214Y-58555000D01*
X158519833Y-58602619D01*
X159472214Y-59507380D02*
X158900785Y-59507380D01*
X159186500Y-59507380D02*
X159186500Y-58507380D01*
X159091261Y-58650238D01*
X158996023Y-58745476D01*
X158900785Y-58793095D01*
X158519833Y-70334142D02*
X158472214Y-70381761D01*
X158329357Y-70429380D01*
X158234119Y-70429380D01*
X158091261Y-70381761D01*
X157996023Y-70286523D01*
X157948404Y-70191285D01*
X157900785Y-70000809D01*
X157900785Y-69857952D01*
X157948404Y-69667476D01*
X157996023Y-69572238D01*
X158091261Y-69477000D01*
X158234119Y-69429380D01*
X158329357Y-69429380D01*
X158472214Y-69477000D01*
X158519833Y-69524619D01*
X158900785Y-69524619D02*
X158948404Y-69477000D01*
X159043642Y-69429380D01*
X159281738Y-69429380D01*
X159376976Y-69477000D01*
X159424595Y-69524619D01*
X159472214Y-69619857D01*
X159472214Y-69715095D01*
X159424595Y-69857952D01*
X158853166Y-70429380D01*
X159472214Y-70429380D01*
X169251333Y-59889642D02*
X169203714Y-59937261D01*
X169060857Y-59984880D01*
X168965619Y-59984880D01*
X168822761Y-59937261D01*
X168727523Y-59842023D01*
X168679904Y-59746785D01*
X168632285Y-59556309D01*
X168632285Y-59413452D01*
X168679904Y-59222976D01*
X168727523Y-59127738D01*
X168822761Y-59032500D01*
X168965619Y-58984880D01*
X169060857Y-58984880D01*
X169203714Y-59032500D01*
X169251333Y-59080119D01*
X169584666Y-58984880D02*
X170203714Y-58984880D01*
X169870380Y-59365833D01*
X170013238Y-59365833D01*
X170108476Y-59413452D01*
X170156095Y-59461071D01*
X170203714Y-59556309D01*
X170203714Y-59794404D01*
X170156095Y-59889642D01*
X170108476Y-59937261D01*
X170013238Y-59984880D01*
X169727523Y-59984880D01*
X169632285Y-59937261D01*
X169584666Y-59889642D01*
X161313833Y-58650142D02*
X161266214Y-58697761D01*
X161123357Y-58745380D01*
X161028119Y-58745380D01*
X160885261Y-58697761D01*
X160790023Y-58602523D01*
X160742404Y-58507285D01*
X160694785Y-58316809D01*
X160694785Y-58173952D01*
X160742404Y-57983476D01*
X160790023Y-57888238D01*
X160885261Y-57793000D01*
X161028119Y-57745380D01*
X161123357Y-57745380D01*
X161266214Y-57793000D01*
X161313833Y-57840619D01*
X162170976Y-58078714D02*
X162170976Y-58745380D01*
X161932880Y-57697761D02*
X161694785Y-58412047D01*
X162313833Y-58412047D01*
X158519833Y-73224642D02*
X158472214Y-73272261D01*
X158329357Y-73319880D01*
X158234119Y-73319880D01*
X158091261Y-73272261D01*
X157996023Y-73177023D01*
X157948404Y-73081785D01*
X157900785Y-72891309D01*
X157900785Y-72748452D01*
X157948404Y-72557976D01*
X157996023Y-72462738D01*
X158091261Y-72367500D01*
X158234119Y-72319880D01*
X158329357Y-72319880D01*
X158472214Y-72367500D01*
X158519833Y-72415119D01*
X159424595Y-72319880D02*
X158948404Y-72319880D01*
X158900785Y-72796071D01*
X158948404Y-72748452D01*
X159043642Y-72700833D01*
X159281738Y-72700833D01*
X159376976Y-72748452D01*
X159424595Y-72796071D01*
X159472214Y-72891309D01*
X159472214Y-73129404D01*
X159424595Y-73224642D01*
X159376976Y-73272261D01*
X159281738Y-73319880D01*
X159043642Y-73319880D01*
X158948404Y-73272261D01*
X158900785Y-73224642D01*
X163409333Y-62239142D02*
X163361714Y-62286761D01*
X163218857Y-62334380D01*
X163123619Y-62334380D01*
X162980761Y-62286761D01*
X162885523Y-62191523D01*
X162837904Y-62096285D01*
X162790285Y-61905809D01*
X162790285Y-61762952D01*
X162837904Y-61572476D01*
X162885523Y-61477238D01*
X162980761Y-61382000D01*
X163123619Y-61334380D01*
X163218857Y-61334380D01*
X163361714Y-61382000D01*
X163409333Y-61429619D01*
X164266476Y-61334380D02*
X164076000Y-61334380D01*
X163980761Y-61382000D01*
X163933142Y-61429619D01*
X163837904Y-61572476D01*
X163790285Y-61762952D01*
X163790285Y-62143904D01*
X163837904Y-62239142D01*
X163885523Y-62286761D01*
X163980761Y-62334380D01*
X164171238Y-62334380D01*
X164266476Y-62286761D01*
X164314095Y-62239142D01*
X164361714Y-62143904D01*
X164361714Y-61905809D01*
X164314095Y-61810571D01*
X164266476Y-61762952D01*
X164171238Y-61715333D01*
X163980761Y-61715333D01*
X163885523Y-61762952D01*
X163837904Y-61810571D01*
X163790285Y-61905809D01*
X156787857Y-51955666D02*
X156787857Y-52222333D01*
X157206904Y-52222333D02*
X156406904Y-52222333D01*
X156406904Y-51841380D01*
X157206904Y-51117571D02*
X157206904Y-51574714D01*
X157206904Y-51346142D02*
X156406904Y-51346142D01*
X156521190Y-51422333D01*
X156597380Y-51498523D01*
X156635476Y-51574714D01*
X162685142Y-45479727D02*
X162685142Y-45937395D01*
X162654630Y-46028928D01*
X162593608Y-46089950D01*
X162502075Y-46120461D01*
X162441052Y-46120461D01*
X163325876Y-46120461D02*
X162959742Y-46120461D01*
X163142809Y-46120461D02*
X163142809Y-45479727D01*
X163081786Y-45571261D01*
X163020764Y-45632283D01*
X162959742Y-45662794D01*
X161615380Y-51284166D02*
X161139190Y-51617500D01*
X161615380Y-51855595D02*
X160615380Y-51855595D01*
X160615380Y-51474642D01*
X160663000Y-51379404D01*
X160710619Y-51331785D01*
X160805857Y-51284166D01*
X160948714Y-51284166D01*
X161043952Y-51331785D01*
X161091571Y-51379404D01*
X161139190Y-51474642D01*
X161139190Y-51855595D01*
X161615380Y-50331785D02*
X161615380Y-50903214D01*
X161615380Y-50617500D02*
X160615380Y-50617500D01*
X160758238Y-50712738D01*
X160853476Y-50807976D01*
X160901095Y-50903214D01*
X159583380Y-51284166D02*
X159107190Y-51617500D01*
X159583380Y-51855595D02*
X158583380Y-51855595D01*
X158583380Y-51474642D01*
X158631000Y-51379404D01*
X158678619Y-51331785D01*
X158773857Y-51284166D01*
X158916714Y-51284166D01*
X159011952Y-51331785D01*
X159059571Y-51379404D01*
X159107190Y-51474642D01*
X159107190Y-51855595D01*
X158678619Y-50903214D02*
X158631000Y-50855595D01*
X158583380Y-50760357D01*
X158583380Y-50522261D01*
X158631000Y-50427023D01*
X158678619Y-50379404D01*
X158773857Y-50331785D01*
X158869095Y-50331785D01*
X159011952Y-50379404D01*
X159583380Y-50950833D01*
X159583380Y-50331785D01*
X173823333Y-60523380D02*
X173490000Y-60047190D01*
X173251904Y-60523380D02*
X173251904Y-59523380D01*
X173632857Y-59523380D01*
X173728095Y-59571000D01*
X173775714Y-59618619D01*
X173823333Y-59713857D01*
X173823333Y-59856714D01*
X173775714Y-59951952D01*
X173728095Y-59999571D01*
X173632857Y-60047190D01*
X173251904Y-60047190D01*
X174156666Y-59523380D02*
X174775714Y-59523380D01*
X174442380Y-59904333D01*
X174585238Y-59904333D01*
X174680476Y-59951952D01*
X174728095Y-59999571D01*
X174775714Y-60094809D01*
X174775714Y-60332904D01*
X174728095Y-60428142D01*
X174680476Y-60475761D01*
X174585238Y-60523380D01*
X174299523Y-60523380D01*
X174204285Y-60475761D01*
X174156666Y-60428142D01*
X166266833Y-77286380D02*
X165933500Y-76810190D01*
X165695404Y-77286380D02*
X165695404Y-76286380D01*
X166076357Y-76286380D01*
X166171595Y-76334000D01*
X166219214Y-76381619D01*
X166266833Y-76476857D01*
X166266833Y-76619714D01*
X166219214Y-76714952D01*
X166171595Y-76762571D01*
X166076357Y-76810190D01*
X165695404Y-76810190D01*
X167123976Y-76619714D02*
X167123976Y-77286380D01*
X166885880Y-76238761D02*
X166647785Y-76953047D01*
X167266833Y-76953047D01*
X166941595Y-60267880D02*
X166941595Y-61077404D01*
X166989214Y-61172642D01*
X167036833Y-61220261D01*
X167132071Y-61267880D01*
X167322547Y-61267880D01*
X167417785Y-61220261D01*
X167465404Y-61172642D01*
X167513023Y-61077404D01*
X167513023Y-60267880D01*
X168513023Y-61267880D02*
X167941595Y-61267880D01*
X168227309Y-61267880D02*
X168227309Y-60267880D01*
X168132071Y-60410738D01*
X168036833Y-60505976D01*
X167941595Y-60553595D01*
X157067309Y-67301690D02*
X157067309Y-67777880D01*
X156733976Y-66777880D02*
X157067309Y-67301690D01*
X157400642Y-66777880D01*
X158257785Y-67777880D02*
X157686357Y-67777880D01*
X157972071Y-67777880D02*
X157972071Y-66777880D01*
X157876833Y-66920738D01*
X157781595Y-67015976D01*
X157686357Y-67063595D01*
X171156380Y-46688333D02*
X171870666Y-46688333D01*
X172013523Y-46735952D01*
X172108761Y-46831190D01*
X172156380Y-46974047D01*
X172156380Y-47069285D01*
X171251619Y-46259761D02*
X171204000Y-46212142D01*
X171156380Y-46116904D01*
X171156380Y-45878809D01*
X171204000Y-45783571D01*
X171251619Y-45735952D01*
X171346857Y-45688333D01*
X171442095Y-45688333D01*
X171584952Y-45735952D01*
X172156380Y-46307380D01*
X172156380Y-45688333D01*
X165982857Y-55162404D02*
X165716190Y-54781452D01*
X165525714Y-55162404D02*
X165525714Y-54362404D01*
X165830476Y-54362404D01*
X165906666Y-54400500D01*
X165944761Y-54438595D01*
X165982857Y-54514785D01*
X165982857Y-54629071D01*
X165944761Y-54705261D01*
X165906666Y-54743357D01*
X165830476Y-54781452D01*
X165525714Y-54781452D01*
X166287619Y-55124309D02*
X166401904Y-55162404D01*
X166592380Y-55162404D01*
X166668571Y-55124309D01*
X166706666Y-55086214D01*
X166744761Y-55010023D01*
X166744761Y-54933833D01*
X166706666Y-54857642D01*
X166668571Y-54819547D01*
X166592380Y-54781452D01*
X166440000Y-54743357D01*
X166363809Y-54705261D01*
X166325714Y-54667166D01*
X166287619Y-54590976D01*
X166287619Y-54514785D01*
X166325714Y-54438595D01*
X166363809Y-54400500D01*
X166440000Y-54362404D01*
X166630476Y-54362404D01*
X166744761Y-54400500D01*
X166973333Y-54362404D02*
X167430476Y-54362404D01*
X167201904Y-55162404D02*
X167201904Y-54362404D01*
X167659047Y-55124309D02*
X167773333Y-55162404D01*
X167963809Y-55162404D01*
X168040000Y-55124309D01*
X168078095Y-55086214D01*
X168116190Y-55010023D01*
X168116190Y-54933833D01*
X168078095Y-54857642D01*
X168040000Y-54819547D01*
X167963809Y-54781452D01*
X167811428Y-54743357D01*
X167735238Y-54705261D01*
X167697142Y-54667166D01*
X167659047Y-54590976D01*
X167659047Y-54514785D01*
X167697142Y-54438595D01*
X167735238Y-54400500D01*
X167811428Y-54362404D01*
X168001904Y-54362404D01*
X168116190Y-54400500D01*
X168382857Y-54362404D02*
X168573333Y-55162404D01*
X168725714Y-54590976D01*
X168878095Y-55162404D01*
X169068571Y-54362404D01*
X169792380Y-55162404D02*
X169335238Y-55162404D01*
X169563809Y-55162404D02*
X169563809Y-54362404D01*
X169487619Y-54476690D01*
X169411428Y-54552880D01*
X169335238Y-54590976D01*
X166821380Y-48426666D02*
X166345190Y-48760000D01*
X166821380Y-48998095D02*
X165821380Y-48998095D01*
X165821380Y-48617142D01*
X165869000Y-48521904D01*
X165916619Y-48474285D01*
X166011857Y-48426666D01*
X166154714Y-48426666D01*
X166249952Y-48474285D01*
X166297571Y-48521904D01*
X166345190Y-48617142D01*
X166345190Y-48998095D01*
X165821380Y-47521904D02*
X165821380Y-47998095D01*
X166297571Y-48045714D01*
X166249952Y-47998095D01*
X166202333Y-47902857D01*
X166202333Y-47664761D01*
X166249952Y-47569523D01*
X166297571Y-47521904D01*
X166392809Y-47474285D01*
X166630904Y-47474285D01*
X166726142Y-47521904D01*
X166773761Y-47569523D01*
X166821380Y-47664761D01*
X166821380Y-47902857D01*
X166773761Y-47998095D01*
X166726142Y-48045714D01*
M02*
