G04 #@! TF.GenerationSoftware,KiCad,Pcbnew,(5.1.7)-1*
G04 #@! TF.CreationDate,2021-03-02T06:51:01+09:00*
G04 #@! TF.ProjectId,pisces,70697363-6573-42e6-9b69-6361645f7063,rev?*
G04 #@! TF.SameCoordinates,Original*
G04 #@! TF.FileFunction,Paste,Bot*
G04 #@! TF.FilePolarity,Positive*
%FSLAX46Y46*%
G04 Gerber Fmt 4.6, Leading zero omitted, Abs format (unit mm)*
G04 Created by KiCad (PCBNEW (5.1.7)-1) date 2021-03-02 06:51:01*
%MOMM*%
%LPD*%
G01*
G04 APERTURE LIST*
%ADD10R,2.000000X2.000000*%
%ADD11R,0.950000X1.300000*%
%ADD12R,2.500000X1.200000*%
%ADD13R,1.100000X1.600000*%
%ADD14R,1.300000X0.950000*%
G04 APERTURE END LIST*
D10*
X138350000Y-47460000D03*
X150850000Y-44920000D03*
D11*
X58293000Y-50231500D03*
X58293000Y-53781500D03*
X58293000Y-72831500D03*
X58293000Y-69281500D03*
X58293000Y-88331500D03*
X58293000Y-91881500D03*
X96393000Y-53781500D03*
X96393000Y-50231500D03*
X96393000Y-69281500D03*
X96393000Y-72831500D03*
X115443000Y-53781500D03*
X115443000Y-50231500D03*
X115443000Y-69281500D03*
X115443000Y-72831500D03*
X115443000Y-88331500D03*
X115443000Y-91881500D03*
X134493000Y-72831500D03*
X134493000Y-69281500D03*
X134493000Y-88331500D03*
X134493000Y-91881500D03*
X153543000Y-72831500D03*
X153543000Y-69281500D03*
X153543000Y-91881500D03*
X153543000Y-88331500D03*
D10*
X43100000Y-47460000D03*
X55600000Y-44920000D03*
X55600000Y-63970000D03*
X43100000Y-66510000D03*
X43100000Y-85560000D03*
X55600000Y-83020000D03*
X74650000Y-44920000D03*
X62150000Y-47460000D03*
X74650000Y-63970000D03*
X62150000Y-66510000D03*
X62150000Y-85560000D03*
X74650000Y-83020000D03*
X93700000Y-44920000D03*
X81200000Y-47460000D03*
X81200000Y-66510000D03*
X93700000Y-63970000D03*
X81200000Y-85560000D03*
X93700000Y-83020000D03*
X100250000Y-47460000D03*
X112750000Y-44920000D03*
X112750000Y-63970000D03*
X100250000Y-66510000D03*
X100250000Y-85560000D03*
X112750000Y-83020000D03*
X131800000Y-44920000D03*
X119300000Y-47460000D03*
X131800000Y-63970000D03*
X119300000Y-66510000D03*
X131800000Y-83020000D03*
X119300000Y-85560000D03*
X150850000Y-63970000D03*
X138350000Y-66510000D03*
X138350000Y-85560000D03*
X150850000Y-83020000D03*
X157400000Y-85560000D03*
X169900000Y-83020000D03*
D12*
X168454000Y-47313000D03*
X168454000Y-44313000D03*
X174954000Y-52413000D03*
X168454000Y-51313000D03*
D13*
X170597000Y-55372000D03*
X175097000Y-55372000D03*
D11*
X77342999Y-53781500D03*
X77342999Y-50231500D03*
X77342999Y-69281500D03*
X77342999Y-72831500D03*
X77342999Y-91881500D03*
X77342999Y-88331500D03*
X96393000Y-88331500D03*
X96393000Y-91881500D03*
X134493000Y-53781500D03*
X134493000Y-50231500D03*
X153543000Y-53781500D03*
X153543000Y-50231500D03*
X172593000Y-88331500D03*
X172593000Y-91881500D03*
D14*
X161477500Y-74485500D03*
X157927500Y-74485500D03*
M02*
