M48
; DRILL file {KiCad (5.1.7)-1} date 03/02/21 06:51:13
; FORMAT={-:-/ absolute / inch / decimal}
; #@! TF.CreationDate,2021-03-02T06:51:13+09:00
; #@! TF.GenerationSoftware,Kicad,Pcbnew,(5.1.7)-1
; #@! TF.FileFunction,Plated,1,2,PTH
FMAT,2
INCH
T1C0.0157
%
G90
G05
T1
X1.65Y-1.8
X1.65Y-2.55
X1.65Y-3.3
X2.2525Y-1.9775
X2.2525Y-2.7275
X2.2525Y-3.4775
X2.295Y-2.07
X2.295Y-2.82
X2.295Y-3.57
X2.4Y-2.55
X2.4025Y-1.8
X2.405Y-3.3
X3.0025Y-1.9775
X3.0025Y-2.7275
X3.0025Y-3.4775
X3.045Y-2.07
X3.045Y-2.82
X3.045Y-3.57
X3.15Y-1.8
X3.15Y-2.55
X3.15Y-3.3
X3.7525Y-1.9775
X3.7525Y-2.7275
X3.7525Y-3.4775
X3.795Y-2.07
X3.795Y-2.82
X3.795Y-3.57
X3.9Y-1.8
X3.9Y-2.55
X3.9Y-3.3
X4.5Y-1.9775
X4.5025Y-2.7275
X4.5025Y-3.4775
X4.545Y-2.07
X4.545Y-2.82
X4.545Y-3.57
X4.65Y-1.8
X4.65Y-2.55
X4.65Y-3.3
X5.2525Y-1.9775
X5.2525Y-2.7275
X5.2525Y-3.4775
X5.295Y-2.07
X5.295Y-2.82
X5.295Y-3.57
X5.4Y-1.8
X5.4Y-2.55
X5.4Y-3.3
X6.0025Y-1.9775
X6.0025Y-2.7275
X6.0025Y-3.4775
X6.045Y-1.6425
X6.045Y-2.07
X6.045Y-2.82
X6.045Y-3.57
X6.1525Y-3.3
X6.2657Y-1.9881
X6.28Y-2.9325
X6.3575Y-2.8875
X6.5Y-2.7425
X6.66Y-2.18
X6.6825Y-2.3975
X6.7Y-1.975
X6.7Y-2.6175
X6.725Y-1.745
X6.725Y-1.9
X6.7525Y-3.4775
X6.795Y-3.57
X6.8Y-2.065
X6.895Y-2.1175
T0
M30
