G04 #@! TF.GenerationSoftware,KiCad,Pcbnew,(5.1.7)-1*
G04 #@! TF.CreationDate,2021-01-25T07:56:41+09:00*
G04 #@! TF.ProjectId,pisces,70697363-6573-42e6-9b69-6361645f7063,rev?*
G04 #@! TF.SameCoordinates,Original*
G04 #@! TF.FileFunction,Paste,Top*
G04 #@! TF.FilePolarity,Positive*
%FSLAX46Y46*%
G04 Gerber Fmt 4.6, Leading zero omitted, Abs format (unit mm)*
G04 Created by KiCad (PCBNEW (5.1.7)-1) date 2021-01-25 07:56:41*
%MOMM*%
%LPD*%
G01*
G04 APERTURE LIST*
%ADD10R,2.000000X2.000000*%
%ADD11R,0.950000X1.300000*%
%ADD12R,1.820000X1.060000*%
%ADD13R,2.100000X2.000000*%
%ADD14R,1.600000X1.900000*%
%ADD15R,0.400000X1.350000*%
%ADD16R,1.200000X1.900000*%
%ADD17R,1.600000X0.550000*%
%ADD18R,0.550000X1.600000*%
%ADD19R,2.100000X1.800000*%
%ADD20R,2.500000X1.200000*%
%ADD21R,1.100000X1.600000*%
G04 APERTURE END LIST*
D10*
X139650000Y-44920000D03*
X152150000Y-47460000D03*
G36*
G01*
X158361500Y-60214500D02*
X158361500Y-60689500D01*
G75*
G02*
X158124000Y-60927000I-237500J0D01*
G01*
X157524000Y-60927000D01*
G75*
G02*
X157286500Y-60689500I0J237500D01*
G01*
X157286500Y-60214500D01*
G75*
G02*
X157524000Y-59977000I237500J0D01*
G01*
X158124000Y-59977000D01*
G75*
G02*
X158361500Y-60214500I0J-237500D01*
G01*
G37*
G36*
G01*
X160086500Y-60214500D02*
X160086500Y-60689500D01*
G75*
G02*
X159849000Y-60927000I-237500J0D01*
G01*
X159249000Y-60927000D01*
G75*
G02*
X159011500Y-60689500I0J237500D01*
G01*
X159011500Y-60214500D01*
G75*
G02*
X159249000Y-59977000I237500J0D01*
G01*
X159849000Y-59977000D01*
G75*
G02*
X160086500Y-60214500I0J-237500D01*
G01*
G37*
G36*
G01*
X157286500Y-68690500D02*
X157286500Y-68215500D01*
G75*
G02*
X157524000Y-67978000I237500J0D01*
G01*
X158124000Y-67978000D01*
G75*
G02*
X158361500Y-68215500I0J-237500D01*
G01*
X158361500Y-68690500D01*
G75*
G02*
X158124000Y-68928000I-237500J0D01*
G01*
X157524000Y-68928000D01*
G75*
G02*
X157286500Y-68690500I0J237500D01*
G01*
G37*
G36*
G01*
X159011500Y-68690500D02*
X159011500Y-68215500D01*
G75*
G02*
X159249000Y-67978000I237500J0D01*
G01*
X159849000Y-67978000D01*
G75*
G02*
X160086500Y-68215500I0J-237500D01*
G01*
X160086500Y-68690500D01*
G75*
G02*
X159849000Y-68928000I-237500J0D01*
G01*
X159249000Y-68928000D01*
G75*
G02*
X159011500Y-68690500I0J237500D01*
G01*
G37*
G36*
G01*
X170818000Y-57865000D02*
X170818000Y-58340000D01*
G75*
G02*
X170580500Y-58577500I-237500J0D01*
G01*
X169980500Y-58577500D01*
G75*
G02*
X169743000Y-58340000I0J237500D01*
G01*
X169743000Y-57865000D01*
G75*
G02*
X169980500Y-57627500I237500J0D01*
G01*
X170580500Y-57627500D01*
G75*
G02*
X170818000Y-57865000I0J-237500D01*
G01*
G37*
G36*
G01*
X169093000Y-57865000D02*
X169093000Y-58340000D01*
G75*
G02*
X168855500Y-58577500I-237500J0D01*
G01*
X168255500Y-58577500D01*
G75*
G02*
X168018000Y-58340000I0J237500D01*
G01*
X168018000Y-57865000D01*
G75*
G02*
X168255500Y-57627500I237500J0D01*
G01*
X168855500Y-57627500D01*
G75*
G02*
X169093000Y-57865000I0J-237500D01*
G01*
G37*
G36*
G01*
X165963000Y-57881500D02*
X165963000Y-58831500D01*
G75*
G02*
X165713000Y-59081500I-250000J0D01*
G01*
X165038000Y-59081500D01*
G75*
G02*
X164788000Y-58831500I0J250000D01*
G01*
X164788000Y-57881500D01*
G75*
G02*
X165038000Y-57631500I250000J0D01*
G01*
X165713000Y-57631500D01*
G75*
G02*
X165963000Y-57881500I0J-250000D01*
G01*
G37*
G36*
G01*
X163888000Y-57881500D02*
X163888000Y-58831500D01*
G75*
G02*
X163638000Y-59081500I-250000J0D01*
G01*
X162963000Y-59081500D01*
G75*
G02*
X162713000Y-58831500I0J250000D01*
G01*
X162713000Y-57881500D01*
G75*
G02*
X162963000Y-57631500I250000J0D01*
G01*
X163638000Y-57631500D01*
G75*
G02*
X163888000Y-57881500I0J-250000D01*
G01*
G37*
G36*
G01*
X158361500Y-71200000D02*
X158361500Y-71675000D01*
G75*
G02*
X158124000Y-71912500I-237500J0D01*
G01*
X157524000Y-71912500D01*
G75*
G02*
X157286500Y-71675000I0J237500D01*
G01*
X157286500Y-71200000D01*
G75*
G02*
X157524000Y-70962500I237500J0D01*
G01*
X158124000Y-70962500D01*
G75*
G02*
X158361500Y-71200000I0J-237500D01*
G01*
G37*
G36*
G01*
X160086500Y-71200000D02*
X160086500Y-71675000D01*
G75*
G02*
X159849000Y-71912500I-237500J0D01*
G01*
X159249000Y-71912500D01*
G75*
G02*
X159011500Y-71675000I0J237500D01*
G01*
X159011500Y-71200000D01*
G75*
G02*
X159249000Y-70962500I237500J0D01*
G01*
X159849000Y-70962500D01*
G75*
G02*
X160086500Y-71200000I0J-237500D01*
G01*
G37*
G36*
G01*
X164976000Y-60214500D02*
X164976000Y-60689500D01*
G75*
G02*
X164738500Y-60927000I-237500J0D01*
G01*
X164138500Y-60927000D01*
G75*
G02*
X163901000Y-60689500I0J237500D01*
G01*
X163901000Y-60214500D01*
G75*
G02*
X164138500Y-59977000I237500J0D01*
G01*
X164738500Y-59977000D01*
G75*
G02*
X164976000Y-60214500I0J-237500D01*
G01*
G37*
G36*
G01*
X163251000Y-60214500D02*
X163251000Y-60689500D01*
G75*
G02*
X163013500Y-60927000I-237500J0D01*
G01*
X162413500Y-60927000D01*
G75*
G02*
X162176000Y-60689500I0J237500D01*
G01*
X162176000Y-60214500D01*
G75*
G02*
X162413500Y-59977000I237500J0D01*
G01*
X163013500Y-59977000D01*
G75*
G02*
X163251000Y-60214500I0J-237500D01*
G01*
G37*
D11*
X58293000Y-53781500D03*
X58293000Y-50231500D03*
X58293000Y-69281500D03*
X58293000Y-72831500D03*
X58293000Y-91881500D03*
X58293000Y-88331500D03*
X96393000Y-50231500D03*
X96393000Y-53781500D03*
X96393000Y-72831500D03*
X96393000Y-69281500D03*
X115443000Y-50231500D03*
X115443000Y-53781500D03*
X115443000Y-72831500D03*
X115443000Y-69281500D03*
X115443000Y-91881500D03*
X115443000Y-88331500D03*
X134493000Y-69281500D03*
X134493000Y-72831500D03*
X134493000Y-91881500D03*
X134493000Y-88331500D03*
X153543000Y-69281500D03*
X153543000Y-72831500D03*
X153543000Y-88331500D03*
X153543000Y-91881500D03*
D12*
X156845000Y-50232500D03*
X156845000Y-47176500D03*
D13*
X163628000Y-44069500D03*
X157428000Y-44069500D03*
D14*
X164628000Y-41719500D03*
X156428000Y-41719500D03*
D15*
X159228000Y-44394500D03*
X159878000Y-44394500D03*
X160528000Y-44394500D03*
X161178000Y-44394500D03*
X161828000Y-44394500D03*
D16*
X161378000Y-41719500D03*
X159678000Y-41719500D03*
G36*
G01*
X161613001Y-49860000D02*
X160712999Y-49860000D01*
G75*
G02*
X160463000Y-49610001I0J249999D01*
G01*
X160463000Y-48909999D01*
G75*
G02*
X160712999Y-48660000I249999J0D01*
G01*
X161613001Y-48660000D01*
G75*
G02*
X161863000Y-48909999I0J-249999D01*
G01*
X161863000Y-49610001D01*
G75*
G02*
X161613001Y-49860000I-249999J0D01*
G01*
G37*
G36*
G01*
X161613001Y-47860000D02*
X160712999Y-47860000D01*
G75*
G02*
X160463000Y-47610001I0J249999D01*
G01*
X160463000Y-46909999D01*
G75*
G02*
X160712999Y-46660000I249999J0D01*
G01*
X161613001Y-46660000D01*
G75*
G02*
X161863000Y-46909999I0J-249999D01*
G01*
X161863000Y-47610001D01*
G75*
G02*
X161613001Y-47860000I-249999J0D01*
G01*
G37*
G36*
G01*
X159581001Y-47860000D02*
X158680999Y-47860000D01*
G75*
G02*
X158431000Y-47610001I0J249999D01*
G01*
X158431000Y-46909999D01*
G75*
G02*
X158680999Y-46660000I249999J0D01*
G01*
X159581001Y-46660000D01*
G75*
G02*
X159831000Y-46909999I0J-249999D01*
G01*
X159831000Y-47610001D01*
G75*
G02*
X159581001Y-47860000I-249999J0D01*
G01*
G37*
G36*
G01*
X159581001Y-49860000D02*
X158680999Y-49860000D01*
G75*
G02*
X158431000Y-49610001I0J249999D01*
G01*
X158431000Y-48909999D01*
G75*
G02*
X158680999Y-48660000I249999J0D01*
G01*
X159581001Y-48660000D01*
G75*
G02*
X159831000Y-48909999I0J-249999D01*
G01*
X159831000Y-49610001D01*
G75*
G02*
X159581001Y-49860000I-249999J0D01*
G01*
G37*
G36*
G01*
X172390000Y-58743001D02*
X172390000Y-57842999D01*
G75*
G02*
X172639999Y-57593000I249999J0D01*
G01*
X173340001Y-57593000D01*
G75*
G02*
X173590000Y-57842999I0J-249999D01*
G01*
X173590000Y-58743001D01*
G75*
G02*
X173340001Y-58993000I-249999J0D01*
G01*
X172639999Y-58993000D01*
G75*
G02*
X172390000Y-58743001I0J249999D01*
G01*
G37*
G36*
G01*
X174390000Y-58743001D02*
X174390000Y-57842999D01*
G75*
G02*
X174639999Y-57593000I249999J0D01*
G01*
X175340001Y-57593000D01*
G75*
G02*
X175590000Y-57842999I0J-249999D01*
G01*
X175590000Y-58743001D01*
G75*
G02*
X175340001Y-58993000I-249999J0D01*
G01*
X174639999Y-58993000D01*
G75*
G02*
X174390000Y-58743001I0J249999D01*
G01*
G37*
G36*
G01*
X166033500Y-74733999D02*
X166033500Y-75634001D01*
G75*
G02*
X165783501Y-75884000I-249999J0D01*
G01*
X165083499Y-75884000D01*
G75*
G02*
X164833500Y-75634001I0J249999D01*
G01*
X164833500Y-74733999D01*
G75*
G02*
X165083499Y-74484000I249999J0D01*
G01*
X165783501Y-74484000D01*
G75*
G02*
X166033500Y-74733999I0J-249999D01*
G01*
G37*
G36*
G01*
X168033500Y-74733999D02*
X168033500Y-75634001D01*
G75*
G02*
X167783501Y-75884000I-249999J0D01*
G01*
X167083499Y-75884000D01*
G75*
G02*
X166833500Y-75634001I0J249999D01*
G01*
X166833500Y-74733999D01*
G75*
G02*
X167083499Y-74484000I249999J0D01*
G01*
X167783501Y-74484000D01*
G75*
G02*
X168033500Y-74733999I0J-249999D01*
G01*
G37*
D10*
X44400000Y-44920000D03*
X56900000Y-47460000D03*
X56900000Y-66510000D03*
X44400000Y-63970000D03*
X44400000Y-83020000D03*
X56900000Y-85560000D03*
X75950000Y-47460000D03*
X63450000Y-44920000D03*
X75950000Y-66510000D03*
X63450000Y-63970000D03*
X63450000Y-83020000D03*
X75950000Y-85560000D03*
X95000000Y-47460000D03*
X82500000Y-44920000D03*
X82500000Y-63970000D03*
X95000000Y-66510000D03*
X82500000Y-83020000D03*
X95000000Y-85560000D03*
X101550000Y-44920000D03*
X114050000Y-47460000D03*
X114050000Y-66510000D03*
X101550000Y-63970000D03*
X101550000Y-83020000D03*
X114050000Y-85560000D03*
X133100000Y-47460000D03*
X120600000Y-44920000D03*
X133100000Y-66510000D03*
X120600000Y-63970000D03*
X133100000Y-85560000D03*
X120600000Y-83020000D03*
X152150000Y-66510000D03*
X139650000Y-63970000D03*
X139650000Y-83020000D03*
X152150000Y-85560000D03*
X158700000Y-83020000D03*
X171200000Y-85560000D03*
D17*
X163453500Y-64065500D03*
X163453500Y-64865500D03*
X163453500Y-65665500D03*
X163453500Y-66465500D03*
X163453500Y-67265500D03*
X163453500Y-68065500D03*
X163453500Y-68865500D03*
X163453500Y-69665500D03*
D18*
X164903500Y-71115500D03*
X165703500Y-71115500D03*
X166503500Y-71115500D03*
X167303500Y-71115500D03*
X168103500Y-71115500D03*
X168903500Y-71115500D03*
X169703500Y-71115500D03*
X170503500Y-71115500D03*
D17*
X171953500Y-69665500D03*
X171953500Y-68865500D03*
X171953500Y-68065500D03*
X171953500Y-67265500D03*
X171953500Y-66465500D03*
X171953500Y-65665500D03*
X171953500Y-64865500D03*
X171953500Y-64065500D03*
D18*
X170503500Y-62615500D03*
X169703500Y-62615500D03*
X168903500Y-62615500D03*
X168103500Y-62615500D03*
X167303500Y-62615500D03*
X166503500Y-62615500D03*
X165703500Y-62615500D03*
X164903500Y-62615500D03*
D19*
X158993500Y-63225500D03*
X156093500Y-63225500D03*
X156093500Y-65425500D03*
X158993500Y-65425500D03*
D20*
X174954000Y-44323000D03*
X174954000Y-47323000D03*
X174954000Y-51323000D03*
X168454000Y-52423000D03*
D21*
X170597000Y-55372000D03*
X175097000Y-55372000D03*
D11*
X77342999Y-50231500D03*
X77342999Y-53781500D03*
X77342999Y-72831500D03*
X77342999Y-69281500D03*
X77342999Y-88331500D03*
X77342999Y-91881500D03*
X96393000Y-91881500D03*
X96393000Y-88331500D03*
X134493000Y-50231500D03*
X134493000Y-53781500D03*
X153543000Y-50231500D03*
X153543000Y-53781500D03*
X172593000Y-91881500D03*
X172593000Y-88331500D03*
G36*
G01*
X163779000Y-74733999D02*
X163779000Y-75634001D01*
G75*
G02*
X163529001Y-75884000I-249999J0D01*
G01*
X162828999Y-75884000D01*
G75*
G02*
X162579000Y-75634001I0J249999D01*
G01*
X162579000Y-74733999D01*
G75*
G02*
X162828999Y-74484000I249999J0D01*
G01*
X163529001Y-74484000D01*
G75*
G02*
X163779000Y-74733999I0J-249999D01*
G01*
G37*
G36*
G01*
X161779000Y-74733999D02*
X161779000Y-75634001D01*
G75*
G02*
X161529001Y-75884000I-249999J0D01*
G01*
X160828999Y-75884000D01*
G75*
G02*
X160579000Y-75634001I0J249999D01*
G01*
X160579000Y-74733999D01*
G75*
G02*
X160828999Y-74484000I249999J0D01*
G01*
X161529001Y-74484000D01*
G75*
G02*
X161779000Y-74733999I0J-249999D01*
G01*
G37*
M02*
