G04 #@! TF.GenerationSoftware,KiCad,Pcbnew,(5.1.7)-1*
G04 #@! TF.CreationDate,2021-03-02T06:51:01+09:00*
G04 #@! TF.ProjectId,pisces,70697363-6573-42e6-9b69-6361645f7063,rev?*
G04 #@! TF.SameCoordinates,Original*
G04 #@! TF.FileFunction,Legend,Bot*
G04 #@! TF.FilePolarity,Positive*
%FSLAX46Y46*%
G04 Gerber Fmt 4.6, Leading zero omitted, Abs format (unit mm)*
G04 Created by KiCad (PCBNEW (5.1.7)-1) date 2021-03-02 06:51:01*
%MOMM*%
%LPD*%
G01*
G04 APERTURE LIST*
%ADD10C,0.150000*%
%ADD11C,0.120000*%
G04 APERTURE END LIST*
D10*
X171156380Y-46085166D02*
X171870666Y-46085166D01*
X172013523Y-46037547D01*
X172108761Y-45942309D01*
X172156380Y-45799452D01*
X172156380Y-45704214D01*
X171251619Y-46513738D02*
X171204000Y-46561357D01*
X171156380Y-46656595D01*
X171156380Y-46894690D01*
X171204000Y-46989928D01*
X171251619Y-47037547D01*
X171346857Y-47085166D01*
X171442095Y-47085166D01*
X171584952Y-47037547D01*
X172156380Y-46466119D01*
X172156380Y-47085166D01*
X169297142Y-55162404D02*
X169563809Y-54781452D01*
X169754285Y-55162404D02*
X169754285Y-54362404D01*
X169449523Y-54362404D01*
X169373333Y-54400500D01*
X169335238Y-54438595D01*
X169297142Y-54514785D01*
X169297142Y-54629071D01*
X169335238Y-54705261D01*
X169373333Y-54743357D01*
X169449523Y-54781452D01*
X169754285Y-54781452D01*
X168992380Y-55124309D02*
X168878095Y-55162404D01*
X168687619Y-55162404D01*
X168611428Y-55124309D01*
X168573333Y-55086214D01*
X168535238Y-55010023D01*
X168535238Y-54933833D01*
X168573333Y-54857642D01*
X168611428Y-54819547D01*
X168687619Y-54781452D01*
X168840000Y-54743357D01*
X168916190Y-54705261D01*
X168954285Y-54667166D01*
X168992380Y-54590976D01*
X168992380Y-54514785D01*
X168954285Y-54438595D01*
X168916190Y-54400500D01*
X168840000Y-54362404D01*
X168649523Y-54362404D01*
X168535238Y-54400500D01*
X168306666Y-54362404D02*
X167849523Y-54362404D01*
X168078095Y-55162404D02*
X168078095Y-54362404D01*
X167620952Y-55124309D02*
X167506666Y-55162404D01*
X167316190Y-55162404D01*
X167240000Y-55124309D01*
X167201904Y-55086214D01*
X167163809Y-55010023D01*
X167163809Y-54933833D01*
X167201904Y-54857642D01*
X167240000Y-54819547D01*
X167316190Y-54781452D01*
X167468571Y-54743357D01*
X167544761Y-54705261D01*
X167582857Y-54667166D01*
X167620952Y-54590976D01*
X167620952Y-54514785D01*
X167582857Y-54438595D01*
X167544761Y-54400500D01*
X167468571Y-54362404D01*
X167278095Y-54362404D01*
X167163809Y-54400500D01*
X166897142Y-54362404D02*
X166706666Y-55162404D01*
X166554285Y-54590976D01*
X166401904Y-55162404D01*
X166211428Y-54362404D01*
X165487619Y-55162404D02*
X165944761Y-55162404D01*
X165716190Y-55162404D02*
X165716190Y-54362404D01*
X165792380Y-54476690D01*
X165868571Y-54552880D01*
X165944761Y-54590976D01*
X161345357Y-76715880D02*
X161345357Y-75715880D01*
X161107261Y-75715880D01*
X160964404Y-75763500D01*
X160869166Y-75858738D01*
X160821547Y-75953976D01*
X160773928Y-76144452D01*
X160773928Y-76287309D01*
X160821547Y-76477785D01*
X160869166Y-76573023D01*
X160964404Y-76668261D01*
X161107261Y-76715880D01*
X161345357Y-76715880D01*
X160583452Y-76811119D02*
X159821547Y-76811119D01*
X159583452Y-76715880D02*
X159583452Y-75715880D01*
X159583452Y-76192071D02*
X159012023Y-76192071D01*
X159012023Y-76715880D02*
X159012023Y-75715880D01*
X158012023Y-76715880D02*
X158583452Y-76715880D01*
X158297738Y-76715880D02*
X158297738Y-75715880D01*
X158392976Y-75858738D01*
X158488214Y-75953976D01*
X158583452Y-76001595D01*
X150050000Y-47150000D02*
X145000000Y-47196000D01*
X150050000Y-47104000D02*
X150050000Y-43196000D01*
X150050000Y-43196000D02*
X141425000Y-43196000D01*
X139150000Y-45150000D02*
X139150000Y-49095000D01*
X139150000Y-49104000D02*
X142760000Y-49104000D01*
X142765000Y-49080000D02*
G75*
G02*
X145025000Y-47200000I2070000J-190000D01*
G01*
X139161000Y-45080000D02*
G75*
G02*
X141425000Y-43196000I2074000J-190000D01*
G01*
X57543000Y-54706500D02*
X57543000Y-49306500D01*
X59043000Y-49306500D02*
X59043000Y-54706500D01*
X59043000Y-54706500D02*
X57543000Y-54706500D01*
X59043000Y-49306500D02*
X57543000Y-49306500D01*
X58793000Y-51506500D02*
X57793000Y-51506500D01*
X57793000Y-51506500D02*
X58293000Y-52406500D01*
X58293000Y-52406500D02*
X58793000Y-51506500D01*
X58793000Y-52506500D02*
X57793000Y-52506500D01*
X58793000Y-71556500D02*
X57793000Y-71556500D01*
X58293000Y-71456500D02*
X58793000Y-70556500D01*
X57793000Y-70556500D02*
X58293000Y-71456500D01*
X58793000Y-70556500D02*
X57793000Y-70556500D01*
X59043000Y-68356500D02*
X57543000Y-68356500D01*
X59043000Y-73756500D02*
X57543000Y-73756500D01*
X59043000Y-68356500D02*
X59043000Y-73756500D01*
X57543000Y-73756500D02*
X57543000Y-68356500D01*
X57543000Y-92806500D02*
X57543000Y-87406500D01*
X59043000Y-87406500D02*
X59043000Y-92806500D01*
X59043000Y-92806500D02*
X57543000Y-92806500D01*
X59043000Y-87406500D02*
X57543000Y-87406500D01*
X58793000Y-89606500D02*
X57793000Y-89606500D01*
X57793000Y-89606500D02*
X58293000Y-90506500D01*
X58293000Y-90506500D02*
X58793000Y-89606500D01*
X58793000Y-90606500D02*
X57793000Y-90606500D01*
X96893000Y-52506500D02*
X95893000Y-52506500D01*
X96393000Y-52406500D02*
X96893000Y-51506500D01*
X95893000Y-51506500D02*
X96393000Y-52406500D01*
X96893000Y-51506500D02*
X95893000Y-51506500D01*
X97143000Y-49306500D02*
X95643000Y-49306500D01*
X97143000Y-54706500D02*
X95643000Y-54706500D01*
X97143000Y-49306500D02*
X97143000Y-54706500D01*
X95643000Y-54706500D02*
X95643000Y-49306500D01*
X95643000Y-73756500D02*
X95643000Y-68356500D01*
X97143000Y-68356500D02*
X97143000Y-73756500D01*
X97143000Y-73756500D02*
X95643000Y-73756500D01*
X97143000Y-68356500D02*
X95643000Y-68356500D01*
X96893000Y-70556500D02*
X95893000Y-70556500D01*
X95893000Y-70556500D02*
X96393000Y-71456500D01*
X96393000Y-71456500D02*
X96893000Y-70556500D01*
X96893000Y-71556500D02*
X95893000Y-71556500D01*
X115943000Y-52506500D02*
X114943000Y-52506500D01*
X115443000Y-52406500D02*
X115943000Y-51506500D01*
X114943000Y-51506500D02*
X115443000Y-52406500D01*
X115943000Y-51506500D02*
X114943000Y-51506500D01*
X116193000Y-49306500D02*
X114693000Y-49306500D01*
X116193000Y-54706500D02*
X114693000Y-54706500D01*
X116193000Y-49306500D02*
X116193000Y-54706500D01*
X114693000Y-54706500D02*
X114693000Y-49306500D01*
X114693000Y-73756500D02*
X114693000Y-68356500D01*
X116193000Y-68356500D02*
X116193000Y-73756500D01*
X116193000Y-73756500D02*
X114693000Y-73756500D01*
X116193000Y-68356500D02*
X114693000Y-68356500D01*
X115943000Y-70556500D02*
X114943000Y-70556500D01*
X114943000Y-70556500D02*
X115443000Y-71456500D01*
X115443000Y-71456500D02*
X115943000Y-70556500D01*
X115943000Y-71556500D02*
X114943000Y-71556500D01*
X114693000Y-92806500D02*
X114693000Y-87406500D01*
X116193000Y-87406500D02*
X116193000Y-92806500D01*
X116193000Y-92806500D02*
X114693000Y-92806500D01*
X116193000Y-87406500D02*
X114693000Y-87406500D01*
X115943000Y-89606500D02*
X114943000Y-89606500D01*
X114943000Y-89606500D02*
X115443000Y-90506500D01*
X115443000Y-90506500D02*
X115943000Y-89606500D01*
X115943000Y-90606500D02*
X114943000Y-90606500D01*
X134993000Y-71556500D02*
X133993000Y-71556500D01*
X134493000Y-71456500D02*
X134993000Y-70556500D01*
X133993000Y-70556500D02*
X134493000Y-71456500D01*
X134993000Y-70556500D02*
X133993000Y-70556500D01*
X135243000Y-68356500D02*
X133743000Y-68356500D01*
X135243000Y-73756500D02*
X133743000Y-73756500D01*
X135243000Y-68356500D02*
X135243000Y-73756500D01*
X133743000Y-73756500D02*
X133743000Y-68356500D01*
X133743000Y-92806500D02*
X133743000Y-87406500D01*
X135243000Y-87406500D02*
X135243000Y-92806500D01*
X135243000Y-92806500D02*
X133743000Y-92806500D01*
X135243000Y-87406500D02*
X133743000Y-87406500D01*
X134993000Y-89606500D02*
X133993000Y-89606500D01*
X133993000Y-89606500D02*
X134493000Y-90506500D01*
X134493000Y-90506500D02*
X134993000Y-89606500D01*
X134993000Y-90606500D02*
X133993000Y-90606500D01*
X154043000Y-71556500D02*
X153043000Y-71556500D01*
X153543000Y-71456500D02*
X154043000Y-70556500D01*
X153043000Y-70556500D02*
X153543000Y-71456500D01*
X154043000Y-70556500D02*
X153043000Y-70556500D01*
X154293000Y-68356500D02*
X152793000Y-68356500D01*
X154293000Y-73756500D02*
X152793000Y-73756500D01*
X154293000Y-68356500D02*
X154293000Y-73756500D01*
X152793000Y-73756500D02*
X152793000Y-68356500D01*
X154043000Y-90606500D02*
X153043000Y-90606500D01*
X153543000Y-90506500D02*
X154043000Y-89606500D01*
X153043000Y-89606500D02*
X153543000Y-90506500D01*
X154043000Y-89606500D02*
X153043000Y-89606500D01*
X154293000Y-87406500D02*
X152793000Y-87406500D01*
X154293000Y-92806500D02*
X152793000Y-92806500D01*
X154293000Y-87406500D02*
X154293000Y-92806500D01*
X152793000Y-92806500D02*
X152793000Y-87406500D01*
X54800000Y-47150000D02*
X49750000Y-47196000D01*
X54800000Y-47104000D02*
X54800000Y-43196000D01*
X54800000Y-43196000D02*
X46175000Y-43196000D01*
X43900000Y-45150000D02*
X43900000Y-49095000D01*
X43900000Y-49104000D02*
X47510000Y-49104000D01*
X47515000Y-49080000D02*
G75*
G02*
X49775000Y-47200000I2070000J-190000D01*
G01*
X43911000Y-45080000D02*
G75*
G02*
X46175000Y-43196000I2074000J-190000D01*
G01*
X43900000Y-68154000D02*
X47510000Y-68154000D01*
X43900000Y-64200000D02*
X43900000Y-68145000D01*
X54800000Y-62246000D02*
X46175000Y-62246000D01*
X54800000Y-66154000D02*
X54800000Y-62246000D01*
X54800000Y-66200000D02*
X49750000Y-66246000D01*
X43911000Y-64130000D02*
G75*
G02*
X46175000Y-62246000I2074000J-190000D01*
G01*
X47515000Y-68130000D02*
G75*
G02*
X49775000Y-66250000I2070000J-190000D01*
G01*
X54800000Y-85250000D02*
X49750000Y-85296000D01*
X54800000Y-85204000D02*
X54800000Y-81296000D01*
X54800000Y-81296000D02*
X46175000Y-81296000D01*
X43900000Y-83250000D02*
X43900000Y-87195000D01*
X43900000Y-87204000D02*
X47510000Y-87204000D01*
X47515000Y-87180000D02*
G75*
G02*
X49775000Y-85300000I2070000J-190000D01*
G01*
X43911000Y-83180000D02*
G75*
G02*
X46175000Y-81296000I2074000J-190000D01*
G01*
X62950000Y-49104000D02*
X66560000Y-49104000D01*
X62950000Y-45150000D02*
X62950000Y-49095000D01*
X73850000Y-43196000D02*
X65225000Y-43196000D01*
X73850000Y-47104000D02*
X73850000Y-43196000D01*
X73850000Y-47150000D02*
X68800000Y-47196000D01*
X62961000Y-45080000D02*
G75*
G02*
X65225000Y-43196000I2074000J-190000D01*
G01*
X66565000Y-49080000D02*
G75*
G02*
X68825000Y-47200000I2070000J-190000D01*
G01*
X62950000Y-68154000D02*
X66560000Y-68154000D01*
X62950000Y-64200000D02*
X62950000Y-68145000D01*
X73850000Y-62246000D02*
X65225000Y-62246000D01*
X73850000Y-66154000D02*
X73850000Y-62246000D01*
X73850000Y-66200000D02*
X68800000Y-66246000D01*
X62961000Y-64130000D02*
G75*
G02*
X65225000Y-62246000I2074000J-190000D01*
G01*
X66565000Y-68130000D02*
G75*
G02*
X68825000Y-66250000I2070000J-190000D01*
G01*
X73850000Y-85250000D02*
X68800000Y-85296000D01*
X73850000Y-85204000D02*
X73850000Y-81296000D01*
X73850000Y-81296000D02*
X65225000Y-81296000D01*
X62950000Y-83250000D02*
X62950000Y-87195000D01*
X62950000Y-87204000D02*
X66560000Y-87204000D01*
X66565000Y-87180000D02*
G75*
G02*
X68825000Y-85300000I2070000J-190000D01*
G01*
X62961000Y-83180000D02*
G75*
G02*
X65225000Y-81296000I2074000J-190000D01*
G01*
X82000000Y-49104000D02*
X85610000Y-49104000D01*
X82000000Y-45150000D02*
X82000000Y-49095000D01*
X92900000Y-43196000D02*
X84275000Y-43196000D01*
X92900000Y-47104000D02*
X92900000Y-43196000D01*
X92900000Y-47150000D02*
X87850000Y-47196000D01*
X82011000Y-45080000D02*
G75*
G02*
X84275000Y-43196000I2074000J-190000D01*
G01*
X85615000Y-49080000D02*
G75*
G02*
X87875000Y-47200000I2070000J-190000D01*
G01*
X92900000Y-66200000D02*
X87850000Y-66246000D01*
X92900000Y-66154000D02*
X92900000Y-62246000D01*
X92900000Y-62246000D02*
X84275000Y-62246000D01*
X82000000Y-64200000D02*
X82000000Y-68145000D01*
X82000000Y-68154000D02*
X85610000Y-68154000D01*
X85615000Y-68130000D02*
G75*
G02*
X87875000Y-66250000I2070000J-190000D01*
G01*
X82011000Y-64130000D02*
G75*
G02*
X84275000Y-62246000I2074000J-190000D01*
G01*
X92900000Y-85250000D02*
X87850000Y-85296000D01*
X92900000Y-85204000D02*
X92900000Y-81296000D01*
X92900000Y-81296000D02*
X84275000Y-81296000D01*
X82000000Y-83250000D02*
X82000000Y-87195000D01*
X82000000Y-87204000D02*
X85610000Y-87204000D01*
X85615000Y-87180000D02*
G75*
G02*
X87875000Y-85300000I2070000J-190000D01*
G01*
X82011000Y-83180000D02*
G75*
G02*
X84275000Y-81296000I2074000J-190000D01*
G01*
X111950000Y-47150000D02*
X106900000Y-47196000D01*
X111950000Y-47104000D02*
X111950000Y-43196000D01*
X111950000Y-43196000D02*
X103325000Y-43196000D01*
X101050000Y-45150000D02*
X101050000Y-49095000D01*
X101050000Y-49104000D02*
X104660000Y-49104000D01*
X104665000Y-49080000D02*
G75*
G02*
X106925000Y-47200000I2070000J-190000D01*
G01*
X101061000Y-45080000D02*
G75*
G02*
X103325000Y-43196000I2074000J-190000D01*
G01*
X101050000Y-68154000D02*
X104660000Y-68154000D01*
X101050000Y-64200000D02*
X101050000Y-68145000D01*
X111950000Y-62246000D02*
X103325000Y-62246000D01*
X111950000Y-66154000D02*
X111950000Y-62246000D01*
X111950000Y-66200000D02*
X106900000Y-66246000D01*
X101061000Y-64130000D02*
G75*
G02*
X103325000Y-62246000I2074000J-190000D01*
G01*
X104665000Y-68130000D02*
G75*
G02*
X106925000Y-66250000I2070000J-190000D01*
G01*
X111950000Y-85250000D02*
X106900000Y-85296000D01*
X111950000Y-85204000D02*
X111950000Y-81296000D01*
X111950000Y-81296000D02*
X103325000Y-81296000D01*
X101050000Y-83250000D02*
X101050000Y-87195000D01*
X101050000Y-87204000D02*
X104660000Y-87204000D01*
X104665000Y-87180000D02*
G75*
G02*
X106925000Y-85300000I2070000J-190000D01*
G01*
X101061000Y-83180000D02*
G75*
G02*
X103325000Y-81296000I2074000J-190000D01*
G01*
X120100000Y-49104000D02*
X123710000Y-49104000D01*
X120100000Y-45150000D02*
X120100000Y-49095000D01*
X131000000Y-43196000D02*
X122375000Y-43196000D01*
X131000000Y-47104000D02*
X131000000Y-43196000D01*
X131000000Y-47150000D02*
X125950000Y-47196000D01*
X120111000Y-45080000D02*
G75*
G02*
X122375000Y-43196000I2074000J-190000D01*
G01*
X123715000Y-49080000D02*
G75*
G02*
X125975000Y-47200000I2070000J-190000D01*
G01*
X120100000Y-68154000D02*
X123710000Y-68154000D01*
X120100000Y-64200000D02*
X120100000Y-68145000D01*
X131000000Y-62246000D02*
X122375000Y-62246000D01*
X131000000Y-66154000D02*
X131000000Y-62246000D01*
X131000000Y-66200000D02*
X125950000Y-66246000D01*
X120111000Y-64130000D02*
G75*
G02*
X122375000Y-62246000I2074000J-190000D01*
G01*
X123715000Y-68130000D02*
G75*
G02*
X125975000Y-66250000I2070000J-190000D01*
G01*
X120100000Y-87204000D02*
X123710000Y-87204000D01*
X120100000Y-83250000D02*
X120100000Y-87195000D01*
X131000000Y-81296000D02*
X122375000Y-81296000D01*
X131000000Y-85204000D02*
X131000000Y-81296000D01*
X131000000Y-85250000D02*
X125950000Y-85296000D01*
X120111000Y-83180000D02*
G75*
G02*
X122375000Y-81296000I2074000J-190000D01*
G01*
X123715000Y-87180000D02*
G75*
G02*
X125975000Y-85300000I2070000J-190000D01*
G01*
X139150000Y-68154000D02*
X142760000Y-68154000D01*
X139150000Y-64200000D02*
X139150000Y-68145000D01*
X150050000Y-62246000D02*
X141425000Y-62246000D01*
X150050000Y-66154000D02*
X150050000Y-62246000D01*
X150050000Y-66200000D02*
X145000000Y-66246000D01*
X139161000Y-64130000D02*
G75*
G02*
X141425000Y-62246000I2074000J-190000D01*
G01*
X142765000Y-68130000D02*
G75*
G02*
X145025000Y-66250000I2070000J-190000D01*
G01*
X150050000Y-85250000D02*
X145000000Y-85296000D01*
X150050000Y-85204000D02*
X150050000Y-81296000D01*
X150050000Y-81296000D02*
X141425000Y-81296000D01*
X139150000Y-83250000D02*
X139150000Y-87195000D01*
X139150000Y-87204000D02*
X142760000Y-87204000D01*
X142765000Y-87180000D02*
G75*
G02*
X145025000Y-85300000I2070000J-190000D01*
G01*
X139161000Y-83180000D02*
G75*
G02*
X141425000Y-81296000I2074000J-190000D01*
G01*
X169100000Y-85250000D02*
X164050000Y-85296000D01*
X169100000Y-85204000D02*
X169100000Y-81296000D01*
X169100000Y-81296000D02*
X160475000Y-81296000D01*
X158200000Y-83250000D02*
X158200000Y-87195000D01*
X158200000Y-87204000D02*
X161810000Y-87204000D01*
X161815000Y-87180000D02*
G75*
G02*
X164075000Y-85300000I2070000J-190000D01*
G01*
X158211000Y-83180000D02*
G75*
G02*
X160475000Y-81296000I2074000J-190000D01*
G01*
D11*
X174547000Y-56822000D02*
X171147000Y-56822000D01*
X171147000Y-53922000D02*
X171147000Y-56822000D01*
X171147000Y-53922000D02*
X174547000Y-53922000D01*
X174547000Y-56822000D02*
X174547000Y-53922000D01*
D10*
X76592999Y-54706500D02*
X76592999Y-49306500D01*
X78092999Y-49306500D02*
X78092999Y-54706500D01*
X78092999Y-54706500D02*
X76592999Y-54706500D01*
X78092999Y-49306500D02*
X76592999Y-49306500D01*
X77842999Y-51506500D02*
X76842999Y-51506500D01*
X76842999Y-51506500D02*
X77342999Y-52406500D01*
X77342999Y-52406500D02*
X77842999Y-51506500D01*
X77842999Y-52506500D02*
X76842999Y-52506500D01*
X77842999Y-71556500D02*
X76842999Y-71556500D01*
X77342999Y-71456500D02*
X77842999Y-70556500D01*
X76842999Y-70556500D02*
X77342999Y-71456500D01*
X77842999Y-70556500D02*
X76842999Y-70556500D01*
X78092999Y-68356500D02*
X76592999Y-68356500D01*
X78092999Y-73756500D02*
X76592999Y-73756500D01*
X78092999Y-68356500D02*
X78092999Y-73756500D01*
X76592999Y-73756500D02*
X76592999Y-68356500D01*
X76592999Y-92806500D02*
X76592999Y-87406500D01*
X78092999Y-87406500D02*
X78092999Y-92806500D01*
X78092999Y-92806500D02*
X76592999Y-92806500D01*
X78092999Y-87406500D02*
X76592999Y-87406500D01*
X77842999Y-89606500D02*
X76842999Y-89606500D01*
X76842999Y-89606500D02*
X77342999Y-90506500D01*
X77342999Y-90506500D02*
X77842999Y-89606500D01*
X77842999Y-90606500D02*
X76842999Y-90606500D01*
X96893000Y-90606500D02*
X95893000Y-90606500D01*
X96393000Y-90506500D02*
X96893000Y-89606500D01*
X95893000Y-89606500D02*
X96393000Y-90506500D01*
X96893000Y-89606500D02*
X95893000Y-89606500D01*
X97143000Y-87406500D02*
X95643000Y-87406500D01*
X97143000Y-92806500D02*
X95643000Y-92806500D01*
X97143000Y-87406500D02*
X97143000Y-92806500D01*
X95643000Y-92806500D02*
X95643000Y-87406500D01*
X133743000Y-54706500D02*
X133743000Y-49306500D01*
X135243000Y-49306500D02*
X135243000Y-54706500D01*
X135243000Y-54706500D02*
X133743000Y-54706500D01*
X135243000Y-49306500D02*
X133743000Y-49306500D01*
X134993000Y-51506500D02*
X133993000Y-51506500D01*
X133993000Y-51506500D02*
X134493000Y-52406500D01*
X134493000Y-52406500D02*
X134993000Y-51506500D01*
X134993000Y-52506500D02*
X133993000Y-52506500D01*
X152793000Y-54706500D02*
X152793000Y-49306500D01*
X154293000Y-49306500D02*
X154293000Y-54706500D01*
X154293000Y-54706500D02*
X152793000Y-54706500D01*
X154293000Y-49306500D02*
X152793000Y-49306500D01*
X154043000Y-51506500D02*
X153043000Y-51506500D01*
X153043000Y-51506500D02*
X153543000Y-52406500D01*
X153543000Y-52406500D02*
X154043000Y-51506500D01*
X154043000Y-52506500D02*
X153043000Y-52506500D01*
X173093000Y-90606500D02*
X172093000Y-90606500D01*
X172593000Y-90506500D02*
X173093000Y-89606500D01*
X172093000Y-89606500D02*
X172593000Y-90506500D01*
X173093000Y-89606500D02*
X172093000Y-89606500D01*
X173343000Y-87406500D02*
X171843000Y-87406500D01*
X173343000Y-92806500D02*
X171843000Y-92806500D01*
X173343000Y-87406500D02*
X173343000Y-92806500D01*
X171843000Y-92806500D02*
X171843000Y-87406500D01*
X159202500Y-73985500D02*
X159202500Y-74985500D01*
X159302500Y-74485500D02*
X160202500Y-73985500D01*
X160202500Y-73985500D02*
X160202500Y-74985500D01*
X160202500Y-74985500D02*
X159302500Y-74485500D01*
X162402500Y-73735500D02*
X157002500Y-73735500D01*
X157002500Y-73735500D02*
X157002500Y-75235500D01*
X157002500Y-75235500D02*
X162402500Y-75235500D01*
X162402500Y-75235500D02*
X162402500Y-73735500D01*
M02*
