G04 #@! TF.GenerationSoftware,KiCad,Pcbnew,(5.1.7)-1*
G04 #@! TF.CreationDate,2021-01-25T07:56:41+09:00*
G04 #@! TF.ProjectId,pisces,70697363-6573-42e6-9b69-6361645f7063,rev?*
G04 #@! TF.SameCoordinates,Original*
G04 #@! TF.FileFunction,Legend,Top*
G04 #@! TF.FilePolarity,Positive*
%FSLAX46Y46*%
G04 Gerber Fmt 4.6, Leading zero omitted, Abs format (unit mm)*
G04 Created by KiCad (PCBNEW (5.1.7)-1) date 2021-01-25 07:56:41*
%MOMM*%
%LPD*%
G01*
G04 APERTURE LIST*
%ADD10C,0.150000*%
%ADD11C,0.120000*%
%ADD12C,0.127000*%
%ADD13C,0.200000*%
%ADD14C,0.015000*%
G04 APERTURE END LIST*
D10*
X157004119Y-78874880D02*
X156670785Y-78398690D01*
X156432690Y-78874880D02*
X156432690Y-77874880D01*
X156813642Y-77874880D01*
X156908880Y-77922500D01*
X156956500Y-77970119D01*
X157004119Y-78065357D01*
X157004119Y-78208214D01*
X156956500Y-78303452D01*
X156908880Y-78351071D01*
X156813642Y-78398690D01*
X156432690Y-78398690D01*
X157432690Y-78351071D02*
X157766023Y-78351071D01*
X157908880Y-78874880D02*
X157432690Y-78874880D01*
X157432690Y-77874880D01*
X157908880Y-77874880D01*
X158289833Y-78827261D02*
X158432690Y-78874880D01*
X158670785Y-78874880D01*
X158766023Y-78827261D01*
X158813642Y-78779642D01*
X158861261Y-78684404D01*
X158861261Y-78589166D01*
X158813642Y-78493928D01*
X158766023Y-78446309D01*
X158670785Y-78398690D01*
X158480309Y-78351071D01*
X158385071Y-78303452D01*
X158337452Y-78255833D01*
X158289833Y-78160595D01*
X158289833Y-78065357D01*
X158337452Y-77970119D01*
X158385071Y-77922500D01*
X158480309Y-77874880D01*
X158718404Y-77874880D01*
X158861261Y-77922500D01*
X159289833Y-78351071D02*
X159623166Y-78351071D01*
X159766023Y-78874880D02*
X159289833Y-78874880D01*
X159289833Y-77874880D01*
X159766023Y-77874880D01*
X160766023Y-78874880D02*
X160432690Y-78398690D01*
X160194595Y-78874880D02*
X160194595Y-77874880D01*
X160575547Y-77874880D01*
X160670785Y-77922500D01*
X160718404Y-77970119D01*
X160766023Y-78065357D01*
X160766023Y-78208214D01*
X160718404Y-78303452D01*
X160670785Y-78351071D01*
X160575547Y-78398690D01*
X160194595Y-78398690D01*
X161051738Y-77874880D02*
X161385071Y-78874880D01*
X161718404Y-77874880D01*
X162051738Y-78351071D02*
X162385071Y-78351071D01*
X162527928Y-78874880D02*
X162051738Y-78874880D01*
X162051738Y-77874880D01*
X162527928Y-77874880D01*
X162956500Y-78874880D02*
X162956500Y-77874880D01*
X163194595Y-77874880D01*
X163337452Y-77922500D01*
X163432690Y-78017738D01*
X163480309Y-78112976D01*
X163527928Y-78303452D01*
X163527928Y-78446309D01*
X163480309Y-78636785D01*
X163432690Y-78732023D01*
X163337452Y-78827261D01*
X163194595Y-78874880D01*
X162956500Y-78874880D01*
X151350000Y-49104000D02*
X147740000Y-49104000D01*
X151350000Y-45150000D02*
X151350000Y-49095000D01*
X140450000Y-43196000D02*
X149075000Y-43196000D01*
X140450000Y-47104000D02*
X140450000Y-43196000D01*
X140450000Y-47150000D02*
X145500000Y-47196000D01*
X151339000Y-45080000D02*
G75*
G03*
X149075000Y-43196000I-2074000J-190000D01*
G01*
X147735000Y-49080000D02*
G75*
G03*
X145475000Y-47200000I-2070000J-190000D01*
G01*
D11*
X158832767Y-59942000D02*
X158540233Y-59942000D01*
X158832767Y-60962000D02*
X158540233Y-60962000D01*
X158540233Y-67943000D02*
X158832767Y-67943000D01*
X158540233Y-68963000D02*
X158832767Y-68963000D01*
X169564267Y-58612500D02*
X169271733Y-58612500D01*
X169564267Y-57592500D02*
X169271733Y-57592500D01*
X164599252Y-59091500D02*
X164076748Y-59091500D01*
X164599252Y-57621500D02*
X164076748Y-57621500D01*
X158832767Y-70927500D02*
X158540233Y-70927500D01*
X158832767Y-71947500D02*
X158540233Y-71947500D01*
X163722267Y-60962000D02*
X163429733Y-60962000D01*
X163722267Y-59942000D02*
X163429733Y-59942000D01*
D10*
X57543000Y-49306500D02*
X59043000Y-49306500D01*
X57543000Y-54706500D02*
X57543000Y-49306500D01*
X59043000Y-54706500D02*
X57543000Y-54706500D01*
X59043000Y-49306500D02*
X59043000Y-54706500D01*
X57793000Y-51506500D02*
X58293000Y-52406500D01*
X58793000Y-51506500D02*
X57793000Y-51506500D01*
X58293000Y-52406500D02*
X58793000Y-51506500D01*
X58793000Y-52506500D02*
X57793000Y-52506500D01*
X58793000Y-71556500D02*
X57793000Y-71556500D01*
X58293000Y-71456500D02*
X58793000Y-70556500D01*
X58793000Y-70556500D02*
X57793000Y-70556500D01*
X57793000Y-70556500D02*
X58293000Y-71456500D01*
X59043000Y-68356500D02*
X59043000Y-73756500D01*
X59043000Y-73756500D02*
X57543000Y-73756500D01*
X57543000Y-73756500D02*
X57543000Y-68356500D01*
X57543000Y-68356500D02*
X59043000Y-68356500D01*
X57543000Y-87406500D02*
X59043000Y-87406500D01*
X57543000Y-92806500D02*
X57543000Y-87406500D01*
X59043000Y-92806500D02*
X57543000Y-92806500D01*
X59043000Y-87406500D02*
X59043000Y-92806500D01*
X57793000Y-89606500D02*
X58293000Y-90506500D01*
X58793000Y-89606500D02*
X57793000Y-89606500D01*
X58293000Y-90506500D02*
X58793000Y-89606500D01*
X58793000Y-90606500D02*
X57793000Y-90606500D01*
X96893000Y-52506500D02*
X95893000Y-52506500D01*
X96393000Y-52406500D02*
X96893000Y-51506500D01*
X96893000Y-51506500D02*
X95893000Y-51506500D01*
X95893000Y-51506500D02*
X96393000Y-52406500D01*
X97143000Y-49306500D02*
X97143000Y-54706500D01*
X97143000Y-54706500D02*
X95643000Y-54706500D01*
X95643000Y-54706500D02*
X95643000Y-49306500D01*
X95643000Y-49306500D02*
X97143000Y-49306500D01*
X95643000Y-68356500D02*
X97143000Y-68356500D01*
X95643000Y-73756500D02*
X95643000Y-68356500D01*
X97143000Y-73756500D02*
X95643000Y-73756500D01*
X97143000Y-68356500D02*
X97143000Y-73756500D01*
X95893000Y-70556500D02*
X96393000Y-71456500D01*
X96893000Y-70556500D02*
X95893000Y-70556500D01*
X96393000Y-71456500D02*
X96893000Y-70556500D01*
X96893000Y-71556500D02*
X95893000Y-71556500D01*
X115943000Y-52506500D02*
X114943000Y-52506500D01*
X115443000Y-52406500D02*
X115943000Y-51506500D01*
X115943000Y-51506500D02*
X114943000Y-51506500D01*
X114943000Y-51506500D02*
X115443000Y-52406500D01*
X116193000Y-49306500D02*
X116193000Y-54706500D01*
X116193000Y-54706500D02*
X114693000Y-54706500D01*
X114693000Y-54706500D02*
X114693000Y-49306500D01*
X114693000Y-49306500D02*
X116193000Y-49306500D01*
X114693000Y-68356500D02*
X116193000Y-68356500D01*
X114693000Y-73756500D02*
X114693000Y-68356500D01*
X116193000Y-73756500D02*
X114693000Y-73756500D01*
X116193000Y-68356500D02*
X116193000Y-73756500D01*
X114943000Y-70556500D02*
X115443000Y-71456500D01*
X115943000Y-70556500D02*
X114943000Y-70556500D01*
X115443000Y-71456500D02*
X115943000Y-70556500D01*
X115943000Y-71556500D02*
X114943000Y-71556500D01*
X114693000Y-87406500D02*
X116193000Y-87406500D01*
X114693000Y-92806500D02*
X114693000Y-87406500D01*
X116193000Y-92806500D02*
X114693000Y-92806500D01*
X116193000Y-87406500D02*
X116193000Y-92806500D01*
X114943000Y-89606500D02*
X115443000Y-90506500D01*
X115943000Y-89606500D02*
X114943000Y-89606500D01*
X115443000Y-90506500D02*
X115943000Y-89606500D01*
X115943000Y-90606500D02*
X114943000Y-90606500D01*
X134993000Y-71556500D02*
X133993000Y-71556500D01*
X134493000Y-71456500D02*
X134993000Y-70556500D01*
X134993000Y-70556500D02*
X133993000Y-70556500D01*
X133993000Y-70556500D02*
X134493000Y-71456500D01*
X135243000Y-68356500D02*
X135243000Y-73756500D01*
X135243000Y-73756500D02*
X133743000Y-73756500D01*
X133743000Y-73756500D02*
X133743000Y-68356500D01*
X133743000Y-68356500D02*
X135243000Y-68356500D01*
X133743000Y-87406500D02*
X135243000Y-87406500D01*
X133743000Y-92806500D02*
X133743000Y-87406500D01*
X135243000Y-92806500D02*
X133743000Y-92806500D01*
X135243000Y-87406500D02*
X135243000Y-92806500D01*
X133993000Y-89606500D02*
X134493000Y-90506500D01*
X134993000Y-89606500D02*
X133993000Y-89606500D01*
X134493000Y-90506500D02*
X134993000Y-89606500D01*
X134993000Y-90606500D02*
X133993000Y-90606500D01*
X154043000Y-71556500D02*
X153043000Y-71556500D01*
X153543000Y-71456500D02*
X154043000Y-70556500D01*
X154043000Y-70556500D02*
X153043000Y-70556500D01*
X153043000Y-70556500D02*
X153543000Y-71456500D01*
X154293000Y-68356500D02*
X154293000Y-73756500D01*
X154293000Y-73756500D02*
X152793000Y-73756500D01*
X152793000Y-73756500D02*
X152793000Y-68356500D01*
X152793000Y-68356500D02*
X154293000Y-68356500D01*
X154043000Y-90606500D02*
X153043000Y-90606500D01*
X153543000Y-90506500D02*
X154043000Y-89606500D01*
X154043000Y-89606500D02*
X153043000Y-89606500D01*
X153043000Y-89606500D02*
X153543000Y-90506500D01*
X154293000Y-87406500D02*
X154293000Y-92806500D01*
X154293000Y-92806500D02*
X152793000Y-92806500D01*
X152793000Y-92806500D02*
X152793000Y-87406500D01*
X152793000Y-87406500D02*
X154293000Y-87406500D01*
D12*
X155945000Y-49384500D02*
X155945000Y-48024500D01*
X157745000Y-49384500D02*
X157745000Y-48024500D01*
D13*
X159348000Y-45759500D02*
G75*
G03*
X159348000Y-45759500I-100000J0D01*
G01*
D11*
X160428000Y-48487064D02*
X160428000Y-48032936D01*
X161898000Y-48487064D02*
X161898000Y-48032936D01*
X159866000Y-48487064D02*
X159866000Y-48032936D01*
X158396000Y-48487064D02*
X158396000Y-48032936D01*
X173762936Y-57558000D02*
X174217064Y-57558000D01*
X173762936Y-59028000D02*
X174217064Y-59028000D01*
X166660564Y-74449000D02*
X166206436Y-74449000D01*
X166660564Y-75919000D02*
X166206436Y-75919000D01*
D10*
X56100000Y-49104000D02*
X52490000Y-49104000D01*
X56100000Y-45150000D02*
X56100000Y-49095000D01*
X45200000Y-43196000D02*
X53825000Y-43196000D01*
X45200000Y-47104000D02*
X45200000Y-43196000D01*
X45200000Y-47150000D02*
X50250000Y-47196000D01*
X56089000Y-45080000D02*
G75*
G03*
X53825000Y-43196000I-2074000J-190000D01*
G01*
X52485000Y-49080000D02*
G75*
G03*
X50225000Y-47200000I-2070000J-190000D01*
G01*
X45200000Y-66200000D02*
X50250000Y-66246000D01*
X45200000Y-66154000D02*
X45200000Y-62246000D01*
X45200000Y-62246000D02*
X53825000Y-62246000D01*
X56100000Y-64200000D02*
X56100000Y-68145000D01*
X56100000Y-68154000D02*
X52490000Y-68154000D01*
X52485000Y-68130000D02*
G75*
G03*
X50225000Y-66250000I-2070000J-190000D01*
G01*
X56089000Y-64130000D02*
G75*
G03*
X53825000Y-62246000I-2074000J-190000D01*
G01*
X56100000Y-87204000D02*
X52490000Y-87204000D01*
X56100000Y-83250000D02*
X56100000Y-87195000D01*
X45200000Y-81296000D02*
X53825000Y-81296000D01*
X45200000Y-85204000D02*
X45200000Y-81296000D01*
X45200000Y-85250000D02*
X50250000Y-85296000D01*
X56089000Y-83180000D02*
G75*
G03*
X53825000Y-81296000I-2074000J-190000D01*
G01*
X52485000Y-87180000D02*
G75*
G03*
X50225000Y-85300000I-2070000J-190000D01*
G01*
X64250000Y-47150000D02*
X69300000Y-47196000D01*
X64250000Y-47104000D02*
X64250000Y-43196000D01*
X64250000Y-43196000D02*
X72875000Y-43196000D01*
X75150000Y-45150000D02*
X75150000Y-49095000D01*
X75150000Y-49104000D02*
X71540000Y-49104000D01*
X71535000Y-49080000D02*
G75*
G03*
X69275000Y-47200000I-2070000J-190000D01*
G01*
X75139000Y-45080000D02*
G75*
G03*
X72875000Y-43196000I-2074000J-190000D01*
G01*
X64250000Y-66200000D02*
X69300000Y-66246000D01*
X64250000Y-66154000D02*
X64250000Y-62246000D01*
X64250000Y-62246000D02*
X72875000Y-62246000D01*
X75150000Y-64200000D02*
X75150000Y-68145000D01*
X75150000Y-68154000D02*
X71540000Y-68154000D01*
X71535000Y-68130000D02*
G75*
G03*
X69275000Y-66250000I-2070000J-190000D01*
G01*
X75139000Y-64130000D02*
G75*
G03*
X72875000Y-62246000I-2074000J-190000D01*
G01*
X75150000Y-87204000D02*
X71540000Y-87204000D01*
X75150000Y-83250000D02*
X75150000Y-87195000D01*
X64250000Y-81296000D02*
X72875000Y-81296000D01*
X64250000Y-85204000D02*
X64250000Y-81296000D01*
X64250000Y-85250000D02*
X69300000Y-85296000D01*
X75139000Y-83180000D02*
G75*
G03*
X72875000Y-81296000I-2074000J-190000D01*
G01*
X71535000Y-87180000D02*
G75*
G03*
X69275000Y-85300000I-2070000J-190000D01*
G01*
X83300000Y-47150000D02*
X88350000Y-47196000D01*
X83300000Y-47104000D02*
X83300000Y-43196000D01*
X83300000Y-43196000D02*
X91925000Y-43196000D01*
X94200000Y-45150000D02*
X94200000Y-49095000D01*
X94200000Y-49104000D02*
X90590000Y-49104000D01*
X90585000Y-49080000D02*
G75*
G03*
X88325000Y-47200000I-2070000J-190000D01*
G01*
X94189000Y-45080000D02*
G75*
G03*
X91925000Y-43196000I-2074000J-190000D01*
G01*
X94200000Y-68154000D02*
X90590000Y-68154000D01*
X94200000Y-64200000D02*
X94200000Y-68145000D01*
X83300000Y-62246000D02*
X91925000Y-62246000D01*
X83300000Y-66154000D02*
X83300000Y-62246000D01*
X83300000Y-66200000D02*
X88350000Y-66246000D01*
X94189000Y-64130000D02*
G75*
G03*
X91925000Y-62246000I-2074000J-190000D01*
G01*
X90585000Y-68130000D02*
G75*
G03*
X88325000Y-66250000I-2070000J-190000D01*
G01*
X94200000Y-87204000D02*
X90590000Y-87204000D01*
X94200000Y-83250000D02*
X94200000Y-87195000D01*
X83300000Y-81296000D02*
X91925000Y-81296000D01*
X83300000Y-85204000D02*
X83300000Y-81296000D01*
X83300000Y-85250000D02*
X88350000Y-85296000D01*
X94189000Y-83180000D02*
G75*
G03*
X91925000Y-81296000I-2074000J-190000D01*
G01*
X90585000Y-87180000D02*
G75*
G03*
X88325000Y-85300000I-2070000J-190000D01*
G01*
X113250000Y-49104000D02*
X109640000Y-49104000D01*
X113250000Y-45150000D02*
X113250000Y-49095000D01*
X102350000Y-43196000D02*
X110975000Y-43196000D01*
X102350000Y-47104000D02*
X102350000Y-43196000D01*
X102350000Y-47150000D02*
X107400000Y-47196000D01*
X113239000Y-45080000D02*
G75*
G03*
X110975000Y-43196000I-2074000J-190000D01*
G01*
X109635000Y-49080000D02*
G75*
G03*
X107375000Y-47200000I-2070000J-190000D01*
G01*
X102350000Y-66200000D02*
X107400000Y-66246000D01*
X102350000Y-66154000D02*
X102350000Y-62246000D01*
X102350000Y-62246000D02*
X110975000Y-62246000D01*
X113250000Y-64200000D02*
X113250000Y-68145000D01*
X113250000Y-68154000D02*
X109640000Y-68154000D01*
X109635000Y-68130000D02*
G75*
G03*
X107375000Y-66250000I-2070000J-190000D01*
G01*
X113239000Y-64130000D02*
G75*
G03*
X110975000Y-62246000I-2074000J-190000D01*
G01*
X113250000Y-87204000D02*
X109640000Y-87204000D01*
X113250000Y-83250000D02*
X113250000Y-87195000D01*
X102350000Y-81296000D02*
X110975000Y-81296000D01*
X102350000Y-85204000D02*
X102350000Y-81296000D01*
X102350000Y-85250000D02*
X107400000Y-85296000D01*
X113239000Y-83180000D02*
G75*
G03*
X110975000Y-81296000I-2074000J-190000D01*
G01*
X109635000Y-87180000D02*
G75*
G03*
X107375000Y-85300000I-2070000J-190000D01*
G01*
X121400000Y-47150000D02*
X126450000Y-47196000D01*
X121400000Y-47104000D02*
X121400000Y-43196000D01*
X121400000Y-43196000D02*
X130025000Y-43196000D01*
X132300000Y-45150000D02*
X132300000Y-49095000D01*
X132300000Y-49104000D02*
X128690000Y-49104000D01*
X128685000Y-49080000D02*
G75*
G03*
X126425000Y-47200000I-2070000J-190000D01*
G01*
X132289000Y-45080000D02*
G75*
G03*
X130025000Y-43196000I-2074000J-190000D01*
G01*
X121400000Y-66200000D02*
X126450000Y-66246000D01*
X121400000Y-66154000D02*
X121400000Y-62246000D01*
X121400000Y-62246000D02*
X130025000Y-62246000D01*
X132300000Y-64200000D02*
X132300000Y-68145000D01*
X132300000Y-68154000D02*
X128690000Y-68154000D01*
X128685000Y-68130000D02*
G75*
G03*
X126425000Y-66250000I-2070000J-190000D01*
G01*
X132289000Y-64130000D02*
G75*
G03*
X130025000Y-62246000I-2074000J-190000D01*
G01*
X121400000Y-85250000D02*
X126450000Y-85296000D01*
X121400000Y-85204000D02*
X121400000Y-81296000D01*
X121400000Y-81296000D02*
X130025000Y-81296000D01*
X132300000Y-83250000D02*
X132300000Y-87195000D01*
X132300000Y-87204000D02*
X128690000Y-87204000D01*
X128685000Y-87180000D02*
G75*
G03*
X126425000Y-85300000I-2070000J-190000D01*
G01*
X132289000Y-83180000D02*
G75*
G03*
X130025000Y-81296000I-2074000J-190000D01*
G01*
X140450000Y-66200000D02*
X145500000Y-66246000D01*
X140450000Y-66154000D02*
X140450000Y-62246000D01*
X140450000Y-62246000D02*
X149075000Y-62246000D01*
X151350000Y-64200000D02*
X151350000Y-68145000D01*
X151350000Y-68154000D02*
X147740000Y-68154000D01*
X147735000Y-68130000D02*
G75*
G03*
X145475000Y-66250000I-2070000J-190000D01*
G01*
X151339000Y-64130000D02*
G75*
G03*
X149075000Y-62246000I-2074000J-190000D01*
G01*
X151350000Y-87204000D02*
X147740000Y-87204000D01*
X151350000Y-83250000D02*
X151350000Y-87195000D01*
X140450000Y-81296000D02*
X149075000Y-81296000D01*
X140450000Y-85204000D02*
X140450000Y-81296000D01*
X140450000Y-85250000D02*
X145500000Y-85296000D01*
X151339000Y-83180000D02*
G75*
G03*
X149075000Y-81296000I-2074000J-190000D01*
G01*
X147735000Y-87180000D02*
G75*
G03*
X145475000Y-85300000I-2070000J-190000D01*
G01*
X170400000Y-87204000D02*
X166790000Y-87204000D01*
X170400000Y-83250000D02*
X170400000Y-87195000D01*
X159500000Y-81296000D02*
X168125000Y-81296000D01*
X159500000Y-85204000D02*
X159500000Y-81296000D01*
X159500000Y-85250000D02*
X164550000Y-85296000D01*
X170389000Y-83180000D02*
G75*
G03*
X168125000Y-81296000I-2074000J-190000D01*
G01*
X166785000Y-87180000D02*
G75*
G03*
X164525000Y-85300000I-2070000J-190000D01*
G01*
X164078500Y-63240500D02*
X164078500Y-63465500D01*
X171328500Y-63240500D02*
X171328500Y-63565500D01*
X171328500Y-70490500D02*
X171328500Y-70165500D01*
X164078500Y-70490500D02*
X164078500Y-70165500D01*
X164078500Y-63240500D02*
X164403500Y-63240500D01*
X164078500Y-70490500D02*
X164403500Y-70490500D01*
X171328500Y-70490500D02*
X171003500Y-70490500D01*
X171328500Y-63240500D02*
X171003500Y-63240500D01*
X164078500Y-63465500D02*
X162653500Y-63465500D01*
D11*
X160243500Y-66525500D02*
X160243500Y-62125500D01*
X160243500Y-62125500D02*
X154843500Y-62125500D01*
X174804000Y-50548000D02*
X176204000Y-50548000D01*
X174804000Y-52098000D02*
X176204000Y-52098000D01*
X168604000Y-51648000D02*
X168604000Y-41123000D01*
X174804000Y-52098000D02*
X174804000Y-53223000D01*
X174804000Y-48148000D02*
X174804000Y-50548000D01*
X174804000Y-45148000D02*
X174804000Y-46498000D01*
X174804000Y-41123000D02*
X174804000Y-43498000D01*
X168604000Y-53223000D02*
X174804000Y-53223000D01*
X174804000Y-41123000D02*
X174204000Y-41123000D01*
X169204000Y-41123000D02*
X168604000Y-41123000D01*
X174204000Y-39123000D02*
X169204000Y-39123000D01*
X174204000Y-41123000D02*
X174204000Y-39123000D01*
X169204000Y-41123000D02*
X169204000Y-39123000D01*
X171147000Y-53922000D02*
X171147000Y-56822000D01*
X171147000Y-56822000D02*
X174547000Y-56822000D01*
X174547000Y-56822000D02*
X174547000Y-53922000D01*
X174547000Y-53922000D02*
X171147000Y-53922000D01*
D10*
X76592999Y-49306500D02*
X78092999Y-49306500D01*
X76592999Y-54706500D02*
X76592999Y-49306500D01*
X78092999Y-54706500D02*
X76592999Y-54706500D01*
X78092999Y-49306500D02*
X78092999Y-54706500D01*
X76842999Y-51506500D02*
X77342999Y-52406500D01*
X77842999Y-51506500D02*
X76842999Y-51506500D01*
X77342999Y-52406500D02*
X77842999Y-51506500D01*
X77842999Y-52506500D02*
X76842999Y-52506500D01*
X77842999Y-71556500D02*
X76842999Y-71556500D01*
X77342999Y-71456500D02*
X77842999Y-70556500D01*
X77842999Y-70556500D02*
X76842999Y-70556500D01*
X76842999Y-70556500D02*
X77342999Y-71456500D01*
X78092999Y-68356500D02*
X78092999Y-73756500D01*
X78092999Y-73756500D02*
X76592999Y-73756500D01*
X76592999Y-73756500D02*
X76592999Y-68356500D01*
X76592999Y-68356500D02*
X78092999Y-68356500D01*
X76592999Y-87406500D02*
X78092999Y-87406500D01*
X76592999Y-92806500D02*
X76592999Y-87406500D01*
X78092999Y-92806500D02*
X76592999Y-92806500D01*
X78092999Y-87406500D02*
X78092999Y-92806500D01*
X76842999Y-89606500D02*
X77342999Y-90506500D01*
X77842999Y-89606500D02*
X76842999Y-89606500D01*
X77342999Y-90506500D02*
X77842999Y-89606500D01*
X77842999Y-90606500D02*
X76842999Y-90606500D01*
X96893000Y-90606500D02*
X95893000Y-90606500D01*
X96393000Y-90506500D02*
X96893000Y-89606500D01*
X96893000Y-89606500D02*
X95893000Y-89606500D01*
X95893000Y-89606500D02*
X96393000Y-90506500D01*
X97143000Y-87406500D02*
X97143000Y-92806500D01*
X97143000Y-92806500D02*
X95643000Y-92806500D01*
X95643000Y-92806500D02*
X95643000Y-87406500D01*
X95643000Y-87406500D02*
X97143000Y-87406500D01*
X133743000Y-49306500D02*
X135243000Y-49306500D01*
X133743000Y-54706500D02*
X133743000Y-49306500D01*
X135243000Y-54706500D02*
X133743000Y-54706500D01*
X135243000Y-49306500D02*
X135243000Y-54706500D01*
X133993000Y-51506500D02*
X134493000Y-52406500D01*
X134993000Y-51506500D02*
X133993000Y-51506500D01*
X134493000Y-52406500D02*
X134993000Y-51506500D01*
X134993000Y-52506500D02*
X133993000Y-52506500D01*
X152793000Y-49306500D02*
X154293000Y-49306500D01*
X152793000Y-54706500D02*
X152793000Y-49306500D01*
X154293000Y-54706500D02*
X152793000Y-54706500D01*
X154293000Y-49306500D02*
X154293000Y-54706500D01*
X153043000Y-51506500D02*
X153543000Y-52406500D01*
X154043000Y-51506500D02*
X153043000Y-51506500D01*
X153543000Y-52406500D02*
X154043000Y-51506500D01*
X154043000Y-52506500D02*
X153043000Y-52506500D01*
X173093000Y-90606500D02*
X172093000Y-90606500D01*
X172593000Y-90506500D02*
X173093000Y-89606500D01*
X173093000Y-89606500D02*
X172093000Y-89606500D01*
X172093000Y-89606500D02*
X172593000Y-90506500D01*
X173343000Y-87406500D02*
X173343000Y-92806500D01*
X173343000Y-92806500D02*
X171843000Y-92806500D01*
X171843000Y-92806500D02*
X171843000Y-87406500D01*
X171843000Y-87406500D02*
X173343000Y-87406500D01*
D11*
X162406064Y-75919000D02*
X161951936Y-75919000D01*
X162406064Y-74449000D02*
X161951936Y-74449000D01*
D10*
X158519833Y-62239142D02*
X158472214Y-62286761D01*
X158329357Y-62334380D01*
X158234119Y-62334380D01*
X158091261Y-62286761D01*
X157996023Y-62191523D01*
X157948404Y-62096285D01*
X157900785Y-61905809D01*
X157900785Y-61762952D01*
X157948404Y-61572476D01*
X157996023Y-61477238D01*
X158091261Y-61382000D01*
X158234119Y-61334380D01*
X158329357Y-61334380D01*
X158472214Y-61382000D01*
X158519833Y-61429619D01*
X159472214Y-62334380D02*
X158900785Y-62334380D01*
X159186500Y-62334380D02*
X159186500Y-61334380D01*
X159091261Y-61477238D01*
X158996023Y-61572476D01*
X158900785Y-61620095D01*
X158519833Y-67380142D02*
X158472214Y-67427761D01*
X158329357Y-67475380D01*
X158234119Y-67475380D01*
X158091261Y-67427761D01*
X157996023Y-67332523D01*
X157948404Y-67237285D01*
X157900785Y-67046809D01*
X157900785Y-66903952D01*
X157948404Y-66713476D01*
X157996023Y-66618238D01*
X158091261Y-66523000D01*
X158234119Y-66475380D01*
X158329357Y-66475380D01*
X158472214Y-66523000D01*
X158519833Y-66570619D01*
X158900785Y-66570619D02*
X158948404Y-66523000D01*
X159043642Y-66475380D01*
X159281738Y-66475380D01*
X159376976Y-66523000D01*
X159424595Y-66570619D01*
X159472214Y-66665857D01*
X159472214Y-66761095D01*
X159424595Y-66903952D01*
X158853166Y-67475380D01*
X159472214Y-67475380D01*
X169251333Y-59889642D02*
X169203714Y-59937261D01*
X169060857Y-59984880D01*
X168965619Y-59984880D01*
X168822761Y-59937261D01*
X168727523Y-59842023D01*
X168679904Y-59746785D01*
X168632285Y-59556309D01*
X168632285Y-59413452D01*
X168679904Y-59222976D01*
X168727523Y-59127738D01*
X168822761Y-59032500D01*
X168965619Y-58984880D01*
X169060857Y-58984880D01*
X169203714Y-59032500D01*
X169251333Y-59080119D01*
X169584666Y-58984880D02*
X170203714Y-58984880D01*
X169870380Y-59365833D01*
X170013238Y-59365833D01*
X170108476Y-59413452D01*
X170156095Y-59461071D01*
X170203714Y-59556309D01*
X170203714Y-59794404D01*
X170156095Y-59889642D01*
X170108476Y-59937261D01*
X170013238Y-59984880D01*
X169727523Y-59984880D01*
X169632285Y-59937261D01*
X169584666Y-59889642D01*
X164171333Y-60393642D02*
X164123714Y-60441261D01*
X163980857Y-60488880D01*
X163885619Y-60488880D01*
X163742761Y-60441261D01*
X163647523Y-60346023D01*
X163599904Y-60250785D01*
X163552285Y-60060309D01*
X163552285Y-59917452D01*
X163599904Y-59726976D01*
X163647523Y-59631738D01*
X163742761Y-59536500D01*
X163885619Y-59488880D01*
X163980857Y-59488880D01*
X164123714Y-59536500D01*
X164171333Y-59584119D01*
X165028476Y-59822214D02*
X165028476Y-60488880D01*
X164790380Y-59441261D02*
X164552285Y-60155547D01*
X165171333Y-60155547D01*
X158519833Y-73224642D02*
X158472214Y-73272261D01*
X158329357Y-73319880D01*
X158234119Y-73319880D01*
X158091261Y-73272261D01*
X157996023Y-73177023D01*
X157948404Y-73081785D01*
X157900785Y-72891309D01*
X157900785Y-72748452D01*
X157948404Y-72557976D01*
X157996023Y-72462738D01*
X158091261Y-72367500D01*
X158234119Y-72319880D01*
X158329357Y-72319880D01*
X158472214Y-72367500D01*
X158519833Y-72415119D01*
X159424595Y-72319880D02*
X158948404Y-72319880D01*
X158900785Y-72796071D01*
X158948404Y-72748452D01*
X159043642Y-72700833D01*
X159281738Y-72700833D01*
X159376976Y-72748452D01*
X159424595Y-72796071D01*
X159472214Y-72891309D01*
X159472214Y-73129404D01*
X159424595Y-73224642D01*
X159376976Y-73272261D01*
X159281738Y-73319880D01*
X159043642Y-73319880D01*
X158948404Y-73272261D01*
X158900785Y-73224642D01*
X163409333Y-62239142D02*
X163361714Y-62286761D01*
X163218857Y-62334380D01*
X163123619Y-62334380D01*
X162980761Y-62286761D01*
X162885523Y-62191523D01*
X162837904Y-62096285D01*
X162790285Y-61905809D01*
X162790285Y-61762952D01*
X162837904Y-61572476D01*
X162885523Y-61477238D01*
X162980761Y-61382000D01*
X163123619Y-61334380D01*
X163218857Y-61334380D01*
X163361714Y-61382000D01*
X163409333Y-61429619D01*
X164266476Y-61334380D02*
X164076000Y-61334380D01*
X163980761Y-61382000D01*
X163933142Y-61429619D01*
X163837904Y-61572476D01*
X163790285Y-61762952D01*
X163790285Y-62143904D01*
X163837904Y-62239142D01*
X163885523Y-62286761D01*
X163980761Y-62334380D01*
X164171238Y-62334380D01*
X164266476Y-62286761D01*
X164314095Y-62239142D01*
X164361714Y-62143904D01*
X164361714Y-61905809D01*
X164314095Y-61810571D01*
X164266476Y-61762952D01*
X164171238Y-61715333D01*
X163980761Y-61715333D01*
X163885523Y-61762952D01*
X163837904Y-61810571D01*
X163790285Y-61905809D01*
D14*
X155316878Y-49895733D02*
X155316878Y-50026967D01*
X155523102Y-50026967D02*
X155129401Y-50026967D01*
X155129401Y-49839490D01*
X155523102Y-49483285D02*
X155523102Y-49708257D01*
X155523102Y-49595771D02*
X155129401Y-49595771D01*
X155185644Y-49633266D01*
X155223140Y-49670761D01*
X155241887Y-49708257D01*
X162685142Y-45479727D02*
X162685142Y-45937395D01*
X162654630Y-46028928D01*
X162593608Y-46089950D01*
X162502075Y-46120461D01*
X162441052Y-46120461D01*
X163325876Y-46120461D02*
X162959742Y-46120461D01*
X163142809Y-46120461D02*
X163142809Y-45479727D01*
X163081786Y-45571261D01*
X163020764Y-45632283D01*
X162959742Y-45662794D01*
D10*
X159965380Y-48426666D02*
X159489190Y-48760000D01*
X159965380Y-48998095D02*
X158965380Y-48998095D01*
X158965380Y-48617142D01*
X159013000Y-48521904D01*
X159060619Y-48474285D01*
X159155857Y-48426666D01*
X159298714Y-48426666D01*
X159393952Y-48474285D01*
X159441571Y-48521904D01*
X159489190Y-48617142D01*
X159489190Y-48998095D01*
X159965380Y-47474285D02*
X159965380Y-48045714D01*
X159965380Y-47760000D02*
X158965380Y-47760000D01*
X159108238Y-47855238D01*
X159203476Y-47950476D01*
X159251095Y-48045714D01*
X157933380Y-48426666D02*
X157457190Y-48760000D01*
X157933380Y-48998095D02*
X156933380Y-48998095D01*
X156933380Y-48617142D01*
X156981000Y-48521904D01*
X157028619Y-48474285D01*
X157123857Y-48426666D01*
X157266714Y-48426666D01*
X157361952Y-48474285D01*
X157409571Y-48521904D01*
X157457190Y-48617142D01*
X157457190Y-48998095D01*
X157028619Y-48045714D02*
X156981000Y-47998095D01*
X156933380Y-47902857D01*
X156933380Y-47664761D01*
X156981000Y-47569523D01*
X157028619Y-47521904D01*
X157123857Y-47474285D01*
X157219095Y-47474285D01*
X157361952Y-47521904D01*
X157933380Y-48093333D01*
X157933380Y-47474285D01*
X173823333Y-57095380D02*
X173490000Y-56619190D01*
X173251904Y-57095380D02*
X173251904Y-56095380D01*
X173632857Y-56095380D01*
X173728095Y-56143000D01*
X173775714Y-56190619D01*
X173823333Y-56285857D01*
X173823333Y-56428714D01*
X173775714Y-56523952D01*
X173728095Y-56571571D01*
X173632857Y-56619190D01*
X173251904Y-56619190D01*
X174156666Y-56095380D02*
X174775714Y-56095380D01*
X174442380Y-56476333D01*
X174585238Y-56476333D01*
X174680476Y-56523952D01*
X174728095Y-56571571D01*
X174775714Y-56666809D01*
X174775714Y-56904904D01*
X174728095Y-57000142D01*
X174680476Y-57047761D01*
X174585238Y-57095380D01*
X174299523Y-57095380D01*
X174204285Y-57047761D01*
X174156666Y-57000142D01*
X166266833Y-77286380D02*
X165933500Y-76810190D01*
X165695404Y-77286380D02*
X165695404Y-76286380D01*
X166076357Y-76286380D01*
X166171595Y-76334000D01*
X166219214Y-76381619D01*
X166266833Y-76476857D01*
X166266833Y-76619714D01*
X166219214Y-76714952D01*
X166171595Y-76762571D01*
X166076357Y-76810190D01*
X165695404Y-76810190D01*
X167123976Y-76619714D02*
X167123976Y-77286380D01*
X166885880Y-76238761D02*
X166647785Y-76953047D01*
X167266833Y-76953047D01*
X166941595Y-60267880D02*
X166941595Y-61077404D01*
X166989214Y-61172642D01*
X167036833Y-61220261D01*
X167132071Y-61267880D01*
X167322547Y-61267880D01*
X167417785Y-61220261D01*
X167465404Y-61172642D01*
X167513023Y-61077404D01*
X167513023Y-60267880D01*
X168513023Y-61267880D02*
X167941595Y-61267880D01*
X168227309Y-61267880D02*
X168227309Y-60267880D01*
X168132071Y-60410738D01*
X168036833Y-60505976D01*
X167941595Y-60553595D01*
X157067309Y-67301690D02*
X157067309Y-67777880D01*
X156733976Y-66777880D02*
X157067309Y-67301690D01*
X157400642Y-66777880D01*
X158257785Y-67777880D02*
X157686357Y-67777880D01*
X157972071Y-67777880D02*
X157972071Y-66777880D01*
X157876833Y-66920738D01*
X157781595Y-67015976D01*
X157686357Y-67063595D01*
X176506380Y-47881333D02*
X177220666Y-47881333D01*
X177363523Y-47928952D01*
X177458761Y-48024190D01*
X177506380Y-48167047D01*
X177506380Y-48262285D01*
X176601619Y-47452761D02*
X176554000Y-47405142D01*
X176506380Y-47309904D01*
X176506380Y-47071809D01*
X176554000Y-46976571D01*
X176601619Y-46928952D01*
X176696857Y-46881333D01*
X176792095Y-46881333D01*
X176934952Y-46928952D01*
X177506380Y-47500380D01*
X177506380Y-46881333D01*
X170775571Y-56324380D02*
X170442238Y-55848190D01*
X170204142Y-56324380D02*
X170204142Y-55324380D01*
X170585095Y-55324380D01*
X170680333Y-55372000D01*
X170727952Y-55419619D01*
X170775571Y-55514857D01*
X170775571Y-55657714D01*
X170727952Y-55752952D01*
X170680333Y-55800571D01*
X170585095Y-55848190D01*
X170204142Y-55848190D01*
X171156523Y-56276761D02*
X171299380Y-56324380D01*
X171537476Y-56324380D01*
X171632714Y-56276761D01*
X171680333Y-56229142D01*
X171727952Y-56133904D01*
X171727952Y-56038666D01*
X171680333Y-55943428D01*
X171632714Y-55895809D01*
X171537476Y-55848190D01*
X171347000Y-55800571D01*
X171251761Y-55752952D01*
X171204142Y-55705333D01*
X171156523Y-55610095D01*
X171156523Y-55514857D01*
X171204142Y-55419619D01*
X171251761Y-55372000D01*
X171347000Y-55324380D01*
X171585095Y-55324380D01*
X171727952Y-55372000D01*
X172013666Y-55324380D02*
X172585095Y-55324380D01*
X172299380Y-56324380D02*
X172299380Y-55324380D01*
X172870809Y-56276761D02*
X173013666Y-56324380D01*
X173251761Y-56324380D01*
X173347000Y-56276761D01*
X173394619Y-56229142D01*
X173442238Y-56133904D01*
X173442238Y-56038666D01*
X173394619Y-55943428D01*
X173347000Y-55895809D01*
X173251761Y-55848190D01*
X173061285Y-55800571D01*
X172966047Y-55752952D01*
X172918428Y-55705333D01*
X172870809Y-55610095D01*
X172870809Y-55514857D01*
X172918428Y-55419619D01*
X172966047Y-55372000D01*
X173061285Y-55324380D01*
X173299380Y-55324380D01*
X173442238Y-55372000D01*
X173775571Y-55324380D02*
X174013666Y-56324380D01*
X174204142Y-55610095D01*
X174394619Y-56324380D01*
X174632714Y-55324380D01*
X175537476Y-56324380D02*
X174966047Y-56324380D01*
X175251761Y-56324380D02*
X175251761Y-55324380D01*
X175156523Y-55467238D01*
X175061285Y-55562476D01*
X174966047Y-55610095D01*
X161512333Y-77286380D02*
X161179000Y-76810190D01*
X160940904Y-77286380D02*
X160940904Y-76286380D01*
X161321857Y-76286380D01*
X161417095Y-76334000D01*
X161464714Y-76381619D01*
X161512333Y-76476857D01*
X161512333Y-76619714D01*
X161464714Y-76714952D01*
X161417095Y-76762571D01*
X161321857Y-76810190D01*
X160940904Y-76810190D01*
X162512333Y-77286380D02*
X162179000Y-76810190D01*
X161940904Y-77286380D02*
X161940904Y-76286380D01*
X162321857Y-76286380D01*
X162417095Y-76334000D01*
X162464714Y-76381619D01*
X162512333Y-76476857D01*
X162512333Y-76619714D01*
X162464714Y-76714952D01*
X162417095Y-76762571D01*
X162321857Y-76810190D01*
X161940904Y-76810190D01*
X163464714Y-77286380D02*
X162893285Y-77286380D01*
X163179000Y-77286380D02*
X163179000Y-76286380D01*
X163083761Y-76429238D01*
X162988523Y-76524476D01*
X162893285Y-76572095D01*
M02*
