%TF.GenerationSoftware,KiCad,Pcbnew,8.0.7*%
%TF.CreationDate,2024-12-30T11:09:25+09:00*%
%TF.ProjectId,pisces,70697363-6573-42e6-9b69-6361645f7063,rev?*%
%TF.SameCoordinates,Original*%
%TF.FileFunction,Legend,Bot*%
%TF.FilePolarity,Positive*%
%FSLAX46Y46*%
G04 Gerber Fmt 4.6, Leading zero omitted, Abs format (unit mm)*
G04 Created by KiCad (PCBNEW 8.0.7) date 2024-12-30 11:09:25*
%MOMM*%
%LPD*%
G01*
G04 APERTURE LIST*
%ADD10C,0.150000*%
%ADD11C,0.120000*%
%ADD12C,5.000000*%
%ADD13C,0.650000*%
%ADD14O,1.000000X2.100000*%
%ADD15O,1.000000X1.600000*%
%ADD16C,1.900000*%
%ADD17C,1.700000*%
%ADD18C,3.000000*%
%ADD19C,4.000000*%
%ADD20R,2.000000X2.000000*%
%ADD21C,1.500000*%
%ADD22R,2.500000X1.200000*%
%ADD23R,1.300000X0.950000*%
%ADD24C,0.750000*%
%ADD25R,1.100000X1.600000*%
%ADD26R,0.950000X1.300000*%
G04 APERTURE END LIST*
D10*
X168477356Y-68336819D02*
X168477356Y-67336819D01*
X168477356Y-67336819D02*
X168239261Y-67336819D01*
X168239261Y-67336819D02*
X168096404Y-67384438D01*
X168096404Y-67384438D02*
X168001166Y-67479676D01*
X168001166Y-67479676D02*
X167953547Y-67574914D01*
X167953547Y-67574914D02*
X167905928Y-67765390D01*
X167905928Y-67765390D02*
X167905928Y-67908247D01*
X167905928Y-67908247D02*
X167953547Y-68098723D01*
X167953547Y-68098723D02*
X168001166Y-68193961D01*
X168001166Y-68193961D02*
X168096404Y-68289200D01*
X168096404Y-68289200D02*
X168239261Y-68336819D01*
X168239261Y-68336819D02*
X168477356Y-68336819D01*
X167715452Y-68432057D02*
X166953547Y-68432057D01*
X166715451Y-68336819D02*
X166715451Y-67336819D01*
X166715451Y-67813009D02*
X166144023Y-67813009D01*
X166144023Y-68336819D02*
X166144023Y-67336819D01*
X165144023Y-68336819D02*
X165715451Y-68336819D01*
X165429737Y-68336819D02*
X165429737Y-67336819D01*
X165429737Y-67336819D02*
X165524975Y-67479676D01*
X165524975Y-67479676D02*
X165620213Y-67574914D01*
X165620213Y-67574914D02*
X165715451Y-67622533D01*
X176429142Y-46781295D02*
X176695809Y-46400342D01*
X176886285Y-46781295D02*
X176886285Y-45981295D01*
X176886285Y-45981295D02*
X176581523Y-45981295D01*
X176581523Y-45981295D02*
X176505333Y-46019390D01*
X176505333Y-46019390D02*
X176467238Y-46057485D01*
X176467238Y-46057485D02*
X176429142Y-46133676D01*
X176429142Y-46133676D02*
X176429142Y-46247961D01*
X176429142Y-46247961D02*
X176467238Y-46324152D01*
X176467238Y-46324152D02*
X176505333Y-46362247D01*
X176505333Y-46362247D02*
X176581523Y-46400342D01*
X176581523Y-46400342D02*
X176886285Y-46400342D01*
X176124381Y-46743200D02*
X176010095Y-46781295D01*
X176010095Y-46781295D02*
X175819619Y-46781295D01*
X175819619Y-46781295D02*
X175743428Y-46743200D01*
X175743428Y-46743200D02*
X175705333Y-46705104D01*
X175705333Y-46705104D02*
X175667238Y-46628914D01*
X175667238Y-46628914D02*
X175667238Y-46552723D01*
X175667238Y-46552723D02*
X175705333Y-46476533D01*
X175705333Y-46476533D02*
X175743428Y-46438438D01*
X175743428Y-46438438D02*
X175819619Y-46400342D01*
X175819619Y-46400342D02*
X175972000Y-46362247D01*
X175972000Y-46362247D02*
X176048190Y-46324152D01*
X176048190Y-46324152D02*
X176086285Y-46286057D01*
X176086285Y-46286057D02*
X176124381Y-46209866D01*
X176124381Y-46209866D02*
X176124381Y-46133676D01*
X176124381Y-46133676D02*
X176086285Y-46057485D01*
X176086285Y-46057485D02*
X176048190Y-46019390D01*
X176048190Y-46019390D02*
X175972000Y-45981295D01*
X175972000Y-45981295D02*
X175781523Y-45981295D01*
X175781523Y-45981295D02*
X175667238Y-46019390D01*
X175438666Y-45981295D02*
X174981523Y-45981295D01*
X175210095Y-46781295D02*
X175210095Y-45981295D01*
X174752952Y-46743200D02*
X174638666Y-46781295D01*
X174638666Y-46781295D02*
X174448190Y-46781295D01*
X174448190Y-46781295D02*
X174371999Y-46743200D01*
X174371999Y-46743200D02*
X174333904Y-46705104D01*
X174333904Y-46705104D02*
X174295809Y-46628914D01*
X174295809Y-46628914D02*
X174295809Y-46552723D01*
X174295809Y-46552723D02*
X174333904Y-46476533D01*
X174333904Y-46476533D02*
X174371999Y-46438438D01*
X174371999Y-46438438D02*
X174448190Y-46400342D01*
X174448190Y-46400342D02*
X174600571Y-46362247D01*
X174600571Y-46362247D02*
X174676761Y-46324152D01*
X174676761Y-46324152D02*
X174714856Y-46286057D01*
X174714856Y-46286057D02*
X174752952Y-46209866D01*
X174752952Y-46209866D02*
X174752952Y-46133676D01*
X174752952Y-46133676D02*
X174714856Y-46057485D01*
X174714856Y-46057485D02*
X174676761Y-46019390D01*
X174676761Y-46019390D02*
X174600571Y-45981295D01*
X174600571Y-45981295D02*
X174410094Y-45981295D01*
X174410094Y-45981295D02*
X174295809Y-46019390D01*
X174029142Y-45981295D02*
X173838666Y-46781295D01*
X173838666Y-46781295D02*
X173686285Y-46209866D01*
X173686285Y-46209866D02*
X173533904Y-46781295D01*
X173533904Y-46781295D02*
X173343428Y-45981295D01*
X172619618Y-46781295D02*
X173076761Y-46781295D01*
X172848189Y-46781295D02*
X172848189Y-45981295D01*
X172848189Y-45981295D02*
X172924380Y-46095580D01*
X172924380Y-46095580D02*
X173000570Y-46171771D01*
X173000570Y-46171771D02*
X173076761Y-46209866D01*
X178290819Y-37703666D02*
X179005104Y-37703666D01*
X179005104Y-37703666D02*
X179147961Y-37656047D01*
X179147961Y-37656047D02*
X179243200Y-37560809D01*
X179243200Y-37560809D02*
X179290819Y-37417952D01*
X179290819Y-37417952D02*
X179290819Y-37322714D01*
X178386057Y-38132238D02*
X178338438Y-38179857D01*
X178338438Y-38179857D02*
X178290819Y-38275095D01*
X178290819Y-38275095D02*
X178290819Y-38513190D01*
X178290819Y-38513190D02*
X178338438Y-38608428D01*
X178338438Y-38608428D02*
X178386057Y-38656047D01*
X178386057Y-38656047D02*
X178481295Y-38703666D01*
X178481295Y-38703666D02*
X178576533Y-38703666D01*
X178576533Y-38703666D02*
X178719390Y-38656047D01*
X178719390Y-38656047D02*
X179290819Y-38084619D01*
X179290819Y-38084619D02*
X179290819Y-38703666D01*
%TO.C,SW1*%
X51032000Y-36768500D02*
X51032000Y-40713500D01*
X51032000Y-40722500D02*
X54642000Y-40722500D01*
X61932000Y-34814500D02*
X53307000Y-34814500D01*
X61932000Y-38722500D02*
X61932000Y-34814500D01*
X61932000Y-38768500D02*
X56882000Y-38814500D01*
X51043000Y-36698500D02*
G75*
G02*
X53307000Y-34814500I2074000J-190000D01*
G01*
X54647000Y-40698500D02*
G75*
G02*
X56907000Y-38818500I2070000J-190000D01*
G01*
%TO.C,SW2*%
X51032000Y-55818500D02*
X51032000Y-59763500D01*
X51032000Y-59772500D02*
X54642000Y-59772500D01*
X61932000Y-53864500D02*
X53307000Y-53864500D01*
X61932000Y-57772500D02*
X61932000Y-53864500D01*
X61932000Y-57818500D02*
X56882000Y-57864500D01*
X51043000Y-55748500D02*
G75*
G02*
X53307000Y-53864500I2074000J-190000D01*
G01*
X54647000Y-59748500D02*
G75*
G02*
X56907000Y-57868500I2070000J-190000D01*
G01*
%TO.C,SW3*%
X51032000Y-74868500D02*
X51032000Y-78813500D01*
X51032000Y-78822500D02*
X54642000Y-78822500D01*
X61932000Y-72914500D02*
X53307000Y-72914500D01*
X61932000Y-76822500D02*
X61932000Y-72914500D01*
X61932000Y-76868500D02*
X56882000Y-76914500D01*
X51043000Y-74798500D02*
G75*
G02*
X53307000Y-72914500I2074000J-190000D01*
G01*
X54647000Y-78798500D02*
G75*
G02*
X56907000Y-76918500I2070000J-190000D01*
G01*
%TO.C,SW4*%
X70082000Y-36768500D02*
X70082000Y-40713500D01*
X70082000Y-40722500D02*
X73692000Y-40722500D01*
X80982000Y-34814500D02*
X72357000Y-34814500D01*
X80982000Y-38722500D02*
X80982000Y-34814500D01*
X80982000Y-38768500D02*
X75932000Y-38814500D01*
X70093000Y-36698500D02*
G75*
G02*
X72357000Y-34814500I2074000J-190000D01*
G01*
X73697000Y-40698500D02*
G75*
G02*
X75957000Y-38818500I2070000J-190000D01*
G01*
%TO.C,SW5*%
X70082000Y-55818500D02*
X70082000Y-59763500D01*
X70082000Y-59772500D02*
X73692000Y-59772500D01*
X80982000Y-53864500D02*
X72357000Y-53864500D01*
X80982000Y-57772500D02*
X80982000Y-53864500D01*
X80982000Y-57818500D02*
X75932000Y-57864500D01*
X70093000Y-55748500D02*
G75*
G02*
X72357000Y-53864500I2074000J-190000D01*
G01*
X73697000Y-59748500D02*
G75*
G02*
X75957000Y-57868500I2070000J-190000D01*
G01*
%TO.C,SW6*%
X70082000Y-74868500D02*
X70082000Y-78813500D01*
X70082000Y-78822500D02*
X73692000Y-78822500D01*
X80982000Y-72914500D02*
X72357000Y-72914500D01*
X80982000Y-76822500D02*
X80982000Y-72914500D01*
X80982000Y-76868500D02*
X75932000Y-76914500D01*
X70093000Y-74798500D02*
G75*
G02*
X72357000Y-72914500I2074000J-190000D01*
G01*
X73697000Y-78798500D02*
G75*
G02*
X75957000Y-76918500I2070000J-190000D01*
G01*
%TO.C,SW7*%
X89132000Y-36768500D02*
X89132000Y-40713500D01*
X89132000Y-40722500D02*
X92742000Y-40722500D01*
X100032000Y-34814500D02*
X91407000Y-34814500D01*
X100032000Y-38722500D02*
X100032000Y-34814500D01*
X100032000Y-38768500D02*
X94982000Y-38814500D01*
X89143000Y-36698500D02*
G75*
G02*
X91407000Y-34814500I2074000J-190000D01*
G01*
X92747000Y-40698500D02*
G75*
G02*
X95007000Y-38818500I2070000J-190000D01*
G01*
%TO.C,SW8*%
X89132000Y-55818500D02*
X89132000Y-59763500D01*
X89132000Y-59772500D02*
X92742000Y-59772500D01*
X100032000Y-53864500D02*
X91407000Y-53864500D01*
X100032000Y-57772500D02*
X100032000Y-53864500D01*
X100032000Y-57818500D02*
X94982000Y-57864500D01*
X89143000Y-55748500D02*
G75*
G02*
X91407000Y-53864500I2074000J-190000D01*
G01*
X92747000Y-59748500D02*
G75*
G02*
X95007000Y-57868500I2070000J-190000D01*
G01*
%TO.C,SW9*%
X89132000Y-74868500D02*
X89132000Y-78813500D01*
X89132000Y-78822500D02*
X92742000Y-78822500D01*
X100032000Y-72914500D02*
X91407000Y-72914500D01*
X100032000Y-76822500D02*
X100032000Y-72914500D01*
X100032000Y-76868500D02*
X94982000Y-76914500D01*
X89143000Y-74798500D02*
G75*
G02*
X91407000Y-72914500I2074000J-190000D01*
G01*
X92747000Y-78798500D02*
G75*
G02*
X95007000Y-76918500I2070000J-190000D01*
G01*
%TO.C,SW10*%
X108182000Y-36768500D02*
X108182000Y-40713500D01*
X108182000Y-40722500D02*
X111792000Y-40722500D01*
X119082000Y-34814500D02*
X110457000Y-34814500D01*
X119082000Y-38722500D02*
X119082000Y-34814500D01*
X119082000Y-38768500D02*
X114032000Y-38814500D01*
X108193000Y-36698500D02*
G75*
G02*
X110457000Y-34814500I2074000J-190000D01*
G01*
X111797000Y-40698500D02*
G75*
G02*
X114057000Y-38818500I2070000J-190000D01*
G01*
%TO.C,SW11*%
X108182000Y-55818500D02*
X108182000Y-59763500D01*
X108182000Y-59772500D02*
X111792000Y-59772500D01*
X119082000Y-53864500D02*
X110457000Y-53864500D01*
X119082000Y-57772500D02*
X119082000Y-53864500D01*
X119082000Y-57818500D02*
X114032000Y-57864500D01*
X108193000Y-55748500D02*
G75*
G02*
X110457000Y-53864500I2074000J-190000D01*
G01*
X111797000Y-59748500D02*
G75*
G02*
X114057000Y-57868500I2070000J-190000D01*
G01*
%TO.C,SW12*%
X108182000Y-74868500D02*
X108182000Y-78813500D01*
X108182000Y-78822500D02*
X111792000Y-78822500D01*
X119082000Y-72914500D02*
X110457000Y-72914500D01*
X119082000Y-76822500D02*
X119082000Y-72914500D01*
X119082000Y-76868500D02*
X114032000Y-76914500D01*
X108193000Y-74798500D02*
G75*
G02*
X110457000Y-72914500I2074000J-190000D01*
G01*
X111797000Y-78798500D02*
G75*
G02*
X114057000Y-76918500I2070000J-190000D01*
G01*
%TO.C,SW13*%
X127232000Y-36768500D02*
X127232000Y-40713500D01*
X127232000Y-40722500D02*
X130842000Y-40722500D01*
X138132000Y-34814500D02*
X129507000Y-34814500D01*
X138132000Y-38722500D02*
X138132000Y-34814500D01*
X138132000Y-38768500D02*
X133082000Y-38814500D01*
X127243000Y-36698500D02*
G75*
G02*
X129507000Y-34814500I2074000J-190000D01*
G01*
X130847000Y-40698500D02*
G75*
G02*
X133107000Y-38818500I2070000J-190000D01*
G01*
%TO.C,SW14*%
X127232000Y-55818500D02*
X127232000Y-59763500D01*
X127232000Y-59772500D02*
X130842000Y-59772500D01*
X138132000Y-53864500D02*
X129507000Y-53864500D01*
X138132000Y-57772500D02*
X138132000Y-53864500D01*
X138132000Y-57818500D02*
X133082000Y-57864500D01*
X127243000Y-55748500D02*
G75*
G02*
X129507000Y-53864500I2074000J-190000D01*
G01*
X130847000Y-59748500D02*
G75*
G02*
X133107000Y-57868500I2070000J-190000D01*
G01*
%TO.C,SW15*%
X127232000Y-74868500D02*
X127232000Y-78813500D01*
X127232000Y-78822500D02*
X130842000Y-78822500D01*
X138132000Y-72914500D02*
X129507000Y-72914500D01*
X138132000Y-76822500D02*
X138132000Y-72914500D01*
X138132000Y-76868500D02*
X133082000Y-76914500D01*
X127243000Y-74798500D02*
G75*
G02*
X129507000Y-72914500I2074000J-190000D01*
G01*
X130847000Y-78798500D02*
G75*
G02*
X133107000Y-76918500I2070000J-190000D01*
G01*
%TO.C,SW16*%
X146282000Y-36768500D02*
X146282000Y-40713500D01*
X146282000Y-40722500D02*
X149892000Y-40722500D01*
X157182000Y-34814500D02*
X148557000Y-34814500D01*
X157182000Y-38722500D02*
X157182000Y-34814500D01*
X157182000Y-38768500D02*
X152132000Y-38814500D01*
X146293000Y-36698500D02*
G75*
G02*
X148557000Y-34814500I2074000J-190000D01*
G01*
X149897000Y-40698500D02*
G75*
G02*
X152157000Y-38818500I2070000J-190000D01*
G01*
%TO.C,SW17*%
X146282000Y-55818500D02*
X146282000Y-59763500D01*
X146282000Y-59772500D02*
X149892000Y-59772500D01*
X157182000Y-53864500D02*
X148557000Y-53864500D01*
X157182000Y-57772500D02*
X157182000Y-53864500D01*
X157182000Y-57818500D02*
X152132000Y-57864500D01*
X146293000Y-55748500D02*
G75*
G02*
X148557000Y-53864500I2074000J-190000D01*
G01*
X149897000Y-59748500D02*
G75*
G02*
X152157000Y-57868500I2070000J-190000D01*
G01*
%TO.C,SW18*%
X146282000Y-74868500D02*
X146282000Y-78813500D01*
X146282000Y-78822500D02*
X149892000Y-78822500D01*
X157182000Y-72914500D02*
X148557000Y-72914500D01*
X157182000Y-76822500D02*
X157182000Y-72914500D01*
X157182000Y-76868500D02*
X152132000Y-76914500D01*
X146293000Y-74798500D02*
G75*
G02*
X148557000Y-72914500I2074000J-190000D01*
G01*
X149897000Y-78798500D02*
G75*
G02*
X152157000Y-76918500I2070000J-190000D01*
G01*
%TO.C,SW19*%
X165332000Y-74868500D02*
X165332000Y-78813500D01*
X165332000Y-78822500D02*
X168942000Y-78822500D01*
X176232000Y-72914500D02*
X167607000Y-72914500D01*
X176232000Y-76822500D02*
X176232000Y-72914500D01*
X176232000Y-76868500D02*
X171182000Y-76914500D01*
X165343000Y-74798500D02*
G75*
G02*
X167607000Y-72914500I2074000J-190000D01*
G01*
X168947000Y-78798500D02*
G75*
G02*
X171207000Y-76918500I2070000J-190000D01*
G01*
%TO.C,D_H1*%
X164134500Y-65354000D02*
X164134500Y-66854000D01*
X164134500Y-66854000D02*
X169534500Y-66854000D01*
X166334500Y-65604000D02*
X166334500Y-66604000D01*
X166434500Y-66104000D02*
X167334500Y-65604000D01*
X167334500Y-65604000D02*
X167334500Y-66604000D01*
X167334500Y-66604000D02*
X166434500Y-66104000D01*
X169534500Y-65354000D02*
X164134500Y-65354000D01*
X169534500Y-66854000D02*
X169534500Y-65354000D01*
D11*
%TO.C,RSTSW1*%
X178279000Y-45540500D02*
X178279000Y-48440500D01*
X178279000Y-45540500D02*
X181679000Y-45540500D01*
X181679000Y-48440500D02*
X178279000Y-48440500D01*
X181679000Y-48440500D02*
X181679000Y-45540500D01*
D10*
%TO.C,D1*%
X64675000Y-46325000D02*
X64675000Y-40925000D01*
X64925000Y-43125000D02*
X65425000Y-44025000D01*
X65425000Y-44025000D02*
X65925000Y-43125000D01*
X65925000Y-43125000D02*
X64925000Y-43125000D01*
X65925000Y-44125000D02*
X64925000Y-44125000D01*
X66175000Y-40925000D02*
X64675000Y-40925000D01*
X66175000Y-40925000D02*
X66175000Y-46325000D01*
X66175000Y-46325000D02*
X64675000Y-46325000D01*
%TO.C,D2*%
X64675000Y-65375000D02*
X64675000Y-59975000D01*
X64925000Y-62175000D02*
X65425000Y-63075000D01*
X65425000Y-63075000D02*
X65925000Y-62175000D01*
X65925000Y-62175000D02*
X64925000Y-62175000D01*
X65925000Y-63175000D02*
X64925000Y-63175000D01*
X66175000Y-59975000D02*
X64675000Y-59975000D01*
X66175000Y-59975000D02*
X66175000Y-65375000D01*
X66175000Y-65375000D02*
X64675000Y-65375000D01*
%TO.C,D3*%
X64675000Y-84425000D02*
X64675000Y-79025000D01*
X64925000Y-81225000D02*
X65425000Y-82125000D01*
X65425000Y-82125000D02*
X65925000Y-81225000D01*
X65925000Y-81225000D02*
X64925000Y-81225000D01*
X65925000Y-82225000D02*
X64925000Y-82225000D01*
X66175000Y-79025000D02*
X64675000Y-79025000D01*
X66175000Y-79025000D02*
X66175000Y-84425000D01*
X66175000Y-84425000D02*
X64675000Y-84425000D01*
%TO.C,D7*%
X102775000Y-46325000D02*
X102775000Y-40925000D01*
X103025000Y-43125000D02*
X103525000Y-44025000D01*
X103525000Y-44025000D02*
X104025000Y-43125000D01*
X104025000Y-43125000D02*
X103025000Y-43125000D01*
X104025000Y-44125000D02*
X103025000Y-44125000D01*
X104275000Y-40925000D02*
X102775000Y-40925000D01*
X104275000Y-40925000D02*
X104275000Y-46325000D01*
X104275000Y-46325000D02*
X102775000Y-46325000D01*
%TO.C,D8*%
X102775000Y-65375000D02*
X102775000Y-59975000D01*
X103025000Y-62175000D02*
X103525000Y-63075000D01*
X103525000Y-63075000D02*
X104025000Y-62175000D01*
X104025000Y-62175000D02*
X103025000Y-62175000D01*
X104025000Y-63175000D02*
X103025000Y-63175000D01*
X104275000Y-59975000D02*
X102775000Y-59975000D01*
X104275000Y-59975000D02*
X104275000Y-65375000D01*
X104275000Y-65375000D02*
X102775000Y-65375000D01*
%TO.C,D10*%
X121825000Y-46325000D02*
X121825000Y-40925000D01*
X122075000Y-43125000D02*
X122575000Y-44025000D01*
X122575000Y-44025000D02*
X123075000Y-43125000D01*
X123075000Y-43125000D02*
X122075000Y-43125000D01*
X123075000Y-44125000D02*
X122075000Y-44125000D01*
X123325000Y-40925000D02*
X121825000Y-40925000D01*
X123325000Y-40925000D02*
X123325000Y-46325000D01*
X123325000Y-46325000D02*
X121825000Y-46325000D01*
%TO.C,D11*%
X121825000Y-65375000D02*
X121825000Y-59975000D01*
X122075000Y-62175000D02*
X122575000Y-63075000D01*
X122575000Y-63075000D02*
X123075000Y-62175000D01*
X123075000Y-62175000D02*
X122075000Y-62175000D01*
X123075000Y-63175000D02*
X122075000Y-63175000D01*
X123325000Y-59975000D02*
X121825000Y-59975000D01*
X123325000Y-59975000D02*
X123325000Y-65375000D01*
X123325000Y-65375000D02*
X121825000Y-65375000D01*
%TO.C,D12*%
X121825000Y-84425000D02*
X121825000Y-79025000D01*
X122075000Y-81225000D02*
X122575000Y-82125000D01*
X122575000Y-82125000D02*
X123075000Y-81225000D01*
X123075000Y-81225000D02*
X122075000Y-81225000D01*
X123075000Y-82225000D02*
X122075000Y-82225000D01*
X123325000Y-79025000D02*
X121825000Y-79025000D01*
X123325000Y-79025000D02*
X123325000Y-84425000D01*
X123325000Y-84425000D02*
X121825000Y-84425000D01*
%TO.C,D14*%
X140875000Y-65375000D02*
X140875000Y-59975000D01*
X141125000Y-62175000D02*
X141625000Y-63075000D01*
X141625000Y-63075000D02*
X142125000Y-62175000D01*
X142125000Y-62175000D02*
X141125000Y-62175000D01*
X142125000Y-63175000D02*
X141125000Y-63175000D01*
X142375000Y-59975000D02*
X140875000Y-59975000D01*
X142375000Y-59975000D02*
X142375000Y-65375000D01*
X142375000Y-65375000D02*
X140875000Y-65375000D01*
%TO.C,D15*%
X140875000Y-84425000D02*
X140875000Y-79025000D01*
X141125000Y-81225000D02*
X141625000Y-82125000D01*
X141625000Y-82125000D02*
X142125000Y-81225000D01*
X142125000Y-81225000D02*
X141125000Y-81225000D01*
X142125000Y-82225000D02*
X141125000Y-82225000D01*
X142375000Y-79025000D02*
X140875000Y-79025000D01*
X142375000Y-79025000D02*
X142375000Y-84425000D01*
X142375000Y-84425000D02*
X140875000Y-84425000D01*
%TO.C,D17*%
X159925000Y-65375000D02*
X159925000Y-59975000D01*
X160175000Y-62175000D02*
X160675000Y-63075000D01*
X160675000Y-63075000D02*
X161175000Y-62175000D01*
X161175000Y-62175000D02*
X160175000Y-62175000D01*
X161175000Y-63175000D02*
X160175000Y-63175000D01*
X161425000Y-59975000D02*
X159925000Y-59975000D01*
X161425000Y-59975000D02*
X161425000Y-65375000D01*
X161425000Y-65375000D02*
X159925000Y-65375000D01*
%TO.C,D18*%
X159925000Y-84425000D02*
X159925000Y-79025000D01*
X160175000Y-81225000D02*
X160675000Y-82125000D01*
X160675000Y-82125000D02*
X161175000Y-81225000D01*
X161175000Y-81225000D02*
X160175000Y-81225000D01*
X161175000Y-82225000D02*
X160175000Y-82225000D01*
X161425000Y-79025000D02*
X159925000Y-79025000D01*
X161425000Y-79025000D02*
X161425000Y-84425000D01*
X161425000Y-84425000D02*
X159925000Y-84425000D01*
%TO.C,D4*%
X83724999Y-46325000D02*
X83724999Y-40925000D01*
X83974999Y-43125000D02*
X84474999Y-44025000D01*
X84474999Y-44025000D02*
X84974999Y-43125000D01*
X84974999Y-43125000D02*
X83974999Y-43125000D01*
X84974999Y-44125000D02*
X83974999Y-44125000D01*
X85224999Y-40925000D02*
X83724999Y-40925000D01*
X85224999Y-40925000D02*
X85224999Y-46325000D01*
X85224999Y-46325000D02*
X83724999Y-46325000D01*
%TO.C,D5*%
X83724999Y-65375000D02*
X83724999Y-59975000D01*
X83974999Y-62175000D02*
X84474999Y-63075000D01*
X84474999Y-63075000D02*
X84974999Y-62175000D01*
X84974999Y-62175000D02*
X83974999Y-62175000D01*
X84974999Y-63175000D02*
X83974999Y-63175000D01*
X85224999Y-59975000D02*
X83724999Y-59975000D01*
X85224999Y-59975000D02*
X85224999Y-65375000D01*
X85224999Y-65375000D02*
X83724999Y-65375000D01*
%TO.C,D6*%
X83724999Y-84425000D02*
X83724999Y-79025000D01*
X83974999Y-81225000D02*
X84474999Y-82125000D01*
X84474999Y-82125000D02*
X84974999Y-81225000D01*
X84974999Y-81225000D02*
X83974999Y-81225000D01*
X84974999Y-82225000D02*
X83974999Y-82225000D01*
X85224999Y-79025000D02*
X83724999Y-79025000D01*
X85224999Y-79025000D02*
X85224999Y-84425000D01*
X85224999Y-84425000D02*
X83724999Y-84425000D01*
%TO.C,D9*%
X102775000Y-84425000D02*
X102775000Y-79025000D01*
X103025000Y-81225000D02*
X103525000Y-82125000D01*
X103525000Y-82125000D02*
X104025000Y-81225000D01*
X104025000Y-81225000D02*
X103025000Y-81225000D01*
X104025000Y-82225000D02*
X103025000Y-82225000D01*
X104275000Y-79025000D02*
X102775000Y-79025000D01*
X104275000Y-79025000D02*
X104275000Y-84425000D01*
X104275000Y-84425000D02*
X102775000Y-84425000D01*
%TO.C,D13*%
X140875000Y-46325000D02*
X140875000Y-40925000D01*
X141125000Y-43125000D02*
X141625000Y-44025000D01*
X141625000Y-44025000D02*
X142125000Y-43125000D01*
X142125000Y-43125000D02*
X141125000Y-43125000D01*
X142125000Y-44125000D02*
X141125000Y-44125000D01*
X142375000Y-40925000D02*
X140875000Y-40925000D01*
X142375000Y-40925000D02*
X142375000Y-46325000D01*
X142375000Y-46325000D02*
X140875000Y-46325000D01*
%TO.C,D16*%
X159925000Y-46325000D02*
X159925000Y-40925000D01*
X160175000Y-43125000D02*
X160675000Y-44025000D01*
X160675000Y-44025000D02*
X161175000Y-43125000D01*
X161175000Y-43125000D02*
X160175000Y-43125000D01*
X161175000Y-44125000D02*
X160175000Y-44125000D01*
X161425000Y-40925000D02*
X159925000Y-40925000D01*
X161425000Y-40925000D02*
X161425000Y-46325000D01*
X161425000Y-46325000D02*
X159925000Y-46325000D01*
%TO.C,D19*%
X178975000Y-84425000D02*
X178975000Y-79025000D01*
X179225000Y-81225000D02*
X179725000Y-82125000D01*
X179725000Y-82125000D02*
X180225000Y-81225000D01*
X180225000Y-81225000D02*
X179225000Y-81225000D01*
X180225000Y-82225000D02*
X179225000Y-82225000D01*
X180475000Y-79025000D02*
X178975000Y-79025000D01*
X180475000Y-79025000D02*
X180475000Y-84425000D01*
X180475000Y-84425000D02*
X178975000Y-84425000D01*
%TD*%
%LPC*%
D12*
%TO.C,HOLE1*%
X66657000Y-51143500D03*
%TD*%
%TO.C,HOLE2*%
X66657000Y-70193500D03*
%TD*%
%TO.C,HOLE7*%
X104757000Y-51143500D03*
%TD*%
%TO.C,HOLE8*%
X104757000Y-70193500D03*
%TD*%
%TO.C,HOLE13*%
X142857000Y-51143500D03*
%TD*%
%TO.C,HOLE14*%
X142857000Y-70193500D03*
%TD*%
D13*
%TO.C,J1*%
X170550000Y-37298500D03*
X164770000Y-37298500D03*
D14*
X171980000Y-37798500D03*
D15*
X171980000Y-33618500D03*
D14*
X163340000Y-37798500D03*
D15*
X163340000Y-33618500D03*
%TD*%
D16*
%TO.C,SW1*%
X51632000Y-41618500D03*
D17*
X52052000Y-41618500D03*
D18*
X53322000Y-39078500D03*
X54592000Y-36538500D03*
D19*
X57132000Y-41618500D03*
D18*
X59672000Y-36538500D03*
X60942000Y-39078500D03*
D17*
X62212000Y-41618500D03*
D16*
X62632000Y-41618500D03*
D20*
X50232000Y-39078500D03*
X62732000Y-36538500D03*
%TD*%
D16*
%TO.C,SW2*%
X51632000Y-60668500D03*
D17*
X52052000Y-60668500D03*
D18*
X53322000Y-58128500D03*
X54592000Y-55588500D03*
D19*
X57132000Y-60668500D03*
D18*
X59672000Y-55588500D03*
X60942000Y-58128500D03*
D17*
X62212000Y-60668500D03*
D16*
X62632000Y-60668500D03*
D20*
X50232000Y-58128500D03*
X62732000Y-55588500D03*
%TD*%
D16*
%TO.C,SW3*%
X51632000Y-79718500D03*
D17*
X52052000Y-79718500D03*
D18*
X53322000Y-77178500D03*
X54592000Y-74638500D03*
D19*
X57132000Y-79718500D03*
D18*
X59672000Y-74638500D03*
X60942000Y-77178500D03*
D17*
X62212000Y-79718500D03*
D16*
X62632000Y-79718500D03*
D20*
X50232000Y-77178500D03*
X62732000Y-74638500D03*
%TD*%
D16*
%TO.C,SW4*%
X70682000Y-41618500D03*
D17*
X71102000Y-41618500D03*
D18*
X72372000Y-39078500D03*
X73642000Y-36538500D03*
D19*
X76182000Y-41618500D03*
D18*
X78722000Y-36538500D03*
X79992000Y-39078500D03*
D17*
X81262000Y-41618500D03*
D16*
X81682000Y-41618500D03*
D20*
X69282000Y-39078500D03*
X81782000Y-36538500D03*
%TD*%
D16*
%TO.C,SW5*%
X70682000Y-60668500D03*
D17*
X71102000Y-60668500D03*
D18*
X72372000Y-58128500D03*
X73642000Y-55588500D03*
D19*
X76182000Y-60668500D03*
D18*
X78722000Y-55588500D03*
X79992000Y-58128500D03*
D17*
X81262000Y-60668500D03*
D16*
X81682000Y-60668500D03*
D20*
X69282000Y-58128500D03*
X81782000Y-55588500D03*
%TD*%
D16*
%TO.C,SW6*%
X70682000Y-79718500D03*
D17*
X71102000Y-79718500D03*
D18*
X72372000Y-77178500D03*
X73642000Y-74638500D03*
D19*
X76182000Y-79718500D03*
D18*
X78722000Y-74638500D03*
X79992000Y-77178500D03*
D17*
X81262000Y-79718500D03*
D16*
X81682000Y-79718500D03*
D20*
X69282000Y-77178500D03*
X81782000Y-74638500D03*
%TD*%
D16*
%TO.C,SW7*%
X89732000Y-41618500D03*
D17*
X90152000Y-41618500D03*
D18*
X91422000Y-39078500D03*
X92692000Y-36538500D03*
D19*
X95232000Y-41618500D03*
D18*
X97772000Y-36538500D03*
X99042000Y-39078500D03*
D17*
X100312000Y-41618500D03*
D16*
X100732000Y-41618500D03*
D20*
X88332000Y-39078500D03*
X100832000Y-36538500D03*
%TD*%
D16*
%TO.C,SW8*%
X89732000Y-60668500D03*
D17*
X90152000Y-60668500D03*
D18*
X91422000Y-58128500D03*
X92692000Y-55588500D03*
D19*
X95232000Y-60668500D03*
D18*
X97772000Y-55588500D03*
X99042000Y-58128500D03*
D17*
X100312000Y-60668500D03*
D16*
X100732000Y-60668500D03*
D20*
X88332000Y-58128500D03*
X100832000Y-55588500D03*
%TD*%
D16*
%TO.C,SW9*%
X89732000Y-79718500D03*
D17*
X90152000Y-79718500D03*
D18*
X91422000Y-77178500D03*
X92692000Y-74638500D03*
D19*
X95232000Y-79718500D03*
D18*
X97772000Y-74638500D03*
X99042000Y-77178500D03*
D17*
X100312000Y-79718500D03*
D16*
X100732000Y-79718500D03*
D20*
X88332000Y-77178500D03*
X100832000Y-74638500D03*
%TD*%
D16*
%TO.C,SW10*%
X108782000Y-41618500D03*
D17*
X109202000Y-41618500D03*
D18*
X110472000Y-39078500D03*
X111742000Y-36538500D03*
D19*
X114282000Y-41618500D03*
D18*
X116822000Y-36538500D03*
X118092000Y-39078500D03*
D17*
X119362000Y-41618500D03*
D16*
X119782000Y-41618500D03*
D20*
X107382000Y-39078500D03*
X119882000Y-36538500D03*
%TD*%
D16*
%TO.C,SW11*%
X108782000Y-60668500D03*
D17*
X109202000Y-60668500D03*
D18*
X110472000Y-58128500D03*
X111742000Y-55588500D03*
D19*
X114282000Y-60668500D03*
D18*
X116822000Y-55588500D03*
X118092000Y-58128500D03*
D17*
X119362000Y-60668500D03*
D16*
X119782000Y-60668500D03*
D20*
X107382000Y-58128500D03*
X119882000Y-55588500D03*
%TD*%
D16*
%TO.C,SW12*%
X108782000Y-79718500D03*
D17*
X109202000Y-79718500D03*
D18*
X110472000Y-77178500D03*
X111742000Y-74638500D03*
D19*
X114282000Y-79718500D03*
D18*
X116822000Y-74638500D03*
X118092000Y-77178500D03*
D17*
X119362000Y-79718500D03*
D16*
X119782000Y-79718500D03*
D20*
X107382000Y-77178500D03*
X119882000Y-74638500D03*
%TD*%
D16*
%TO.C,SW13*%
X127832000Y-41618500D03*
D17*
X128252000Y-41618500D03*
D18*
X129522000Y-39078500D03*
X130792000Y-36538500D03*
D19*
X133332000Y-41618500D03*
D18*
X135872000Y-36538500D03*
X137142000Y-39078500D03*
D17*
X138412000Y-41618500D03*
D16*
X138832000Y-41618500D03*
D20*
X126432000Y-39078500D03*
X138932000Y-36538500D03*
%TD*%
D16*
%TO.C,SW14*%
X127832000Y-60668500D03*
D17*
X128252000Y-60668500D03*
D18*
X129522000Y-58128500D03*
X130792000Y-55588500D03*
D19*
X133332000Y-60668500D03*
D18*
X135872000Y-55588500D03*
X137142000Y-58128500D03*
D17*
X138412000Y-60668500D03*
D16*
X138832000Y-60668500D03*
D20*
X126432000Y-58128500D03*
X138932000Y-55588500D03*
%TD*%
D16*
%TO.C,SW15*%
X127832000Y-79718500D03*
D17*
X128252000Y-79718500D03*
D18*
X129522000Y-77178500D03*
X130792000Y-74638500D03*
D19*
X133332000Y-79718500D03*
D18*
X135872000Y-74638500D03*
X137142000Y-77178500D03*
D17*
X138412000Y-79718500D03*
D16*
X138832000Y-79718500D03*
D20*
X126432000Y-77178500D03*
X138932000Y-74638500D03*
%TD*%
D16*
%TO.C,SW16*%
X146882000Y-41618500D03*
D17*
X147302000Y-41618500D03*
D18*
X148572000Y-39078500D03*
X149842000Y-36538500D03*
D19*
X152382000Y-41618500D03*
D18*
X154922000Y-36538500D03*
X156192000Y-39078500D03*
D17*
X157462000Y-41618500D03*
D16*
X157882000Y-41618500D03*
D20*
X145482000Y-39078500D03*
X157982000Y-36538500D03*
%TD*%
D16*
%TO.C,SW17*%
X146882000Y-60668500D03*
D17*
X147302000Y-60668500D03*
D18*
X148572000Y-58128500D03*
X149842000Y-55588500D03*
D19*
X152382000Y-60668500D03*
D18*
X154922000Y-55588500D03*
X156192000Y-58128500D03*
D17*
X157462000Y-60668500D03*
D16*
X157882000Y-60668500D03*
D20*
X145482000Y-58128500D03*
X157982000Y-55588500D03*
%TD*%
D16*
%TO.C,SW18*%
X146882000Y-79718500D03*
D17*
X147302000Y-79718500D03*
D18*
X148572000Y-77178500D03*
X149842000Y-74638500D03*
D19*
X152382000Y-79718500D03*
D18*
X154922000Y-74638500D03*
X156192000Y-77178500D03*
D17*
X157462000Y-79718500D03*
D16*
X157882000Y-79718500D03*
D20*
X145482000Y-77178500D03*
X157982000Y-74638500D03*
%TD*%
D16*
%TO.C,SW19*%
X165932000Y-79718500D03*
D17*
X166352000Y-79718500D03*
D18*
X167622000Y-77178500D03*
X168892000Y-74638500D03*
D19*
X171432000Y-79718500D03*
D18*
X173972000Y-74638500D03*
X175242000Y-77178500D03*
D17*
X176512000Y-79718500D03*
D16*
X176932000Y-79718500D03*
D20*
X164532000Y-77178500D03*
X177032000Y-74638500D03*
%TD*%
D21*
%TO.C,J2*%
X178836000Y-34341500D03*
X178836000Y-41341500D03*
D22*
X175586000Y-38931500D03*
X175586000Y-35931500D03*
X182086000Y-44031500D03*
X175586000Y-42931500D03*
%TD*%
D23*
%TO.C,D_H1*%
X165059500Y-66104000D03*
X168609500Y-66104000D03*
%TD*%
D24*
%TO.C,RSTSW1*%
X179979000Y-46190500D03*
X179979000Y-47890500D03*
D25*
X177729000Y-46990500D03*
X182229000Y-46990500D03*
%TD*%
D26*
%TO.C,D1*%
X65425000Y-45400000D03*
X65425000Y-41850000D03*
%TD*%
%TO.C,D2*%
X65425000Y-64450000D03*
X65425000Y-60900000D03*
%TD*%
%TO.C,D3*%
X65425000Y-83500000D03*
X65425000Y-79950000D03*
%TD*%
%TO.C,D7*%
X103525000Y-45400000D03*
X103525000Y-41850000D03*
%TD*%
%TO.C,D8*%
X103525000Y-64450000D03*
X103525000Y-60900000D03*
%TD*%
%TO.C,D10*%
X122575000Y-45400000D03*
X122575000Y-41850000D03*
%TD*%
%TO.C,D11*%
X122575000Y-64450000D03*
X122575000Y-60900000D03*
%TD*%
%TO.C,D12*%
X122575000Y-83500000D03*
X122575000Y-79950000D03*
%TD*%
%TO.C,D14*%
X141625000Y-64450000D03*
X141625000Y-60900000D03*
%TD*%
%TO.C,D15*%
X141625000Y-83500000D03*
X141625000Y-79950000D03*
%TD*%
%TO.C,D17*%
X160675000Y-64450000D03*
X160675000Y-60900000D03*
%TD*%
%TO.C,D18*%
X160675000Y-83500000D03*
X160675000Y-79950000D03*
%TD*%
%TO.C,D4*%
X84474999Y-45400000D03*
X84474999Y-41850000D03*
%TD*%
%TO.C,D5*%
X84474999Y-64450000D03*
X84474999Y-60900000D03*
%TD*%
%TO.C,D6*%
X84474999Y-83500000D03*
X84474999Y-79950000D03*
%TD*%
%TO.C,D9*%
X103525000Y-83500000D03*
X103525000Y-79950000D03*
%TD*%
%TO.C,D13*%
X141625000Y-45400000D03*
X141625000Y-41850000D03*
%TD*%
%TO.C,D16*%
X160675000Y-45400000D03*
X160675000Y-41850000D03*
%TD*%
%TO.C,D19*%
X179725000Y-83500000D03*
X179725000Y-79950000D03*
%TD*%
%LPD*%
M02*
