M48
; DRILL file {KiCad 8.0.7} date 2024-12-30T11:07:06+0900
; FORMAT={-:-/ absolute / inch / decimal}
; #@! TF.CreationDate,2024-12-30T11:07:06+09:00
; #@! TF.GenerationSoftware,Kicad,Pcbnew,8.0.7
; #@! TF.FileFunction,Plated,1,2,PTH
FMAT,2
INCH
; #@! TA.AperFunction,Plated,PTH,ViaDrill
T1C0.0157
; #@! TA.AperFunction,Plated,PTH,ComponentDrill
T2C0.0236
%
G90
G05
T1
X1.9308Y-1.47
X1.9308Y-2.22
X1.9308Y-2.97
X2.5333Y-1.6475
X2.5333Y-2.3975
X2.5333Y-3.1475
X2.5758Y-1.74
X2.5758Y-2.49
X2.5758Y-3.24
X2.6808Y-2.22
X2.6833Y-1.47
X2.6858Y-2.97
X3.2833Y-1.6475
X3.2833Y-2.3975
X3.2833Y-3.1475
X3.3258Y-1.74
X3.3258Y-2.49
X3.3258Y-3.24
X3.4308Y-1.47
X3.4308Y-2.22
X3.4308Y-2.97
X4.0333Y-1.6475
X4.0333Y-2.3975
X4.0333Y-3.1475
X4.0758Y-1.74
X4.0758Y-2.49
X4.0758Y-3.24
X4.1808Y-1.47
X4.1808Y-2.22
X4.1808Y-2.97
X4.7808Y-1.6475
X4.7833Y-2.3975
X4.7833Y-3.1475
X4.8258Y-1.74
X4.8258Y-2.49
X4.8258Y-3.24
X4.9308Y-1.47
X4.9308Y-2.22
X4.9308Y-2.97
X5.5333Y-1.6475
X5.5333Y-2.3975
X5.5333Y-3.1475
X5.5758Y-1.74
X5.5758Y-2.49
X5.5758Y-3.24
X5.6808Y-1.47
X5.6808Y-2.22
X5.6808Y-2.97
X6.2833Y-1.6475
X6.2833Y-2.3975
X6.2833Y-3.1475
X6.3258Y-1.3125
X6.3258Y-1.74
X6.3258Y-2.49
X6.3258Y-3.24
X6.4333Y-2.97
X6.5608Y-2.6025
X6.6339Y-1.7115
X6.6383Y-2.5575
X6.7808Y-2.4125
X6.9408Y-1.85
X6.9633Y-2.0675
X6.9808Y-1.645
X6.9808Y-2.2875
X7.0058Y-1.415
X7.0058Y-1.57
X7.0333Y-3.1475
X7.0758Y-3.24
X7.1758Y-1.7875
T2
G00X6.4307Y-1.3354
M15
G01X6.4307Y-1.3118
M16
G05
G00X6.4307Y-1.5098
M15
G01X6.4307Y-1.4665
M16
G05
G00X6.7709Y-1.3354
M15
G01X6.7709Y-1.3118
M16
G05
G00X6.7709Y-1.5098
M15
G01X6.7709Y-1.4665
M16
G05
M30
