M48
; DRILL file {KiCad 8.0.7} date 2024-12-29T11:12:43+0900
; FORMAT={-:-/ absolute / inch / decimal}
; #@! TF.CreationDate,2024-12-29T11:12:43+09:00
; #@! TF.GenerationSoftware,Kicad,Pcbnew,8.0.7
; #@! TF.FileFunction,NonPlated,1,2,NPTH
FMAT,2
INCH
; #@! TA.AperFunction,NonPlated,NPTH,ComponentDrill
T1C0.0295
; #@! TA.AperFunction,NonPlated,NPTH,ComponentDrill
T2C0.0591
; #@! TA.AperFunction,NonPlated,NPTH,ComponentDrill
T3C0.0669
; #@! TA.AperFunction,NonPlated,NPTH,ComponentDrill
T4C0.0748
; #@! TA.AperFunction,NonPlated,NPTH,ComponentDrill
T5C0.1181
; #@! TA.AperFunction,NonPlated,NPTH,ComponentDrill
T6C0.1575
; #@! TA.AperFunction,NonPlated,NPTH,ComponentDrill
T7C0.1890
%
G90
G05
T1
X6.805Y-2.1485
X6.805Y-2.2154
T2
X6.76Y-1.682
X6.76Y-1.9576
T3
X1.7685Y-1.9685
X1.7685Y-2.7185
X1.7685Y-3.4685
X2.1685Y-1.9685
X2.1685Y-2.7185
X2.1685Y-3.4685
X2.5185Y-1.9685
X2.5185Y-2.7185
X2.5185Y-3.4685
X2.9185Y-1.9685
X2.9185Y-2.7185
X2.9185Y-3.4685
X3.2685Y-1.9685
X3.2685Y-2.7185
X3.2685Y-3.4685
X3.6685Y-1.9685
X3.6685Y-2.7185
X3.6685Y-3.4685
X4.0185Y-1.9685
X4.0185Y-2.7185
X4.0185Y-3.4685
X4.4185Y-1.9685
X4.4185Y-2.7185
X4.4185Y-3.4685
X4.7685Y-1.9685
X4.7685Y-2.7185
X4.7685Y-3.4685
X5.1685Y-1.9685
X5.1685Y-2.7185
X5.1685Y-3.4685
X5.5185Y-1.9685
X5.5185Y-2.7185
X5.5185Y-3.4685
X5.9185Y-1.9685
X5.9185Y-2.7185
X5.9185Y-3.4685
X6.2685Y-3.4685
X6.6685Y-3.4685
T4
X1.752Y-1.9685
X1.752Y-2.7185
X1.752Y-3.4685
X2.185Y-1.9685
X2.185Y-2.7185
X2.185Y-3.4685
X2.502Y-1.9685
X2.502Y-2.7185
X2.502Y-3.4685
X2.935Y-1.9685
X2.935Y-2.7185
X2.935Y-3.4685
X3.252Y-1.9685
X3.252Y-2.7185
X3.252Y-3.4685
X3.685Y-1.9685
X3.685Y-2.7185
X3.685Y-3.4685
X4.002Y-1.9685
X4.002Y-2.7185
X4.002Y-3.4685
X4.435Y-1.9685
X4.435Y-2.7185
X4.435Y-3.4685
X4.752Y-1.9685
X4.752Y-2.7185
X4.752Y-3.4685
X5.185Y-1.9685
X5.185Y-2.7185
X5.185Y-3.4685
X5.502Y-1.9685
X5.502Y-2.7185
X5.502Y-3.4685
X5.935Y-1.9685
X5.935Y-2.7185
X5.935Y-3.4685
X6.252Y-3.4685
X6.685Y-3.4685
T5
X1.8185Y-1.8685
X1.8185Y-2.6185
X1.8185Y-3.3685
X1.8685Y-1.7685
X1.8685Y-2.5185
X1.8685Y-3.2685
X2.0685Y-1.7685
X2.0685Y-2.5185
X2.0685Y-3.2685
X2.1185Y-1.8685
X2.1185Y-2.6185
X2.1185Y-3.3685
X2.5685Y-1.8685
X2.5685Y-2.6185
X2.5685Y-3.3685
X2.6185Y-1.7685
X2.6185Y-2.5185
X2.6185Y-3.2685
X2.8185Y-1.7685
X2.8185Y-2.5185
X2.8185Y-3.2685
X2.8685Y-1.8685
X2.8685Y-2.6185
X2.8685Y-3.3685
X3.3185Y-1.8685
X3.3185Y-2.6185
X3.3185Y-3.3685
X3.3685Y-1.7685
X3.3685Y-2.5185
X3.3685Y-3.2685
X3.5685Y-1.7685
X3.5685Y-2.5185
X3.5685Y-3.2685
X3.6185Y-1.8685
X3.6185Y-2.6185
X3.6185Y-3.3685
X4.0685Y-1.8685
X4.0685Y-2.6185
X4.0685Y-3.3685
X4.1185Y-1.7685
X4.1185Y-2.5185
X4.1185Y-3.2685
X4.3185Y-1.7685
X4.3185Y-2.5185
X4.3185Y-3.2685
X4.3685Y-1.8685
X4.3685Y-2.6185
X4.3685Y-3.3685
X4.8185Y-1.8685
X4.8185Y-2.6185
X4.8185Y-3.3685
X4.8685Y-1.7685
X4.8685Y-2.5185
X4.8685Y-3.2685
X5.0685Y-1.7685
X5.0685Y-2.5185
X5.0685Y-3.2685
X5.1185Y-1.8685
X5.1185Y-2.6185
X5.1185Y-3.3685
X5.5685Y-1.8685
X5.5685Y-2.6185
X5.5685Y-3.3685
X5.6185Y-1.7685
X5.6185Y-2.5185
X5.6185Y-3.2685
X5.8185Y-1.7685
X5.8185Y-2.5185
X5.8185Y-3.2685
X5.8685Y-1.8685
X5.8685Y-2.6185
X5.8685Y-3.3685
X6.3185Y-3.3685
X6.3685Y-3.2685
X6.5685Y-3.2685
X6.6185Y-3.3685
T6
X1.9685Y-1.9685
X1.9685Y-2.7185
X1.9685Y-3.4685
X2.7185Y-1.9685
X2.7185Y-2.7185
X2.7185Y-3.4685
X3.4685Y-1.9685
X3.4685Y-2.7185
X3.4685Y-3.4685
X4.2185Y-1.9685
X4.2185Y-2.7185
X4.2185Y-3.4685
X4.9685Y-1.9685
X4.9685Y-2.7185
X4.9685Y-3.4685
X5.7185Y-1.9685
X5.7185Y-2.7185
X5.7185Y-3.4685
X6.4685Y-3.4685
T7
X2.3435Y-2.3435
X2.3435Y-3.0935
X3.8435Y-2.3435
X3.8435Y-3.0935
X5.3435Y-2.3435
X5.3435Y-3.0935
M30
