%TF.GenerationSoftware,KiCad,Pcbnew,8.0.7*%
%TF.CreationDate,2024-12-28T18:02:33+09:00*%
%TF.ProjectId,pisces,70697363-6573-42e6-9b69-6361645f7063,rev?*%
%TF.SameCoordinates,Original*%
%TF.FileFunction,Paste,Top*%
%TF.FilePolarity,Positive*%
%FSLAX46Y46*%
G04 Gerber Fmt 4.6, Leading zero omitted, Abs format (unit mm)*
G04 Created by KiCad (PCBNEW 8.0.7) date 2024-12-28 18:02:33*
%MOMM*%
%LPD*%
G01*
G04 APERTURE LIST*
G04 Aperture macros list*
%AMRoundRect*
0 Rectangle with rounded corners*
0 $1 Rounding radius*
0 $2 $3 $4 $5 $6 $7 $8 $9 X,Y pos of 4 corners*
0 Add a 4 corners polygon primitive as box body*
4,1,4,$2,$3,$4,$5,$6,$7,$8,$9,$2,$3,0*
0 Add four circle primitives for the rounded corners*
1,1,$1+$1,$2,$3*
1,1,$1+$1,$4,$5*
1,1,$1+$1,$6,$7*
1,1,$1+$1,$8,$9*
0 Add four rect primitives between the rounded corners*
20,1,$1+$1,$2,$3,$4,$5,0*
20,1,$1+$1,$4,$5,$6,$7,0*
20,1,$1+$1,$6,$7,$8,$9,0*
20,1,$1+$1,$8,$9,$2,$3,0*%
G04 Aperture macros list end*
%ADD10RoundRect,0.237500X0.300000X0.237500X-0.300000X0.237500X-0.300000X-0.237500X0.300000X-0.237500X0*%
%ADD11RoundRect,0.237500X-0.300000X-0.237500X0.300000X-0.237500X0.300000X0.237500X-0.300000X0.237500X0*%
%ADD12RoundRect,0.250000X0.337500X0.475000X-0.337500X0.475000X-0.337500X-0.475000X0.337500X-0.475000X0*%
%ADD13R,1.820000X1.060000*%
%ADD14R,0.400000X1.350000*%
%ADD15R,1.600000X1.900000*%
%ADD16R,2.100000X2.000000*%
%ADD17R,1.200000X1.900000*%
%ADD18RoundRect,0.249999X0.450001X-0.350001X0.450001X0.350001X-0.450001X0.350001X-0.450001X-0.350001X0*%
%ADD19RoundRect,0.249999X-0.350001X-0.450001X0.350001X-0.450001X0.350001X0.450001X-0.350001X0.450001X0*%
%ADD20RoundRect,0.249999X0.350001X0.450001X-0.350001X0.450001X-0.350001X-0.450001X0.350001X-0.450001X0*%
%ADD21R,2.000000X2.000000*%
%ADD22R,1.600000X0.550000*%
%ADD23R,0.550000X1.600000*%
%ADD24R,2.100000X1.800000*%
%ADD25R,2.500000X1.200000*%
%ADD26R,1.300000X0.950000*%
%ADD27RoundRect,0.250000X-0.450000X0.350000X-0.450000X-0.350000X0.450000X-0.350000X0.450000X0.350000X0*%
%ADD28R,1.100000X1.600000*%
%ADD29R,0.950000X1.300000*%
G04 APERTURE END LIST*
D10*
%TO.C,C1*%
X159549000Y-60452000D03*
X157824000Y-60452000D03*
%TD*%
D11*
%TO.C,C2*%
X157824000Y-68453000D03*
X159549000Y-68453000D03*
%TD*%
D10*
%TO.C,C3*%
X170280500Y-58102500D03*
X168555500Y-58102500D03*
%TD*%
D12*
%TO.C,C4*%
X165375500Y-58356500D03*
X163300500Y-58356500D03*
%TD*%
D10*
%TO.C,C5*%
X159549000Y-71437500D03*
X157824000Y-71437500D03*
%TD*%
%TO.C,C6*%
X164438500Y-60452000D03*
X162713500Y-60452000D03*
%TD*%
D13*
%TO.C,F1*%
X156845000Y-50232500D03*
X156845000Y-47176500D03*
%TD*%
D14*
%TO.C,J1*%
X159228000Y-44394500D03*
X159878000Y-44394500D03*
X160528000Y-44394500D03*
X161178000Y-44394500D03*
X161828000Y-44394500D03*
D15*
X164628000Y-41719500D03*
D16*
X163628000Y-44069500D03*
D17*
X161378000Y-41719500D03*
X159678000Y-41719500D03*
D16*
X157428000Y-44069500D03*
D15*
X156428000Y-41719500D03*
%TD*%
D18*
%TO.C,R1*%
X161163000Y-49260000D03*
X161163000Y-47260000D03*
%TD*%
%TO.C,R2*%
X159131000Y-49260000D03*
X159131000Y-47260000D03*
%TD*%
D19*
%TO.C,R3*%
X172990000Y-58293000D03*
X174990000Y-58293000D03*
%TD*%
D20*
%TO.C,R4*%
X167433500Y-75184000D03*
X165433500Y-75184000D03*
%TD*%
D21*
%TO.C,SW1*%
X44400000Y-44920000D03*
X56900000Y-47460000D03*
%TD*%
%TO.C,SW2*%
X44400000Y-63970000D03*
X56900000Y-66510000D03*
%TD*%
%TO.C,SW3*%
X44400000Y-83020000D03*
X56900000Y-85560000D03*
%TD*%
%TO.C,SW4*%
X63450000Y-44920000D03*
X75950000Y-47460000D03*
%TD*%
%TO.C,SW5*%
X63450000Y-63970000D03*
X75950000Y-66510000D03*
%TD*%
%TO.C,SW6*%
X63450000Y-83020000D03*
X75950000Y-85560000D03*
%TD*%
%TO.C,SW7*%
X82500000Y-44920000D03*
X95000000Y-47460000D03*
%TD*%
%TO.C,SW8*%
X82500000Y-63970000D03*
X95000000Y-66510000D03*
%TD*%
%TO.C,SW9*%
X82500000Y-83020000D03*
X95000000Y-85560000D03*
%TD*%
%TO.C,SW10*%
X101550000Y-44920000D03*
X114050000Y-47460000D03*
%TD*%
%TO.C,SW11*%
X101550000Y-63970000D03*
X114050000Y-66510000D03*
%TD*%
%TO.C,SW12*%
X101550000Y-83020000D03*
X114050000Y-85560000D03*
%TD*%
%TO.C,SW13*%
X120600000Y-44920000D03*
X133100000Y-47460000D03*
%TD*%
%TO.C,SW14*%
X120600000Y-63970000D03*
X133100000Y-66510000D03*
%TD*%
%TO.C,SW15*%
X120600000Y-83020000D03*
X133100000Y-85560000D03*
%TD*%
%TO.C,SW16*%
X139650000Y-44920000D03*
X152150000Y-47460000D03*
%TD*%
%TO.C,SW17*%
X139650000Y-63970000D03*
X152150000Y-66510000D03*
%TD*%
%TO.C,SW18*%
X139650000Y-83020000D03*
X152150000Y-85560000D03*
%TD*%
%TO.C,SW19*%
X158700000Y-83020000D03*
X171200000Y-85560000D03*
%TD*%
D22*
%TO.C,U1*%
X163453500Y-64065500D03*
X163453500Y-64865500D03*
X163453500Y-65665500D03*
X163453500Y-66465500D03*
X163453500Y-67265500D03*
X163453500Y-68065500D03*
X163453500Y-68865500D03*
X163453500Y-69665500D03*
D23*
X164903500Y-71115500D03*
X165703500Y-71115500D03*
X166503500Y-71115500D03*
X167303500Y-71115500D03*
X168103500Y-71115500D03*
X168903500Y-71115500D03*
X169703500Y-71115500D03*
X170503500Y-71115500D03*
D22*
X171953500Y-69665500D03*
X171953500Y-68865500D03*
X171953500Y-68065500D03*
X171953500Y-67265500D03*
X171953500Y-66465500D03*
X171953500Y-65665500D03*
X171953500Y-64865500D03*
X171953500Y-64065500D03*
D23*
X170503500Y-62615500D03*
X169703500Y-62615500D03*
X168903500Y-62615500D03*
X168103500Y-62615500D03*
X167303500Y-62615500D03*
X166503500Y-62615500D03*
X165703500Y-62615500D03*
X164903500Y-62615500D03*
%TD*%
D24*
%TO.C,Y1*%
X158993500Y-63225500D03*
X156093500Y-63225500D03*
X156093500Y-65425500D03*
X158993500Y-65425500D03*
%TD*%
D25*
%TO.C,J2*%
X174954000Y-47323000D03*
X174954000Y-44323000D03*
X168454000Y-52423000D03*
X174954000Y-51323000D03*
%TD*%
D26*
%TO.C,D_H1*%
X157927500Y-74485500D03*
X161477500Y-74485500D03*
%TD*%
D27*
%TO.C,R5*%
X164719000Y-47260000D03*
X164719000Y-49260000D03*
%TD*%
D28*
%TO.C,RSTSW1*%
X170597000Y-55372000D03*
X175097000Y-55372000D03*
%TD*%
D29*
%TO.C,D1*%
X58293000Y-53781500D03*
X58293000Y-50231500D03*
%TD*%
%TO.C,D2*%
X58293000Y-72831500D03*
X58293000Y-69281500D03*
%TD*%
%TO.C,D3*%
X58293000Y-91881500D03*
X58293000Y-88331500D03*
%TD*%
%TO.C,D7*%
X96393000Y-53781500D03*
X96393000Y-50231500D03*
%TD*%
%TO.C,D8*%
X96393000Y-72831500D03*
X96393000Y-69281500D03*
%TD*%
%TO.C,D10*%
X115443000Y-53781500D03*
X115443000Y-50231500D03*
%TD*%
%TO.C,D11*%
X115443000Y-72831500D03*
X115443000Y-69281500D03*
%TD*%
%TO.C,D12*%
X115443000Y-91881500D03*
X115443000Y-88331500D03*
%TD*%
%TO.C,D14*%
X134493000Y-72831500D03*
X134493000Y-69281500D03*
%TD*%
%TO.C,D15*%
X134493000Y-91881500D03*
X134493000Y-88331500D03*
%TD*%
%TO.C,D17*%
X153543000Y-72831500D03*
X153543000Y-69281500D03*
%TD*%
%TO.C,D18*%
X153543000Y-91881500D03*
X153543000Y-88331500D03*
%TD*%
%TO.C,D4*%
X77342999Y-53781500D03*
X77342999Y-50231500D03*
%TD*%
%TO.C,D5*%
X77342999Y-72831500D03*
X77342999Y-69281500D03*
%TD*%
%TO.C,D6*%
X77342999Y-91881500D03*
X77342999Y-88331500D03*
%TD*%
%TO.C,D9*%
X96393000Y-91881500D03*
X96393000Y-88331500D03*
%TD*%
%TO.C,D13*%
X134493000Y-53781500D03*
X134493000Y-50231500D03*
%TD*%
%TO.C,D16*%
X153543000Y-53781500D03*
X153543000Y-50231500D03*
%TD*%
%TO.C,D19*%
X172593000Y-91881500D03*
X172593000Y-88331500D03*
%TD*%
M02*
