%TF.GenerationSoftware,KiCad,Pcbnew,8.0.7*%
%TF.CreationDate,2024-12-29T11:12:43+09:00*%
%TF.ProjectId,pisces,70697363-6573-42e6-9b69-6361645f7063,rev?*%
%TF.SameCoordinates,Original*%
%TF.FileFunction,Legend,Bot*%
%TF.FilePolarity,Positive*%
%FSLAX46Y46*%
G04 Gerber Fmt 4.6, Leading zero omitted, Abs format (unit mm)*
G04 Created by KiCad (PCBNEW 8.0.7) date 2024-12-29 11:12:43*
%MOMM*%
%LPD*%
G01*
G04 APERTURE LIST*
%ADD10C,0.150000*%
%ADD11C,0.120000*%
%ADD12C,5.000000*%
%ADD13C,1.900000*%
%ADD14C,1.700000*%
%ADD15C,3.000000*%
%ADD16C,4.000000*%
%ADD17R,2.000000X2.000000*%
%ADD18C,1.500000*%
%ADD19R,2.500000X1.200000*%
%ADD20R,1.300000X0.950000*%
%ADD21C,0.750000*%
%ADD22R,1.100000X1.600000*%
%ADD23R,0.950000X1.300000*%
G04 APERTURE END LIST*
D10*
X161345356Y-76718319D02*
X161345356Y-75718319D01*
X161345356Y-75718319D02*
X161107261Y-75718319D01*
X161107261Y-75718319D02*
X160964404Y-75765938D01*
X160964404Y-75765938D02*
X160869166Y-75861176D01*
X160869166Y-75861176D02*
X160821547Y-75956414D01*
X160821547Y-75956414D02*
X160773928Y-76146890D01*
X160773928Y-76146890D02*
X160773928Y-76289747D01*
X160773928Y-76289747D02*
X160821547Y-76480223D01*
X160821547Y-76480223D02*
X160869166Y-76575461D01*
X160869166Y-76575461D02*
X160964404Y-76670700D01*
X160964404Y-76670700D02*
X161107261Y-76718319D01*
X161107261Y-76718319D02*
X161345356Y-76718319D01*
X160583452Y-76813557D02*
X159821547Y-76813557D01*
X159583451Y-76718319D02*
X159583451Y-75718319D01*
X159583451Y-76194509D02*
X159012023Y-76194509D01*
X159012023Y-76718319D02*
X159012023Y-75718319D01*
X158012023Y-76718319D02*
X158583451Y-76718319D01*
X158297737Y-76718319D02*
X158297737Y-75718319D01*
X158297737Y-75718319D02*
X158392975Y-75861176D01*
X158392975Y-75861176D02*
X158488213Y-75956414D01*
X158488213Y-75956414D02*
X158583451Y-76004033D01*
X169297142Y-55162795D02*
X169563809Y-54781842D01*
X169754285Y-55162795D02*
X169754285Y-54362795D01*
X169754285Y-54362795D02*
X169449523Y-54362795D01*
X169449523Y-54362795D02*
X169373333Y-54400890D01*
X169373333Y-54400890D02*
X169335238Y-54438985D01*
X169335238Y-54438985D02*
X169297142Y-54515176D01*
X169297142Y-54515176D02*
X169297142Y-54629461D01*
X169297142Y-54629461D02*
X169335238Y-54705652D01*
X169335238Y-54705652D02*
X169373333Y-54743747D01*
X169373333Y-54743747D02*
X169449523Y-54781842D01*
X169449523Y-54781842D02*
X169754285Y-54781842D01*
X168992381Y-55124700D02*
X168878095Y-55162795D01*
X168878095Y-55162795D02*
X168687619Y-55162795D01*
X168687619Y-55162795D02*
X168611428Y-55124700D01*
X168611428Y-55124700D02*
X168573333Y-55086604D01*
X168573333Y-55086604D02*
X168535238Y-55010414D01*
X168535238Y-55010414D02*
X168535238Y-54934223D01*
X168535238Y-54934223D02*
X168573333Y-54858033D01*
X168573333Y-54858033D02*
X168611428Y-54819938D01*
X168611428Y-54819938D02*
X168687619Y-54781842D01*
X168687619Y-54781842D02*
X168840000Y-54743747D01*
X168840000Y-54743747D02*
X168916190Y-54705652D01*
X168916190Y-54705652D02*
X168954285Y-54667557D01*
X168954285Y-54667557D02*
X168992381Y-54591366D01*
X168992381Y-54591366D02*
X168992381Y-54515176D01*
X168992381Y-54515176D02*
X168954285Y-54438985D01*
X168954285Y-54438985D02*
X168916190Y-54400890D01*
X168916190Y-54400890D02*
X168840000Y-54362795D01*
X168840000Y-54362795D02*
X168649523Y-54362795D01*
X168649523Y-54362795D02*
X168535238Y-54400890D01*
X168306666Y-54362795D02*
X167849523Y-54362795D01*
X168078095Y-55162795D02*
X168078095Y-54362795D01*
X167620952Y-55124700D02*
X167506666Y-55162795D01*
X167506666Y-55162795D02*
X167316190Y-55162795D01*
X167316190Y-55162795D02*
X167239999Y-55124700D01*
X167239999Y-55124700D02*
X167201904Y-55086604D01*
X167201904Y-55086604D02*
X167163809Y-55010414D01*
X167163809Y-55010414D02*
X167163809Y-54934223D01*
X167163809Y-54934223D02*
X167201904Y-54858033D01*
X167201904Y-54858033D02*
X167239999Y-54819938D01*
X167239999Y-54819938D02*
X167316190Y-54781842D01*
X167316190Y-54781842D02*
X167468571Y-54743747D01*
X167468571Y-54743747D02*
X167544761Y-54705652D01*
X167544761Y-54705652D02*
X167582856Y-54667557D01*
X167582856Y-54667557D02*
X167620952Y-54591366D01*
X167620952Y-54591366D02*
X167620952Y-54515176D01*
X167620952Y-54515176D02*
X167582856Y-54438985D01*
X167582856Y-54438985D02*
X167544761Y-54400890D01*
X167544761Y-54400890D02*
X167468571Y-54362795D01*
X167468571Y-54362795D02*
X167278094Y-54362795D01*
X167278094Y-54362795D02*
X167163809Y-54400890D01*
X166897142Y-54362795D02*
X166706666Y-55162795D01*
X166706666Y-55162795D02*
X166554285Y-54591366D01*
X166554285Y-54591366D02*
X166401904Y-55162795D01*
X166401904Y-55162795D02*
X166211428Y-54362795D01*
X165487618Y-55162795D02*
X165944761Y-55162795D01*
X165716189Y-55162795D02*
X165716189Y-54362795D01*
X165716189Y-54362795D02*
X165792380Y-54477080D01*
X165792380Y-54477080D02*
X165868570Y-54553271D01*
X165868570Y-54553271D02*
X165944761Y-54591366D01*
X171158819Y-46085166D02*
X171873104Y-46085166D01*
X171873104Y-46085166D02*
X172015961Y-46037547D01*
X172015961Y-46037547D02*
X172111200Y-45942309D01*
X172111200Y-45942309D02*
X172158819Y-45799452D01*
X172158819Y-45799452D02*
X172158819Y-45704214D01*
X171254057Y-46513738D02*
X171206438Y-46561357D01*
X171206438Y-46561357D02*
X171158819Y-46656595D01*
X171158819Y-46656595D02*
X171158819Y-46894690D01*
X171158819Y-46894690D02*
X171206438Y-46989928D01*
X171206438Y-46989928D02*
X171254057Y-47037547D01*
X171254057Y-47037547D02*
X171349295Y-47085166D01*
X171349295Y-47085166D02*
X171444533Y-47085166D01*
X171444533Y-47085166D02*
X171587390Y-47037547D01*
X171587390Y-47037547D02*
X172158819Y-46466119D01*
X172158819Y-46466119D02*
X172158819Y-47085166D01*
%TO.C,SW1*%
X43900000Y-45150000D02*
X43900000Y-49095000D01*
X43900000Y-49104000D02*
X47510000Y-49104000D01*
X54800000Y-43196000D02*
X46175000Y-43196000D01*
X54800000Y-47104000D02*
X54800000Y-43196000D01*
X54800000Y-47150000D02*
X49750000Y-47196000D01*
X43911000Y-45080000D02*
G75*
G02*
X46175000Y-43196000I2074000J-190000D01*
G01*
X47515000Y-49080000D02*
G75*
G02*
X49775000Y-47200000I2070000J-190000D01*
G01*
%TO.C,SW2*%
X43900000Y-64200000D02*
X43900000Y-68145000D01*
X43900000Y-68154000D02*
X47510000Y-68154000D01*
X54800000Y-62246000D02*
X46175000Y-62246000D01*
X54800000Y-66154000D02*
X54800000Y-62246000D01*
X54800000Y-66200000D02*
X49750000Y-66246000D01*
X43911000Y-64130000D02*
G75*
G02*
X46175000Y-62246000I2074000J-190000D01*
G01*
X47515000Y-68130000D02*
G75*
G02*
X49775000Y-66250000I2070000J-190000D01*
G01*
%TO.C,SW3*%
X43900000Y-83250000D02*
X43900000Y-87195000D01*
X43900000Y-87204000D02*
X47510000Y-87204000D01*
X54800000Y-81296000D02*
X46175000Y-81296000D01*
X54800000Y-85204000D02*
X54800000Y-81296000D01*
X54800000Y-85250000D02*
X49750000Y-85296000D01*
X43911000Y-83180000D02*
G75*
G02*
X46175000Y-81296000I2074000J-190000D01*
G01*
X47515000Y-87180000D02*
G75*
G02*
X49775000Y-85300000I2070000J-190000D01*
G01*
%TO.C,SW4*%
X62950000Y-45150000D02*
X62950000Y-49095000D01*
X62950000Y-49104000D02*
X66560000Y-49104000D01*
X73850000Y-43196000D02*
X65225000Y-43196000D01*
X73850000Y-47104000D02*
X73850000Y-43196000D01*
X73850000Y-47150000D02*
X68800000Y-47196000D01*
X62961000Y-45080000D02*
G75*
G02*
X65225000Y-43196000I2074000J-190000D01*
G01*
X66565000Y-49080000D02*
G75*
G02*
X68825000Y-47200000I2070000J-190000D01*
G01*
%TO.C,SW5*%
X62950000Y-64200000D02*
X62950000Y-68145000D01*
X62950000Y-68154000D02*
X66560000Y-68154000D01*
X73850000Y-62246000D02*
X65225000Y-62246000D01*
X73850000Y-66154000D02*
X73850000Y-62246000D01*
X73850000Y-66200000D02*
X68800000Y-66246000D01*
X62961000Y-64130000D02*
G75*
G02*
X65225000Y-62246000I2074000J-190000D01*
G01*
X66565000Y-68130000D02*
G75*
G02*
X68825000Y-66250000I2070000J-190000D01*
G01*
%TO.C,SW6*%
X62950000Y-83250000D02*
X62950000Y-87195000D01*
X62950000Y-87204000D02*
X66560000Y-87204000D01*
X73850000Y-81296000D02*
X65225000Y-81296000D01*
X73850000Y-85204000D02*
X73850000Y-81296000D01*
X73850000Y-85250000D02*
X68800000Y-85296000D01*
X62961000Y-83180000D02*
G75*
G02*
X65225000Y-81296000I2074000J-190000D01*
G01*
X66565000Y-87180000D02*
G75*
G02*
X68825000Y-85300000I2070000J-190000D01*
G01*
%TO.C,SW7*%
X82000000Y-45150000D02*
X82000000Y-49095000D01*
X82000000Y-49104000D02*
X85610000Y-49104000D01*
X92900000Y-43196000D02*
X84275000Y-43196000D01*
X92900000Y-47104000D02*
X92900000Y-43196000D01*
X92900000Y-47150000D02*
X87850000Y-47196000D01*
X82011000Y-45080000D02*
G75*
G02*
X84275000Y-43196000I2074000J-190000D01*
G01*
X85615000Y-49080000D02*
G75*
G02*
X87875000Y-47200000I2070000J-190000D01*
G01*
%TO.C,SW8*%
X82000000Y-64200000D02*
X82000000Y-68145000D01*
X82000000Y-68154000D02*
X85610000Y-68154000D01*
X92900000Y-62246000D02*
X84275000Y-62246000D01*
X92900000Y-66154000D02*
X92900000Y-62246000D01*
X92900000Y-66200000D02*
X87850000Y-66246000D01*
X82011000Y-64130000D02*
G75*
G02*
X84275000Y-62246000I2074000J-190000D01*
G01*
X85615000Y-68130000D02*
G75*
G02*
X87875000Y-66250000I2070000J-190000D01*
G01*
%TO.C,SW9*%
X82000000Y-83250000D02*
X82000000Y-87195000D01*
X82000000Y-87204000D02*
X85610000Y-87204000D01*
X92900000Y-81296000D02*
X84275000Y-81296000D01*
X92900000Y-85204000D02*
X92900000Y-81296000D01*
X92900000Y-85250000D02*
X87850000Y-85296000D01*
X82011000Y-83180000D02*
G75*
G02*
X84275000Y-81296000I2074000J-190000D01*
G01*
X85615000Y-87180000D02*
G75*
G02*
X87875000Y-85300000I2070000J-190000D01*
G01*
%TO.C,SW10*%
X101050000Y-45150000D02*
X101050000Y-49095000D01*
X101050000Y-49104000D02*
X104660000Y-49104000D01*
X111950000Y-43196000D02*
X103325000Y-43196000D01*
X111950000Y-47104000D02*
X111950000Y-43196000D01*
X111950000Y-47150000D02*
X106900000Y-47196000D01*
X101061000Y-45080000D02*
G75*
G02*
X103325000Y-43196000I2074000J-190000D01*
G01*
X104665000Y-49080000D02*
G75*
G02*
X106925000Y-47200000I2070000J-190000D01*
G01*
%TO.C,SW11*%
X101050000Y-64200000D02*
X101050000Y-68145000D01*
X101050000Y-68154000D02*
X104660000Y-68154000D01*
X111950000Y-62246000D02*
X103325000Y-62246000D01*
X111950000Y-66154000D02*
X111950000Y-62246000D01*
X111950000Y-66200000D02*
X106900000Y-66246000D01*
X101061000Y-64130000D02*
G75*
G02*
X103325000Y-62246000I2074000J-190000D01*
G01*
X104665000Y-68130000D02*
G75*
G02*
X106925000Y-66250000I2070000J-190000D01*
G01*
%TO.C,SW12*%
X101050000Y-83250000D02*
X101050000Y-87195000D01*
X101050000Y-87204000D02*
X104660000Y-87204000D01*
X111950000Y-81296000D02*
X103325000Y-81296000D01*
X111950000Y-85204000D02*
X111950000Y-81296000D01*
X111950000Y-85250000D02*
X106900000Y-85296000D01*
X101061000Y-83180000D02*
G75*
G02*
X103325000Y-81296000I2074000J-190000D01*
G01*
X104665000Y-87180000D02*
G75*
G02*
X106925000Y-85300000I2070000J-190000D01*
G01*
%TO.C,SW13*%
X120100000Y-45150000D02*
X120100000Y-49095000D01*
X120100000Y-49104000D02*
X123710000Y-49104000D01*
X131000000Y-43196000D02*
X122375000Y-43196000D01*
X131000000Y-47104000D02*
X131000000Y-43196000D01*
X131000000Y-47150000D02*
X125950000Y-47196000D01*
X120111000Y-45080000D02*
G75*
G02*
X122375000Y-43196000I2074000J-190000D01*
G01*
X123715000Y-49080000D02*
G75*
G02*
X125975000Y-47200000I2070000J-190000D01*
G01*
%TO.C,SW14*%
X120100000Y-64200000D02*
X120100000Y-68145000D01*
X120100000Y-68154000D02*
X123710000Y-68154000D01*
X131000000Y-62246000D02*
X122375000Y-62246000D01*
X131000000Y-66154000D02*
X131000000Y-62246000D01*
X131000000Y-66200000D02*
X125950000Y-66246000D01*
X120111000Y-64130000D02*
G75*
G02*
X122375000Y-62246000I2074000J-190000D01*
G01*
X123715000Y-68130000D02*
G75*
G02*
X125975000Y-66250000I2070000J-190000D01*
G01*
%TO.C,SW15*%
X120100000Y-83250000D02*
X120100000Y-87195000D01*
X120100000Y-87204000D02*
X123710000Y-87204000D01*
X131000000Y-81296000D02*
X122375000Y-81296000D01*
X131000000Y-85204000D02*
X131000000Y-81296000D01*
X131000000Y-85250000D02*
X125950000Y-85296000D01*
X120111000Y-83180000D02*
G75*
G02*
X122375000Y-81296000I2074000J-190000D01*
G01*
X123715000Y-87180000D02*
G75*
G02*
X125975000Y-85300000I2070000J-190000D01*
G01*
%TO.C,SW16*%
X139150000Y-45150000D02*
X139150000Y-49095000D01*
X139150000Y-49104000D02*
X142760000Y-49104000D01*
X150050000Y-43196000D02*
X141425000Y-43196000D01*
X150050000Y-47104000D02*
X150050000Y-43196000D01*
X150050000Y-47150000D02*
X145000000Y-47196000D01*
X139161000Y-45080000D02*
G75*
G02*
X141425000Y-43196000I2074000J-190000D01*
G01*
X142765000Y-49080000D02*
G75*
G02*
X145025000Y-47200000I2070000J-190000D01*
G01*
%TO.C,SW17*%
X139150000Y-64200000D02*
X139150000Y-68145000D01*
X139150000Y-68154000D02*
X142760000Y-68154000D01*
X150050000Y-62246000D02*
X141425000Y-62246000D01*
X150050000Y-66154000D02*
X150050000Y-62246000D01*
X150050000Y-66200000D02*
X145000000Y-66246000D01*
X139161000Y-64130000D02*
G75*
G02*
X141425000Y-62246000I2074000J-190000D01*
G01*
X142765000Y-68130000D02*
G75*
G02*
X145025000Y-66250000I2070000J-190000D01*
G01*
%TO.C,SW18*%
X139150000Y-83250000D02*
X139150000Y-87195000D01*
X139150000Y-87204000D02*
X142760000Y-87204000D01*
X150050000Y-81296000D02*
X141425000Y-81296000D01*
X150050000Y-85204000D02*
X150050000Y-81296000D01*
X150050000Y-85250000D02*
X145000000Y-85296000D01*
X139161000Y-83180000D02*
G75*
G02*
X141425000Y-81296000I2074000J-190000D01*
G01*
X142765000Y-87180000D02*
G75*
G02*
X145025000Y-85300000I2070000J-190000D01*
G01*
%TO.C,SW19*%
X158200000Y-83250000D02*
X158200000Y-87195000D01*
X158200000Y-87204000D02*
X161810000Y-87204000D01*
X169100000Y-81296000D02*
X160475000Y-81296000D01*
X169100000Y-85204000D02*
X169100000Y-81296000D01*
X169100000Y-85250000D02*
X164050000Y-85296000D01*
X158211000Y-83180000D02*
G75*
G02*
X160475000Y-81296000I2074000J-190000D01*
G01*
X161815000Y-87180000D02*
G75*
G02*
X164075000Y-85300000I2070000J-190000D01*
G01*
%TO.C,D_H1*%
X157002500Y-73735500D02*
X157002500Y-75235500D01*
X157002500Y-75235500D02*
X162402500Y-75235500D01*
X159202500Y-73985500D02*
X159202500Y-74985500D01*
X159302500Y-74485500D02*
X160202500Y-73985500D01*
X160202500Y-73985500D02*
X160202500Y-74985500D01*
X160202500Y-74985500D02*
X159302500Y-74485500D01*
X162402500Y-73735500D02*
X157002500Y-73735500D01*
X162402500Y-75235500D02*
X162402500Y-73735500D01*
D11*
%TO.C,RSTSW1*%
X171147000Y-53922000D02*
X171147000Y-56822000D01*
X171147000Y-53922000D02*
X174547000Y-53922000D01*
X174547000Y-56822000D02*
X171147000Y-56822000D01*
X174547000Y-56822000D02*
X174547000Y-53922000D01*
D10*
%TO.C,D1*%
X57543000Y-54706500D02*
X57543000Y-49306500D01*
X57793000Y-51506500D02*
X58293000Y-52406500D01*
X58293000Y-52406500D02*
X58793000Y-51506500D01*
X58793000Y-51506500D02*
X57793000Y-51506500D01*
X58793000Y-52506500D02*
X57793000Y-52506500D01*
X59043000Y-49306500D02*
X57543000Y-49306500D01*
X59043000Y-49306500D02*
X59043000Y-54706500D01*
X59043000Y-54706500D02*
X57543000Y-54706500D01*
%TO.C,D2*%
X57543000Y-73756500D02*
X57543000Y-68356500D01*
X57793000Y-70556500D02*
X58293000Y-71456500D01*
X58293000Y-71456500D02*
X58793000Y-70556500D01*
X58793000Y-70556500D02*
X57793000Y-70556500D01*
X58793000Y-71556500D02*
X57793000Y-71556500D01*
X59043000Y-68356500D02*
X57543000Y-68356500D01*
X59043000Y-68356500D02*
X59043000Y-73756500D01*
X59043000Y-73756500D02*
X57543000Y-73756500D01*
%TO.C,D3*%
X57543000Y-92806500D02*
X57543000Y-87406500D01*
X57793000Y-89606500D02*
X58293000Y-90506500D01*
X58293000Y-90506500D02*
X58793000Y-89606500D01*
X58793000Y-89606500D02*
X57793000Y-89606500D01*
X58793000Y-90606500D02*
X57793000Y-90606500D01*
X59043000Y-87406500D02*
X57543000Y-87406500D01*
X59043000Y-87406500D02*
X59043000Y-92806500D01*
X59043000Y-92806500D02*
X57543000Y-92806500D01*
%TO.C,D7*%
X95643000Y-54706500D02*
X95643000Y-49306500D01*
X95893000Y-51506500D02*
X96393000Y-52406500D01*
X96393000Y-52406500D02*
X96893000Y-51506500D01*
X96893000Y-51506500D02*
X95893000Y-51506500D01*
X96893000Y-52506500D02*
X95893000Y-52506500D01*
X97143000Y-49306500D02*
X95643000Y-49306500D01*
X97143000Y-49306500D02*
X97143000Y-54706500D01*
X97143000Y-54706500D02*
X95643000Y-54706500D01*
%TO.C,D8*%
X95643000Y-73756500D02*
X95643000Y-68356500D01*
X95893000Y-70556500D02*
X96393000Y-71456500D01*
X96393000Y-71456500D02*
X96893000Y-70556500D01*
X96893000Y-70556500D02*
X95893000Y-70556500D01*
X96893000Y-71556500D02*
X95893000Y-71556500D01*
X97143000Y-68356500D02*
X95643000Y-68356500D01*
X97143000Y-68356500D02*
X97143000Y-73756500D01*
X97143000Y-73756500D02*
X95643000Y-73756500D01*
%TO.C,D10*%
X114693000Y-54706500D02*
X114693000Y-49306500D01*
X114943000Y-51506500D02*
X115443000Y-52406500D01*
X115443000Y-52406500D02*
X115943000Y-51506500D01*
X115943000Y-51506500D02*
X114943000Y-51506500D01*
X115943000Y-52506500D02*
X114943000Y-52506500D01*
X116193000Y-49306500D02*
X114693000Y-49306500D01*
X116193000Y-49306500D02*
X116193000Y-54706500D01*
X116193000Y-54706500D02*
X114693000Y-54706500D01*
%TO.C,D11*%
X114693000Y-73756500D02*
X114693000Y-68356500D01*
X114943000Y-70556500D02*
X115443000Y-71456500D01*
X115443000Y-71456500D02*
X115943000Y-70556500D01*
X115943000Y-70556500D02*
X114943000Y-70556500D01*
X115943000Y-71556500D02*
X114943000Y-71556500D01*
X116193000Y-68356500D02*
X114693000Y-68356500D01*
X116193000Y-68356500D02*
X116193000Y-73756500D01*
X116193000Y-73756500D02*
X114693000Y-73756500D01*
%TO.C,D12*%
X114693000Y-92806500D02*
X114693000Y-87406500D01*
X114943000Y-89606500D02*
X115443000Y-90506500D01*
X115443000Y-90506500D02*
X115943000Y-89606500D01*
X115943000Y-89606500D02*
X114943000Y-89606500D01*
X115943000Y-90606500D02*
X114943000Y-90606500D01*
X116193000Y-87406500D02*
X114693000Y-87406500D01*
X116193000Y-87406500D02*
X116193000Y-92806500D01*
X116193000Y-92806500D02*
X114693000Y-92806500D01*
%TO.C,D14*%
X133743000Y-73756500D02*
X133743000Y-68356500D01*
X133993000Y-70556500D02*
X134493000Y-71456500D01*
X134493000Y-71456500D02*
X134993000Y-70556500D01*
X134993000Y-70556500D02*
X133993000Y-70556500D01*
X134993000Y-71556500D02*
X133993000Y-71556500D01*
X135243000Y-68356500D02*
X133743000Y-68356500D01*
X135243000Y-68356500D02*
X135243000Y-73756500D01*
X135243000Y-73756500D02*
X133743000Y-73756500D01*
%TO.C,D15*%
X133743000Y-92806500D02*
X133743000Y-87406500D01*
X133993000Y-89606500D02*
X134493000Y-90506500D01*
X134493000Y-90506500D02*
X134993000Y-89606500D01*
X134993000Y-89606500D02*
X133993000Y-89606500D01*
X134993000Y-90606500D02*
X133993000Y-90606500D01*
X135243000Y-87406500D02*
X133743000Y-87406500D01*
X135243000Y-87406500D02*
X135243000Y-92806500D01*
X135243000Y-92806500D02*
X133743000Y-92806500D01*
%TO.C,D17*%
X152793000Y-73756500D02*
X152793000Y-68356500D01*
X153043000Y-70556500D02*
X153543000Y-71456500D01*
X153543000Y-71456500D02*
X154043000Y-70556500D01*
X154043000Y-70556500D02*
X153043000Y-70556500D01*
X154043000Y-71556500D02*
X153043000Y-71556500D01*
X154293000Y-68356500D02*
X152793000Y-68356500D01*
X154293000Y-68356500D02*
X154293000Y-73756500D01*
X154293000Y-73756500D02*
X152793000Y-73756500D01*
%TO.C,D18*%
X152793000Y-92806500D02*
X152793000Y-87406500D01*
X153043000Y-89606500D02*
X153543000Y-90506500D01*
X153543000Y-90506500D02*
X154043000Y-89606500D01*
X154043000Y-89606500D02*
X153043000Y-89606500D01*
X154043000Y-90606500D02*
X153043000Y-90606500D01*
X154293000Y-87406500D02*
X152793000Y-87406500D01*
X154293000Y-87406500D02*
X154293000Y-92806500D01*
X154293000Y-92806500D02*
X152793000Y-92806500D01*
%TO.C,D4*%
X76592999Y-54706500D02*
X76592999Y-49306500D01*
X76842999Y-51506500D02*
X77342999Y-52406500D01*
X77342999Y-52406500D02*
X77842999Y-51506500D01*
X77842999Y-51506500D02*
X76842999Y-51506500D01*
X77842999Y-52506500D02*
X76842999Y-52506500D01*
X78092999Y-49306500D02*
X76592999Y-49306500D01*
X78092999Y-49306500D02*
X78092999Y-54706500D01*
X78092999Y-54706500D02*
X76592999Y-54706500D01*
%TO.C,D5*%
X76592999Y-73756500D02*
X76592999Y-68356500D01*
X76842999Y-70556500D02*
X77342999Y-71456500D01*
X77342999Y-71456500D02*
X77842999Y-70556500D01*
X77842999Y-70556500D02*
X76842999Y-70556500D01*
X77842999Y-71556500D02*
X76842999Y-71556500D01*
X78092999Y-68356500D02*
X76592999Y-68356500D01*
X78092999Y-68356500D02*
X78092999Y-73756500D01*
X78092999Y-73756500D02*
X76592999Y-73756500D01*
%TO.C,D6*%
X76592999Y-92806500D02*
X76592999Y-87406500D01*
X76842999Y-89606500D02*
X77342999Y-90506500D01*
X77342999Y-90506500D02*
X77842999Y-89606500D01*
X77842999Y-89606500D02*
X76842999Y-89606500D01*
X77842999Y-90606500D02*
X76842999Y-90606500D01*
X78092999Y-87406500D02*
X76592999Y-87406500D01*
X78092999Y-87406500D02*
X78092999Y-92806500D01*
X78092999Y-92806500D02*
X76592999Y-92806500D01*
%TO.C,D9*%
X95643000Y-92806500D02*
X95643000Y-87406500D01*
X95893000Y-89606500D02*
X96393000Y-90506500D01*
X96393000Y-90506500D02*
X96893000Y-89606500D01*
X96893000Y-89606500D02*
X95893000Y-89606500D01*
X96893000Y-90606500D02*
X95893000Y-90606500D01*
X97143000Y-87406500D02*
X95643000Y-87406500D01*
X97143000Y-87406500D02*
X97143000Y-92806500D01*
X97143000Y-92806500D02*
X95643000Y-92806500D01*
%TO.C,D13*%
X133743000Y-54706500D02*
X133743000Y-49306500D01*
X133993000Y-51506500D02*
X134493000Y-52406500D01*
X134493000Y-52406500D02*
X134993000Y-51506500D01*
X134993000Y-51506500D02*
X133993000Y-51506500D01*
X134993000Y-52506500D02*
X133993000Y-52506500D01*
X135243000Y-49306500D02*
X133743000Y-49306500D01*
X135243000Y-49306500D02*
X135243000Y-54706500D01*
X135243000Y-54706500D02*
X133743000Y-54706500D01*
%TO.C,D16*%
X152793000Y-54706500D02*
X152793000Y-49306500D01*
X153043000Y-51506500D02*
X153543000Y-52406500D01*
X153543000Y-52406500D02*
X154043000Y-51506500D01*
X154043000Y-51506500D02*
X153043000Y-51506500D01*
X154043000Y-52506500D02*
X153043000Y-52506500D01*
X154293000Y-49306500D02*
X152793000Y-49306500D01*
X154293000Y-49306500D02*
X154293000Y-54706500D01*
X154293000Y-54706500D02*
X152793000Y-54706500D01*
%TO.C,D19*%
X171843000Y-92806500D02*
X171843000Y-87406500D01*
X172093000Y-89606500D02*
X172593000Y-90506500D01*
X172593000Y-90506500D02*
X173093000Y-89606500D01*
X173093000Y-89606500D02*
X172093000Y-89606500D01*
X173093000Y-90606500D02*
X172093000Y-90606500D01*
X173343000Y-87406500D02*
X171843000Y-87406500D01*
X173343000Y-87406500D02*
X173343000Y-92806500D01*
X173343000Y-92806500D02*
X171843000Y-92806500D01*
%TD*%
%LPC*%
D12*
%TO.C,HOLE1*%
X59525000Y-59525000D03*
%TD*%
%TO.C,HOLE2*%
X59525000Y-78575000D03*
%TD*%
%TO.C,HOLE7*%
X97625000Y-59525000D03*
%TD*%
%TO.C,HOLE8*%
X97625000Y-78575000D03*
%TD*%
%TO.C,HOLE13*%
X135725000Y-59525000D03*
%TD*%
%TO.C,HOLE14*%
X135725000Y-78575000D03*
%TD*%
D13*
%TO.C,SW1*%
X44500000Y-50000000D03*
D14*
X44920000Y-50000000D03*
D15*
X46190000Y-47460000D03*
X47460000Y-44920000D03*
D16*
X50000000Y-50000000D03*
D15*
X52540000Y-44920000D03*
X53810000Y-47460000D03*
D14*
X55080000Y-50000000D03*
D13*
X55500000Y-50000000D03*
D17*
X43100000Y-47460000D03*
X55600000Y-44920000D03*
%TD*%
D13*
%TO.C,SW2*%
X44500000Y-69050000D03*
D14*
X44920000Y-69050000D03*
D15*
X46190000Y-66510000D03*
X47460000Y-63970000D03*
D16*
X50000000Y-69050000D03*
D15*
X52540000Y-63970000D03*
X53810000Y-66510000D03*
D14*
X55080000Y-69050000D03*
D13*
X55500000Y-69050000D03*
D17*
X43100000Y-66510000D03*
X55600000Y-63970000D03*
%TD*%
D13*
%TO.C,SW3*%
X44500000Y-88100000D03*
D14*
X44920000Y-88100000D03*
D15*
X46190000Y-85560000D03*
X47460000Y-83020000D03*
D16*
X50000000Y-88100000D03*
D15*
X52540000Y-83020000D03*
X53810000Y-85560000D03*
D14*
X55080000Y-88100000D03*
D13*
X55500000Y-88100000D03*
D17*
X43100000Y-85560000D03*
X55600000Y-83020000D03*
%TD*%
D13*
%TO.C,SW4*%
X63550000Y-50000000D03*
D14*
X63970000Y-50000000D03*
D15*
X65240000Y-47460000D03*
X66510000Y-44920000D03*
D16*
X69050000Y-50000000D03*
D15*
X71590000Y-44920000D03*
X72860000Y-47460000D03*
D14*
X74130000Y-50000000D03*
D13*
X74550000Y-50000000D03*
D17*
X62150000Y-47460000D03*
X74650000Y-44920000D03*
%TD*%
D13*
%TO.C,SW5*%
X63550000Y-69050000D03*
D14*
X63970000Y-69050000D03*
D15*
X65240000Y-66510000D03*
X66510000Y-63970000D03*
D16*
X69050000Y-69050000D03*
D15*
X71590000Y-63970000D03*
X72860000Y-66510000D03*
D14*
X74130000Y-69050000D03*
D13*
X74550000Y-69050000D03*
D17*
X62150000Y-66510000D03*
X74650000Y-63970000D03*
%TD*%
D13*
%TO.C,SW6*%
X63550000Y-88100000D03*
D14*
X63970000Y-88100000D03*
D15*
X65240000Y-85560000D03*
X66510000Y-83020000D03*
D16*
X69050000Y-88100000D03*
D15*
X71590000Y-83020000D03*
X72860000Y-85560000D03*
D14*
X74130000Y-88100000D03*
D13*
X74550000Y-88100000D03*
D17*
X62150000Y-85560000D03*
X74650000Y-83020000D03*
%TD*%
D13*
%TO.C,SW7*%
X82600000Y-50000000D03*
D14*
X83020000Y-50000000D03*
D15*
X84290000Y-47460000D03*
X85560000Y-44920000D03*
D16*
X88100000Y-50000000D03*
D15*
X90640000Y-44920000D03*
X91910000Y-47460000D03*
D14*
X93180000Y-50000000D03*
D13*
X93600000Y-50000000D03*
D17*
X81200000Y-47460000D03*
X93700000Y-44920000D03*
%TD*%
D13*
%TO.C,SW8*%
X82600000Y-69050000D03*
D14*
X83020000Y-69050000D03*
D15*
X84290000Y-66510000D03*
X85560000Y-63970000D03*
D16*
X88100000Y-69050000D03*
D15*
X90640000Y-63970000D03*
X91910000Y-66510000D03*
D14*
X93180000Y-69050000D03*
D13*
X93600000Y-69050000D03*
D17*
X81200000Y-66510000D03*
X93700000Y-63970000D03*
%TD*%
D13*
%TO.C,SW9*%
X82600000Y-88100000D03*
D14*
X83020000Y-88100000D03*
D15*
X84290000Y-85560000D03*
X85560000Y-83020000D03*
D16*
X88100000Y-88100000D03*
D15*
X90640000Y-83020000D03*
X91910000Y-85560000D03*
D14*
X93180000Y-88100000D03*
D13*
X93600000Y-88100000D03*
D17*
X81200000Y-85560000D03*
X93700000Y-83020000D03*
%TD*%
D13*
%TO.C,SW10*%
X101650000Y-50000000D03*
D14*
X102070000Y-50000000D03*
D15*
X103340000Y-47460000D03*
X104610000Y-44920000D03*
D16*
X107150000Y-50000000D03*
D15*
X109690000Y-44920000D03*
X110960000Y-47460000D03*
D14*
X112230000Y-50000000D03*
D13*
X112650000Y-50000000D03*
D17*
X100250000Y-47460000D03*
X112750000Y-44920000D03*
%TD*%
D13*
%TO.C,SW11*%
X101650000Y-69050000D03*
D14*
X102070000Y-69050000D03*
D15*
X103340000Y-66510000D03*
X104610000Y-63970000D03*
D16*
X107150000Y-69050000D03*
D15*
X109690000Y-63970000D03*
X110960000Y-66510000D03*
D14*
X112230000Y-69050000D03*
D13*
X112650000Y-69050000D03*
D17*
X100250000Y-66510000D03*
X112750000Y-63970000D03*
%TD*%
D13*
%TO.C,SW12*%
X101650000Y-88100000D03*
D14*
X102070000Y-88100000D03*
D15*
X103340000Y-85560000D03*
X104610000Y-83020000D03*
D16*
X107150000Y-88100000D03*
D15*
X109690000Y-83020000D03*
X110960000Y-85560000D03*
D14*
X112230000Y-88100000D03*
D13*
X112650000Y-88100000D03*
D17*
X100250000Y-85560000D03*
X112750000Y-83020000D03*
%TD*%
D13*
%TO.C,SW13*%
X120700000Y-50000000D03*
D14*
X121120000Y-50000000D03*
D15*
X122390000Y-47460000D03*
X123660000Y-44920000D03*
D16*
X126200000Y-50000000D03*
D15*
X128740000Y-44920000D03*
X130010000Y-47460000D03*
D14*
X131280000Y-50000000D03*
D13*
X131700000Y-50000000D03*
D17*
X119300000Y-47460000D03*
X131800000Y-44920000D03*
%TD*%
D13*
%TO.C,SW14*%
X120700000Y-69050000D03*
D14*
X121120000Y-69050000D03*
D15*
X122390000Y-66510000D03*
X123660000Y-63970000D03*
D16*
X126200000Y-69050000D03*
D15*
X128740000Y-63970000D03*
X130010000Y-66510000D03*
D14*
X131280000Y-69050000D03*
D13*
X131700000Y-69050000D03*
D17*
X119300000Y-66510000D03*
X131800000Y-63970000D03*
%TD*%
D13*
%TO.C,SW15*%
X120700000Y-88100000D03*
D14*
X121120000Y-88100000D03*
D15*
X122390000Y-85560000D03*
X123660000Y-83020000D03*
D16*
X126200000Y-88100000D03*
D15*
X128740000Y-83020000D03*
X130010000Y-85560000D03*
D14*
X131280000Y-88100000D03*
D13*
X131700000Y-88100000D03*
D17*
X119300000Y-85560000D03*
X131800000Y-83020000D03*
%TD*%
D13*
%TO.C,SW16*%
X139750000Y-50000000D03*
D14*
X140170000Y-50000000D03*
D15*
X141440000Y-47460000D03*
X142710000Y-44920000D03*
D16*
X145250000Y-50000000D03*
D15*
X147790000Y-44920000D03*
X149060000Y-47460000D03*
D14*
X150330000Y-50000000D03*
D13*
X150750000Y-50000000D03*
D17*
X138350000Y-47460000D03*
X150850000Y-44920000D03*
%TD*%
D13*
%TO.C,SW17*%
X139750000Y-69050000D03*
D14*
X140170000Y-69050000D03*
D15*
X141440000Y-66510000D03*
X142710000Y-63970000D03*
D16*
X145250000Y-69050000D03*
D15*
X147790000Y-63970000D03*
X149060000Y-66510000D03*
D14*
X150330000Y-69050000D03*
D13*
X150750000Y-69050000D03*
D17*
X138350000Y-66510000D03*
X150850000Y-63970000D03*
%TD*%
D13*
%TO.C,SW18*%
X139750000Y-88100000D03*
D14*
X140170000Y-88100000D03*
D15*
X141440000Y-85560000D03*
X142710000Y-83020000D03*
D16*
X145250000Y-88100000D03*
D15*
X147790000Y-83020000D03*
X149060000Y-85560000D03*
D14*
X150330000Y-88100000D03*
D13*
X150750000Y-88100000D03*
D17*
X138350000Y-85560000D03*
X150850000Y-83020000D03*
%TD*%
D13*
%TO.C,SW19*%
X158800000Y-88100000D03*
D14*
X159220000Y-88100000D03*
D15*
X160490000Y-85560000D03*
X161760000Y-83020000D03*
D16*
X164300000Y-88100000D03*
D15*
X166840000Y-83020000D03*
X168110000Y-85560000D03*
D14*
X169380000Y-88100000D03*
D13*
X169800000Y-88100000D03*
D17*
X157400000Y-85560000D03*
X169900000Y-83020000D03*
%TD*%
D18*
%TO.C,J2*%
X171704000Y-42723000D03*
X171704000Y-49723000D03*
D19*
X168454000Y-47313000D03*
X168454000Y-44313000D03*
X174954000Y-52413000D03*
X168454000Y-51313000D03*
%TD*%
D20*
%TO.C,D_H1*%
X157927500Y-74485500D03*
X161477500Y-74485500D03*
%TD*%
D21*
%TO.C,RSTSW1*%
X172847000Y-54572000D03*
X172847000Y-56272000D03*
D22*
X170597000Y-55372000D03*
X175097000Y-55372000D03*
%TD*%
D23*
%TO.C,D1*%
X58293000Y-53781500D03*
X58293000Y-50231500D03*
%TD*%
%TO.C,D2*%
X58293000Y-72831500D03*
X58293000Y-69281500D03*
%TD*%
%TO.C,D3*%
X58293000Y-91881500D03*
X58293000Y-88331500D03*
%TD*%
%TO.C,D7*%
X96393000Y-53781500D03*
X96393000Y-50231500D03*
%TD*%
%TO.C,D8*%
X96393000Y-72831500D03*
X96393000Y-69281500D03*
%TD*%
%TO.C,D10*%
X115443000Y-53781500D03*
X115443000Y-50231500D03*
%TD*%
%TO.C,D11*%
X115443000Y-72831500D03*
X115443000Y-69281500D03*
%TD*%
%TO.C,D12*%
X115443000Y-91881500D03*
X115443000Y-88331500D03*
%TD*%
%TO.C,D14*%
X134493000Y-72831500D03*
X134493000Y-69281500D03*
%TD*%
%TO.C,D15*%
X134493000Y-91881500D03*
X134493000Y-88331500D03*
%TD*%
%TO.C,D17*%
X153543000Y-72831500D03*
X153543000Y-69281500D03*
%TD*%
%TO.C,D18*%
X153543000Y-91881500D03*
X153543000Y-88331500D03*
%TD*%
%TO.C,D4*%
X77342999Y-53781500D03*
X77342999Y-50231500D03*
%TD*%
%TO.C,D5*%
X77342999Y-72831500D03*
X77342999Y-69281500D03*
%TD*%
%TO.C,D6*%
X77342999Y-91881500D03*
X77342999Y-88331500D03*
%TD*%
%TO.C,D9*%
X96393000Y-91881500D03*
X96393000Y-88331500D03*
%TD*%
%TO.C,D13*%
X134493000Y-53781500D03*
X134493000Y-50231500D03*
%TD*%
%TO.C,D16*%
X153543000Y-53781500D03*
X153543000Y-50231500D03*
%TD*%
%TO.C,D19*%
X172593000Y-91881500D03*
X172593000Y-88331500D03*
%TD*%
%LPD*%
M02*
