%TF.GenerationSoftware,KiCad,Pcbnew,8.0.7*%
%TF.CreationDate,2024-12-28T18:02:33+09:00*%
%TF.ProjectId,pisces,70697363-6573-42e6-9b69-6361645f7063,rev?*%
%TF.SameCoordinates,Original*%
%TF.FileFunction,Soldermask,Bot*%
%TF.FilePolarity,Negative*%
%FSLAX46Y46*%
G04 Gerber Fmt 4.6, Leading zero omitted, Abs format (unit mm)*
G04 Created by KiCad (PCBNEW 8.0.7) date 2024-12-28 18:02:33*
%MOMM*%
%LPD*%
G01*
G04 APERTURE LIST*
%ADD10C,5.000000*%
%ADD11C,1.900000*%
%ADD12C,1.700000*%
%ADD13C,3.000000*%
%ADD14C,4.000000*%
%ADD15R,2.000000X2.000000*%
%ADD16C,1.500000*%
%ADD17R,2.500000X1.200000*%
%ADD18R,1.300000X0.950000*%
%ADD19C,0.750000*%
%ADD20R,1.100000X1.600000*%
%ADD21R,0.950000X1.300000*%
G04 APERTURE END LIST*
D10*
%TO.C,HOLE1*%
X59525000Y-59525000D03*
%TD*%
%TO.C,HOLE2*%
X59525000Y-78575000D03*
%TD*%
%TO.C,HOLE7*%
X97625000Y-59525000D03*
%TD*%
%TO.C,HOLE8*%
X97625000Y-78575000D03*
%TD*%
%TO.C,HOLE13*%
X135725000Y-59525000D03*
%TD*%
%TO.C,HOLE14*%
X135725000Y-78575000D03*
%TD*%
D11*
%TO.C,SW1*%
X44500000Y-50000000D03*
D12*
X44920000Y-50000000D03*
D13*
X46190000Y-47460000D03*
X47460000Y-44920000D03*
D14*
X50000000Y-50000000D03*
D13*
X52540000Y-44920000D03*
X53810000Y-47460000D03*
D12*
X55080000Y-50000000D03*
D11*
X55500000Y-50000000D03*
D15*
X43100000Y-47460000D03*
X55600000Y-44920000D03*
%TD*%
D11*
%TO.C,SW2*%
X44500000Y-69050000D03*
D12*
X44920000Y-69050000D03*
D13*
X46190000Y-66510000D03*
X47460000Y-63970000D03*
D14*
X50000000Y-69050000D03*
D13*
X52540000Y-63970000D03*
X53810000Y-66510000D03*
D12*
X55080000Y-69050000D03*
D11*
X55500000Y-69050000D03*
D15*
X43100000Y-66510000D03*
X55600000Y-63970000D03*
%TD*%
D11*
%TO.C,SW3*%
X44500000Y-88100000D03*
D12*
X44920000Y-88100000D03*
D13*
X46190000Y-85560000D03*
X47460000Y-83020000D03*
D14*
X50000000Y-88100000D03*
D13*
X52540000Y-83020000D03*
X53810000Y-85560000D03*
D12*
X55080000Y-88100000D03*
D11*
X55500000Y-88100000D03*
D15*
X43100000Y-85560000D03*
X55600000Y-83020000D03*
%TD*%
D11*
%TO.C,SW4*%
X63550000Y-50000000D03*
D12*
X63970000Y-50000000D03*
D13*
X65240000Y-47460000D03*
X66510000Y-44920000D03*
D14*
X69050000Y-50000000D03*
D13*
X71590000Y-44920000D03*
X72860000Y-47460000D03*
D12*
X74130000Y-50000000D03*
D11*
X74550000Y-50000000D03*
D15*
X62150000Y-47460000D03*
X74650000Y-44920000D03*
%TD*%
D11*
%TO.C,SW5*%
X63550000Y-69050000D03*
D12*
X63970000Y-69050000D03*
D13*
X65240000Y-66510000D03*
X66510000Y-63970000D03*
D14*
X69050000Y-69050000D03*
D13*
X71590000Y-63970000D03*
X72860000Y-66510000D03*
D12*
X74130000Y-69050000D03*
D11*
X74550000Y-69050000D03*
D15*
X62150000Y-66510000D03*
X74650000Y-63970000D03*
%TD*%
D11*
%TO.C,SW6*%
X63550000Y-88100000D03*
D12*
X63970000Y-88100000D03*
D13*
X65240000Y-85560000D03*
X66510000Y-83020000D03*
D14*
X69050000Y-88100000D03*
D13*
X71590000Y-83020000D03*
X72860000Y-85560000D03*
D12*
X74130000Y-88100000D03*
D11*
X74550000Y-88100000D03*
D15*
X62150000Y-85560000D03*
X74650000Y-83020000D03*
%TD*%
D11*
%TO.C,SW7*%
X82600000Y-50000000D03*
D12*
X83020000Y-50000000D03*
D13*
X84290000Y-47460000D03*
X85560000Y-44920000D03*
D14*
X88100000Y-50000000D03*
D13*
X90640000Y-44920000D03*
X91910000Y-47460000D03*
D12*
X93180000Y-50000000D03*
D11*
X93600000Y-50000000D03*
D15*
X81200000Y-47460000D03*
X93700000Y-44920000D03*
%TD*%
D11*
%TO.C,SW8*%
X82600000Y-69050000D03*
D12*
X83020000Y-69050000D03*
D13*
X84290000Y-66510000D03*
X85560000Y-63970000D03*
D14*
X88100000Y-69050000D03*
D13*
X90640000Y-63970000D03*
X91910000Y-66510000D03*
D12*
X93180000Y-69050000D03*
D11*
X93600000Y-69050000D03*
D15*
X81200000Y-66510000D03*
X93700000Y-63970000D03*
%TD*%
D11*
%TO.C,SW9*%
X82600000Y-88100000D03*
D12*
X83020000Y-88100000D03*
D13*
X84290000Y-85560000D03*
X85560000Y-83020000D03*
D14*
X88100000Y-88100000D03*
D13*
X90640000Y-83020000D03*
X91910000Y-85560000D03*
D12*
X93180000Y-88100000D03*
D11*
X93600000Y-88100000D03*
D15*
X81200000Y-85560000D03*
X93700000Y-83020000D03*
%TD*%
D11*
%TO.C,SW10*%
X101650000Y-50000000D03*
D12*
X102070000Y-50000000D03*
D13*
X103340000Y-47460000D03*
X104610000Y-44920000D03*
D14*
X107150000Y-50000000D03*
D13*
X109690000Y-44920000D03*
X110960000Y-47460000D03*
D12*
X112230000Y-50000000D03*
D11*
X112650000Y-50000000D03*
D15*
X100250000Y-47460000D03*
X112750000Y-44920000D03*
%TD*%
D11*
%TO.C,SW11*%
X101650000Y-69050000D03*
D12*
X102070000Y-69050000D03*
D13*
X103340000Y-66510000D03*
X104610000Y-63970000D03*
D14*
X107150000Y-69050000D03*
D13*
X109690000Y-63970000D03*
X110960000Y-66510000D03*
D12*
X112230000Y-69050000D03*
D11*
X112650000Y-69050000D03*
D15*
X100250000Y-66510000D03*
X112750000Y-63970000D03*
%TD*%
D11*
%TO.C,SW12*%
X101650000Y-88100000D03*
D12*
X102070000Y-88100000D03*
D13*
X103340000Y-85560000D03*
X104610000Y-83020000D03*
D14*
X107150000Y-88100000D03*
D13*
X109690000Y-83020000D03*
X110960000Y-85560000D03*
D12*
X112230000Y-88100000D03*
D11*
X112650000Y-88100000D03*
D15*
X100250000Y-85560000D03*
X112750000Y-83020000D03*
%TD*%
D11*
%TO.C,SW13*%
X120700000Y-50000000D03*
D12*
X121120000Y-50000000D03*
D13*
X122390000Y-47460000D03*
X123660000Y-44920000D03*
D14*
X126200000Y-50000000D03*
D13*
X128740000Y-44920000D03*
X130010000Y-47460000D03*
D12*
X131280000Y-50000000D03*
D11*
X131700000Y-50000000D03*
D15*
X119300000Y-47460000D03*
X131800000Y-44920000D03*
%TD*%
D11*
%TO.C,SW14*%
X120700000Y-69050000D03*
D12*
X121120000Y-69050000D03*
D13*
X122390000Y-66510000D03*
X123660000Y-63970000D03*
D14*
X126200000Y-69050000D03*
D13*
X128740000Y-63970000D03*
X130010000Y-66510000D03*
D12*
X131280000Y-69050000D03*
D11*
X131700000Y-69050000D03*
D15*
X119300000Y-66510000D03*
X131800000Y-63970000D03*
%TD*%
D11*
%TO.C,SW15*%
X120700000Y-88100000D03*
D12*
X121120000Y-88100000D03*
D13*
X122390000Y-85560000D03*
X123660000Y-83020000D03*
D14*
X126200000Y-88100000D03*
D13*
X128740000Y-83020000D03*
X130010000Y-85560000D03*
D12*
X131280000Y-88100000D03*
D11*
X131700000Y-88100000D03*
D15*
X119300000Y-85560000D03*
X131800000Y-83020000D03*
%TD*%
D11*
%TO.C,SW16*%
X139750000Y-50000000D03*
D12*
X140170000Y-50000000D03*
D13*
X141440000Y-47460000D03*
X142710000Y-44920000D03*
D14*
X145250000Y-50000000D03*
D13*
X147790000Y-44920000D03*
X149060000Y-47460000D03*
D12*
X150330000Y-50000000D03*
D11*
X150750000Y-50000000D03*
D15*
X138350000Y-47460000D03*
X150850000Y-44920000D03*
%TD*%
D11*
%TO.C,SW17*%
X139750000Y-69050000D03*
D12*
X140170000Y-69050000D03*
D13*
X141440000Y-66510000D03*
X142710000Y-63970000D03*
D14*
X145250000Y-69050000D03*
D13*
X147790000Y-63970000D03*
X149060000Y-66510000D03*
D12*
X150330000Y-69050000D03*
D11*
X150750000Y-69050000D03*
D15*
X138350000Y-66510000D03*
X150850000Y-63970000D03*
%TD*%
D11*
%TO.C,SW18*%
X139750000Y-88100000D03*
D12*
X140170000Y-88100000D03*
D13*
X141440000Y-85560000D03*
X142710000Y-83020000D03*
D14*
X145250000Y-88100000D03*
D13*
X147790000Y-83020000D03*
X149060000Y-85560000D03*
D12*
X150330000Y-88100000D03*
D11*
X150750000Y-88100000D03*
D15*
X138350000Y-85560000D03*
X150850000Y-83020000D03*
%TD*%
D11*
%TO.C,SW19*%
X158800000Y-88100000D03*
D12*
X159220000Y-88100000D03*
D13*
X160490000Y-85560000D03*
X161760000Y-83020000D03*
D14*
X164300000Y-88100000D03*
D13*
X166840000Y-83020000D03*
X168110000Y-85560000D03*
D12*
X169380000Y-88100000D03*
D11*
X169800000Y-88100000D03*
D15*
X157400000Y-85560000D03*
X169900000Y-83020000D03*
%TD*%
D16*
%TO.C,J2*%
X171704000Y-42723000D03*
X171704000Y-49723000D03*
D17*
X168454000Y-47313000D03*
X168454000Y-44313000D03*
X174954000Y-52413000D03*
X168454000Y-51313000D03*
%TD*%
D18*
%TO.C,D_H1*%
X157927500Y-74485500D03*
X161477500Y-74485500D03*
%TD*%
D19*
%TO.C,RSTSW1*%
X172847000Y-54572000D03*
X172847000Y-56272000D03*
D20*
X170597000Y-55372000D03*
X175097000Y-55372000D03*
%TD*%
D21*
%TO.C,D1*%
X58293000Y-53781500D03*
X58293000Y-50231500D03*
%TD*%
%TO.C,D2*%
X58293000Y-72831500D03*
X58293000Y-69281500D03*
%TD*%
%TO.C,D3*%
X58293000Y-91881500D03*
X58293000Y-88331500D03*
%TD*%
%TO.C,D7*%
X96393000Y-53781500D03*
X96393000Y-50231500D03*
%TD*%
%TO.C,D8*%
X96393000Y-72831500D03*
X96393000Y-69281500D03*
%TD*%
%TO.C,D10*%
X115443000Y-53781500D03*
X115443000Y-50231500D03*
%TD*%
%TO.C,D11*%
X115443000Y-72831500D03*
X115443000Y-69281500D03*
%TD*%
%TO.C,D12*%
X115443000Y-91881500D03*
X115443000Y-88331500D03*
%TD*%
%TO.C,D14*%
X134493000Y-72831500D03*
X134493000Y-69281500D03*
%TD*%
%TO.C,D15*%
X134493000Y-91881500D03*
X134493000Y-88331500D03*
%TD*%
%TO.C,D17*%
X153543000Y-72831500D03*
X153543000Y-69281500D03*
%TD*%
%TO.C,D18*%
X153543000Y-91881500D03*
X153543000Y-88331500D03*
%TD*%
%TO.C,D4*%
X77342999Y-53781500D03*
X77342999Y-50231500D03*
%TD*%
%TO.C,D5*%
X77342999Y-72831500D03*
X77342999Y-69281500D03*
%TD*%
%TO.C,D6*%
X77342999Y-91881500D03*
X77342999Y-88331500D03*
%TD*%
%TO.C,D9*%
X96393000Y-91881500D03*
X96393000Y-88331500D03*
%TD*%
%TO.C,D13*%
X134493000Y-53781500D03*
X134493000Y-50231500D03*
%TD*%
%TO.C,D16*%
X153543000Y-53781500D03*
X153543000Y-50231500D03*
%TD*%
%TO.C,D19*%
X172593000Y-91881500D03*
X172593000Y-88331500D03*
%TD*%
M02*
