%TF.GenerationSoftware,KiCad,Pcbnew,8.0.7*%
%TF.CreationDate,2024-12-30T11:07:06+09:00*%
%TF.ProjectId,pisces,70697363-6573-42e6-9b69-6361645f7063,rev?*%
%TF.SameCoordinates,Original*%
%TF.FileFunction,Legend,Top*%
%TF.FilePolarity,Positive*%
%FSLAX46Y46*%
G04 Gerber Fmt 4.6, Leading zero omitted, Abs format (unit mm)*
G04 Created by KiCad (PCBNEW 8.0.7) date 2024-12-30 11:07:06*
%MOMM*%
%LPD*%
G01*
G04 APERTURE LIST*
G04 Aperture macros list*
%AMRoundRect*
0 Rectangle with rounded corners*
0 $1 Rounding radius*
0 $2 $3 $4 $5 $6 $7 $8 $9 X,Y pos of 4 corners*
0 Add a 4 corners polygon primitive as box body*
4,1,4,$2,$3,$4,$5,$6,$7,$8,$9,$2,$3,0*
0 Add four circle primitives for the rounded corners*
1,1,$1+$1,$2,$3*
1,1,$1+$1,$4,$5*
1,1,$1+$1,$6,$7*
1,1,$1+$1,$8,$9*
0 Add four rect primitives between the rounded corners*
20,1,$1+$1,$2,$3,$4,$5,0*
20,1,$1+$1,$4,$5,$6,$7,0*
20,1,$1+$1,$6,$7,$8,$9,0*
20,1,$1+$1,$8,$9,$2,$3,0*%
G04 Aperture macros list end*
%ADD10C,0.150000*%
%ADD11C,0.120000*%
%ADD12C,0.127000*%
%ADD13C,5.000000*%
%ADD14RoundRect,0.140000X0.140000X0.170000X-0.140000X0.170000X-0.140000X-0.170000X0.140000X-0.170000X0*%
%ADD15RoundRect,0.140000X-0.140000X-0.170000X0.140000X-0.170000X0.140000X0.170000X-0.140000X0.170000X0*%
%ADD16RoundRect,0.250000X0.250000X0.475000X-0.250000X0.475000X-0.250000X-0.475000X0.250000X-0.475000X0*%
%ADD17RoundRect,0.225000X0.225000X0.250000X-0.225000X0.250000X-0.225000X-0.250000X0.225000X-0.250000X0*%
%ADD18R,1.060000X1.820000*%
%ADD19C,0.650000*%
%ADD20R,0.300000X1.150000*%
%ADD21O,1.000000X2.100000*%
%ADD22O,1.000000X1.600000*%
%ADD23RoundRect,0.200000X0.200000X0.275000X-0.200000X0.275000X-0.200000X-0.275000X0.200000X-0.275000X0*%
%ADD24RoundRect,0.200000X-0.200000X-0.275000X0.200000X-0.275000X0.200000X0.275000X-0.200000X0.275000X0*%
%ADD25C,1.900000*%
%ADD26C,1.700000*%
%ADD27C,3.000000*%
%ADD28C,4.000000*%
%ADD29R,2.000000X2.000000*%
%ADD30R,1.600000X0.550000*%
%ADD31R,0.550000X1.600000*%
%ADD32R,1.400000X1.200000*%
%ADD33C,1.500000*%
%ADD34R,2.500000X1.200000*%
%ADD35R,1.300000X0.950000*%
%ADD36C,0.750000*%
%ADD37R,1.100000X1.600000*%
%ADD38RoundRect,0.135000X0.135000X0.185000X-0.135000X0.185000X-0.135000X-0.185000X0.135000X-0.185000X0*%
%ADD39R,0.950000X1.300000*%
G04 APERTURE END LIST*
D10*
X165191643Y-68336819D02*
X165191643Y-67336819D01*
X165191643Y-67336819D02*
X165429738Y-67336819D01*
X165429738Y-67336819D02*
X165572595Y-67384438D01*
X165572595Y-67384438D02*
X165667833Y-67479676D01*
X165667833Y-67479676D02*
X165715452Y-67574914D01*
X165715452Y-67574914D02*
X165763071Y-67765390D01*
X165763071Y-67765390D02*
X165763071Y-67908247D01*
X165763071Y-67908247D02*
X165715452Y-68098723D01*
X165715452Y-68098723D02*
X165667833Y-68193961D01*
X165667833Y-68193961D02*
X165572595Y-68289200D01*
X165572595Y-68289200D02*
X165429738Y-68336819D01*
X165429738Y-68336819D02*
X165191643Y-68336819D01*
X165953548Y-68432057D02*
X166715452Y-68432057D01*
X166953548Y-68336819D02*
X166953548Y-67336819D01*
X166953548Y-67813009D02*
X167524976Y-67813009D01*
X167524976Y-68336819D02*
X167524976Y-67336819D01*
X168524976Y-68336819D02*
X167953548Y-68336819D01*
X168239262Y-68336819D02*
X168239262Y-67336819D01*
X168239262Y-67336819D02*
X168144024Y-67479676D01*
X168144024Y-67479676D02*
X168048786Y-67574914D01*
X168048786Y-67574914D02*
X167953548Y-67622533D01*
X166985333Y-54733080D02*
X166937714Y-54780700D01*
X166937714Y-54780700D02*
X166794857Y-54828319D01*
X166794857Y-54828319D02*
X166699619Y-54828319D01*
X166699619Y-54828319D02*
X166556762Y-54780700D01*
X166556762Y-54780700D02*
X166461524Y-54685461D01*
X166461524Y-54685461D02*
X166413905Y-54590223D01*
X166413905Y-54590223D02*
X166366286Y-54399747D01*
X166366286Y-54399747D02*
X166366286Y-54256890D01*
X166366286Y-54256890D02*
X166413905Y-54066414D01*
X166413905Y-54066414D02*
X166461524Y-53971176D01*
X166461524Y-53971176D02*
X166556762Y-53875938D01*
X166556762Y-53875938D02*
X166699619Y-53828319D01*
X166699619Y-53828319D02*
X166794857Y-53828319D01*
X166794857Y-53828319D02*
X166937714Y-53875938D01*
X166937714Y-53875938D02*
X166985333Y-53923557D01*
X167937714Y-54828319D02*
X167366286Y-54828319D01*
X167652000Y-54828319D02*
X167652000Y-53828319D01*
X167652000Y-53828319D02*
X167556762Y-53971176D01*
X167556762Y-53971176D02*
X167461524Y-54066414D01*
X167461524Y-54066414D02*
X167366286Y-54114033D01*
X166985333Y-58128080D02*
X166937714Y-58175700D01*
X166937714Y-58175700D02*
X166794857Y-58223319D01*
X166794857Y-58223319D02*
X166699619Y-58223319D01*
X166699619Y-58223319D02*
X166556762Y-58175700D01*
X166556762Y-58175700D02*
X166461524Y-58080461D01*
X166461524Y-58080461D02*
X166413905Y-57985223D01*
X166413905Y-57985223D02*
X166366286Y-57794747D01*
X166366286Y-57794747D02*
X166366286Y-57651890D01*
X166366286Y-57651890D02*
X166413905Y-57461414D01*
X166413905Y-57461414D02*
X166461524Y-57366176D01*
X166461524Y-57366176D02*
X166556762Y-57270938D01*
X166556762Y-57270938D02*
X166699619Y-57223319D01*
X166699619Y-57223319D02*
X166794857Y-57223319D01*
X166794857Y-57223319D02*
X166937714Y-57270938D01*
X166937714Y-57270938D02*
X166985333Y-57318557D01*
X167366286Y-57318557D02*
X167413905Y-57270938D01*
X167413905Y-57270938D02*
X167509143Y-57223319D01*
X167509143Y-57223319D02*
X167747238Y-57223319D01*
X167747238Y-57223319D02*
X167842476Y-57270938D01*
X167842476Y-57270938D02*
X167890095Y-57318557D01*
X167890095Y-57318557D02*
X167937714Y-57413795D01*
X167937714Y-57413795D02*
X167937714Y-57509033D01*
X167937714Y-57509033D02*
X167890095Y-57651890D01*
X167890095Y-57651890D02*
X167318667Y-58223319D01*
X167318667Y-58223319D02*
X167937714Y-58223319D01*
X175875333Y-51240580D02*
X175827714Y-51288200D01*
X175827714Y-51288200D02*
X175684857Y-51335819D01*
X175684857Y-51335819D02*
X175589619Y-51335819D01*
X175589619Y-51335819D02*
X175446762Y-51288200D01*
X175446762Y-51288200D02*
X175351524Y-51192961D01*
X175351524Y-51192961D02*
X175303905Y-51097723D01*
X175303905Y-51097723D02*
X175256286Y-50907247D01*
X175256286Y-50907247D02*
X175256286Y-50764390D01*
X175256286Y-50764390D02*
X175303905Y-50573914D01*
X175303905Y-50573914D02*
X175351524Y-50478676D01*
X175351524Y-50478676D02*
X175446762Y-50383438D01*
X175446762Y-50383438D02*
X175589619Y-50335819D01*
X175589619Y-50335819D02*
X175684857Y-50335819D01*
X175684857Y-50335819D02*
X175827714Y-50383438D01*
X175827714Y-50383438D02*
X175875333Y-50431057D01*
X176208667Y-50335819D02*
X176827714Y-50335819D01*
X176827714Y-50335819D02*
X176494381Y-50716771D01*
X176494381Y-50716771D02*
X176637238Y-50716771D01*
X176637238Y-50716771D02*
X176732476Y-50764390D01*
X176732476Y-50764390D02*
X176780095Y-50812009D01*
X176780095Y-50812009D02*
X176827714Y-50907247D01*
X176827714Y-50907247D02*
X176827714Y-51145342D01*
X176827714Y-51145342D02*
X176780095Y-51240580D01*
X176780095Y-51240580D02*
X176732476Y-51288200D01*
X176732476Y-51288200D02*
X176637238Y-51335819D01*
X176637238Y-51335819D02*
X176351524Y-51335819D01*
X176351524Y-51335819D02*
X176256286Y-51288200D01*
X176256286Y-51288200D02*
X176208667Y-51240580D01*
X171303333Y-52014580D02*
X171255714Y-52062200D01*
X171255714Y-52062200D02*
X171112857Y-52109819D01*
X171112857Y-52109819D02*
X171017619Y-52109819D01*
X171017619Y-52109819D02*
X170874762Y-52062200D01*
X170874762Y-52062200D02*
X170779524Y-51966961D01*
X170779524Y-51966961D02*
X170731905Y-51871723D01*
X170731905Y-51871723D02*
X170684286Y-51681247D01*
X170684286Y-51681247D02*
X170684286Y-51538390D01*
X170684286Y-51538390D02*
X170731905Y-51347914D01*
X170731905Y-51347914D02*
X170779524Y-51252676D01*
X170779524Y-51252676D02*
X170874762Y-51157438D01*
X170874762Y-51157438D02*
X171017619Y-51109819D01*
X171017619Y-51109819D02*
X171112857Y-51109819D01*
X171112857Y-51109819D02*
X171255714Y-51157438D01*
X171255714Y-51157438D02*
X171303333Y-51205057D01*
X172160476Y-51443152D02*
X172160476Y-52109819D01*
X171922381Y-51062200D02*
X171684286Y-51776485D01*
X171684286Y-51776485D02*
X172303333Y-51776485D01*
X166350333Y-62789580D02*
X166302714Y-62837200D01*
X166302714Y-62837200D02*
X166159857Y-62884819D01*
X166159857Y-62884819D02*
X166064619Y-62884819D01*
X166064619Y-62884819D02*
X165921762Y-62837200D01*
X165921762Y-62837200D02*
X165826524Y-62741961D01*
X165826524Y-62741961D02*
X165778905Y-62646723D01*
X165778905Y-62646723D02*
X165731286Y-62456247D01*
X165731286Y-62456247D02*
X165731286Y-62313390D01*
X165731286Y-62313390D02*
X165778905Y-62122914D01*
X165778905Y-62122914D02*
X165826524Y-62027676D01*
X165826524Y-62027676D02*
X165921762Y-61932438D01*
X165921762Y-61932438D02*
X166064619Y-61884819D01*
X166064619Y-61884819D02*
X166159857Y-61884819D01*
X166159857Y-61884819D02*
X166302714Y-61932438D01*
X166302714Y-61932438D02*
X166350333Y-61980057D01*
X167255095Y-61884819D02*
X166778905Y-61884819D01*
X166778905Y-61884819D02*
X166731286Y-62361009D01*
X166731286Y-62361009D02*
X166778905Y-62313390D01*
X166778905Y-62313390D02*
X166874143Y-62265771D01*
X166874143Y-62265771D02*
X167112238Y-62265771D01*
X167112238Y-62265771D02*
X167207476Y-62313390D01*
X167207476Y-62313390D02*
X167255095Y-62361009D01*
X167255095Y-62361009D02*
X167302714Y-62456247D01*
X167302714Y-62456247D02*
X167302714Y-62694342D01*
X167302714Y-62694342D02*
X167255095Y-62789580D01*
X167255095Y-62789580D02*
X167207476Y-62837200D01*
X167207476Y-62837200D02*
X167112238Y-62884819D01*
X167112238Y-62884819D02*
X166874143Y-62884819D01*
X166874143Y-62884819D02*
X166778905Y-62837200D01*
X166778905Y-62837200D02*
X166731286Y-62789580D01*
X171303333Y-53590080D02*
X171255714Y-53637700D01*
X171255714Y-53637700D02*
X171112857Y-53685319D01*
X171112857Y-53685319D02*
X171017619Y-53685319D01*
X171017619Y-53685319D02*
X170874762Y-53637700D01*
X170874762Y-53637700D02*
X170779524Y-53542461D01*
X170779524Y-53542461D02*
X170731905Y-53447223D01*
X170731905Y-53447223D02*
X170684286Y-53256747D01*
X170684286Y-53256747D02*
X170684286Y-53113890D01*
X170684286Y-53113890D02*
X170731905Y-52923414D01*
X170731905Y-52923414D02*
X170779524Y-52828176D01*
X170779524Y-52828176D02*
X170874762Y-52732938D01*
X170874762Y-52732938D02*
X171017619Y-52685319D01*
X171017619Y-52685319D02*
X171112857Y-52685319D01*
X171112857Y-52685319D02*
X171255714Y-52732938D01*
X171255714Y-52732938D02*
X171303333Y-52780557D01*
X172160476Y-52685319D02*
X171970000Y-52685319D01*
X171970000Y-52685319D02*
X171874762Y-52732938D01*
X171874762Y-52732938D02*
X171827143Y-52780557D01*
X171827143Y-52780557D02*
X171731905Y-52923414D01*
X171731905Y-52923414D02*
X171684286Y-53113890D01*
X171684286Y-53113890D02*
X171684286Y-53494842D01*
X171684286Y-53494842D02*
X171731905Y-53590080D01*
X171731905Y-53590080D02*
X171779524Y-53637700D01*
X171779524Y-53637700D02*
X171874762Y-53685319D01*
X171874762Y-53685319D02*
X172065238Y-53685319D01*
X172065238Y-53685319D02*
X172160476Y-53637700D01*
X172160476Y-53637700D02*
X172208095Y-53590080D01*
X172208095Y-53590080D02*
X172255714Y-53494842D01*
X172255714Y-53494842D02*
X172255714Y-53256747D01*
X172255714Y-53256747D02*
X172208095Y-53161509D01*
X172208095Y-53161509D02*
X172160476Y-53113890D01*
X172160476Y-53113890D02*
X172065238Y-53066271D01*
X172065238Y-53066271D02*
X171874762Y-53066271D01*
X171874762Y-53066271D02*
X171779524Y-53113890D01*
X171779524Y-53113890D02*
X171731905Y-53161509D01*
X171731905Y-53161509D02*
X171684286Y-53256747D01*
X168217833Y-43443247D02*
X167951167Y-43443247D01*
X167951167Y-43862295D02*
X167951167Y-43062295D01*
X167951167Y-43062295D02*
X168332119Y-43062295D01*
X169055928Y-43862295D02*
X168598785Y-43862295D01*
X168827357Y-43862295D02*
X168827357Y-43062295D01*
X168827357Y-43062295D02*
X168751166Y-43176580D01*
X168751166Y-43176580D02*
X168674976Y-43252771D01*
X168674976Y-43252771D02*
X168598785Y-43290866D01*
X167326666Y-39863319D02*
X167326666Y-40577604D01*
X167326666Y-40577604D02*
X167279047Y-40720461D01*
X167279047Y-40720461D02*
X167183809Y-40815700D01*
X167183809Y-40815700D02*
X167040952Y-40863319D01*
X167040952Y-40863319D02*
X166945714Y-40863319D01*
X168326666Y-40863319D02*
X167755238Y-40863319D01*
X168040952Y-40863319D02*
X168040952Y-39863319D01*
X168040952Y-39863319D02*
X167945714Y-40006176D01*
X167945714Y-40006176D02*
X167850476Y-40101414D01*
X167850476Y-40101414D02*
X167755238Y-40149033D01*
X170465333Y-45003319D02*
X170132000Y-44527128D01*
X169893905Y-45003319D02*
X169893905Y-44003319D01*
X169893905Y-44003319D02*
X170274857Y-44003319D01*
X170274857Y-44003319D02*
X170370095Y-44050938D01*
X170370095Y-44050938D02*
X170417714Y-44098557D01*
X170417714Y-44098557D02*
X170465333Y-44193795D01*
X170465333Y-44193795D02*
X170465333Y-44336652D01*
X170465333Y-44336652D02*
X170417714Y-44431890D01*
X170417714Y-44431890D02*
X170370095Y-44479509D01*
X170370095Y-44479509D02*
X170274857Y-44527128D01*
X170274857Y-44527128D02*
X169893905Y-44527128D01*
X171417714Y-45003319D02*
X170846286Y-45003319D01*
X171132000Y-45003319D02*
X171132000Y-44003319D01*
X171132000Y-44003319D02*
X171036762Y-44146176D01*
X171036762Y-44146176D02*
X170941524Y-44241414D01*
X170941524Y-44241414D02*
X170846286Y-44289033D01*
X170490333Y-46503319D02*
X170157000Y-46027128D01*
X169918905Y-46503319D02*
X169918905Y-45503319D01*
X169918905Y-45503319D02*
X170299857Y-45503319D01*
X170299857Y-45503319D02*
X170395095Y-45550938D01*
X170395095Y-45550938D02*
X170442714Y-45598557D01*
X170442714Y-45598557D02*
X170490333Y-45693795D01*
X170490333Y-45693795D02*
X170490333Y-45836652D01*
X170490333Y-45836652D02*
X170442714Y-45931890D01*
X170442714Y-45931890D02*
X170395095Y-45979509D01*
X170395095Y-45979509D02*
X170299857Y-46027128D01*
X170299857Y-46027128D02*
X169918905Y-46027128D01*
X170871286Y-45598557D02*
X170918905Y-45550938D01*
X170918905Y-45550938D02*
X171014143Y-45503319D01*
X171014143Y-45503319D02*
X171252238Y-45503319D01*
X171252238Y-45503319D02*
X171347476Y-45550938D01*
X171347476Y-45550938D02*
X171395095Y-45598557D01*
X171395095Y-45598557D02*
X171442714Y-45693795D01*
X171442714Y-45693795D02*
X171442714Y-45789033D01*
X171442714Y-45789033D02*
X171395095Y-45931890D01*
X171395095Y-45931890D02*
X170823667Y-46503319D01*
X170823667Y-46503319D02*
X171442714Y-46503319D01*
X180955333Y-48936319D02*
X180622000Y-48460128D01*
X180383905Y-48936319D02*
X180383905Y-47936319D01*
X180383905Y-47936319D02*
X180764857Y-47936319D01*
X180764857Y-47936319D02*
X180860095Y-47983938D01*
X180860095Y-47983938D02*
X180907714Y-48031557D01*
X180907714Y-48031557D02*
X180955333Y-48126795D01*
X180955333Y-48126795D02*
X180955333Y-48269652D01*
X180955333Y-48269652D02*
X180907714Y-48364890D01*
X180907714Y-48364890D02*
X180860095Y-48412509D01*
X180860095Y-48412509D02*
X180764857Y-48460128D01*
X180764857Y-48460128D02*
X180383905Y-48460128D01*
X181288667Y-47936319D02*
X181907714Y-47936319D01*
X181907714Y-47936319D02*
X181574381Y-48317271D01*
X181574381Y-48317271D02*
X181717238Y-48317271D01*
X181717238Y-48317271D02*
X181812476Y-48364890D01*
X181812476Y-48364890D02*
X181860095Y-48412509D01*
X181860095Y-48412509D02*
X181907714Y-48507747D01*
X181907714Y-48507747D02*
X181907714Y-48745842D01*
X181907714Y-48745842D02*
X181860095Y-48841080D01*
X181860095Y-48841080D02*
X181812476Y-48888700D01*
X181812476Y-48888700D02*
X181717238Y-48936319D01*
X181717238Y-48936319D02*
X181431524Y-48936319D01*
X181431524Y-48936319D02*
X181336286Y-48888700D01*
X181336286Y-48888700D02*
X181288667Y-48841080D01*
X173398833Y-68687319D02*
X173065500Y-68211128D01*
X172827405Y-68687319D02*
X172827405Y-67687319D01*
X172827405Y-67687319D02*
X173208357Y-67687319D01*
X173208357Y-67687319D02*
X173303595Y-67734938D01*
X173303595Y-67734938D02*
X173351214Y-67782557D01*
X173351214Y-67782557D02*
X173398833Y-67877795D01*
X173398833Y-67877795D02*
X173398833Y-68020652D01*
X173398833Y-68020652D02*
X173351214Y-68115890D01*
X173351214Y-68115890D02*
X173303595Y-68163509D01*
X173303595Y-68163509D02*
X173208357Y-68211128D01*
X173208357Y-68211128D02*
X172827405Y-68211128D01*
X174255976Y-68020652D02*
X174255976Y-68687319D01*
X174017881Y-67639700D02*
X173779786Y-68353985D01*
X173779786Y-68353985D02*
X174398833Y-68353985D01*
X174073595Y-51888819D02*
X174073595Y-52698342D01*
X174073595Y-52698342D02*
X174121214Y-52793580D01*
X174121214Y-52793580D02*
X174168833Y-52841200D01*
X174168833Y-52841200D02*
X174264071Y-52888819D01*
X174264071Y-52888819D02*
X174454547Y-52888819D01*
X174454547Y-52888819D02*
X174549785Y-52841200D01*
X174549785Y-52841200D02*
X174597404Y-52793580D01*
X174597404Y-52793580D02*
X174645023Y-52698342D01*
X174645023Y-52698342D02*
X174645023Y-51888819D01*
X175645023Y-52888819D02*
X175073595Y-52888819D01*
X175359309Y-52888819D02*
X175359309Y-51888819D01*
X175359309Y-51888819D02*
X175264071Y-52031676D01*
X175264071Y-52031676D02*
X175168833Y-52126914D01*
X175168833Y-52126914D02*
X175073595Y-52174533D01*
X165405809Y-58372628D02*
X165405809Y-58848819D01*
X165072476Y-57848819D02*
X165405809Y-58372628D01*
X165405809Y-58372628D02*
X165739142Y-57848819D01*
X166596285Y-58848819D02*
X166024857Y-58848819D01*
X166310571Y-58848819D02*
X166310571Y-57848819D01*
X166310571Y-57848819D02*
X166215333Y-57991676D01*
X166215333Y-57991676D02*
X166120095Y-58086914D01*
X166120095Y-58086914D02*
X166024857Y-58134533D01*
X178290819Y-38306833D02*
X179005104Y-38306833D01*
X179005104Y-38306833D02*
X179147961Y-38354452D01*
X179147961Y-38354452D02*
X179243200Y-38449690D01*
X179243200Y-38449690D02*
X179290819Y-38592547D01*
X179290819Y-38592547D02*
X179290819Y-38687785D01*
X178386057Y-37878261D02*
X178338438Y-37830642D01*
X178338438Y-37830642D02*
X178290819Y-37735404D01*
X178290819Y-37735404D02*
X178290819Y-37497309D01*
X178290819Y-37497309D02*
X178338438Y-37402071D01*
X178338438Y-37402071D02*
X178386057Y-37354452D01*
X178386057Y-37354452D02*
X178481295Y-37306833D01*
X178481295Y-37306833D02*
X178576533Y-37306833D01*
X178576533Y-37306833D02*
X178719390Y-37354452D01*
X178719390Y-37354452D02*
X179290819Y-37925880D01*
X179290819Y-37925880D02*
X179290819Y-37306833D01*
X173114857Y-46781295D02*
X172848190Y-46400342D01*
X172657714Y-46781295D02*
X172657714Y-45981295D01*
X172657714Y-45981295D02*
X172962476Y-45981295D01*
X172962476Y-45981295D02*
X173038666Y-46019390D01*
X173038666Y-46019390D02*
X173076761Y-46057485D01*
X173076761Y-46057485D02*
X173114857Y-46133676D01*
X173114857Y-46133676D02*
X173114857Y-46247961D01*
X173114857Y-46247961D02*
X173076761Y-46324152D01*
X173076761Y-46324152D02*
X173038666Y-46362247D01*
X173038666Y-46362247D02*
X172962476Y-46400342D01*
X172962476Y-46400342D02*
X172657714Y-46400342D01*
X173419618Y-46743200D02*
X173533904Y-46781295D01*
X173533904Y-46781295D02*
X173724380Y-46781295D01*
X173724380Y-46781295D02*
X173800571Y-46743200D01*
X173800571Y-46743200D02*
X173838666Y-46705104D01*
X173838666Y-46705104D02*
X173876761Y-46628914D01*
X173876761Y-46628914D02*
X173876761Y-46552723D01*
X173876761Y-46552723D02*
X173838666Y-46476533D01*
X173838666Y-46476533D02*
X173800571Y-46438438D01*
X173800571Y-46438438D02*
X173724380Y-46400342D01*
X173724380Y-46400342D02*
X173571999Y-46362247D01*
X173571999Y-46362247D02*
X173495809Y-46324152D01*
X173495809Y-46324152D02*
X173457714Y-46286057D01*
X173457714Y-46286057D02*
X173419618Y-46209866D01*
X173419618Y-46209866D02*
X173419618Y-46133676D01*
X173419618Y-46133676D02*
X173457714Y-46057485D01*
X173457714Y-46057485D02*
X173495809Y-46019390D01*
X173495809Y-46019390D02*
X173571999Y-45981295D01*
X173571999Y-45981295D02*
X173762476Y-45981295D01*
X173762476Y-45981295D02*
X173876761Y-46019390D01*
X174105333Y-45981295D02*
X174562476Y-45981295D01*
X174333904Y-46781295D02*
X174333904Y-45981295D01*
X174791047Y-46743200D02*
X174905333Y-46781295D01*
X174905333Y-46781295D02*
X175095809Y-46781295D01*
X175095809Y-46781295D02*
X175172000Y-46743200D01*
X175172000Y-46743200D02*
X175210095Y-46705104D01*
X175210095Y-46705104D02*
X175248190Y-46628914D01*
X175248190Y-46628914D02*
X175248190Y-46552723D01*
X175248190Y-46552723D02*
X175210095Y-46476533D01*
X175210095Y-46476533D02*
X175172000Y-46438438D01*
X175172000Y-46438438D02*
X175095809Y-46400342D01*
X175095809Y-46400342D02*
X174943428Y-46362247D01*
X174943428Y-46362247D02*
X174867238Y-46324152D01*
X174867238Y-46324152D02*
X174829143Y-46286057D01*
X174829143Y-46286057D02*
X174791047Y-46209866D01*
X174791047Y-46209866D02*
X174791047Y-46133676D01*
X174791047Y-46133676D02*
X174829143Y-46057485D01*
X174829143Y-46057485D02*
X174867238Y-46019390D01*
X174867238Y-46019390D02*
X174943428Y-45981295D01*
X174943428Y-45981295D02*
X175133905Y-45981295D01*
X175133905Y-45981295D02*
X175248190Y-46019390D01*
X175514857Y-45981295D02*
X175705333Y-46781295D01*
X175705333Y-46781295D02*
X175857714Y-46209866D01*
X175857714Y-46209866D02*
X176010095Y-46781295D01*
X176010095Y-46781295D02*
X176200572Y-45981295D01*
X176924381Y-46781295D02*
X176467238Y-46781295D01*
X176695810Y-46781295D02*
X176695810Y-45981295D01*
X176695810Y-45981295D02*
X176619619Y-46095580D01*
X176619619Y-46095580D02*
X176543429Y-46171771D01*
X176543429Y-46171771D02*
X176467238Y-46209866D01*
X170465333Y-42743319D02*
X170132000Y-42267128D01*
X169893905Y-42743319D02*
X169893905Y-41743319D01*
X169893905Y-41743319D02*
X170274857Y-41743319D01*
X170274857Y-41743319D02*
X170370095Y-41790938D01*
X170370095Y-41790938D02*
X170417714Y-41838557D01*
X170417714Y-41838557D02*
X170465333Y-41933795D01*
X170465333Y-41933795D02*
X170465333Y-42076652D01*
X170465333Y-42076652D02*
X170417714Y-42171890D01*
X170417714Y-42171890D02*
X170370095Y-42219509D01*
X170370095Y-42219509D02*
X170274857Y-42267128D01*
X170274857Y-42267128D02*
X169893905Y-42267128D01*
X171370095Y-41743319D02*
X170893905Y-41743319D01*
X170893905Y-41743319D02*
X170846286Y-42219509D01*
X170846286Y-42219509D02*
X170893905Y-42171890D01*
X170893905Y-42171890D02*
X170989143Y-42124271D01*
X170989143Y-42124271D02*
X171227238Y-42124271D01*
X171227238Y-42124271D02*
X171322476Y-42171890D01*
X171322476Y-42171890D02*
X171370095Y-42219509D01*
X171370095Y-42219509D02*
X171417714Y-42314747D01*
X171417714Y-42314747D02*
X171417714Y-42552842D01*
X171417714Y-42552842D02*
X171370095Y-42648080D01*
X171370095Y-42648080D02*
X171322476Y-42695700D01*
X171322476Y-42695700D02*
X171227238Y-42743319D01*
X171227238Y-42743319D02*
X170989143Y-42743319D01*
X170989143Y-42743319D02*
X170893905Y-42695700D01*
X170893905Y-42695700D02*
X170846286Y-42648080D01*
X166455333Y-42743319D02*
X166122000Y-42267128D01*
X165883905Y-42743319D02*
X165883905Y-41743319D01*
X165883905Y-41743319D02*
X166264857Y-41743319D01*
X166264857Y-41743319D02*
X166360095Y-41790938D01*
X166360095Y-41790938D02*
X166407714Y-41838557D01*
X166407714Y-41838557D02*
X166455333Y-41933795D01*
X166455333Y-41933795D02*
X166455333Y-42076652D01*
X166455333Y-42076652D02*
X166407714Y-42171890D01*
X166407714Y-42171890D02*
X166360095Y-42219509D01*
X166360095Y-42219509D02*
X166264857Y-42267128D01*
X166264857Y-42267128D02*
X165883905Y-42267128D01*
X167312476Y-41743319D02*
X167122000Y-41743319D01*
X167122000Y-41743319D02*
X167026762Y-41790938D01*
X167026762Y-41790938D02*
X166979143Y-41838557D01*
X166979143Y-41838557D02*
X166883905Y-41981414D01*
X166883905Y-41981414D02*
X166836286Y-42171890D01*
X166836286Y-42171890D02*
X166836286Y-42552842D01*
X166836286Y-42552842D02*
X166883905Y-42648080D01*
X166883905Y-42648080D02*
X166931524Y-42695700D01*
X166931524Y-42695700D02*
X167026762Y-42743319D01*
X167026762Y-42743319D02*
X167217238Y-42743319D01*
X167217238Y-42743319D02*
X167312476Y-42695700D01*
X167312476Y-42695700D02*
X167360095Y-42648080D01*
X167360095Y-42648080D02*
X167407714Y-42552842D01*
X167407714Y-42552842D02*
X167407714Y-42314747D01*
X167407714Y-42314747D02*
X167360095Y-42219509D01*
X167360095Y-42219509D02*
X167312476Y-42171890D01*
X167312476Y-42171890D02*
X167217238Y-42124271D01*
X167217238Y-42124271D02*
X167026762Y-42124271D01*
X167026762Y-42124271D02*
X166931524Y-42171890D01*
X166931524Y-42171890D02*
X166883905Y-42219509D01*
X166883905Y-42219509D02*
X166836286Y-42314747D01*
D11*
%TO.C,C1*%
X167259836Y-52853500D02*
X167044164Y-52853500D01*
X167259836Y-53573500D02*
X167044164Y-53573500D01*
%TO.C,C2*%
X167044164Y-58568500D02*
X167259836Y-58568500D01*
X167044164Y-59288500D02*
X167259836Y-59288500D01*
%TO.C,C3*%
X176149836Y-49361000D02*
X175934164Y-49361000D01*
X176149836Y-50081000D02*
X175934164Y-50081000D01*
%TO.C,C4*%
X171731252Y-49240000D02*
X171208748Y-49240000D01*
X171731252Y-50710000D02*
X171208748Y-50710000D01*
%TO.C,C5*%
X166657580Y-60490000D02*
X166376420Y-60490000D01*
X166657580Y-61510000D02*
X166376420Y-61510000D01*
%TO.C,C6*%
X171577836Y-51710500D02*
X171362164Y-51710500D01*
X171577836Y-52430500D02*
X171362164Y-52430500D01*
D12*
%TO.C,F1*%
X166180000Y-42600000D02*
X164820000Y-42600000D01*
X166180000Y-44400000D02*
X164820000Y-44400000D01*
D11*
%TO.C,J1*%
X163080000Y-30908500D02*
X172240000Y-30908500D01*
X163080000Y-32613500D02*
X163080000Y-30908500D01*
X163080000Y-34623500D02*
X163080000Y-36543500D01*
X172240000Y-30908500D02*
X172240000Y-32613500D01*
X172240000Y-36543500D02*
X172240000Y-34623500D01*
%TO.C,R1*%
X170869258Y-42596000D02*
X170394742Y-42596000D01*
X170869258Y-43641000D02*
X170394742Y-43641000D01*
%TO.C,R2*%
X170894258Y-44096000D02*
X170419742Y-44096000D01*
X170894258Y-45141000D02*
X170419742Y-45141000D01*
%TO.C,R3*%
X180884742Y-49389000D02*
X181359258Y-49389000D01*
X180884742Y-50434000D02*
X181359258Y-50434000D01*
%TO.C,R4*%
X173802758Y-66280000D02*
X173328242Y-66280000D01*
X173802758Y-67325000D02*
X173328242Y-67325000D01*
D10*
%TO.C,SW1*%
X52332000Y-34814500D02*
X60957000Y-34814500D01*
X52332000Y-38722500D02*
X52332000Y-34814500D01*
X52332000Y-38768500D02*
X57382000Y-38814500D01*
X63232000Y-36768500D02*
X63232000Y-40713500D01*
X63232000Y-40722500D02*
X59622000Y-40722500D01*
X57357000Y-38818500D02*
G75*
G02*
X59617000Y-40698500I190000J-2070000D01*
G01*
X60957000Y-34814500D02*
G75*
G02*
X63221000Y-36698500I190000J-2074000D01*
G01*
%TO.C,SW2*%
X52332000Y-53864500D02*
X60957000Y-53864500D01*
X52332000Y-57772500D02*
X52332000Y-53864500D01*
X52332000Y-57818500D02*
X57382000Y-57864500D01*
X63232000Y-55818500D02*
X63232000Y-59763500D01*
X63232000Y-59772500D02*
X59622000Y-59772500D01*
X57357000Y-57868500D02*
G75*
G02*
X59617000Y-59748500I190000J-2070000D01*
G01*
X60957000Y-53864500D02*
G75*
G02*
X63221000Y-55748500I190000J-2074000D01*
G01*
%TO.C,SW3*%
X52332000Y-72914500D02*
X60957000Y-72914500D01*
X52332000Y-76822500D02*
X52332000Y-72914500D01*
X52332000Y-76868500D02*
X57382000Y-76914500D01*
X63232000Y-74868500D02*
X63232000Y-78813500D01*
X63232000Y-78822500D02*
X59622000Y-78822500D01*
X57357000Y-76918500D02*
G75*
G02*
X59617000Y-78798500I190000J-2070000D01*
G01*
X60957000Y-72914500D02*
G75*
G02*
X63221000Y-74798500I190000J-2074000D01*
G01*
%TO.C,SW4*%
X71382000Y-34814500D02*
X80007000Y-34814500D01*
X71382000Y-38722500D02*
X71382000Y-34814500D01*
X71382000Y-38768500D02*
X76432000Y-38814500D01*
X82282000Y-36768500D02*
X82282000Y-40713500D01*
X82282000Y-40722500D02*
X78672000Y-40722500D01*
X76407000Y-38818500D02*
G75*
G02*
X78667000Y-40698500I190000J-2070000D01*
G01*
X80007000Y-34814500D02*
G75*
G02*
X82271000Y-36698500I190000J-2074000D01*
G01*
%TO.C,SW5*%
X71382000Y-53864500D02*
X80007000Y-53864500D01*
X71382000Y-57772500D02*
X71382000Y-53864500D01*
X71382000Y-57818500D02*
X76432000Y-57864500D01*
X82282000Y-55818500D02*
X82282000Y-59763500D01*
X82282000Y-59772500D02*
X78672000Y-59772500D01*
X76407000Y-57868500D02*
G75*
G02*
X78667000Y-59748500I190000J-2070000D01*
G01*
X80007000Y-53864500D02*
G75*
G02*
X82271000Y-55748500I190000J-2074000D01*
G01*
%TO.C,SW6*%
X71382000Y-72914500D02*
X80007000Y-72914500D01*
X71382000Y-76822500D02*
X71382000Y-72914500D01*
X71382000Y-76868500D02*
X76432000Y-76914500D01*
X82282000Y-74868500D02*
X82282000Y-78813500D01*
X82282000Y-78822500D02*
X78672000Y-78822500D01*
X76407000Y-76918500D02*
G75*
G02*
X78667000Y-78798500I190000J-2070000D01*
G01*
X80007000Y-72914500D02*
G75*
G02*
X82271000Y-74798500I190000J-2074000D01*
G01*
%TO.C,SW7*%
X90432000Y-34814500D02*
X99057000Y-34814500D01*
X90432000Y-38722500D02*
X90432000Y-34814500D01*
X90432000Y-38768500D02*
X95482000Y-38814500D01*
X101332000Y-36768500D02*
X101332000Y-40713500D01*
X101332000Y-40722500D02*
X97722000Y-40722500D01*
X95457000Y-38818500D02*
G75*
G02*
X97717000Y-40698500I190000J-2070000D01*
G01*
X99057000Y-34814500D02*
G75*
G02*
X101321000Y-36698500I190000J-2074000D01*
G01*
%TO.C,SW8*%
X90432000Y-53864500D02*
X99057000Y-53864500D01*
X90432000Y-57772500D02*
X90432000Y-53864500D01*
X90432000Y-57818500D02*
X95482000Y-57864500D01*
X101332000Y-55818500D02*
X101332000Y-59763500D01*
X101332000Y-59772500D02*
X97722000Y-59772500D01*
X95457000Y-57868500D02*
G75*
G02*
X97717000Y-59748500I190000J-2070000D01*
G01*
X99057000Y-53864500D02*
G75*
G02*
X101321000Y-55748500I190000J-2074000D01*
G01*
%TO.C,SW9*%
X90432000Y-72914500D02*
X99057000Y-72914500D01*
X90432000Y-76822500D02*
X90432000Y-72914500D01*
X90432000Y-76868500D02*
X95482000Y-76914500D01*
X101332000Y-74868500D02*
X101332000Y-78813500D01*
X101332000Y-78822500D02*
X97722000Y-78822500D01*
X95457000Y-76918500D02*
G75*
G02*
X97717000Y-78798500I190000J-2070000D01*
G01*
X99057000Y-72914500D02*
G75*
G02*
X101321000Y-74798500I190000J-2074000D01*
G01*
%TO.C,SW10*%
X109482000Y-34814500D02*
X118107000Y-34814500D01*
X109482000Y-38722500D02*
X109482000Y-34814500D01*
X109482000Y-38768500D02*
X114532000Y-38814500D01*
X120382000Y-36768500D02*
X120382000Y-40713500D01*
X120382000Y-40722500D02*
X116772000Y-40722500D01*
X114507000Y-38818500D02*
G75*
G02*
X116767000Y-40698500I190000J-2070000D01*
G01*
X118107000Y-34814500D02*
G75*
G02*
X120371000Y-36698500I190000J-2074000D01*
G01*
%TO.C,SW11*%
X109482000Y-53864500D02*
X118107000Y-53864500D01*
X109482000Y-57772500D02*
X109482000Y-53864500D01*
X109482000Y-57818500D02*
X114532000Y-57864500D01*
X120382000Y-55818500D02*
X120382000Y-59763500D01*
X120382000Y-59772500D02*
X116772000Y-59772500D01*
X114507000Y-57868500D02*
G75*
G02*
X116767000Y-59748500I190000J-2070000D01*
G01*
X118107000Y-53864500D02*
G75*
G02*
X120371000Y-55748500I190000J-2074000D01*
G01*
%TO.C,SW12*%
X109482000Y-72914500D02*
X118107000Y-72914500D01*
X109482000Y-76822500D02*
X109482000Y-72914500D01*
X109482000Y-76868500D02*
X114532000Y-76914500D01*
X120382000Y-74868500D02*
X120382000Y-78813500D01*
X120382000Y-78822500D02*
X116772000Y-78822500D01*
X114507000Y-76918500D02*
G75*
G02*
X116767000Y-78798500I190000J-2070000D01*
G01*
X118107000Y-72914500D02*
G75*
G02*
X120371000Y-74798500I190000J-2074000D01*
G01*
%TO.C,SW13*%
X128532000Y-34814500D02*
X137157000Y-34814500D01*
X128532000Y-38722500D02*
X128532000Y-34814500D01*
X128532000Y-38768500D02*
X133582000Y-38814500D01*
X139432000Y-36768500D02*
X139432000Y-40713500D01*
X139432000Y-40722500D02*
X135822000Y-40722500D01*
X133557000Y-38818500D02*
G75*
G02*
X135817000Y-40698500I190000J-2070000D01*
G01*
X137157000Y-34814500D02*
G75*
G02*
X139421000Y-36698500I190000J-2074000D01*
G01*
%TO.C,SW14*%
X128532000Y-53864500D02*
X137157000Y-53864500D01*
X128532000Y-57772500D02*
X128532000Y-53864500D01*
X128532000Y-57818500D02*
X133582000Y-57864500D01*
X139432000Y-55818500D02*
X139432000Y-59763500D01*
X139432000Y-59772500D02*
X135822000Y-59772500D01*
X133557000Y-57868500D02*
G75*
G02*
X135817000Y-59748500I190000J-2070000D01*
G01*
X137157000Y-53864500D02*
G75*
G02*
X139421000Y-55748500I190000J-2074000D01*
G01*
%TO.C,SW15*%
X128532000Y-72914500D02*
X137157000Y-72914500D01*
X128532000Y-76822500D02*
X128532000Y-72914500D01*
X128532000Y-76868500D02*
X133582000Y-76914500D01*
X139432000Y-74868500D02*
X139432000Y-78813500D01*
X139432000Y-78822500D02*
X135822000Y-78822500D01*
X133557000Y-76918500D02*
G75*
G02*
X135817000Y-78798500I190000J-2070000D01*
G01*
X137157000Y-72914500D02*
G75*
G02*
X139421000Y-74798500I190000J-2074000D01*
G01*
%TO.C,SW16*%
X147582000Y-34814500D02*
X156207000Y-34814500D01*
X147582000Y-38722500D02*
X147582000Y-34814500D01*
X147582000Y-38768500D02*
X152632000Y-38814500D01*
X158482000Y-36768500D02*
X158482000Y-40713500D01*
X158482000Y-40722500D02*
X154872000Y-40722500D01*
X152607000Y-38818500D02*
G75*
G02*
X154867000Y-40698500I190000J-2070000D01*
G01*
X156207000Y-34814500D02*
G75*
G02*
X158471000Y-36698500I190000J-2074000D01*
G01*
%TO.C,SW17*%
X147582000Y-53864500D02*
X156207000Y-53864500D01*
X147582000Y-57772500D02*
X147582000Y-53864500D01*
X147582000Y-57818500D02*
X152632000Y-57864500D01*
X158482000Y-55818500D02*
X158482000Y-59763500D01*
X158482000Y-59772500D02*
X154872000Y-59772500D01*
X152607000Y-57868500D02*
G75*
G02*
X154867000Y-59748500I190000J-2070000D01*
G01*
X156207000Y-53864500D02*
G75*
G02*
X158471000Y-55748500I190000J-2074000D01*
G01*
%TO.C,SW18*%
X147582000Y-72914500D02*
X156207000Y-72914500D01*
X147582000Y-76822500D02*
X147582000Y-72914500D01*
X147582000Y-76868500D02*
X152632000Y-76914500D01*
X158482000Y-74868500D02*
X158482000Y-78813500D01*
X158482000Y-78822500D02*
X154872000Y-78822500D01*
X152607000Y-76918500D02*
G75*
G02*
X154867000Y-78798500I190000J-2070000D01*
G01*
X156207000Y-72914500D02*
G75*
G02*
X158471000Y-74798500I190000J-2074000D01*
G01*
%TO.C,SW19*%
X166632000Y-72914500D02*
X175257000Y-72914500D01*
X166632000Y-76822500D02*
X166632000Y-72914500D01*
X166632000Y-76868500D02*
X171682000Y-76914500D01*
X177532000Y-74868500D02*
X177532000Y-78813500D01*
X177532000Y-78822500D02*
X173922000Y-78822500D01*
X171657000Y-76918500D02*
G75*
G02*
X173917000Y-78798500I190000J-2070000D01*
G01*
X175257000Y-72914500D02*
G75*
G02*
X177521000Y-74798500I190000J-2074000D01*
G01*
%TO.C,U1*%
X171210500Y-54859000D02*
X171210500Y-55084000D01*
X171210500Y-54859000D02*
X171535500Y-54859000D01*
X171210500Y-55084000D02*
X169785500Y-55084000D01*
X171210500Y-62109000D02*
X171210500Y-61784000D01*
X171210500Y-62109000D02*
X171535500Y-62109000D01*
X178460500Y-54859000D02*
X178135500Y-54859000D01*
X178460500Y-54859000D02*
X178460500Y-55184000D01*
X178460500Y-62109000D02*
X178135500Y-62109000D01*
X178460500Y-62109000D02*
X178460500Y-61784000D01*
D11*
%TO.C,Y1*%
X167882000Y-54344000D02*
X163882000Y-54344000D01*
X167882000Y-57544000D02*
X167882000Y-54344000D01*
%TO.C,J2*%
X175736000Y-43266500D02*
X175736000Y-32741500D01*
X175736000Y-44841500D02*
X181936000Y-44841500D01*
X176336000Y-32741500D02*
X175736000Y-32741500D01*
X176336000Y-32741500D02*
X176336000Y-30741500D01*
X181336000Y-30741500D02*
X176336000Y-30741500D01*
X181336000Y-32741500D02*
X181336000Y-30741500D01*
X181936000Y-32741500D02*
X181336000Y-32741500D01*
X181936000Y-32741500D02*
X181936000Y-35116500D01*
X181936000Y-36766500D02*
X181936000Y-38116500D01*
X181936000Y-39766500D02*
X181936000Y-42166500D01*
X181936000Y-42166500D02*
X183336000Y-42166500D01*
X181936000Y-43716500D02*
X181936000Y-44841500D01*
X181936000Y-43716500D02*
X183336000Y-43716500D01*
D10*
%TO.C,D_H1*%
X164134500Y-65354000D02*
X164134500Y-66854000D01*
X164134500Y-66854000D02*
X169534500Y-66854000D01*
X166334500Y-65604000D02*
X166334500Y-66604000D01*
X166434500Y-66104000D02*
X167334500Y-65604000D01*
X167334500Y-65604000D02*
X167334500Y-66604000D01*
X167334500Y-66604000D02*
X166434500Y-66104000D01*
X169534500Y-65354000D02*
X164134500Y-65354000D01*
X169534500Y-65354000D02*
X169534500Y-66854000D01*
D11*
%TO.C,RSTSW1*%
X178279000Y-45540500D02*
X178279000Y-48440500D01*
X178279000Y-48440500D02*
X181679000Y-48440500D01*
X181679000Y-45540500D02*
X178279000Y-45540500D01*
X181679000Y-48440500D02*
X181679000Y-45540500D01*
%TO.C,R5*%
X170785641Y-40738500D02*
X170478359Y-40738500D01*
X170785641Y-41498500D02*
X170478359Y-41498500D01*
%TO.C,R6*%
X166775641Y-40738500D02*
X166468359Y-40738500D01*
X166775641Y-41498500D02*
X166468359Y-41498500D01*
D10*
%TO.C,D1*%
X64675000Y-40925000D02*
X66175000Y-40925000D01*
X64675000Y-46325000D02*
X64675000Y-40925000D01*
X64925000Y-43125000D02*
X65425000Y-44025000D01*
X65425000Y-44025000D02*
X65925000Y-43125000D01*
X65925000Y-43125000D02*
X64925000Y-43125000D01*
X65925000Y-44125000D02*
X64925000Y-44125000D01*
X66175000Y-40925000D02*
X66175000Y-46325000D01*
X66175000Y-46325000D02*
X64675000Y-46325000D01*
%TO.C,D2*%
X64675000Y-59975000D02*
X66175000Y-59975000D01*
X64675000Y-65375000D02*
X64675000Y-59975000D01*
X64925000Y-62175000D02*
X65425000Y-63075000D01*
X65425000Y-63075000D02*
X65925000Y-62175000D01*
X65925000Y-62175000D02*
X64925000Y-62175000D01*
X65925000Y-63175000D02*
X64925000Y-63175000D01*
X66175000Y-59975000D02*
X66175000Y-65375000D01*
X66175000Y-65375000D02*
X64675000Y-65375000D01*
%TO.C,D3*%
X64675000Y-79025000D02*
X66175000Y-79025000D01*
X64675000Y-84425000D02*
X64675000Y-79025000D01*
X64925000Y-81225000D02*
X65425000Y-82125000D01*
X65425000Y-82125000D02*
X65925000Y-81225000D01*
X65925000Y-81225000D02*
X64925000Y-81225000D01*
X65925000Y-82225000D02*
X64925000Y-82225000D01*
X66175000Y-79025000D02*
X66175000Y-84425000D01*
X66175000Y-84425000D02*
X64675000Y-84425000D01*
%TO.C,D7*%
X102775000Y-40925000D02*
X104275000Y-40925000D01*
X102775000Y-46325000D02*
X102775000Y-40925000D01*
X103025000Y-43125000D02*
X103525000Y-44025000D01*
X103525000Y-44025000D02*
X104025000Y-43125000D01*
X104025000Y-43125000D02*
X103025000Y-43125000D01*
X104025000Y-44125000D02*
X103025000Y-44125000D01*
X104275000Y-40925000D02*
X104275000Y-46325000D01*
X104275000Y-46325000D02*
X102775000Y-46325000D01*
%TO.C,D8*%
X102775000Y-59975000D02*
X104275000Y-59975000D01*
X102775000Y-65375000D02*
X102775000Y-59975000D01*
X103025000Y-62175000D02*
X103525000Y-63075000D01*
X103525000Y-63075000D02*
X104025000Y-62175000D01*
X104025000Y-62175000D02*
X103025000Y-62175000D01*
X104025000Y-63175000D02*
X103025000Y-63175000D01*
X104275000Y-59975000D02*
X104275000Y-65375000D01*
X104275000Y-65375000D02*
X102775000Y-65375000D01*
%TO.C,D10*%
X121825000Y-40925000D02*
X123325000Y-40925000D01*
X121825000Y-46325000D02*
X121825000Y-40925000D01*
X122075000Y-43125000D02*
X122575000Y-44025000D01*
X122575000Y-44025000D02*
X123075000Y-43125000D01*
X123075000Y-43125000D02*
X122075000Y-43125000D01*
X123075000Y-44125000D02*
X122075000Y-44125000D01*
X123325000Y-40925000D02*
X123325000Y-46325000D01*
X123325000Y-46325000D02*
X121825000Y-46325000D01*
%TO.C,D11*%
X121825000Y-59975000D02*
X123325000Y-59975000D01*
X121825000Y-65375000D02*
X121825000Y-59975000D01*
X122075000Y-62175000D02*
X122575000Y-63075000D01*
X122575000Y-63075000D02*
X123075000Y-62175000D01*
X123075000Y-62175000D02*
X122075000Y-62175000D01*
X123075000Y-63175000D02*
X122075000Y-63175000D01*
X123325000Y-59975000D02*
X123325000Y-65375000D01*
X123325000Y-65375000D02*
X121825000Y-65375000D01*
%TO.C,D12*%
X121825000Y-79025000D02*
X123325000Y-79025000D01*
X121825000Y-84425000D02*
X121825000Y-79025000D01*
X122075000Y-81225000D02*
X122575000Y-82125000D01*
X122575000Y-82125000D02*
X123075000Y-81225000D01*
X123075000Y-81225000D02*
X122075000Y-81225000D01*
X123075000Y-82225000D02*
X122075000Y-82225000D01*
X123325000Y-79025000D02*
X123325000Y-84425000D01*
X123325000Y-84425000D02*
X121825000Y-84425000D01*
%TO.C,D14*%
X140875000Y-59975000D02*
X142375000Y-59975000D01*
X140875000Y-65375000D02*
X140875000Y-59975000D01*
X141125000Y-62175000D02*
X141625000Y-63075000D01*
X141625000Y-63075000D02*
X142125000Y-62175000D01*
X142125000Y-62175000D02*
X141125000Y-62175000D01*
X142125000Y-63175000D02*
X141125000Y-63175000D01*
X142375000Y-59975000D02*
X142375000Y-65375000D01*
X142375000Y-65375000D02*
X140875000Y-65375000D01*
%TO.C,D15*%
X140875000Y-79025000D02*
X142375000Y-79025000D01*
X140875000Y-84425000D02*
X140875000Y-79025000D01*
X141125000Y-81225000D02*
X141625000Y-82125000D01*
X141625000Y-82125000D02*
X142125000Y-81225000D01*
X142125000Y-81225000D02*
X141125000Y-81225000D01*
X142125000Y-82225000D02*
X141125000Y-82225000D01*
X142375000Y-79025000D02*
X142375000Y-84425000D01*
X142375000Y-84425000D02*
X140875000Y-84425000D01*
%TO.C,D17*%
X159925000Y-59975000D02*
X161425000Y-59975000D01*
X159925000Y-65375000D02*
X159925000Y-59975000D01*
X160175000Y-62175000D02*
X160675000Y-63075000D01*
X160675000Y-63075000D02*
X161175000Y-62175000D01*
X161175000Y-62175000D02*
X160175000Y-62175000D01*
X161175000Y-63175000D02*
X160175000Y-63175000D01*
X161425000Y-59975000D02*
X161425000Y-65375000D01*
X161425000Y-65375000D02*
X159925000Y-65375000D01*
%TO.C,D18*%
X159925000Y-79025000D02*
X161425000Y-79025000D01*
X159925000Y-84425000D02*
X159925000Y-79025000D01*
X160175000Y-81225000D02*
X160675000Y-82125000D01*
X160675000Y-82125000D02*
X161175000Y-81225000D01*
X161175000Y-81225000D02*
X160175000Y-81225000D01*
X161175000Y-82225000D02*
X160175000Y-82225000D01*
X161425000Y-79025000D02*
X161425000Y-84425000D01*
X161425000Y-84425000D02*
X159925000Y-84425000D01*
%TO.C,D4*%
X83724999Y-40925000D02*
X85224999Y-40925000D01*
X83724999Y-46325000D02*
X83724999Y-40925000D01*
X83974999Y-43125000D02*
X84474999Y-44025000D01*
X84474999Y-44025000D02*
X84974999Y-43125000D01*
X84974999Y-43125000D02*
X83974999Y-43125000D01*
X84974999Y-44125000D02*
X83974999Y-44125000D01*
X85224999Y-40925000D02*
X85224999Y-46325000D01*
X85224999Y-46325000D02*
X83724999Y-46325000D01*
%TO.C,D5*%
X83724999Y-59975000D02*
X85224999Y-59975000D01*
X83724999Y-65375000D02*
X83724999Y-59975000D01*
X83974999Y-62175000D02*
X84474999Y-63075000D01*
X84474999Y-63075000D02*
X84974999Y-62175000D01*
X84974999Y-62175000D02*
X83974999Y-62175000D01*
X84974999Y-63175000D02*
X83974999Y-63175000D01*
X85224999Y-59975000D02*
X85224999Y-65375000D01*
X85224999Y-65375000D02*
X83724999Y-65375000D01*
%TO.C,D6*%
X83724999Y-79025000D02*
X85224999Y-79025000D01*
X83724999Y-84425000D02*
X83724999Y-79025000D01*
X83974999Y-81225000D02*
X84474999Y-82125000D01*
X84474999Y-82125000D02*
X84974999Y-81225000D01*
X84974999Y-81225000D02*
X83974999Y-81225000D01*
X84974999Y-82225000D02*
X83974999Y-82225000D01*
X85224999Y-79025000D02*
X85224999Y-84425000D01*
X85224999Y-84425000D02*
X83724999Y-84425000D01*
%TO.C,D9*%
X102775000Y-79025000D02*
X104275000Y-79025000D01*
X102775000Y-84425000D02*
X102775000Y-79025000D01*
X103025000Y-81225000D02*
X103525000Y-82125000D01*
X103525000Y-82125000D02*
X104025000Y-81225000D01*
X104025000Y-81225000D02*
X103025000Y-81225000D01*
X104025000Y-82225000D02*
X103025000Y-82225000D01*
X104275000Y-79025000D02*
X104275000Y-84425000D01*
X104275000Y-84425000D02*
X102775000Y-84425000D01*
%TO.C,D13*%
X140875000Y-40925000D02*
X142375000Y-40925000D01*
X140875000Y-46325000D02*
X140875000Y-40925000D01*
X141125000Y-43125000D02*
X141625000Y-44025000D01*
X141625000Y-44025000D02*
X142125000Y-43125000D01*
X142125000Y-43125000D02*
X141125000Y-43125000D01*
X142125000Y-44125000D02*
X141125000Y-44125000D01*
X142375000Y-40925000D02*
X142375000Y-46325000D01*
X142375000Y-46325000D02*
X140875000Y-46325000D01*
%TO.C,D16*%
X159925000Y-40925000D02*
X161425000Y-40925000D01*
X159925000Y-46325000D02*
X159925000Y-40925000D01*
X160175000Y-43125000D02*
X160675000Y-44025000D01*
X160675000Y-44025000D02*
X161175000Y-43125000D01*
X161175000Y-43125000D02*
X160175000Y-43125000D01*
X161175000Y-44125000D02*
X160175000Y-44125000D01*
X161425000Y-40925000D02*
X161425000Y-46325000D01*
X161425000Y-46325000D02*
X159925000Y-46325000D01*
%TO.C,D19*%
X178975000Y-79025000D02*
X180475000Y-79025000D01*
X178975000Y-84425000D02*
X178975000Y-79025000D01*
X179225000Y-81225000D02*
X179725000Y-82125000D01*
X179725000Y-82125000D02*
X180225000Y-81225000D01*
X180225000Y-81225000D02*
X179225000Y-81225000D01*
X180225000Y-82225000D02*
X179225000Y-82225000D01*
X180475000Y-79025000D02*
X180475000Y-84425000D01*
X180475000Y-84425000D02*
X178975000Y-84425000D01*
%TD*%
%LPC*%
X164486023Y-88625152D02*
X164486023Y-89625152D01*
X164486023Y-88672771D02*
X164581261Y-88625152D01*
X164581261Y-88625152D02*
X164771737Y-88625152D01*
X164771737Y-88625152D02*
X164866975Y-88672771D01*
X164866975Y-88672771D02*
X164914594Y-88720390D01*
X164914594Y-88720390D02*
X164962213Y-88815628D01*
X164962213Y-88815628D02*
X164962213Y-89101342D01*
X164962213Y-89101342D02*
X164914594Y-89196580D01*
X164914594Y-89196580D02*
X164866975Y-89244200D01*
X164866975Y-89244200D02*
X164771737Y-89291819D01*
X164771737Y-89291819D02*
X164581261Y-89291819D01*
X164581261Y-89291819D02*
X164486023Y-89244200D01*
X165390785Y-89291819D02*
X165390785Y-88625152D01*
X165390785Y-88291819D02*
X165343166Y-88339438D01*
X165343166Y-88339438D02*
X165390785Y-88387057D01*
X165390785Y-88387057D02*
X165438404Y-88339438D01*
X165438404Y-88339438D02*
X165390785Y-88291819D01*
X165390785Y-88291819D02*
X165390785Y-88387057D01*
X165819356Y-89244200D02*
X165914594Y-89291819D01*
X165914594Y-89291819D02*
X166105070Y-89291819D01*
X166105070Y-89291819D02*
X166200308Y-89244200D01*
X166200308Y-89244200D02*
X166247927Y-89148961D01*
X166247927Y-89148961D02*
X166247927Y-89101342D01*
X166247927Y-89101342D02*
X166200308Y-89006104D01*
X166200308Y-89006104D02*
X166105070Y-88958485D01*
X166105070Y-88958485D02*
X165962213Y-88958485D01*
X165962213Y-88958485D02*
X165866975Y-88910866D01*
X165866975Y-88910866D02*
X165819356Y-88815628D01*
X165819356Y-88815628D02*
X165819356Y-88768009D01*
X165819356Y-88768009D02*
X165866975Y-88672771D01*
X165866975Y-88672771D02*
X165962213Y-88625152D01*
X165962213Y-88625152D02*
X166105070Y-88625152D01*
X166105070Y-88625152D02*
X166200308Y-88672771D01*
X167105070Y-89244200D02*
X167009832Y-89291819D01*
X167009832Y-89291819D02*
X166819356Y-89291819D01*
X166819356Y-89291819D02*
X166724118Y-89244200D01*
X166724118Y-89244200D02*
X166676499Y-89196580D01*
X166676499Y-89196580D02*
X166628880Y-89101342D01*
X166628880Y-89101342D02*
X166628880Y-88815628D01*
X166628880Y-88815628D02*
X166676499Y-88720390D01*
X166676499Y-88720390D02*
X166724118Y-88672771D01*
X166724118Y-88672771D02*
X166819356Y-88625152D01*
X166819356Y-88625152D02*
X167009832Y-88625152D01*
X167009832Y-88625152D02*
X167105070Y-88672771D01*
X167914594Y-89244200D02*
X167819356Y-89291819D01*
X167819356Y-89291819D02*
X167628880Y-89291819D01*
X167628880Y-89291819D02*
X167533642Y-89244200D01*
X167533642Y-89244200D02*
X167486023Y-89148961D01*
X167486023Y-89148961D02*
X167486023Y-88768009D01*
X167486023Y-88768009D02*
X167533642Y-88672771D01*
X167533642Y-88672771D02*
X167628880Y-88625152D01*
X167628880Y-88625152D02*
X167819356Y-88625152D01*
X167819356Y-88625152D02*
X167914594Y-88672771D01*
X167914594Y-88672771D02*
X167962213Y-88768009D01*
X167962213Y-88768009D02*
X167962213Y-88863247D01*
X167962213Y-88863247D02*
X167486023Y-88958485D01*
X168343166Y-89244200D02*
X168438404Y-89291819D01*
X168438404Y-89291819D02*
X168628880Y-89291819D01*
X168628880Y-89291819D02*
X168724118Y-89244200D01*
X168724118Y-89244200D02*
X168771737Y-89148961D01*
X168771737Y-89148961D02*
X168771737Y-89101342D01*
X168771737Y-89101342D02*
X168724118Y-89006104D01*
X168724118Y-89006104D02*
X168628880Y-88958485D01*
X168628880Y-88958485D02*
X168486023Y-88958485D01*
X168486023Y-88958485D02*
X168390785Y-88910866D01*
X168390785Y-88910866D02*
X168343166Y-88815628D01*
X168343166Y-88815628D02*
X168343166Y-88768009D01*
X168343166Y-88768009D02*
X168390785Y-88672771D01*
X168390785Y-88672771D02*
X168486023Y-88625152D01*
X168486023Y-88625152D02*
X168628880Y-88625152D01*
X168628880Y-88625152D02*
X168724118Y-88672771D01*
X169866976Y-88625152D02*
X170105071Y-89291819D01*
X170105071Y-89291819D02*
X170343166Y-88625152D01*
X170676500Y-88387057D02*
X170724119Y-88339438D01*
X170724119Y-88339438D02*
X170819357Y-88291819D01*
X170819357Y-88291819D02*
X171057452Y-88291819D01*
X171057452Y-88291819D02*
X171152690Y-88339438D01*
X171152690Y-88339438D02*
X171200309Y-88387057D01*
X171200309Y-88387057D02*
X171247928Y-88482295D01*
X171247928Y-88482295D02*
X171247928Y-88577533D01*
X171247928Y-88577533D02*
X171200309Y-88720390D01*
X171200309Y-88720390D02*
X170628881Y-89291819D01*
X170628881Y-89291819D02*
X171247928Y-89291819D01*
X171676500Y-89196580D02*
X171724119Y-89244200D01*
X171724119Y-89244200D02*
X171676500Y-89291819D01*
X171676500Y-89291819D02*
X171628881Y-89244200D01*
X171628881Y-89244200D02*
X171676500Y-89196580D01*
X171676500Y-89196580D02*
X171676500Y-89291819D01*
X172676499Y-89291819D02*
X172105071Y-89291819D01*
X172390785Y-89291819D02*
X172390785Y-88291819D01*
X172390785Y-88291819D02*
X172295547Y-88434676D01*
X172295547Y-88434676D02*
X172200309Y-88529914D01*
X172200309Y-88529914D02*
X172105071Y-88577533D01*
X173866976Y-89291819D02*
X173866976Y-88291819D01*
X173866976Y-88672771D02*
X173962214Y-88625152D01*
X173962214Y-88625152D02*
X174152690Y-88625152D01*
X174152690Y-88625152D02*
X174247928Y-88672771D01*
X174247928Y-88672771D02*
X174295547Y-88720390D01*
X174295547Y-88720390D02*
X174343166Y-88815628D01*
X174343166Y-88815628D02*
X174343166Y-89101342D01*
X174343166Y-89101342D02*
X174295547Y-89196580D01*
X174295547Y-89196580D02*
X174247928Y-89244200D01*
X174247928Y-89244200D02*
X174152690Y-89291819D01*
X174152690Y-89291819D02*
X173962214Y-89291819D01*
X173962214Y-89291819D02*
X173866976Y-89244200D01*
X174676500Y-88625152D02*
X174914595Y-89291819D01*
X175152690Y-88625152D02*
X174914595Y-89291819D01*
X174914595Y-89291819D02*
X174819357Y-89529914D01*
X174819357Y-89529914D02*
X174771738Y-89577533D01*
X174771738Y-89577533D02*
X174676500Y-89625152D01*
X176295548Y-89291819D02*
X176295548Y-88291819D01*
X176390786Y-88910866D02*
X176676500Y-89291819D01*
X176676500Y-88625152D02*
X176295548Y-89006104D01*
X177105072Y-88625152D02*
X177105072Y-89291819D01*
X177105072Y-88720390D02*
X177152691Y-88672771D01*
X177152691Y-88672771D02*
X177247929Y-88625152D01*
X177247929Y-88625152D02*
X177390786Y-88625152D01*
X177390786Y-88625152D02*
X177486024Y-88672771D01*
X177486024Y-88672771D02*
X177533643Y-88768009D01*
X177533643Y-88768009D02*
X177533643Y-89291819D01*
X178438405Y-89291819D02*
X178438405Y-88768009D01*
X178438405Y-88768009D02*
X178390786Y-88672771D01*
X178390786Y-88672771D02*
X178295548Y-88625152D01*
X178295548Y-88625152D02*
X178105072Y-88625152D01*
X178105072Y-88625152D02*
X178009834Y-88672771D01*
X178438405Y-89244200D02*
X178343167Y-89291819D01*
X178343167Y-89291819D02*
X178105072Y-89291819D01*
X178105072Y-89291819D02*
X178009834Y-89244200D01*
X178009834Y-89244200D02*
X177962215Y-89148961D01*
X177962215Y-89148961D02*
X177962215Y-89053723D01*
X177962215Y-89053723D02*
X178009834Y-88958485D01*
X178009834Y-88958485D02*
X178105072Y-88910866D01*
X178105072Y-88910866D02*
X178343167Y-88910866D01*
X178343167Y-88910866D02*
X178438405Y-88863247D01*
X178914596Y-89291819D02*
X178914596Y-88625152D01*
X178914596Y-88815628D02*
X178962215Y-88720390D01*
X178962215Y-88720390D02*
X179009834Y-88672771D01*
X179009834Y-88672771D02*
X179105072Y-88625152D01*
X179105072Y-88625152D02*
X179200310Y-88625152D01*
X179962215Y-88625152D02*
X179962215Y-89291819D01*
X179533644Y-88625152D02*
X179533644Y-89148961D01*
X179533644Y-89148961D02*
X179581263Y-89244200D01*
X179581263Y-89244200D02*
X179676501Y-89291819D01*
X179676501Y-89291819D02*
X179819358Y-89291819D01*
X179819358Y-89291819D02*
X179914596Y-89244200D01*
X179914596Y-89244200D02*
X179962215Y-89196580D01*
X180581263Y-89291819D02*
X180486025Y-89244200D01*
X180486025Y-89244200D02*
X180438406Y-89196580D01*
X180438406Y-89196580D02*
X180390787Y-89101342D01*
X180390787Y-89101342D02*
X180390787Y-88815628D01*
X180390787Y-88815628D02*
X180438406Y-88720390D01*
X180438406Y-88720390D02*
X180486025Y-88672771D01*
X180486025Y-88672771D02*
X180581263Y-88625152D01*
X180581263Y-88625152D02*
X180724120Y-88625152D01*
X180724120Y-88625152D02*
X180819358Y-88672771D01*
X180819358Y-88672771D02*
X180866977Y-88720390D01*
X180866977Y-88720390D02*
X180914596Y-88815628D01*
X180914596Y-88815628D02*
X180914596Y-89101342D01*
X180914596Y-89101342D02*
X180866977Y-89196580D01*
X180866977Y-89196580D02*
X180819358Y-89244200D01*
X180819358Y-89244200D02*
X180724120Y-89291819D01*
X180724120Y-89291819D02*
X180581263Y-89291819D01*
D13*
%TO.C,HOLE1*%
X66657000Y-51143500D03*
%TD*%
%TO.C,HOLE2*%
X66657000Y-70193500D03*
%TD*%
%TO.C,HOLE7*%
X104757000Y-51143500D03*
%TD*%
%TO.C,HOLE8*%
X104757000Y-70193500D03*
%TD*%
%TO.C,HOLE13*%
X142857000Y-51143500D03*
%TD*%
%TO.C,HOLE14*%
X142857000Y-70193500D03*
%TD*%
D14*
%TO.C,C1*%
X167632000Y-53213500D03*
X166672000Y-53213500D03*
%TD*%
D15*
%TO.C,C2*%
X166672000Y-58928500D03*
X167632000Y-58928500D03*
%TD*%
D14*
%TO.C,C3*%
X176522000Y-49721000D03*
X175562000Y-49721000D03*
%TD*%
D16*
%TO.C,C4*%
X172420000Y-49975000D03*
X170520000Y-49975000D03*
%TD*%
D17*
%TO.C,C5*%
X167292000Y-61000000D03*
X165742000Y-61000000D03*
%TD*%
D14*
%TO.C,C6*%
X171950000Y-52070500D03*
X170990000Y-52070500D03*
%TD*%
D18*
%TO.C,F1*%
X163972000Y-43500000D03*
X167028000Y-43500000D03*
%TD*%
D19*
%TO.C,J1*%
X170550000Y-37298500D03*
X164770000Y-37298500D03*
D20*
X171010000Y-38363500D03*
X170210000Y-38363500D03*
X168910000Y-38363500D03*
X167910000Y-38363500D03*
X167410000Y-38363500D03*
X166410000Y-38363500D03*
X165110000Y-38363500D03*
X164310000Y-38363500D03*
X164610000Y-38363500D03*
X165410000Y-38363500D03*
X165910000Y-38363500D03*
X166910000Y-38363500D03*
X168410000Y-38363500D03*
X169410000Y-38363500D03*
X169910000Y-38363500D03*
X170710000Y-38363500D03*
D21*
X171980000Y-37798500D03*
D22*
X171980000Y-33618500D03*
D21*
X163340000Y-37798500D03*
D22*
X163340000Y-33618500D03*
%TD*%
D23*
%TO.C,R1*%
X171457000Y-43118500D03*
X169807000Y-43118500D03*
%TD*%
%TO.C,R2*%
X171482000Y-44618500D03*
X169832000Y-44618500D03*
%TD*%
D24*
%TO.C,R3*%
X180297000Y-49911500D03*
X181947000Y-49911500D03*
%TD*%
D23*
%TO.C,R4*%
X174390500Y-66802500D03*
X172740500Y-66802500D03*
%TD*%
D25*
%TO.C,SW1*%
X51632000Y-41618500D03*
D26*
X52052000Y-41618500D03*
D27*
X53322000Y-39078500D03*
X54592000Y-36538500D03*
D28*
X57132000Y-41618500D03*
D27*
X59672000Y-36538500D03*
X60942000Y-39078500D03*
D26*
X62212000Y-41618500D03*
D25*
X62632000Y-41618500D03*
D29*
X51532000Y-36538500D03*
X64032000Y-39078500D03*
%TD*%
D25*
%TO.C,SW2*%
X51632000Y-60668500D03*
D26*
X52052000Y-60668500D03*
D27*
X53322000Y-58128500D03*
X54592000Y-55588500D03*
D28*
X57132000Y-60668500D03*
D27*
X59672000Y-55588500D03*
X60942000Y-58128500D03*
D26*
X62212000Y-60668500D03*
D25*
X62632000Y-60668500D03*
D29*
X51532000Y-55588500D03*
X64032000Y-58128500D03*
%TD*%
D25*
%TO.C,SW3*%
X51632000Y-79718500D03*
D26*
X52052000Y-79718500D03*
D27*
X53322000Y-77178500D03*
X54592000Y-74638500D03*
D28*
X57132000Y-79718500D03*
D27*
X59672000Y-74638500D03*
X60942000Y-77178500D03*
D26*
X62212000Y-79718500D03*
D25*
X62632000Y-79718500D03*
D29*
X51532000Y-74638500D03*
X64032000Y-77178500D03*
%TD*%
D25*
%TO.C,SW4*%
X70682000Y-41618500D03*
D26*
X71102000Y-41618500D03*
D27*
X72372000Y-39078500D03*
X73642000Y-36538500D03*
D28*
X76182000Y-41618500D03*
D27*
X78722000Y-36538500D03*
X79992000Y-39078500D03*
D26*
X81262000Y-41618500D03*
D25*
X81682000Y-41618500D03*
D29*
X70582000Y-36538500D03*
X83082000Y-39078500D03*
%TD*%
D25*
%TO.C,SW5*%
X70682000Y-60668500D03*
D26*
X71102000Y-60668500D03*
D27*
X72372000Y-58128500D03*
X73642000Y-55588500D03*
D28*
X76182000Y-60668500D03*
D27*
X78722000Y-55588500D03*
X79992000Y-58128500D03*
D26*
X81262000Y-60668500D03*
D25*
X81682000Y-60668500D03*
D29*
X70582000Y-55588500D03*
X83082000Y-58128500D03*
%TD*%
D25*
%TO.C,SW6*%
X70682000Y-79718500D03*
D26*
X71102000Y-79718500D03*
D27*
X72372000Y-77178500D03*
X73642000Y-74638500D03*
D28*
X76182000Y-79718500D03*
D27*
X78722000Y-74638500D03*
X79992000Y-77178500D03*
D26*
X81262000Y-79718500D03*
D25*
X81682000Y-79718500D03*
D29*
X70582000Y-74638500D03*
X83082000Y-77178500D03*
%TD*%
D25*
%TO.C,SW7*%
X89732000Y-41618500D03*
D26*
X90152000Y-41618500D03*
D27*
X91422000Y-39078500D03*
X92692000Y-36538500D03*
D28*
X95232000Y-41618500D03*
D27*
X97772000Y-36538500D03*
X99042000Y-39078500D03*
D26*
X100312000Y-41618500D03*
D25*
X100732000Y-41618500D03*
D29*
X89632000Y-36538500D03*
X102132000Y-39078500D03*
%TD*%
D25*
%TO.C,SW8*%
X89732000Y-60668500D03*
D26*
X90152000Y-60668500D03*
D27*
X91422000Y-58128500D03*
X92692000Y-55588500D03*
D28*
X95232000Y-60668500D03*
D27*
X97772000Y-55588500D03*
X99042000Y-58128500D03*
D26*
X100312000Y-60668500D03*
D25*
X100732000Y-60668500D03*
D29*
X89632000Y-55588500D03*
X102132000Y-58128500D03*
%TD*%
D25*
%TO.C,SW9*%
X89732000Y-79718500D03*
D26*
X90152000Y-79718500D03*
D27*
X91422000Y-77178500D03*
X92692000Y-74638500D03*
D28*
X95232000Y-79718500D03*
D27*
X97772000Y-74638500D03*
X99042000Y-77178500D03*
D26*
X100312000Y-79718500D03*
D25*
X100732000Y-79718500D03*
D29*
X89632000Y-74638500D03*
X102132000Y-77178500D03*
%TD*%
D25*
%TO.C,SW10*%
X108782000Y-41618500D03*
D26*
X109202000Y-41618500D03*
D27*
X110472000Y-39078500D03*
X111742000Y-36538500D03*
D28*
X114282000Y-41618500D03*
D27*
X116822000Y-36538500D03*
X118092000Y-39078500D03*
D26*
X119362000Y-41618500D03*
D25*
X119782000Y-41618500D03*
D29*
X108682000Y-36538500D03*
X121182000Y-39078500D03*
%TD*%
D25*
%TO.C,SW11*%
X108782000Y-60668500D03*
D26*
X109202000Y-60668500D03*
D27*
X110472000Y-58128500D03*
X111742000Y-55588500D03*
D28*
X114282000Y-60668500D03*
D27*
X116822000Y-55588500D03*
X118092000Y-58128500D03*
D26*
X119362000Y-60668500D03*
D25*
X119782000Y-60668500D03*
D29*
X108682000Y-55588500D03*
X121182000Y-58128500D03*
%TD*%
D25*
%TO.C,SW12*%
X108782000Y-79718500D03*
D26*
X109202000Y-79718500D03*
D27*
X110472000Y-77178500D03*
X111742000Y-74638500D03*
D28*
X114282000Y-79718500D03*
D27*
X116822000Y-74638500D03*
X118092000Y-77178500D03*
D26*
X119362000Y-79718500D03*
D25*
X119782000Y-79718500D03*
D29*
X108682000Y-74638500D03*
X121182000Y-77178500D03*
%TD*%
D25*
%TO.C,SW13*%
X127832000Y-41618500D03*
D26*
X128252000Y-41618500D03*
D27*
X129522000Y-39078500D03*
X130792000Y-36538500D03*
D28*
X133332000Y-41618500D03*
D27*
X135872000Y-36538500D03*
X137142000Y-39078500D03*
D26*
X138412000Y-41618500D03*
D25*
X138832000Y-41618500D03*
D29*
X127732000Y-36538500D03*
X140232000Y-39078500D03*
%TD*%
D25*
%TO.C,SW14*%
X127832000Y-60668500D03*
D26*
X128252000Y-60668500D03*
D27*
X129522000Y-58128500D03*
X130792000Y-55588500D03*
D28*
X133332000Y-60668500D03*
D27*
X135872000Y-55588500D03*
X137142000Y-58128500D03*
D26*
X138412000Y-60668500D03*
D25*
X138832000Y-60668500D03*
D29*
X127732000Y-55588500D03*
X140232000Y-58128500D03*
%TD*%
D25*
%TO.C,SW15*%
X127832000Y-79718500D03*
D26*
X128252000Y-79718500D03*
D27*
X129522000Y-77178500D03*
X130792000Y-74638500D03*
D28*
X133332000Y-79718500D03*
D27*
X135872000Y-74638500D03*
X137142000Y-77178500D03*
D26*
X138412000Y-79718500D03*
D25*
X138832000Y-79718500D03*
D29*
X127732000Y-74638500D03*
X140232000Y-77178500D03*
%TD*%
D25*
%TO.C,SW16*%
X146882000Y-41618500D03*
D26*
X147302000Y-41618500D03*
D27*
X148572000Y-39078500D03*
X149842000Y-36538500D03*
D28*
X152382000Y-41618500D03*
D27*
X154922000Y-36538500D03*
X156192000Y-39078500D03*
D26*
X157462000Y-41618500D03*
D25*
X157882000Y-41618500D03*
D29*
X146782000Y-36538500D03*
X159282000Y-39078500D03*
%TD*%
D25*
%TO.C,SW17*%
X146882000Y-60668500D03*
D26*
X147302000Y-60668500D03*
D27*
X148572000Y-58128500D03*
X149842000Y-55588500D03*
D28*
X152382000Y-60668500D03*
D27*
X154922000Y-55588500D03*
X156192000Y-58128500D03*
D26*
X157462000Y-60668500D03*
D25*
X157882000Y-60668500D03*
D29*
X146782000Y-55588500D03*
X159282000Y-58128500D03*
%TD*%
D25*
%TO.C,SW18*%
X146882000Y-79718500D03*
D26*
X147302000Y-79718500D03*
D27*
X148572000Y-77178500D03*
X149842000Y-74638500D03*
D28*
X152382000Y-79718500D03*
D27*
X154922000Y-74638500D03*
X156192000Y-77178500D03*
D26*
X157462000Y-79718500D03*
D25*
X157882000Y-79718500D03*
D29*
X146782000Y-74638500D03*
X159282000Y-77178500D03*
%TD*%
D25*
%TO.C,SW19*%
X165932000Y-79718500D03*
D26*
X166352000Y-79718500D03*
D27*
X167622000Y-77178500D03*
X168892000Y-74638500D03*
D28*
X171432000Y-79718500D03*
D27*
X173972000Y-74638500D03*
X175242000Y-77178500D03*
D26*
X176512000Y-79718500D03*
D25*
X176932000Y-79718500D03*
D29*
X165832000Y-74638500D03*
X178332000Y-77178500D03*
%TD*%
D30*
%TO.C,U1*%
X170585500Y-55684000D03*
X170585500Y-56484000D03*
X170585500Y-57284000D03*
X170585500Y-58084000D03*
X170585500Y-58884000D03*
X170585500Y-59684000D03*
X170585500Y-60484000D03*
X170585500Y-61284000D03*
D31*
X172035500Y-62734000D03*
X172835500Y-62734000D03*
X173635500Y-62734000D03*
X174435500Y-62734000D03*
X175235500Y-62734000D03*
X176035500Y-62734000D03*
X176835500Y-62734000D03*
X177635500Y-62734000D03*
D30*
X179085500Y-61284000D03*
X179085500Y-60484000D03*
X179085500Y-59684000D03*
X179085500Y-58884000D03*
X179085500Y-58084000D03*
X179085500Y-57284000D03*
X179085500Y-56484000D03*
X179085500Y-55684000D03*
D31*
X177635500Y-54234000D03*
X176835500Y-54234000D03*
X176035500Y-54234000D03*
X175235500Y-54234000D03*
X174435500Y-54234000D03*
X173635500Y-54234000D03*
X172835500Y-54234000D03*
X172035500Y-54234000D03*
%TD*%
D32*
%TO.C,Y1*%
X166982000Y-55144000D03*
X164782000Y-55144000D03*
X164782000Y-56744000D03*
X166982000Y-56744000D03*
%TD*%
D33*
%TO.C,J2*%
X178836000Y-34341500D03*
X178836000Y-41341500D03*
D34*
X182086000Y-38941500D03*
X182086000Y-35941500D03*
X175586000Y-44041500D03*
X182086000Y-42941500D03*
%TD*%
D35*
%TO.C,D_H1*%
X165059500Y-66104000D03*
X168609500Y-66104000D03*
%TD*%
D36*
%TO.C,RSTSW1*%
X179979000Y-46190500D03*
X179979000Y-47890500D03*
D37*
X177729000Y-46990500D03*
X182229000Y-46990500D03*
%TD*%
D38*
%TO.C,R5*%
X171142000Y-41118500D03*
X170122000Y-41118500D03*
%TD*%
%TO.C,R6*%
X167132000Y-41118500D03*
X166112000Y-41118500D03*
%TD*%
D39*
%TO.C,D1*%
X65425000Y-45400000D03*
X65425000Y-41850000D03*
%TD*%
%TO.C,D2*%
X65425000Y-64450000D03*
X65425000Y-60900000D03*
%TD*%
%TO.C,D3*%
X65425000Y-83500000D03*
X65425000Y-79950000D03*
%TD*%
%TO.C,D7*%
X103525000Y-45400000D03*
X103525000Y-41850000D03*
%TD*%
%TO.C,D8*%
X103525000Y-64450000D03*
X103525000Y-60900000D03*
%TD*%
%TO.C,D10*%
X122575000Y-45400000D03*
X122575000Y-41850000D03*
%TD*%
%TO.C,D11*%
X122575000Y-64450000D03*
X122575000Y-60900000D03*
%TD*%
%TO.C,D12*%
X122575000Y-83500000D03*
X122575000Y-79950000D03*
%TD*%
%TO.C,D14*%
X141625000Y-64450000D03*
X141625000Y-60900000D03*
%TD*%
%TO.C,D15*%
X141625000Y-83500000D03*
X141625000Y-79950000D03*
%TD*%
%TO.C,D17*%
X160675000Y-64450000D03*
X160675000Y-60900000D03*
%TD*%
%TO.C,D18*%
X160675000Y-83500000D03*
X160675000Y-79950000D03*
%TD*%
%TO.C,D4*%
X84474999Y-45400000D03*
X84474999Y-41850000D03*
%TD*%
%TO.C,D5*%
X84474999Y-64450000D03*
X84474999Y-60900000D03*
%TD*%
%TO.C,D6*%
X84474999Y-83500000D03*
X84474999Y-79950000D03*
%TD*%
%TO.C,D9*%
X103525000Y-83500000D03*
X103525000Y-79950000D03*
%TD*%
%TO.C,D13*%
X141625000Y-45400000D03*
X141625000Y-41850000D03*
%TD*%
%TO.C,D16*%
X160675000Y-45400000D03*
X160675000Y-41850000D03*
%TD*%
%TO.C,D19*%
X179725000Y-83500000D03*
X179725000Y-79950000D03*
%TD*%
%LPD*%
M02*
