%TF.GenerationSoftware,KiCad,Pcbnew,8.0.7*%
%TF.CreationDate,2024-12-30T11:09:25+09:00*%
%TF.ProjectId,pisces,70697363-6573-42e6-9b69-6361645f7063,rev?*%
%TF.SameCoordinates,Original*%
%TF.FileFunction,Soldermask,Bot*%
%TF.FilePolarity,Negative*%
%FSLAX46Y46*%
G04 Gerber Fmt 4.6, Leading zero omitted, Abs format (unit mm)*
G04 Created by KiCad (PCBNEW 8.0.7) date 2024-12-30 11:09:25*
%MOMM*%
%LPD*%
G01*
G04 APERTURE LIST*
%ADD10C,5.000000*%
%ADD11C,0.650000*%
%ADD12O,1.000000X2.100000*%
%ADD13O,1.000000X1.600000*%
%ADD14C,1.900000*%
%ADD15C,1.700000*%
%ADD16C,3.000000*%
%ADD17C,4.000000*%
%ADD18R,2.000000X2.000000*%
%ADD19C,1.500000*%
%ADD20R,2.500000X1.200000*%
%ADD21R,1.300000X0.950000*%
%ADD22C,0.750000*%
%ADD23R,1.100000X1.600000*%
%ADD24R,0.950000X1.300000*%
G04 APERTURE END LIST*
D10*
%TO.C,HOLE1*%
X66657000Y-51143500D03*
%TD*%
%TO.C,HOLE2*%
X66657000Y-70193500D03*
%TD*%
%TO.C,HOLE7*%
X104757000Y-51143500D03*
%TD*%
%TO.C,HOLE8*%
X104757000Y-70193500D03*
%TD*%
%TO.C,HOLE13*%
X142857000Y-51143500D03*
%TD*%
%TO.C,HOLE14*%
X142857000Y-70193500D03*
%TD*%
D11*
%TO.C,J1*%
X170550000Y-37298500D03*
X164770000Y-37298500D03*
D12*
X171980000Y-37798500D03*
D13*
X171980000Y-33618500D03*
D12*
X163340000Y-37798500D03*
D13*
X163340000Y-33618500D03*
%TD*%
D14*
%TO.C,SW1*%
X51632000Y-41618500D03*
D15*
X52052000Y-41618500D03*
D16*
X53322000Y-39078500D03*
X54592000Y-36538500D03*
D17*
X57132000Y-41618500D03*
D16*
X59672000Y-36538500D03*
X60942000Y-39078500D03*
D15*
X62212000Y-41618500D03*
D14*
X62632000Y-41618500D03*
D18*
X50232000Y-39078500D03*
X62732000Y-36538500D03*
%TD*%
D14*
%TO.C,SW2*%
X51632000Y-60668500D03*
D15*
X52052000Y-60668500D03*
D16*
X53322000Y-58128500D03*
X54592000Y-55588500D03*
D17*
X57132000Y-60668500D03*
D16*
X59672000Y-55588500D03*
X60942000Y-58128500D03*
D15*
X62212000Y-60668500D03*
D14*
X62632000Y-60668500D03*
D18*
X50232000Y-58128500D03*
X62732000Y-55588500D03*
%TD*%
D14*
%TO.C,SW3*%
X51632000Y-79718500D03*
D15*
X52052000Y-79718500D03*
D16*
X53322000Y-77178500D03*
X54592000Y-74638500D03*
D17*
X57132000Y-79718500D03*
D16*
X59672000Y-74638500D03*
X60942000Y-77178500D03*
D15*
X62212000Y-79718500D03*
D14*
X62632000Y-79718500D03*
D18*
X50232000Y-77178500D03*
X62732000Y-74638500D03*
%TD*%
D14*
%TO.C,SW4*%
X70682000Y-41618500D03*
D15*
X71102000Y-41618500D03*
D16*
X72372000Y-39078500D03*
X73642000Y-36538500D03*
D17*
X76182000Y-41618500D03*
D16*
X78722000Y-36538500D03*
X79992000Y-39078500D03*
D15*
X81262000Y-41618500D03*
D14*
X81682000Y-41618500D03*
D18*
X69282000Y-39078500D03*
X81782000Y-36538500D03*
%TD*%
D14*
%TO.C,SW5*%
X70682000Y-60668500D03*
D15*
X71102000Y-60668500D03*
D16*
X72372000Y-58128500D03*
X73642000Y-55588500D03*
D17*
X76182000Y-60668500D03*
D16*
X78722000Y-55588500D03*
X79992000Y-58128500D03*
D15*
X81262000Y-60668500D03*
D14*
X81682000Y-60668500D03*
D18*
X69282000Y-58128500D03*
X81782000Y-55588500D03*
%TD*%
D14*
%TO.C,SW6*%
X70682000Y-79718500D03*
D15*
X71102000Y-79718500D03*
D16*
X72372000Y-77178500D03*
X73642000Y-74638500D03*
D17*
X76182000Y-79718500D03*
D16*
X78722000Y-74638500D03*
X79992000Y-77178500D03*
D15*
X81262000Y-79718500D03*
D14*
X81682000Y-79718500D03*
D18*
X69282000Y-77178500D03*
X81782000Y-74638500D03*
%TD*%
D14*
%TO.C,SW7*%
X89732000Y-41618500D03*
D15*
X90152000Y-41618500D03*
D16*
X91422000Y-39078500D03*
X92692000Y-36538500D03*
D17*
X95232000Y-41618500D03*
D16*
X97772000Y-36538500D03*
X99042000Y-39078500D03*
D15*
X100312000Y-41618500D03*
D14*
X100732000Y-41618500D03*
D18*
X88332000Y-39078500D03*
X100832000Y-36538500D03*
%TD*%
D14*
%TO.C,SW8*%
X89732000Y-60668500D03*
D15*
X90152000Y-60668500D03*
D16*
X91422000Y-58128500D03*
X92692000Y-55588500D03*
D17*
X95232000Y-60668500D03*
D16*
X97772000Y-55588500D03*
X99042000Y-58128500D03*
D15*
X100312000Y-60668500D03*
D14*
X100732000Y-60668500D03*
D18*
X88332000Y-58128500D03*
X100832000Y-55588500D03*
%TD*%
D14*
%TO.C,SW9*%
X89732000Y-79718500D03*
D15*
X90152000Y-79718500D03*
D16*
X91422000Y-77178500D03*
X92692000Y-74638500D03*
D17*
X95232000Y-79718500D03*
D16*
X97772000Y-74638500D03*
X99042000Y-77178500D03*
D15*
X100312000Y-79718500D03*
D14*
X100732000Y-79718500D03*
D18*
X88332000Y-77178500D03*
X100832000Y-74638500D03*
%TD*%
D14*
%TO.C,SW10*%
X108782000Y-41618500D03*
D15*
X109202000Y-41618500D03*
D16*
X110472000Y-39078500D03*
X111742000Y-36538500D03*
D17*
X114282000Y-41618500D03*
D16*
X116822000Y-36538500D03*
X118092000Y-39078500D03*
D15*
X119362000Y-41618500D03*
D14*
X119782000Y-41618500D03*
D18*
X107382000Y-39078500D03*
X119882000Y-36538500D03*
%TD*%
D14*
%TO.C,SW11*%
X108782000Y-60668500D03*
D15*
X109202000Y-60668500D03*
D16*
X110472000Y-58128500D03*
X111742000Y-55588500D03*
D17*
X114282000Y-60668500D03*
D16*
X116822000Y-55588500D03*
X118092000Y-58128500D03*
D15*
X119362000Y-60668500D03*
D14*
X119782000Y-60668500D03*
D18*
X107382000Y-58128500D03*
X119882000Y-55588500D03*
%TD*%
D14*
%TO.C,SW12*%
X108782000Y-79718500D03*
D15*
X109202000Y-79718500D03*
D16*
X110472000Y-77178500D03*
X111742000Y-74638500D03*
D17*
X114282000Y-79718500D03*
D16*
X116822000Y-74638500D03*
X118092000Y-77178500D03*
D15*
X119362000Y-79718500D03*
D14*
X119782000Y-79718500D03*
D18*
X107382000Y-77178500D03*
X119882000Y-74638500D03*
%TD*%
D14*
%TO.C,SW13*%
X127832000Y-41618500D03*
D15*
X128252000Y-41618500D03*
D16*
X129522000Y-39078500D03*
X130792000Y-36538500D03*
D17*
X133332000Y-41618500D03*
D16*
X135872000Y-36538500D03*
X137142000Y-39078500D03*
D15*
X138412000Y-41618500D03*
D14*
X138832000Y-41618500D03*
D18*
X126432000Y-39078500D03*
X138932000Y-36538500D03*
%TD*%
D14*
%TO.C,SW14*%
X127832000Y-60668500D03*
D15*
X128252000Y-60668500D03*
D16*
X129522000Y-58128500D03*
X130792000Y-55588500D03*
D17*
X133332000Y-60668500D03*
D16*
X135872000Y-55588500D03*
X137142000Y-58128500D03*
D15*
X138412000Y-60668500D03*
D14*
X138832000Y-60668500D03*
D18*
X126432000Y-58128500D03*
X138932000Y-55588500D03*
%TD*%
D14*
%TO.C,SW15*%
X127832000Y-79718500D03*
D15*
X128252000Y-79718500D03*
D16*
X129522000Y-77178500D03*
X130792000Y-74638500D03*
D17*
X133332000Y-79718500D03*
D16*
X135872000Y-74638500D03*
X137142000Y-77178500D03*
D15*
X138412000Y-79718500D03*
D14*
X138832000Y-79718500D03*
D18*
X126432000Y-77178500D03*
X138932000Y-74638500D03*
%TD*%
D14*
%TO.C,SW16*%
X146882000Y-41618500D03*
D15*
X147302000Y-41618500D03*
D16*
X148572000Y-39078500D03*
X149842000Y-36538500D03*
D17*
X152382000Y-41618500D03*
D16*
X154922000Y-36538500D03*
X156192000Y-39078500D03*
D15*
X157462000Y-41618500D03*
D14*
X157882000Y-41618500D03*
D18*
X145482000Y-39078500D03*
X157982000Y-36538500D03*
%TD*%
D14*
%TO.C,SW17*%
X146882000Y-60668500D03*
D15*
X147302000Y-60668500D03*
D16*
X148572000Y-58128500D03*
X149842000Y-55588500D03*
D17*
X152382000Y-60668500D03*
D16*
X154922000Y-55588500D03*
X156192000Y-58128500D03*
D15*
X157462000Y-60668500D03*
D14*
X157882000Y-60668500D03*
D18*
X145482000Y-58128500D03*
X157982000Y-55588500D03*
%TD*%
D14*
%TO.C,SW18*%
X146882000Y-79718500D03*
D15*
X147302000Y-79718500D03*
D16*
X148572000Y-77178500D03*
X149842000Y-74638500D03*
D17*
X152382000Y-79718500D03*
D16*
X154922000Y-74638500D03*
X156192000Y-77178500D03*
D15*
X157462000Y-79718500D03*
D14*
X157882000Y-79718500D03*
D18*
X145482000Y-77178500D03*
X157982000Y-74638500D03*
%TD*%
D14*
%TO.C,SW19*%
X165932000Y-79718500D03*
D15*
X166352000Y-79718500D03*
D16*
X167622000Y-77178500D03*
X168892000Y-74638500D03*
D17*
X171432000Y-79718500D03*
D16*
X173972000Y-74638500D03*
X175242000Y-77178500D03*
D15*
X176512000Y-79718500D03*
D14*
X176932000Y-79718500D03*
D18*
X164532000Y-77178500D03*
X177032000Y-74638500D03*
%TD*%
D19*
%TO.C,J2*%
X178836000Y-34341500D03*
X178836000Y-41341500D03*
D20*
X175586000Y-38931500D03*
X175586000Y-35931500D03*
X182086000Y-44031500D03*
X175586000Y-42931500D03*
%TD*%
D21*
%TO.C,D_H1*%
X165059500Y-66104000D03*
X168609500Y-66104000D03*
%TD*%
D22*
%TO.C,RSTSW1*%
X179979000Y-46190500D03*
X179979000Y-47890500D03*
D23*
X177729000Y-46990500D03*
X182229000Y-46990500D03*
%TD*%
D24*
%TO.C,D1*%
X65425000Y-45400000D03*
X65425000Y-41850000D03*
%TD*%
%TO.C,D2*%
X65425000Y-64450000D03*
X65425000Y-60900000D03*
%TD*%
%TO.C,D3*%
X65425000Y-83500000D03*
X65425000Y-79950000D03*
%TD*%
%TO.C,D7*%
X103525000Y-45400000D03*
X103525000Y-41850000D03*
%TD*%
%TO.C,D8*%
X103525000Y-64450000D03*
X103525000Y-60900000D03*
%TD*%
%TO.C,D10*%
X122575000Y-45400000D03*
X122575000Y-41850000D03*
%TD*%
%TO.C,D11*%
X122575000Y-64450000D03*
X122575000Y-60900000D03*
%TD*%
%TO.C,D12*%
X122575000Y-83500000D03*
X122575000Y-79950000D03*
%TD*%
%TO.C,D14*%
X141625000Y-64450000D03*
X141625000Y-60900000D03*
%TD*%
%TO.C,D15*%
X141625000Y-83500000D03*
X141625000Y-79950000D03*
%TD*%
%TO.C,D17*%
X160675000Y-64450000D03*
X160675000Y-60900000D03*
%TD*%
%TO.C,D18*%
X160675000Y-83500000D03*
X160675000Y-79950000D03*
%TD*%
%TO.C,D4*%
X84474999Y-45400000D03*
X84474999Y-41850000D03*
%TD*%
%TO.C,D5*%
X84474999Y-64450000D03*
X84474999Y-60900000D03*
%TD*%
%TO.C,D6*%
X84474999Y-83500000D03*
X84474999Y-79950000D03*
%TD*%
%TO.C,D9*%
X103525000Y-83500000D03*
X103525000Y-79950000D03*
%TD*%
%TO.C,D13*%
X141625000Y-45400000D03*
X141625000Y-41850000D03*
%TD*%
%TO.C,D16*%
X160675000Y-45400000D03*
X160675000Y-41850000D03*
%TD*%
%TO.C,D19*%
X179725000Y-83500000D03*
X179725000Y-79950000D03*
%TD*%
M02*
