M48
; DRILL file {KiCad 8.0.7} date 2024-12-30T11:07:06+0900
; FORMAT={-:-/ absolute / inch / decimal}
; #@! TF.CreationDate,2024-12-30T11:07:06+09:00
; #@! TF.GenerationSoftware,Kicad,Pcbnew,8.0.7
; #@! TF.FileFunction,NonPlated,1,2,NPTH
FMAT,2
INCH
; #@! TA.AperFunction,NonPlated,NPTH,ComponentDrill
T1C0.0256
; #@! TA.AperFunction,NonPlated,NPTH,ComponentDrill
T2C0.0295
; #@! TA.AperFunction,NonPlated,NPTH,ComponentDrill
T3C0.0591
; #@! TA.AperFunction,NonPlated,NPTH,ComponentDrill
T4C0.0669
; #@! TA.AperFunction,NonPlated,NPTH,ComponentDrill
T5C0.0748
; #@! TA.AperFunction,NonPlated,NPTH,ComponentDrill
T6C0.1181
; #@! TA.AperFunction,NonPlated,NPTH,ComponentDrill
T7C0.1575
; #@! TA.AperFunction,NonPlated,NPTH,ComponentDrill
T8C0.1890
%
G90
G05
T1
X6.487Y-1.4684
X6.7146Y-1.4684
T2
X7.0858Y-1.8185
X7.0858Y-1.8855
T3
X7.0408Y-1.352
X7.0408Y-1.6276
T4
X2.0493Y-1.6385
X2.0493Y-2.3885
X2.0493Y-3.1385
X2.4493Y-1.6385
X2.4493Y-2.3885
X2.4493Y-3.1385
X2.7993Y-1.6385
X2.7993Y-2.3885
X2.7993Y-3.1385
X3.1993Y-1.6385
X3.1993Y-2.3885
X3.1993Y-3.1385
X3.5493Y-1.6385
X3.5493Y-2.3885
X3.5493Y-3.1385
X3.9493Y-1.6385
X3.9493Y-2.3885
X3.9493Y-3.1385
X4.2993Y-1.6385
X4.2993Y-2.3885
X4.2993Y-3.1385
X4.6993Y-1.6385
X4.6993Y-2.3885
X4.6993Y-3.1385
X5.0493Y-1.6385
X5.0493Y-2.3885
X5.0493Y-3.1385
X5.4493Y-1.6385
X5.4493Y-2.3885
X5.4493Y-3.1385
X5.7993Y-1.6385
X5.7993Y-2.3885
X5.7993Y-3.1385
X6.1993Y-1.6385
X6.1993Y-2.3885
X6.1993Y-3.1385
X6.5493Y-3.1385
X6.9493Y-3.1385
T5
X2.0328Y-1.6385
X2.0328Y-2.3885
X2.0328Y-3.1385
X2.4658Y-1.6385
X2.4658Y-2.3885
X2.4658Y-3.1385
X2.7828Y-1.6385
X2.7828Y-2.3885
X2.7828Y-3.1385
X3.2158Y-1.6385
X3.2158Y-2.3885
X3.2158Y-3.1385
X3.5328Y-1.6385
X3.5328Y-2.3885
X3.5328Y-3.1385
X3.9658Y-1.6385
X3.9658Y-2.3885
X3.9658Y-3.1385
X4.2828Y-1.6385
X4.2828Y-2.3885
X4.2828Y-3.1385
X4.7158Y-1.6385
X4.7158Y-2.3885
X4.7158Y-3.1385
X5.0328Y-1.6385
X5.0328Y-2.3885
X5.0328Y-3.1385
X5.4658Y-1.6385
X5.4658Y-2.3885
X5.4658Y-3.1385
X5.7828Y-1.6385
X5.7828Y-2.3885
X5.7828Y-3.1385
X6.2158Y-1.6385
X6.2158Y-2.3885
X6.2158Y-3.1385
X6.5328Y-3.1385
X6.9658Y-3.1385
T6
X2.0993Y-1.5385
X2.0993Y-2.2885
X2.0993Y-3.0385
X2.1493Y-1.4385
X2.1493Y-2.1885
X2.1493Y-2.9385
X2.3493Y-1.4385
X2.3493Y-2.1885
X2.3493Y-2.9385
X2.3993Y-1.5385
X2.3993Y-2.2885
X2.3993Y-3.0385
X2.8493Y-1.5385
X2.8493Y-2.2885
X2.8493Y-3.0385
X2.8993Y-1.4385
X2.8993Y-2.1885
X2.8993Y-2.9385
X3.0993Y-1.4385
X3.0993Y-2.1885
X3.0993Y-2.9385
X3.1493Y-1.5385
X3.1493Y-2.2885
X3.1493Y-3.0385
X3.5993Y-1.5385
X3.5993Y-2.2885
X3.5993Y-3.0385
X3.6493Y-1.4385
X3.6493Y-2.1885
X3.6493Y-2.9385
X3.8493Y-1.4385
X3.8493Y-2.1885
X3.8493Y-2.9385
X3.8993Y-1.5385
X3.8993Y-2.2885
X3.8993Y-3.0385
X4.3493Y-1.5385
X4.3493Y-2.2885
X4.3493Y-3.0385
X4.3993Y-1.4385
X4.3993Y-2.1885
X4.3993Y-2.9385
X4.5993Y-1.4385
X4.5993Y-2.1885
X4.5993Y-2.9385
X4.6493Y-1.5385
X4.6493Y-2.2885
X4.6493Y-3.0385
X5.0993Y-1.5385
X5.0993Y-2.2885
X5.0993Y-3.0385
X5.1493Y-1.4385
X5.1493Y-2.1885
X5.1493Y-2.9385
X5.3493Y-1.4385
X5.3493Y-2.1885
X5.3493Y-2.9385
X5.3993Y-1.5385
X5.3993Y-2.2885
X5.3993Y-3.0385
X5.8493Y-1.5385
X5.8493Y-2.2885
X5.8493Y-3.0385
X5.8993Y-1.4385
X5.8993Y-2.1885
X5.8993Y-2.9385
X6.0993Y-1.4385
X6.0993Y-2.1885
X6.0993Y-2.9385
X6.1493Y-1.5385
X6.1493Y-2.2885
X6.1493Y-3.0385
X6.5993Y-3.0385
X6.6493Y-2.9385
X6.8493Y-2.9385
X6.8993Y-3.0385
T7
X2.2493Y-1.6385
X2.2493Y-2.3885
X2.2493Y-3.1385
X2.9993Y-1.6385
X2.9993Y-2.3885
X2.9993Y-3.1385
X3.7493Y-1.6385
X3.7493Y-2.3885
X3.7493Y-3.1385
X4.4993Y-1.6385
X4.4993Y-2.3885
X4.4993Y-3.1385
X5.2493Y-1.6385
X5.2493Y-2.3885
X5.2493Y-3.1385
X5.9993Y-1.6385
X5.9993Y-2.3885
X5.9993Y-3.1385
X6.7493Y-3.1385
T8
X2.6243Y-2.0135
X2.6243Y-2.7635
X4.1243Y-2.0135
X4.1243Y-2.7635
X5.6243Y-2.0135
X5.6243Y-2.7635
M30
