%TF.GenerationSoftware,KiCad,Pcbnew,8.0.7*%
%TF.CreationDate,2024-12-28T18:02:33+09:00*%
%TF.ProjectId,pisces,70697363-6573-42e6-9b69-6361645f7063,rev?*%
%TF.SameCoordinates,Original*%
%TF.FileFunction,Paste,Bot*%
%TF.FilePolarity,Positive*%
%FSLAX46Y46*%
G04 Gerber Fmt 4.6, Leading zero omitted, Abs format (unit mm)*
G04 Created by KiCad (PCBNEW 8.0.7) date 2024-12-28 18:02:33*
%MOMM*%
%LPD*%
G01*
G04 APERTURE LIST*
%ADD10R,2.000000X2.000000*%
%ADD11R,2.500000X1.200000*%
%ADD12R,1.300000X0.950000*%
%ADD13R,1.100000X1.600000*%
%ADD14R,0.950000X1.300000*%
G04 APERTURE END LIST*
D10*
%TO.C,SW1*%
X43100000Y-47460000D03*
X55600000Y-44920000D03*
%TD*%
%TO.C,SW2*%
X43100000Y-66510000D03*
X55600000Y-63970000D03*
%TD*%
%TO.C,SW3*%
X43100000Y-85560000D03*
X55600000Y-83020000D03*
%TD*%
%TO.C,SW4*%
X62150000Y-47460000D03*
X74650000Y-44920000D03*
%TD*%
%TO.C,SW5*%
X62150000Y-66510000D03*
X74650000Y-63970000D03*
%TD*%
%TO.C,SW6*%
X62150000Y-85560000D03*
X74650000Y-83020000D03*
%TD*%
%TO.C,SW7*%
X81200000Y-47460000D03*
X93700000Y-44920000D03*
%TD*%
%TO.C,SW8*%
X81200000Y-66510000D03*
X93700000Y-63970000D03*
%TD*%
%TO.C,SW9*%
X81200000Y-85560000D03*
X93700000Y-83020000D03*
%TD*%
%TO.C,SW10*%
X100250000Y-47460000D03*
X112750000Y-44920000D03*
%TD*%
%TO.C,SW11*%
X100250000Y-66510000D03*
X112750000Y-63970000D03*
%TD*%
%TO.C,SW12*%
X100250000Y-85560000D03*
X112750000Y-83020000D03*
%TD*%
%TO.C,SW13*%
X119300000Y-47460000D03*
X131800000Y-44920000D03*
%TD*%
%TO.C,SW14*%
X119300000Y-66510000D03*
X131800000Y-63970000D03*
%TD*%
%TO.C,SW15*%
X119300000Y-85560000D03*
X131800000Y-83020000D03*
%TD*%
%TO.C,SW16*%
X138350000Y-47460000D03*
X150850000Y-44920000D03*
%TD*%
%TO.C,SW17*%
X138350000Y-66510000D03*
X150850000Y-63970000D03*
%TD*%
%TO.C,SW18*%
X138350000Y-85560000D03*
X150850000Y-83020000D03*
%TD*%
%TO.C,SW19*%
X157400000Y-85560000D03*
X169900000Y-83020000D03*
%TD*%
D11*
%TO.C,J2*%
X168454000Y-47313000D03*
X168454000Y-44313000D03*
X174954000Y-52413000D03*
X168454000Y-51313000D03*
%TD*%
D12*
%TO.C,D_H1*%
X157927500Y-74485500D03*
X161477500Y-74485500D03*
%TD*%
D13*
%TO.C,RSTSW1*%
X170597000Y-55372000D03*
X175097000Y-55372000D03*
%TD*%
D14*
%TO.C,D1*%
X58293000Y-53781500D03*
X58293000Y-50231500D03*
%TD*%
%TO.C,D2*%
X58293000Y-72831500D03*
X58293000Y-69281500D03*
%TD*%
%TO.C,D3*%
X58293000Y-91881500D03*
X58293000Y-88331500D03*
%TD*%
%TO.C,D7*%
X96393000Y-53781500D03*
X96393000Y-50231500D03*
%TD*%
%TO.C,D8*%
X96393000Y-72831500D03*
X96393000Y-69281500D03*
%TD*%
%TO.C,D10*%
X115443000Y-53781500D03*
X115443000Y-50231500D03*
%TD*%
%TO.C,D11*%
X115443000Y-72831500D03*
X115443000Y-69281500D03*
%TD*%
%TO.C,D12*%
X115443000Y-91881500D03*
X115443000Y-88331500D03*
%TD*%
%TO.C,D14*%
X134493000Y-72831500D03*
X134493000Y-69281500D03*
%TD*%
%TO.C,D15*%
X134493000Y-91881500D03*
X134493000Y-88331500D03*
%TD*%
%TO.C,D17*%
X153543000Y-72831500D03*
X153543000Y-69281500D03*
%TD*%
%TO.C,D18*%
X153543000Y-91881500D03*
X153543000Y-88331500D03*
%TD*%
%TO.C,D4*%
X77342999Y-53781500D03*
X77342999Y-50231500D03*
%TD*%
%TO.C,D5*%
X77342999Y-72831500D03*
X77342999Y-69281500D03*
%TD*%
%TO.C,D6*%
X77342999Y-91881500D03*
X77342999Y-88331500D03*
%TD*%
%TO.C,D9*%
X96393000Y-91881500D03*
X96393000Y-88331500D03*
%TD*%
%TO.C,D13*%
X134493000Y-53781500D03*
X134493000Y-50231500D03*
%TD*%
%TO.C,D16*%
X153543000Y-53781500D03*
X153543000Y-50231500D03*
%TD*%
%TO.C,D19*%
X172593000Y-91881500D03*
X172593000Y-88331500D03*
%TD*%
M02*
