%TF.GenerationSoftware,KiCad,Pcbnew,8.0.7*%
%TF.CreationDate,2024-12-29T11:12:43+09:00*%
%TF.ProjectId,pisces,70697363-6573-42e6-9b69-6361645f7063,rev?*%
%TF.SameCoordinates,Original*%
%TF.FileFunction,Legend,Top*%
%TF.FilePolarity,Positive*%
%FSLAX46Y46*%
G04 Gerber Fmt 4.6, Leading zero omitted, Abs format (unit mm)*
G04 Created by KiCad (PCBNEW 8.0.7) date 2024-12-29 11:12:43*
%MOMM*%
%LPD*%
G01*
G04 APERTURE LIST*
G04 Aperture macros list*
%AMRoundRect*
0 Rectangle with rounded corners*
0 $1 Rounding radius*
0 $2 $3 $4 $5 $6 $7 $8 $9 X,Y pos of 4 corners*
0 Add a 4 corners polygon primitive as box body*
4,1,4,$2,$3,$4,$5,$6,$7,$8,$9,$2,$3,0*
0 Add four circle primitives for the rounded corners*
1,1,$1+$1,$2,$3*
1,1,$1+$1,$4,$5*
1,1,$1+$1,$6,$7*
1,1,$1+$1,$8,$9*
0 Add four rect primitives between the rounded corners*
20,1,$1+$1,$2,$3,$4,$5,0*
20,1,$1+$1,$4,$5,$6,$7,0*
20,1,$1+$1,$6,$7,$8,$9,0*
20,1,$1+$1,$8,$9,$2,$3,0*%
G04 Aperture macros list end*
%ADD10C,0.150000*%
%ADD11C,0.120000*%
%ADD12C,0.127000*%
%ADD13C,0.200000*%
%ADD14C,5.000000*%
%ADD15RoundRect,0.140000X0.140000X0.170000X-0.140000X0.170000X-0.140000X-0.170000X0.140000X-0.170000X0*%
%ADD16RoundRect,0.140000X-0.140000X-0.170000X0.140000X-0.170000X0.140000X0.170000X-0.140000X0.170000X0*%
%ADD17RoundRect,0.250000X0.250000X0.475000X-0.250000X0.475000X-0.250000X-0.475000X0.250000X-0.475000X0*%
%ADD18RoundRect,0.225000X0.225000X0.250000X-0.225000X0.250000X-0.225000X-0.250000X0.225000X-0.250000X0*%
%ADD19R,1.820000X1.060000*%
%ADD20R,0.400000X1.350000*%
%ADD21R,1.600000X1.900000*%
%ADD22R,2.100000X2.000000*%
%ADD23R,1.200000X1.900000*%
%ADD24RoundRect,0.200000X0.275000X-0.200000X0.275000X0.200000X-0.275000X0.200000X-0.275000X-0.200000X0*%
%ADD25RoundRect,0.200000X-0.200000X-0.275000X0.200000X-0.275000X0.200000X0.275000X-0.200000X0.275000X0*%
%ADD26RoundRect,0.200000X0.200000X0.275000X-0.200000X0.275000X-0.200000X-0.275000X0.200000X-0.275000X0*%
%ADD27C,1.900000*%
%ADD28C,1.700000*%
%ADD29C,3.000000*%
%ADD30C,4.000000*%
%ADD31R,2.000000X2.000000*%
%ADD32R,1.600000X0.550000*%
%ADD33R,0.550000X1.600000*%
%ADD34R,1.400000X1.200000*%
%ADD35C,1.500000*%
%ADD36R,2.500000X1.200000*%
%ADD37R,1.300000X0.950000*%
%ADD38C,0.750000*%
%ADD39R,1.100000X1.600000*%
%ADD40R,0.950000X1.300000*%
G04 APERTURE END LIST*
D10*
X158059643Y-76718319D02*
X158059643Y-75718319D01*
X158059643Y-75718319D02*
X158297738Y-75718319D01*
X158297738Y-75718319D02*
X158440595Y-75765938D01*
X158440595Y-75765938D02*
X158535833Y-75861176D01*
X158535833Y-75861176D02*
X158583452Y-75956414D01*
X158583452Y-75956414D02*
X158631071Y-76146890D01*
X158631071Y-76146890D02*
X158631071Y-76289747D01*
X158631071Y-76289747D02*
X158583452Y-76480223D01*
X158583452Y-76480223D02*
X158535833Y-76575461D01*
X158535833Y-76575461D02*
X158440595Y-76670700D01*
X158440595Y-76670700D02*
X158297738Y-76718319D01*
X158297738Y-76718319D02*
X158059643Y-76718319D01*
X158821548Y-76813557D02*
X159583452Y-76813557D01*
X159821548Y-76718319D02*
X159821548Y-75718319D01*
X159821548Y-76194509D02*
X160392976Y-76194509D01*
X160392976Y-76718319D02*
X160392976Y-75718319D01*
X161392976Y-76718319D02*
X160821548Y-76718319D01*
X161107262Y-76718319D02*
X161107262Y-75718319D01*
X161107262Y-75718319D02*
X161012024Y-75861176D01*
X161012024Y-75861176D02*
X160916786Y-75956414D01*
X160916786Y-75956414D02*
X160821548Y-76004033D01*
X159853333Y-63114580D02*
X159805714Y-63162200D01*
X159805714Y-63162200D02*
X159662857Y-63209819D01*
X159662857Y-63209819D02*
X159567619Y-63209819D01*
X159567619Y-63209819D02*
X159424762Y-63162200D01*
X159424762Y-63162200D02*
X159329524Y-63066961D01*
X159329524Y-63066961D02*
X159281905Y-62971723D01*
X159281905Y-62971723D02*
X159234286Y-62781247D01*
X159234286Y-62781247D02*
X159234286Y-62638390D01*
X159234286Y-62638390D02*
X159281905Y-62447914D01*
X159281905Y-62447914D02*
X159329524Y-62352676D01*
X159329524Y-62352676D02*
X159424762Y-62257438D01*
X159424762Y-62257438D02*
X159567619Y-62209819D01*
X159567619Y-62209819D02*
X159662857Y-62209819D01*
X159662857Y-62209819D02*
X159805714Y-62257438D01*
X159805714Y-62257438D02*
X159853333Y-62305057D01*
X160805714Y-63209819D02*
X160234286Y-63209819D01*
X160520000Y-63209819D02*
X160520000Y-62209819D01*
X160520000Y-62209819D02*
X160424762Y-62352676D01*
X160424762Y-62352676D02*
X160329524Y-62447914D01*
X160329524Y-62447914D02*
X160234286Y-62495533D01*
X159853333Y-66509580D02*
X159805714Y-66557200D01*
X159805714Y-66557200D02*
X159662857Y-66604819D01*
X159662857Y-66604819D02*
X159567619Y-66604819D01*
X159567619Y-66604819D02*
X159424762Y-66557200D01*
X159424762Y-66557200D02*
X159329524Y-66461961D01*
X159329524Y-66461961D02*
X159281905Y-66366723D01*
X159281905Y-66366723D02*
X159234286Y-66176247D01*
X159234286Y-66176247D02*
X159234286Y-66033390D01*
X159234286Y-66033390D02*
X159281905Y-65842914D01*
X159281905Y-65842914D02*
X159329524Y-65747676D01*
X159329524Y-65747676D02*
X159424762Y-65652438D01*
X159424762Y-65652438D02*
X159567619Y-65604819D01*
X159567619Y-65604819D02*
X159662857Y-65604819D01*
X159662857Y-65604819D02*
X159805714Y-65652438D01*
X159805714Y-65652438D02*
X159853333Y-65700057D01*
X160234286Y-65700057D02*
X160281905Y-65652438D01*
X160281905Y-65652438D02*
X160377143Y-65604819D01*
X160377143Y-65604819D02*
X160615238Y-65604819D01*
X160615238Y-65604819D02*
X160710476Y-65652438D01*
X160710476Y-65652438D02*
X160758095Y-65700057D01*
X160758095Y-65700057D02*
X160805714Y-65795295D01*
X160805714Y-65795295D02*
X160805714Y-65890533D01*
X160805714Y-65890533D02*
X160758095Y-66033390D01*
X160758095Y-66033390D02*
X160186667Y-66604819D01*
X160186667Y-66604819D02*
X160805714Y-66604819D01*
X168743333Y-59622080D02*
X168695714Y-59669700D01*
X168695714Y-59669700D02*
X168552857Y-59717319D01*
X168552857Y-59717319D02*
X168457619Y-59717319D01*
X168457619Y-59717319D02*
X168314762Y-59669700D01*
X168314762Y-59669700D02*
X168219524Y-59574461D01*
X168219524Y-59574461D02*
X168171905Y-59479223D01*
X168171905Y-59479223D02*
X168124286Y-59288747D01*
X168124286Y-59288747D02*
X168124286Y-59145890D01*
X168124286Y-59145890D02*
X168171905Y-58955414D01*
X168171905Y-58955414D02*
X168219524Y-58860176D01*
X168219524Y-58860176D02*
X168314762Y-58764938D01*
X168314762Y-58764938D02*
X168457619Y-58717319D01*
X168457619Y-58717319D02*
X168552857Y-58717319D01*
X168552857Y-58717319D02*
X168695714Y-58764938D01*
X168695714Y-58764938D02*
X168743333Y-58812557D01*
X169076667Y-58717319D02*
X169695714Y-58717319D01*
X169695714Y-58717319D02*
X169362381Y-59098271D01*
X169362381Y-59098271D02*
X169505238Y-59098271D01*
X169505238Y-59098271D02*
X169600476Y-59145890D01*
X169600476Y-59145890D02*
X169648095Y-59193509D01*
X169648095Y-59193509D02*
X169695714Y-59288747D01*
X169695714Y-59288747D02*
X169695714Y-59526842D01*
X169695714Y-59526842D02*
X169648095Y-59622080D01*
X169648095Y-59622080D02*
X169600476Y-59669700D01*
X169600476Y-59669700D02*
X169505238Y-59717319D01*
X169505238Y-59717319D02*
X169219524Y-59717319D01*
X169219524Y-59717319D02*
X169124286Y-59669700D01*
X169124286Y-59669700D02*
X169076667Y-59622080D01*
X164171333Y-60396080D02*
X164123714Y-60443700D01*
X164123714Y-60443700D02*
X163980857Y-60491319D01*
X163980857Y-60491319D02*
X163885619Y-60491319D01*
X163885619Y-60491319D02*
X163742762Y-60443700D01*
X163742762Y-60443700D02*
X163647524Y-60348461D01*
X163647524Y-60348461D02*
X163599905Y-60253223D01*
X163599905Y-60253223D02*
X163552286Y-60062747D01*
X163552286Y-60062747D02*
X163552286Y-59919890D01*
X163552286Y-59919890D02*
X163599905Y-59729414D01*
X163599905Y-59729414D02*
X163647524Y-59634176D01*
X163647524Y-59634176D02*
X163742762Y-59538938D01*
X163742762Y-59538938D02*
X163885619Y-59491319D01*
X163885619Y-59491319D02*
X163980857Y-59491319D01*
X163980857Y-59491319D02*
X164123714Y-59538938D01*
X164123714Y-59538938D02*
X164171333Y-59586557D01*
X165028476Y-59824652D02*
X165028476Y-60491319D01*
X164790381Y-59443700D02*
X164552286Y-60157985D01*
X164552286Y-60157985D02*
X165171333Y-60157985D01*
X159218333Y-71639580D02*
X159170714Y-71687200D01*
X159170714Y-71687200D02*
X159027857Y-71734819D01*
X159027857Y-71734819D02*
X158932619Y-71734819D01*
X158932619Y-71734819D02*
X158789762Y-71687200D01*
X158789762Y-71687200D02*
X158694524Y-71591961D01*
X158694524Y-71591961D02*
X158646905Y-71496723D01*
X158646905Y-71496723D02*
X158599286Y-71306247D01*
X158599286Y-71306247D02*
X158599286Y-71163390D01*
X158599286Y-71163390D02*
X158646905Y-70972914D01*
X158646905Y-70972914D02*
X158694524Y-70877676D01*
X158694524Y-70877676D02*
X158789762Y-70782438D01*
X158789762Y-70782438D02*
X158932619Y-70734819D01*
X158932619Y-70734819D02*
X159027857Y-70734819D01*
X159027857Y-70734819D02*
X159170714Y-70782438D01*
X159170714Y-70782438D02*
X159218333Y-70830057D01*
X160123095Y-70734819D02*
X159646905Y-70734819D01*
X159646905Y-70734819D02*
X159599286Y-71211009D01*
X159599286Y-71211009D02*
X159646905Y-71163390D01*
X159646905Y-71163390D02*
X159742143Y-71115771D01*
X159742143Y-71115771D02*
X159980238Y-71115771D01*
X159980238Y-71115771D02*
X160075476Y-71163390D01*
X160075476Y-71163390D02*
X160123095Y-71211009D01*
X160123095Y-71211009D02*
X160170714Y-71306247D01*
X160170714Y-71306247D02*
X160170714Y-71544342D01*
X160170714Y-71544342D02*
X160123095Y-71639580D01*
X160123095Y-71639580D02*
X160075476Y-71687200D01*
X160075476Y-71687200D02*
X159980238Y-71734819D01*
X159980238Y-71734819D02*
X159742143Y-71734819D01*
X159742143Y-71734819D02*
X159646905Y-71687200D01*
X159646905Y-71687200D02*
X159599286Y-71639580D01*
X164171333Y-61971580D02*
X164123714Y-62019200D01*
X164123714Y-62019200D02*
X163980857Y-62066819D01*
X163980857Y-62066819D02*
X163885619Y-62066819D01*
X163885619Y-62066819D02*
X163742762Y-62019200D01*
X163742762Y-62019200D02*
X163647524Y-61923961D01*
X163647524Y-61923961D02*
X163599905Y-61828723D01*
X163599905Y-61828723D02*
X163552286Y-61638247D01*
X163552286Y-61638247D02*
X163552286Y-61495390D01*
X163552286Y-61495390D02*
X163599905Y-61304914D01*
X163599905Y-61304914D02*
X163647524Y-61209676D01*
X163647524Y-61209676D02*
X163742762Y-61114438D01*
X163742762Y-61114438D02*
X163885619Y-61066819D01*
X163885619Y-61066819D02*
X163980857Y-61066819D01*
X163980857Y-61066819D02*
X164123714Y-61114438D01*
X164123714Y-61114438D02*
X164171333Y-61162057D01*
X165028476Y-61066819D02*
X164838000Y-61066819D01*
X164838000Y-61066819D02*
X164742762Y-61114438D01*
X164742762Y-61114438D02*
X164695143Y-61162057D01*
X164695143Y-61162057D02*
X164599905Y-61304914D01*
X164599905Y-61304914D02*
X164552286Y-61495390D01*
X164552286Y-61495390D02*
X164552286Y-61876342D01*
X164552286Y-61876342D02*
X164599905Y-61971580D01*
X164599905Y-61971580D02*
X164647524Y-62019200D01*
X164647524Y-62019200D02*
X164742762Y-62066819D01*
X164742762Y-62066819D02*
X164933238Y-62066819D01*
X164933238Y-62066819D02*
X165028476Y-62019200D01*
X165028476Y-62019200D02*
X165076095Y-61971580D01*
X165076095Y-61971580D02*
X165123714Y-61876342D01*
X165123714Y-61876342D02*
X165123714Y-61638247D01*
X165123714Y-61638247D02*
X165076095Y-61543009D01*
X165076095Y-61543009D02*
X165028476Y-61495390D01*
X165028476Y-61495390D02*
X164933238Y-61447771D01*
X164933238Y-61447771D02*
X164742762Y-61447771D01*
X164742762Y-61447771D02*
X164647524Y-61495390D01*
X164647524Y-61495390D02*
X164599905Y-61543009D01*
X164599905Y-61543009D02*
X164552286Y-61638247D01*
X156788247Y-51955666D02*
X156788247Y-52222332D01*
X157207295Y-52222332D02*
X156407295Y-52222332D01*
X156407295Y-52222332D02*
X156407295Y-51841380D01*
X157207295Y-51117571D02*
X157207295Y-51574714D01*
X157207295Y-51346142D02*
X156407295Y-51346142D01*
X156407295Y-51346142D02*
X156521580Y-51422333D01*
X156521580Y-51422333D02*
X156597771Y-51498523D01*
X156597771Y-51498523D02*
X156635866Y-51574714D01*
X162685142Y-45478488D02*
X162685142Y-45936155D01*
X162685142Y-45936155D02*
X162654631Y-46027688D01*
X162654631Y-46027688D02*
X162593609Y-46088711D01*
X162593609Y-46088711D02*
X162502075Y-46119222D01*
X162502075Y-46119222D02*
X162441053Y-46119222D01*
X163325876Y-46119222D02*
X162959742Y-46119222D01*
X163142809Y-46119222D02*
X163142809Y-45478488D01*
X163142809Y-45478488D02*
X163081787Y-45570021D01*
X163081787Y-45570021D02*
X163020764Y-45631043D01*
X163020764Y-45631043D02*
X162959742Y-45661555D01*
X160187819Y-48426666D02*
X159711628Y-48759999D01*
X160187819Y-48998094D02*
X159187819Y-48998094D01*
X159187819Y-48998094D02*
X159187819Y-48617142D01*
X159187819Y-48617142D02*
X159235438Y-48521904D01*
X159235438Y-48521904D02*
X159283057Y-48474285D01*
X159283057Y-48474285D02*
X159378295Y-48426666D01*
X159378295Y-48426666D02*
X159521152Y-48426666D01*
X159521152Y-48426666D02*
X159616390Y-48474285D01*
X159616390Y-48474285D02*
X159664009Y-48521904D01*
X159664009Y-48521904D02*
X159711628Y-48617142D01*
X159711628Y-48617142D02*
X159711628Y-48998094D01*
X160187819Y-47474285D02*
X160187819Y-48045713D01*
X160187819Y-47759999D02*
X159187819Y-47759999D01*
X159187819Y-47759999D02*
X159330676Y-47855237D01*
X159330676Y-47855237D02*
X159425914Y-47950475D01*
X159425914Y-47950475D02*
X159473533Y-48045713D01*
X158155819Y-48426666D02*
X157679628Y-48759999D01*
X158155819Y-48998094D02*
X157155819Y-48998094D01*
X157155819Y-48998094D02*
X157155819Y-48617142D01*
X157155819Y-48617142D02*
X157203438Y-48521904D01*
X157203438Y-48521904D02*
X157251057Y-48474285D01*
X157251057Y-48474285D02*
X157346295Y-48426666D01*
X157346295Y-48426666D02*
X157489152Y-48426666D01*
X157489152Y-48426666D02*
X157584390Y-48474285D01*
X157584390Y-48474285D02*
X157632009Y-48521904D01*
X157632009Y-48521904D02*
X157679628Y-48617142D01*
X157679628Y-48617142D02*
X157679628Y-48998094D01*
X157251057Y-48045713D02*
X157203438Y-47998094D01*
X157203438Y-47998094D02*
X157155819Y-47902856D01*
X157155819Y-47902856D02*
X157155819Y-47664761D01*
X157155819Y-47664761D02*
X157203438Y-47569523D01*
X157203438Y-47569523D02*
X157251057Y-47521904D01*
X157251057Y-47521904D02*
X157346295Y-47474285D01*
X157346295Y-47474285D02*
X157441533Y-47474285D01*
X157441533Y-47474285D02*
X157584390Y-47521904D01*
X157584390Y-47521904D02*
X158155819Y-48093332D01*
X158155819Y-48093332D02*
X158155819Y-47474285D01*
X173823333Y-57317819D02*
X173490000Y-56841628D01*
X173251905Y-57317819D02*
X173251905Y-56317819D01*
X173251905Y-56317819D02*
X173632857Y-56317819D01*
X173632857Y-56317819D02*
X173728095Y-56365438D01*
X173728095Y-56365438D02*
X173775714Y-56413057D01*
X173775714Y-56413057D02*
X173823333Y-56508295D01*
X173823333Y-56508295D02*
X173823333Y-56651152D01*
X173823333Y-56651152D02*
X173775714Y-56746390D01*
X173775714Y-56746390D02*
X173728095Y-56794009D01*
X173728095Y-56794009D02*
X173632857Y-56841628D01*
X173632857Y-56841628D02*
X173251905Y-56841628D01*
X174156667Y-56317819D02*
X174775714Y-56317819D01*
X174775714Y-56317819D02*
X174442381Y-56698771D01*
X174442381Y-56698771D02*
X174585238Y-56698771D01*
X174585238Y-56698771D02*
X174680476Y-56746390D01*
X174680476Y-56746390D02*
X174728095Y-56794009D01*
X174728095Y-56794009D02*
X174775714Y-56889247D01*
X174775714Y-56889247D02*
X174775714Y-57127342D01*
X174775714Y-57127342D02*
X174728095Y-57222580D01*
X174728095Y-57222580D02*
X174680476Y-57270200D01*
X174680476Y-57270200D02*
X174585238Y-57317819D01*
X174585238Y-57317819D02*
X174299524Y-57317819D01*
X174299524Y-57317819D02*
X174204286Y-57270200D01*
X174204286Y-57270200D02*
X174156667Y-57222580D01*
X166266833Y-77068819D02*
X165933500Y-76592628D01*
X165695405Y-77068819D02*
X165695405Y-76068819D01*
X165695405Y-76068819D02*
X166076357Y-76068819D01*
X166076357Y-76068819D02*
X166171595Y-76116438D01*
X166171595Y-76116438D02*
X166219214Y-76164057D01*
X166219214Y-76164057D02*
X166266833Y-76259295D01*
X166266833Y-76259295D02*
X166266833Y-76402152D01*
X166266833Y-76402152D02*
X166219214Y-76497390D01*
X166219214Y-76497390D02*
X166171595Y-76545009D01*
X166171595Y-76545009D02*
X166076357Y-76592628D01*
X166076357Y-76592628D02*
X165695405Y-76592628D01*
X167123976Y-76402152D02*
X167123976Y-77068819D01*
X166885881Y-76021200D02*
X166647786Y-76735485D01*
X166647786Y-76735485D02*
X167266833Y-76735485D01*
X166941595Y-60270319D02*
X166941595Y-61079842D01*
X166941595Y-61079842D02*
X166989214Y-61175080D01*
X166989214Y-61175080D02*
X167036833Y-61222700D01*
X167036833Y-61222700D02*
X167132071Y-61270319D01*
X167132071Y-61270319D02*
X167322547Y-61270319D01*
X167322547Y-61270319D02*
X167417785Y-61222700D01*
X167417785Y-61222700D02*
X167465404Y-61175080D01*
X167465404Y-61175080D02*
X167513023Y-61079842D01*
X167513023Y-61079842D02*
X167513023Y-60270319D01*
X168513023Y-61270319D02*
X167941595Y-61270319D01*
X168227309Y-61270319D02*
X168227309Y-60270319D01*
X168227309Y-60270319D02*
X168132071Y-60413176D01*
X168132071Y-60413176D02*
X168036833Y-60508414D01*
X168036833Y-60508414D02*
X167941595Y-60556033D01*
X158273809Y-66754128D02*
X158273809Y-67230319D01*
X157940476Y-66230319D02*
X158273809Y-66754128D01*
X158273809Y-66754128D02*
X158607142Y-66230319D01*
X159464285Y-67230319D02*
X158892857Y-67230319D01*
X159178571Y-67230319D02*
X159178571Y-66230319D01*
X159178571Y-66230319D02*
X159083333Y-66373176D01*
X159083333Y-66373176D02*
X158988095Y-66468414D01*
X158988095Y-66468414D02*
X158892857Y-66516033D01*
X171158819Y-46688333D02*
X171873104Y-46688333D01*
X171873104Y-46688333D02*
X172015961Y-46735952D01*
X172015961Y-46735952D02*
X172111200Y-46831190D01*
X172111200Y-46831190D02*
X172158819Y-46974047D01*
X172158819Y-46974047D02*
X172158819Y-47069285D01*
X171254057Y-46259761D02*
X171206438Y-46212142D01*
X171206438Y-46212142D02*
X171158819Y-46116904D01*
X171158819Y-46116904D02*
X171158819Y-45878809D01*
X171158819Y-45878809D02*
X171206438Y-45783571D01*
X171206438Y-45783571D02*
X171254057Y-45735952D01*
X171254057Y-45735952D02*
X171349295Y-45688333D01*
X171349295Y-45688333D02*
X171444533Y-45688333D01*
X171444533Y-45688333D02*
X171587390Y-45735952D01*
X171587390Y-45735952D02*
X172158819Y-46307380D01*
X172158819Y-46307380D02*
X172158819Y-45688333D01*
X165982857Y-55162795D02*
X165716190Y-54781842D01*
X165525714Y-55162795D02*
X165525714Y-54362795D01*
X165525714Y-54362795D02*
X165830476Y-54362795D01*
X165830476Y-54362795D02*
X165906666Y-54400890D01*
X165906666Y-54400890D02*
X165944761Y-54438985D01*
X165944761Y-54438985D02*
X165982857Y-54515176D01*
X165982857Y-54515176D02*
X165982857Y-54629461D01*
X165982857Y-54629461D02*
X165944761Y-54705652D01*
X165944761Y-54705652D02*
X165906666Y-54743747D01*
X165906666Y-54743747D02*
X165830476Y-54781842D01*
X165830476Y-54781842D02*
X165525714Y-54781842D01*
X166287618Y-55124700D02*
X166401904Y-55162795D01*
X166401904Y-55162795D02*
X166592380Y-55162795D01*
X166592380Y-55162795D02*
X166668571Y-55124700D01*
X166668571Y-55124700D02*
X166706666Y-55086604D01*
X166706666Y-55086604D02*
X166744761Y-55010414D01*
X166744761Y-55010414D02*
X166744761Y-54934223D01*
X166744761Y-54934223D02*
X166706666Y-54858033D01*
X166706666Y-54858033D02*
X166668571Y-54819938D01*
X166668571Y-54819938D02*
X166592380Y-54781842D01*
X166592380Y-54781842D02*
X166439999Y-54743747D01*
X166439999Y-54743747D02*
X166363809Y-54705652D01*
X166363809Y-54705652D02*
X166325714Y-54667557D01*
X166325714Y-54667557D02*
X166287618Y-54591366D01*
X166287618Y-54591366D02*
X166287618Y-54515176D01*
X166287618Y-54515176D02*
X166325714Y-54438985D01*
X166325714Y-54438985D02*
X166363809Y-54400890D01*
X166363809Y-54400890D02*
X166439999Y-54362795D01*
X166439999Y-54362795D02*
X166630476Y-54362795D01*
X166630476Y-54362795D02*
X166744761Y-54400890D01*
X166973333Y-54362795D02*
X167430476Y-54362795D01*
X167201904Y-55162795D02*
X167201904Y-54362795D01*
X167659047Y-55124700D02*
X167773333Y-55162795D01*
X167773333Y-55162795D02*
X167963809Y-55162795D01*
X167963809Y-55162795D02*
X168040000Y-55124700D01*
X168040000Y-55124700D02*
X168078095Y-55086604D01*
X168078095Y-55086604D02*
X168116190Y-55010414D01*
X168116190Y-55010414D02*
X168116190Y-54934223D01*
X168116190Y-54934223D02*
X168078095Y-54858033D01*
X168078095Y-54858033D02*
X168040000Y-54819938D01*
X168040000Y-54819938D02*
X167963809Y-54781842D01*
X167963809Y-54781842D02*
X167811428Y-54743747D01*
X167811428Y-54743747D02*
X167735238Y-54705652D01*
X167735238Y-54705652D02*
X167697143Y-54667557D01*
X167697143Y-54667557D02*
X167659047Y-54591366D01*
X167659047Y-54591366D02*
X167659047Y-54515176D01*
X167659047Y-54515176D02*
X167697143Y-54438985D01*
X167697143Y-54438985D02*
X167735238Y-54400890D01*
X167735238Y-54400890D02*
X167811428Y-54362795D01*
X167811428Y-54362795D02*
X168001905Y-54362795D01*
X168001905Y-54362795D02*
X168116190Y-54400890D01*
X168382857Y-54362795D02*
X168573333Y-55162795D01*
X168573333Y-55162795D02*
X168725714Y-54591366D01*
X168725714Y-54591366D02*
X168878095Y-55162795D01*
X168878095Y-55162795D02*
X169068572Y-54362795D01*
X169792381Y-55162795D02*
X169335238Y-55162795D01*
X169563810Y-55162795D02*
X169563810Y-54362795D01*
X169563810Y-54362795D02*
X169487619Y-54477080D01*
X169487619Y-54477080D02*
X169411429Y-54553271D01*
X169411429Y-54553271D02*
X169335238Y-54591366D01*
D11*
%TO.C,C1*%
X160127836Y-61235000D02*
X159912164Y-61235000D01*
X160127836Y-61955000D02*
X159912164Y-61955000D01*
%TO.C,C2*%
X159912164Y-66950000D02*
X160127836Y-66950000D01*
X159912164Y-67670000D02*
X160127836Y-67670000D01*
%TO.C,C3*%
X169017836Y-57742500D02*
X168802164Y-57742500D01*
X169017836Y-58462500D02*
X168802164Y-58462500D01*
%TO.C,C4*%
X164599252Y-57621500D02*
X164076748Y-57621500D01*
X164599252Y-59091500D02*
X164076748Y-59091500D01*
%TO.C,C5*%
X159525580Y-69340000D02*
X159244420Y-69340000D01*
X159525580Y-70360000D02*
X159244420Y-70360000D01*
%TO.C,C6*%
X164445836Y-60092000D02*
X164230164Y-60092000D01*
X164445836Y-60812000D02*
X164230164Y-60812000D01*
D12*
%TO.C,F1*%
X155945000Y-49384500D02*
X155945000Y-48024500D01*
X157745000Y-49384500D02*
X157745000Y-48024500D01*
D13*
%TO.C,J1*%
X159348000Y-45759500D02*
G75*
G02*
X159148000Y-45759500I-100000J0D01*
G01*
X159148000Y-45759500D02*
G75*
G02*
X159348000Y-45759500I100000J0D01*
G01*
D11*
%TO.C,R1*%
X160640500Y-48497258D02*
X160640500Y-48022742D01*
X161685500Y-48497258D02*
X161685500Y-48022742D01*
%TO.C,R2*%
X158608500Y-48497258D02*
X158608500Y-48022742D01*
X159653500Y-48497258D02*
X159653500Y-48022742D01*
%TO.C,R3*%
X173752742Y-57770500D02*
X174227258Y-57770500D01*
X173752742Y-58815500D02*
X174227258Y-58815500D01*
%TO.C,R4*%
X166670758Y-74661500D02*
X166196242Y-74661500D01*
X166670758Y-75706500D02*
X166196242Y-75706500D01*
D10*
%TO.C,SW1*%
X45200000Y-43196000D02*
X53825000Y-43196000D01*
X45200000Y-47104000D02*
X45200000Y-43196000D01*
X45200000Y-47150000D02*
X50250000Y-47196000D01*
X56100000Y-45150000D02*
X56100000Y-49095000D01*
X56100000Y-49104000D02*
X52490000Y-49104000D01*
X50225000Y-47200000D02*
G75*
G02*
X52485000Y-49080000I190000J-2070000D01*
G01*
X53825000Y-43196000D02*
G75*
G02*
X56089000Y-45080000I190000J-2074000D01*
G01*
%TO.C,SW2*%
X45200000Y-62246000D02*
X53825000Y-62246000D01*
X45200000Y-66154000D02*
X45200000Y-62246000D01*
X45200000Y-66200000D02*
X50250000Y-66246000D01*
X56100000Y-64200000D02*
X56100000Y-68145000D01*
X56100000Y-68154000D02*
X52490000Y-68154000D01*
X50225000Y-66250000D02*
G75*
G02*
X52485000Y-68130000I190000J-2070000D01*
G01*
X53825000Y-62246000D02*
G75*
G02*
X56089000Y-64130000I190000J-2074000D01*
G01*
%TO.C,SW3*%
X45200000Y-81296000D02*
X53825000Y-81296000D01*
X45200000Y-85204000D02*
X45200000Y-81296000D01*
X45200000Y-85250000D02*
X50250000Y-85296000D01*
X56100000Y-83250000D02*
X56100000Y-87195000D01*
X56100000Y-87204000D02*
X52490000Y-87204000D01*
X50225000Y-85300000D02*
G75*
G02*
X52485000Y-87180000I190000J-2070000D01*
G01*
X53825000Y-81296000D02*
G75*
G02*
X56089000Y-83180000I190000J-2074000D01*
G01*
%TO.C,SW4*%
X64250000Y-43196000D02*
X72875000Y-43196000D01*
X64250000Y-47104000D02*
X64250000Y-43196000D01*
X64250000Y-47150000D02*
X69300000Y-47196000D01*
X75150000Y-45150000D02*
X75150000Y-49095000D01*
X75150000Y-49104000D02*
X71540000Y-49104000D01*
X69275000Y-47200000D02*
G75*
G02*
X71535000Y-49080000I190000J-2070000D01*
G01*
X72875000Y-43196000D02*
G75*
G02*
X75139000Y-45080000I190000J-2074000D01*
G01*
%TO.C,SW5*%
X64250000Y-62246000D02*
X72875000Y-62246000D01*
X64250000Y-66154000D02*
X64250000Y-62246000D01*
X64250000Y-66200000D02*
X69300000Y-66246000D01*
X75150000Y-64200000D02*
X75150000Y-68145000D01*
X75150000Y-68154000D02*
X71540000Y-68154000D01*
X69275000Y-66250000D02*
G75*
G02*
X71535000Y-68130000I190000J-2070000D01*
G01*
X72875000Y-62246000D02*
G75*
G02*
X75139000Y-64130000I190000J-2074000D01*
G01*
%TO.C,SW6*%
X64250000Y-81296000D02*
X72875000Y-81296000D01*
X64250000Y-85204000D02*
X64250000Y-81296000D01*
X64250000Y-85250000D02*
X69300000Y-85296000D01*
X75150000Y-83250000D02*
X75150000Y-87195000D01*
X75150000Y-87204000D02*
X71540000Y-87204000D01*
X69275000Y-85300000D02*
G75*
G02*
X71535000Y-87180000I190000J-2070000D01*
G01*
X72875000Y-81296000D02*
G75*
G02*
X75139000Y-83180000I190000J-2074000D01*
G01*
%TO.C,SW7*%
X83300000Y-43196000D02*
X91925000Y-43196000D01*
X83300000Y-47104000D02*
X83300000Y-43196000D01*
X83300000Y-47150000D02*
X88350000Y-47196000D01*
X94200000Y-45150000D02*
X94200000Y-49095000D01*
X94200000Y-49104000D02*
X90590000Y-49104000D01*
X88325000Y-47200000D02*
G75*
G02*
X90585000Y-49080000I190000J-2070000D01*
G01*
X91925000Y-43196000D02*
G75*
G02*
X94189000Y-45080000I190000J-2074000D01*
G01*
%TO.C,SW8*%
X83300000Y-62246000D02*
X91925000Y-62246000D01*
X83300000Y-66154000D02*
X83300000Y-62246000D01*
X83300000Y-66200000D02*
X88350000Y-66246000D01*
X94200000Y-64200000D02*
X94200000Y-68145000D01*
X94200000Y-68154000D02*
X90590000Y-68154000D01*
X88325000Y-66250000D02*
G75*
G02*
X90585000Y-68130000I190000J-2070000D01*
G01*
X91925000Y-62246000D02*
G75*
G02*
X94189000Y-64130000I190000J-2074000D01*
G01*
%TO.C,SW9*%
X83300000Y-81296000D02*
X91925000Y-81296000D01*
X83300000Y-85204000D02*
X83300000Y-81296000D01*
X83300000Y-85250000D02*
X88350000Y-85296000D01*
X94200000Y-83250000D02*
X94200000Y-87195000D01*
X94200000Y-87204000D02*
X90590000Y-87204000D01*
X88325000Y-85300000D02*
G75*
G02*
X90585000Y-87180000I190000J-2070000D01*
G01*
X91925000Y-81296000D02*
G75*
G02*
X94189000Y-83180000I190000J-2074000D01*
G01*
%TO.C,SW10*%
X102350000Y-43196000D02*
X110975000Y-43196000D01*
X102350000Y-47104000D02*
X102350000Y-43196000D01*
X102350000Y-47150000D02*
X107400000Y-47196000D01*
X113250000Y-45150000D02*
X113250000Y-49095000D01*
X113250000Y-49104000D02*
X109640000Y-49104000D01*
X107375000Y-47200000D02*
G75*
G02*
X109635000Y-49080000I190000J-2070000D01*
G01*
X110975000Y-43196000D02*
G75*
G02*
X113239000Y-45080000I190000J-2074000D01*
G01*
%TO.C,SW11*%
X102350000Y-62246000D02*
X110975000Y-62246000D01*
X102350000Y-66154000D02*
X102350000Y-62246000D01*
X102350000Y-66200000D02*
X107400000Y-66246000D01*
X113250000Y-64200000D02*
X113250000Y-68145000D01*
X113250000Y-68154000D02*
X109640000Y-68154000D01*
X107375000Y-66250000D02*
G75*
G02*
X109635000Y-68130000I190000J-2070000D01*
G01*
X110975000Y-62246000D02*
G75*
G02*
X113239000Y-64130000I190000J-2074000D01*
G01*
%TO.C,SW12*%
X102350000Y-81296000D02*
X110975000Y-81296000D01*
X102350000Y-85204000D02*
X102350000Y-81296000D01*
X102350000Y-85250000D02*
X107400000Y-85296000D01*
X113250000Y-83250000D02*
X113250000Y-87195000D01*
X113250000Y-87204000D02*
X109640000Y-87204000D01*
X107375000Y-85300000D02*
G75*
G02*
X109635000Y-87180000I190000J-2070000D01*
G01*
X110975000Y-81296000D02*
G75*
G02*
X113239000Y-83180000I190000J-2074000D01*
G01*
%TO.C,SW13*%
X121400000Y-43196000D02*
X130025000Y-43196000D01*
X121400000Y-47104000D02*
X121400000Y-43196000D01*
X121400000Y-47150000D02*
X126450000Y-47196000D01*
X132300000Y-45150000D02*
X132300000Y-49095000D01*
X132300000Y-49104000D02*
X128690000Y-49104000D01*
X126425000Y-47200000D02*
G75*
G02*
X128685000Y-49080000I190000J-2070000D01*
G01*
X130025000Y-43196000D02*
G75*
G02*
X132289000Y-45080000I190000J-2074000D01*
G01*
%TO.C,SW14*%
X121400000Y-62246000D02*
X130025000Y-62246000D01*
X121400000Y-66154000D02*
X121400000Y-62246000D01*
X121400000Y-66200000D02*
X126450000Y-66246000D01*
X132300000Y-64200000D02*
X132300000Y-68145000D01*
X132300000Y-68154000D02*
X128690000Y-68154000D01*
X126425000Y-66250000D02*
G75*
G02*
X128685000Y-68130000I190000J-2070000D01*
G01*
X130025000Y-62246000D02*
G75*
G02*
X132289000Y-64130000I190000J-2074000D01*
G01*
%TO.C,SW15*%
X121400000Y-81296000D02*
X130025000Y-81296000D01*
X121400000Y-85204000D02*
X121400000Y-81296000D01*
X121400000Y-85250000D02*
X126450000Y-85296000D01*
X132300000Y-83250000D02*
X132300000Y-87195000D01*
X132300000Y-87204000D02*
X128690000Y-87204000D01*
X126425000Y-85300000D02*
G75*
G02*
X128685000Y-87180000I190000J-2070000D01*
G01*
X130025000Y-81296000D02*
G75*
G02*
X132289000Y-83180000I190000J-2074000D01*
G01*
%TO.C,SW16*%
X140450000Y-43196000D02*
X149075000Y-43196000D01*
X140450000Y-47104000D02*
X140450000Y-43196000D01*
X140450000Y-47150000D02*
X145500000Y-47196000D01*
X151350000Y-45150000D02*
X151350000Y-49095000D01*
X151350000Y-49104000D02*
X147740000Y-49104000D01*
X145475000Y-47200000D02*
G75*
G02*
X147735000Y-49080000I190000J-2070000D01*
G01*
X149075000Y-43196000D02*
G75*
G02*
X151339000Y-45080000I190000J-2074000D01*
G01*
%TO.C,SW17*%
X140450000Y-62246000D02*
X149075000Y-62246000D01*
X140450000Y-66154000D02*
X140450000Y-62246000D01*
X140450000Y-66200000D02*
X145500000Y-66246000D01*
X151350000Y-64200000D02*
X151350000Y-68145000D01*
X151350000Y-68154000D02*
X147740000Y-68154000D01*
X145475000Y-66250000D02*
G75*
G02*
X147735000Y-68130000I190000J-2070000D01*
G01*
X149075000Y-62246000D02*
G75*
G02*
X151339000Y-64130000I190000J-2074000D01*
G01*
%TO.C,SW18*%
X140450000Y-81296000D02*
X149075000Y-81296000D01*
X140450000Y-85204000D02*
X140450000Y-81296000D01*
X140450000Y-85250000D02*
X145500000Y-85296000D01*
X151350000Y-83250000D02*
X151350000Y-87195000D01*
X151350000Y-87204000D02*
X147740000Y-87204000D01*
X145475000Y-85300000D02*
G75*
G02*
X147735000Y-87180000I190000J-2070000D01*
G01*
X149075000Y-81296000D02*
G75*
G02*
X151339000Y-83180000I190000J-2074000D01*
G01*
%TO.C,SW19*%
X159500000Y-81296000D02*
X168125000Y-81296000D01*
X159500000Y-85204000D02*
X159500000Y-81296000D01*
X159500000Y-85250000D02*
X164550000Y-85296000D01*
X170400000Y-83250000D02*
X170400000Y-87195000D01*
X170400000Y-87204000D02*
X166790000Y-87204000D01*
X164525000Y-85300000D02*
G75*
G02*
X166785000Y-87180000I190000J-2070000D01*
G01*
X168125000Y-81296000D02*
G75*
G02*
X170389000Y-83180000I190000J-2074000D01*
G01*
%TO.C,U1*%
X164078500Y-63240500D02*
X164078500Y-63465500D01*
X164078500Y-63240500D02*
X164403500Y-63240500D01*
X164078500Y-63465500D02*
X162653500Y-63465500D01*
X164078500Y-70490500D02*
X164078500Y-70165500D01*
X164078500Y-70490500D02*
X164403500Y-70490500D01*
X171328500Y-63240500D02*
X171003500Y-63240500D01*
X171328500Y-63240500D02*
X171328500Y-63565500D01*
X171328500Y-70490500D02*
X171003500Y-70490500D01*
X171328500Y-70490500D02*
X171328500Y-70165500D01*
D11*
%TO.C,Y1*%
X160750000Y-62725500D02*
X156750000Y-62725500D01*
X160750000Y-65925500D02*
X160750000Y-62725500D01*
%TO.C,J2*%
X168604000Y-51648000D02*
X168604000Y-41123000D01*
X168604000Y-53223000D02*
X174804000Y-53223000D01*
X169204000Y-41123000D02*
X168604000Y-41123000D01*
X169204000Y-41123000D02*
X169204000Y-39123000D01*
X174204000Y-39123000D02*
X169204000Y-39123000D01*
X174204000Y-41123000D02*
X174204000Y-39123000D01*
X174804000Y-41123000D02*
X174204000Y-41123000D01*
X174804000Y-41123000D02*
X174804000Y-43498000D01*
X174804000Y-45148000D02*
X174804000Y-46498000D01*
X174804000Y-48148000D02*
X174804000Y-50548000D01*
X174804000Y-50548000D02*
X176204000Y-50548000D01*
X174804000Y-52098000D02*
X174804000Y-53223000D01*
X174804000Y-52098000D02*
X176204000Y-52098000D01*
D10*
%TO.C,D_H1*%
X157002500Y-73735500D02*
X157002500Y-75235500D01*
X157002500Y-75235500D02*
X162402500Y-75235500D01*
X159202500Y-73985500D02*
X159202500Y-74985500D01*
X159302500Y-74485500D02*
X160202500Y-73985500D01*
X160202500Y-73985500D02*
X160202500Y-74985500D01*
X160202500Y-74985500D02*
X159302500Y-74485500D01*
X162402500Y-73735500D02*
X157002500Y-73735500D01*
X162402500Y-73735500D02*
X162402500Y-75235500D01*
D11*
%TO.C,RSTSW1*%
X171147000Y-53922000D02*
X171147000Y-56822000D01*
X171147000Y-56822000D02*
X174547000Y-56822000D01*
X174547000Y-53922000D02*
X171147000Y-53922000D01*
X174547000Y-56822000D02*
X174547000Y-53922000D01*
D10*
%TO.C,D1*%
X57543000Y-49306500D02*
X59043000Y-49306500D01*
X57543000Y-54706500D02*
X57543000Y-49306500D01*
X57793000Y-51506500D02*
X58293000Y-52406500D01*
X58293000Y-52406500D02*
X58793000Y-51506500D01*
X58793000Y-51506500D02*
X57793000Y-51506500D01*
X58793000Y-52506500D02*
X57793000Y-52506500D01*
X59043000Y-49306500D02*
X59043000Y-54706500D01*
X59043000Y-54706500D02*
X57543000Y-54706500D01*
%TO.C,D2*%
X57543000Y-68356500D02*
X59043000Y-68356500D01*
X57543000Y-73756500D02*
X57543000Y-68356500D01*
X57793000Y-70556500D02*
X58293000Y-71456500D01*
X58293000Y-71456500D02*
X58793000Y-70556500D01*
X58793000Y-70556500D02*
X57793000Y-70556500D01*
X58793000Y-71556500D02*
X57793000Y-71556500D01*
X59043000Y-68356500D02*
X59043000Y-73756500D01*
X59043000Y-73756500D02*
X57543000Y-73756500D01*
%TO.C,D3*%
X57543000Y-87406500D02*
X59043000Y-87406500D01*
X57543000Y-92806500D02*
X57543000Y-87406500D01*
X57793000Y-89606500D02*
X58293000Y-90506500D01*
X58293000Y-90506500D02*
X58793000Y-89606500D01*
X58793000Y-89606500D02*
X57793000Y-89606500D01*
X58793000Y-90606500D02*
X57793000Y-90606500D01*
X59043000Y-87406500D02*
X59043000Y-92806500D01*
X59043000Y-92806500D02*
X57543000Y-92806500D01*
%TO.C,D7*%
X95643000Y-49306500D02*
X97143000Y-49306500D01*
X95643000Y-54706500D02*
X95643000Y-49306500D01*
X95893000Y-51506500D02*
X96393000Y-52406500D01*
X96393000Y-52406500D02*
X96893000Y-51506500D01*
X96893000Y-51506500D02*
X95893000Y-51506500D01*
X96893000Y-52506500D02*
X95893000Y-52506500D01*
X97143000Y-49306500D02*
X97143000Y-54706500D01*
X97143000Y-54706500D02*
X95643000Y-54706500D01*
%TO.C,D8*%
X95643000Y-68356500D02*
X97143000Y-68356500D01*
X95643000Y-73756500D02*
X95643000Y-68356500D01*
X95893000Y-70556500D02*
X96393000Y-71456500D01*
X96393000Y-71456500D02*
X96893000Y-70556500D01*
X96893000Y-70556500D02*
X95893000Y-70556500D01*
X96893000Y-71556500D02*
X95893000Y-71556500D01*
X97143000Y-68356500D02*
X97143000Y-73756500D01*
X97143000Y-73756500D02*
X95643000Y-73756500D01*
%TO.C,D10*%
X114693000Y-49306500D02*
X116193000Y-49306500D01*
X114693000Y-54706500D02*
X114693000Y-49306500D01*
X114943000Y-51506500D02*
X115443000Y-52406500D01*
X115443000Y-52406500D02*
X115943000Y-51506500D01*
X115943000Y-51506500D02*
X114943000Y-51506500D01*
X115943000Y-52506500D02*
X114943000Y-52506500D01*
X116193000Y-49306500D02*
X116193000Y-54706500D01*
X116193000Y-54706500D02*
X114693000Y-54706500D01*
%TO.C,D11*%
X114693000Y-68356500D02*
X116193000Y-68356500D01*
X114693000Y-73756500D02*
X114693000Y-68356500D01*
X114943000Y-70556500D02*
X115443000Y-71456500D01*
X115443000Y-71456500D02*
X115943000Y-70556500D01*
X115943000Y-70556500D02*
X114943000Y-70556500D01*
X115943000Y-71556500D02*
X114943000Y-71556500D01*
X116193000Y-68356500D02*
X116193000Y-73756500D01*
X116193000Y-73756500D02*
X114693000Y-73756500D01*
%TO.C,D12*%
X114693000Y-87406500D02*
X116193000Y-87406500D01*
X114693000Y-92806500D02*
X114693000Y-87406500D01*
X114943000Y-89606500D02*
X115443000Y-90506500D01*
X115443000Y-90506500D02*
X115943000Y-89606500D01*
X115943000Y-89606500D02*
X114943000Y-89606500D01*
X115943000Y-90606500D02*
X114943000Y-90606500D01*
X116193000Y-87406500D02*
X116193000Y-92806500D01*
X116193000Y-92806500D02*
X114693000Y-92806500D01*
%TO.C,D14*%
X133743000Y-68356500D02*
X135243000Y-68356500D01*
X133743000Y-73756500D02*
X133743000Y-68356500D01*
X133993000Y-70556500D02*
X134493000Y-71456500D01*
X134493000Y-71456500D02*
X134993000Y-70556500D01*
X134993000Y-70556500D02*
X133993000Y-70556500D01*
X134993000Y-71556500D02*
X133993000Y-71556500D01*
X135243000Y-68356500D02*
X135243000Y-73756500D01*
X135243000Y-73756500D02*
X133743000Y-73756500D01*
%TO.C,D15*%
X133743000Y-87406500D02*
X135243000Y-87406500D01*
X133743000Y-92806500D02*
X133743000Y-87406500D01*
X133993000Y-89606500D02*
X134493000Y-90506500D01*
X134493000Y-90506500D02*
X134993000Y-89606500D01*
X134993000Y-89606500D02*
X133993000Y-89606500D01*
X134993000Y-90606500D02*
X133993000Y-90606500D01*
X135243000Y-87406500D02*
X135243000Y-92806500D01*
X135243000Y-92806500D02*
X133743000Y-92806500D01*
%TO.C,D17*%
X152793000Y-68356500D02*
X154293000Y-68356500D01*
X152793000Y-73756500D02*
X152793000Y-68356500D01*
X153043000Y-70556500D02*
X153543000Y-71456500D01*
X153543000Y-71456500D02*
X154043000Y-70556500D01*
X154043000Y-70556500D02*
X153043000Y-70556500D01*
X154043000Y-71556500D02*
X153043000Y-71556500D01*
X154293000Y-68356500D02*
X154293000Y-73756500D01*
X154293000Y-73756500D02*
X152793000Y-73756500D01*
%TO.C,D18*%
X152793000Y-87406500D02*
X154293000Y-87406500D01*
X152793000Y-92806500D02*
X152793000Y-87406500D01*
X153043000Y-89606500D02*
X153543000Y-90506500D01*
X153543000Y-90506500D02*
X154043000Y-89606500D01*
X154043000Y-89606500D02*
X153043000Y-89606500D01*
X154043000Y-90606500D02*
X153043000Y-90606500D01*
X154293000Y-87406500D02*
X154293000Y-92806500D01*
X154293000Y-92806500D02*
X152793000Y-92806500D01*
%TO.C,D4*%
X76592999Y-49306500D02*
X78092999Y-49306500D01*
X76592999Y-54706500D02*
X76592999Y-49306500D01*
X76842999Y-51506500D02*
X77342999Y-52406500D01*
X77342999Y-52406500D02*
X77842999Y-51506500D01*
X77842999Y-51506500D02*
X76842999Y-51506500D01*
X77842999Y-52506500D02*
X76842999Y-52506500D01*
X78092999Y-49306500D02*
X78092999Y-54706500D01*
X78092999Y-54706500D02*
X76592999Y-54706500D01*
%TO.C,D5*%
X76592999Y-68356500D02*
X78092999Y-68356500D01*
X76592999Y-73756500D02*
X76592999Y-68356500D01*
X76842999Y-70556500D02*
X77342999Y-71456500D01*
X77342999Y-71456500D02*
X77842999Y-70556500D01*
X77842999Y-70556500D02*
X76842999Y-70556500D01*
X77842999Y-71556500D02*
X76842999Y-71556500D01*
X78092999Y-68356500D02*
X78092999Y-73756500D01*
X78092999Y-73756500D02*
X76592999Y-73756500D01*
%TO.C,D6*%
X76592999Y-87406500D02*
X78092999Y-87406500D01*
X76592999Y-92806500D02*
X76592999Y-87406500D01*
X76842999Y-89606500D02*
X77342999Y-90506500D01*
X77342999Y-90506500D02*
X77842999Y-89606500D01*
X77842999Y-89606500D02*
X76842999Y-89606500D01*
X77842999Y-90606500D02*
X76842999Y-90606500D01*
X78092999Y-87406500D02*
X78092999Y-92806500D01*
X78092999Y-92806500D02*
X76592999Y-92806500D01*
%TO.C,D9*%
X95643000Y-87406500D02*
X97143000Y-87406500D01*
X95643000Y-92806500D02*
X95643000Y-87406500D01*
X95893000Y-89606500D02*
X96393000Y-90506500D01*
X96393000Y-90506500D02*
X96893000Y-89606500D01*
X96893000Y-89606500D02*
X95893000Y-89606500D01*
X96893000Y-90606500D02*
X95893000Y-90606500D01*
X97143000Y-87406500D02*
X97143000Y-92806500D01*
X97143000Y-92806500D02*
X95643000Y-92806500D01*
%TO.C,D13*%
X133743000Y-49306500D02*
X135243000Y-49306500D01*
X133743000Y-54706500D02*
X133743000Y-49306500D01*
X133993000Y-51506500D02*
X134493000Y-52406500D01*
X134493000Y-52406500D02*
X134993000Y-51506500D01*
X134993000Y-51506500D02*
X133993000Y-51506500D01*
X134993000Y-52506500D02*
X133993000Y-52506500D01*
X135243000Y-49306500D02*
X135243000Y-54706500D01*
X135243000Y-54706500D02*
X133743000Y-54706500D01*
%TO.C,D16*%
X152793000Y-49306500D02*
X154293000Y-49306500D01*
X152793000Y-54706500D02*
X152793000Y-49306500D01*
X153043000Y-51506500D02*
X153543000Y-52406500D01*
X153543000Y-52406500D02*
X154043000Y-51506500D01*
X154043000Y-51506500D02*
X153043000Y-51506500D01*
X154043000Y-52506500D02*
X153043000Y-52506500D01*
X154293000Y-49306500D02*
X154293000Y-54706500D01*
X154293000Y-54706500D02*
X152793000Y-54706500D01*
%TO.C,D19*%
X171843000Y-87406500D02*
X173343000Y-87406500D01*
X171843000Y-92806500D02*
X171843000Y-87406500D01*
X172093000Y-89606500D02*
X172593000Y-90506500D01*
X172593000Y-90506500D02*
X173093000Y-89606500D01*
X173093000Y-89606500D02*
X172093000Y-89606500D01*
X173093000Y-90606500D02*
X172093000Y-90606500D01*
X173343000Y-87406500D02*
X173343000Y-92806500D01*
X173343000Y-92806500D02*
X171843000Y-92806500D01*
%TD*%
%LPC*%
X157354023Y-97006652D02*
X157354023Y-98006652D01*
X157354023Y-97054271D02*
X157449261Y-97006652D01*
X157449261Y-97006652D02*
X157639737Y-97006652D01*
X157639737Y-97006652D02*
X157734975Y-97054271D01*
X157734975Y-97054271D02*
X157782594Y-97101890D01*
X157782594Y-97101890D02*
X157830213Y-97197128D01*
X157830213Y-97197128D02*
X157830213Y-97482842D01*
X157830213Y-97482842D02*
X157782594Y-97578080D01*
X157782594Y-97578080D02*
X157734975Y-97625700D01*
X157734975Y-97625700D02*
X157639737Y-97673319D01*
X157639737Y-97673319D02*
X157449261Y-97673319D01*
X157449261Y-97673319D02*
X157354023Y-97625700D01*
X158258785Y-97673319D02*
X158258785Y-97006652D01*
X158258785Y-96673319D02*
X158211166Y-96720938D01*
X158211166Y-96720938D02*
X158258785Y-96768557D01*
X158258785Y-96768557D02*
X158306404Y-96720938D01*
X158306404Y-96720938D02*
X158258785Y-96673319D01*
X158258785Y-96673319D02*
X158258785Y-96768557D01*
X158687356Y-97625700D02*
X158782594Y-97673319D01*
X158782594Y-97673319D02*
X158973070Y-97673319D01*
X158973070Y-97673319D02*
X159068308Y-97625700D01*
X159068308Y-97625700D02*
X159115927Y-97530461D01*
X159115927Y-97530461D02*
X159115927Y-97482842D01*
X159115927Y-97482842D02*
X159068308Y-97387604D01*
X159068308Y-97387604D02*
X158973070Y-97339985D01*
X158973070Y-97339985D02*
X158830213Y-97339985D01*
X158830213Y-97339985D02*
X158734975Y-97292366D01*
X158734975Y-97292366D02*
X158687356Y-97197128D01*
X158687356Y-97197128D02*
X158687356Y-97149509D01*
X158687356Y-97149509D02*
X158734975Y-97054271D01*
X158734975Y-97054271D02*
X158830213Y-97006652D01*
X158830213Y-97006652D02*
X158973070Y-97006652D01*
X158973070Y-97006652D02*
X159068308Y-97054271D01*
X159973070Y-97625700D02*
X159877832Y-97673319D01*
X159877832Y-97673319D02*
X159687356Y-97673319D01*
X159687356Y-97673319D02*
X159592118Y-97625700D01*
X159592118Y-97625700D02*
X159544499Y-97578080D01*
X159544499Y-97578080D02*
X159496880Y-97482842D01*
X159496880Y-97482842D02*
X159496880Y-97197128D01*
X159496880Y-97197128D02*
X159544499Y-97101890D01*
X159544499Y-97101890D02*
X159592118Y-97054271D01*
X159592118Y-97054271D02*
X159687356Y-97006652D01*
X159687356Y-97006652D02*
X159877832Y-97006652D01*
X159877832Y-97006652D02*
X159973070Y-97054271D01*
X160782594Y-97625700D02*
X160687356Y-97673319D01*
X160687356Y-97673319D02*
X160496880Y-97673319D01*
X160496880Y-97673319D02*
X160401642Y-97625700D01*
X160401642Y-97625700D02*
X160354023Y-97530461D01*
X160354023Y-97530461D02*
X160354023Y-97149509D01*
X160354023Y-97149509D02*
X160401642Y-97054271D01*
X160401642Y-97054271D02*
X160496880Y-97006652D01*
X160496880Y-97006652D02*
X160687356Y-97006652D01*
X160687356Y-97006652D02*
X160782594Y-97054271D01*
X160782594Y-97054271D02*
X160830213Y-97149509D01*
X160830213Y-97149509D02*
X160830213Y-97244747D01*
X160830213Y-97244747D02*
X160354023Y-97339985D01*
X161211166Y-97625700D02*
X161306404Y-97673319D01*
X161306404Y-97673319D02*
X161496880Y-97673319D01*
X161496880Y-97673319D02*
X161592118Y-97625700D01*
X161592118Y-97625700D02*
X161639737Y-97530461D01*
X161639737Y-97530461D02*
X161639737Y-97482842D01*
X161639737Y-97482842D02*
X161592118Y-97387604D01*
X161592118Y-97387604D02*
X161496880Y-97339985D01*
X161496880Y-97339985D02*
X161354023Y-97339985D01*
X161354023Y-97339985D02*
X161258785Y-97292366D01*
X161258785Y-97292366D02*
X161211166Y-97197128D01*
X161211166Y-97197128D02*
X161211166Y-97149509D01*
X161211166Y-97149509D02*
X161258785Y-97054271D01*
X161258785Y-97054271D02*
X161354023Y-97006652D01*
X161354023Y-97006652D02*
X161496880Y-97006652D01*
X161496880Y-97006652D02*
X161592118Y-97054271D01*
X162734976Y-97006652D02*
X162973071Y-97673319D01*
X162973071Y-97673319D02*
X163211166Y-97006652D01*
X163544500Y-96768557D02*
X163592119Y-96720938D01*
X163592119Y-96720938D02*
X163687357Y-96673319D01*
X163687357Y-96673319D02*
X163925452Y-96673319D01*
X163925452Y-96673319D02*
X164020690Y-96720938D01*
X164020690Y-96720938D02*
X164068309Y-96768557D01*
X164068309Y-96768557D02*
X164115928Y-96863795D01*
X164115928Y-96863795D02*
X164115928Y-96959033D01*
X164115928Y-96959033D02*
X164068309Y-97101890D01*
X164068309Y-97101890D02*
X163496881Y-97673319D01*
X163496881Y-97673319D02*
X164115928Y-97673319D01*
X164544500Y-97578080D02*
X164592119Y-97625700D01*
X164592119Y-97625700D02*
X164544500Y-97673319D01*
X164544500Y-97673319D02*
X164496881Y-97625700D01*
X164496881Y-97625700D02*
X164544500Y-97578080D01*
X164544500Y-97578080D02*
X164544500Y-97673319D01*
X165544499Y-97673319D02*
X164973071Y-97673319D01*
X165258785Y-97673319D02*
X165258785Y-96673319D01*
X165258785Y-96673319D02*
X165163547Y-96816176D01*
X165163547Y-96816176D02*
X165068309Y-96911414D01*
X165068309Y-96911414D02*
X164973071Y-96959033D01*
X166734976Y-97673319D02*
X166734976Y-96673319D01*
X166734976Y-97054271D02*
X166830214Y-97006652D01*
X166830214Y-97006652D02*
X167020690Y-97006652D01*
X167020690Y-97006652D02*
X167115928Y-97054271D01*
X167115928Y-97054271D02*
X167163547Y-97101890D01*
X167163547Y-97101890D02*
X167211166Y-97197128D01*
X167211166Y-97197128D02*
X167211166Y-97482842D01*
X167211166Y-97482842D02*
X167163547Y-97578080D01*
X167163547Y-97578080D02*
X167115928Y-97625700D01*
X167115928Y-97625700D02*
X167020690Y-97673319D01*
X167020690Y-97673319D02*
X166830214Y-97673319D01*
X166830214Y-97673319D02*
X166734976Y-97625700D01*
X167544500Y-97006652D02*
X167782595Y-97673319D01*
X168020690Y-97006652D02*
X167782595Y-97673319D01*
X167782595Y-97673319D02*
X167687357Y-97911414D01*
X167687357Y-97911414D02*
X167639738Y-97959033D01*
X167639738Y-97959033D02*
X167544500Y-98006652D01*
X169163548Y-97673319D02*
X169163548Y-96673319D01*
X169258786Y-97292366D02*
X169544500Y-97673319D01*
X169544500Y-97006652D02*
X169163548Y-97387604D01*
X169973072Y-97006652D02*
X169973072Y-97673319D01*
X169973072Y-97101890D02*
X170020691Y-97054271D01*
X170020691Y-97054271D02*
X170115929Y-97006652D01*
X170115929Y-97006652D02*
X170258786Y-97006652D01*
X170258786Y-97006652D02*
X170354024Y-97054271D01*
X170354024Y-97054271D02*
X170401643Y-97149509D01*
X170401643Y-97149509D02*
X170401643Y-97673319D01*
X171306405Y-97673319D02*
X171306405Y-97149509D01*
X171306405Y-97149509D02*
X171258786Y-97054271D01*
X171258786Y-97054271D02*
X171163548Y-97006652D01*
X171163548Y-97006652D02*
X170973072Y-97006652D01*
X170973072Y-97006652D02*
X170877834Y-97054271D01*
X171306405Y-97625700D02*
X171211167Y-97673319D01*
X171211167Y-97673319D02*
X170973072Y-97673319D01*
X170973072Y-97673319D02*
X170877834Y-97625700D01*
X170877834Y-97625700D02*
X170830215Y-97530461D01*
X170830215Y-97530461D02*
X170830215Y-97435223D01*
X170830215Y-97435223D02*
X170877834Y-97339985D01*
X170877834Y-97339985D02*
X170973072Y-97292366D01*
X170973072Y-97292366D02*
X171211167Y-97292366D01*
X171211167Y-97292366D02*
X171306405Y-97244747D01*
X171782596Y-97673319D02*
X171782596Y-97006652D01*
X171782596Y-97197128D02*
X171830215Y-97101890D01*
X171830215Y-97101890D02*
X171877834Y-97054271D01*
X171877834Y-97054271D02*
X171973072Y-97006652D01*
X171973072Y-97006652D02*
X172068310Y-97006652D01*
X172830215Y-97006652D02*
X172830215Y-97673319D01*
X172401644Y-97006652D02*
X172401644Y-97530461D01*
X172401644Y-97530461D02*
X172449263Y-97625700D01*
X172449263Y-97625700D02*
X172544501Y-97673319D01*
X172544501Y-97673319D02*
X172687358Y-97673319D01*
X172687358Y-97673319D02*
X172782596Y-97625700D01*
X172782596Y-97625700D02*
X172830215Y-97578080D01*
X173449263Y-97673319D02*
X173354025Y-97625700D01*
X173354025Y-97625700D02*
X173306406Y-97578080D01*
X173306406Y-97578080D02*
X173258787Y-97482842D01*
X173258787Y-97482842D02*
X173258787Y-97197128D01*
X173258787Y-97197128D02*
X173306406Y-97101890D01*
X173306406Y-97101890D02*
X173354025Y-97054271D01*
X173354025Y-97054271D02*
X173449263Y-97006652D01*
X173449263Y-97006652D02*
X173592120Y-97006652D01*
X173592120Y-97006652D02*
X173687358Y-97054271D01*
X173687358Y-97054271D02*
X173734977Y-97101890D01*
X173734977Y-97101890D02*
X173782596Y-97197128D01*
X173782596Y-97197128D02*
X173782596Y-97482842D01*
X173782596Y-97482842D02*
X173734977Y-97578080D01*
X173734977Y-97578080D02*
X173687358Y-97625700D01*
X173687358Y-97625700D02*
X173592120Y-97673319D01*
X173592120Y-97673319D02*
X173449263Y-97673319D01*
D14*
%TO.C,HOLE1*%
X59525000Y-59525000D03*
%TD*%
%TO.C,HOLE2*%
X59525000Y-78575000D03*
%TD*%
%TO.C,HOLE7*%
X97625000Y-59525000D03*
%TD*%
%TO.C,HOLE8*%
X97625000Y-78575000D03*
%TD*%
%TO.C,HOLE13*%
X135725000Y-59525000D03*
%TD*%
%TO.C,HOLE14*%
X135725000Y-78575000D03*
%TD*%
D15*
%TO.C,C1*%
X160500000Y-61595000D03*
X159540000Y-61595000D03*
%TD*%
D16*
%TO.C,C2*%
X159540000Y-67310000D03*
X160500000Y-67310000D03*
%TD*%
D15*
%TO.C,C3*%
X169390000Y-58102500D03*
X168430000Y-58102500D03*
%TD*%
D17*
%TO.C,C4*%
X165288000Y-58356500D03*
X163388000Y-58356500D03*
%TD*%
D18*
%TO.C,C5*%
X160160000Y-69850000D03*
X158610000Y-69850000D03*
%TD*%
D15*
%TO.C,C6*%
X164818000Y-60452000D03*
X163858000Y-60452000D03*
%TD*%
D19*
%TO.C,F1*%
X156845000Y-50232500D03*
X156845000Y-47176500D03*
%TD*%
D20*
%TO.C,J1*%
X159228000Y-44394500D03*
X159878000Y-44394500D03*
X160528000Y-44394500D03*
X161178000Y-44394500D03*
X161828000Y-44394500D03*
D21*
X164628000Y-41719500D03*
D22*
X163628000Y-44069500D03*
D23*
X161378000Y-41719500D03*
X159678000Y-41719500D03*
D22*
X157428000Y-44069500D03*
D21*
X156428000Y-41719500D03*
%TD*%
D24*
%TO.C,R1*%
X161163000Y-49085000D03*
X161163000Y-47435000D03*
%TD*%
%TO.C,R2*%
X159131000Y-49085000D03*
X159131000Y-47435000D03*
%TD*%
D25*
%TO.C,R3*%
X173165000Y-58293000D03*
X174815000Y-58293000D03*
%TD*%
D26*
%TO.C,R4*%
X167258500Y-75184000D03*
X165608500Y-75184000D03*
%TD*%
D27*
%TO.C,SW1*%
X44500000Y-50000000D03*
D28*
X44920000Y-50000000D03*
D29*
X46190000Y-47460000D03*
X47460000Y-44920000D03*
D30*
X50000000Y-50000000D03*
D29*
X52540000Y-44920000D03*
X53810000Y-47460000D03*
D28*
X55080000Y-50000000D03*
D27*
X55500000Y-50000000D03*
D31*
X44400000Y-44920000D03*
X56900000Y-47460000D03*
%TD*%
D27*
%TO.C,SW2*%
X44500000Y-69050000D03*
D28*
X44920000Y-69050000D03*
D29*
X46190000Y-66510000D03*
X47460000Y-63970000D03*
D30*
X50000000Y-69050000D03*
D29*
X52540000Y-63970000D03*
X53810000Y-66510000D03*
D28*
X55080000Y-69050000D03*
D27*
X55500000Y-69050000D03*
D31*
X44400000Y-63970000D03*
X56900000Y-66510000D03*
%TD*%
D27*
%TO.C,SW3*%
X44500000Y-88100000D03*
D28*
X44920000Y-88100000D03*
D29*
X46190000Y-85560000D03*
X47460000Y-83020000D03*
D30*
X50000000Y-88100000D03*
D29*
X52540000Y-83020000D03*
X53810000Y-85560000D03*
D28*
X55080000Y-88100000D03*
D27*
X55500000Y-88100000D03*
D31*
X44400000Y-83020000D03*
X56900000Y-85560000D03*
%TD*%
D27*
%TO.C,SW4*%
X63550000Y-50000000D03*
D28*
X63970000Y-50000000D03*
D29*
X65240000Y-47460000D03*
X66510000Y-44920000D03*
D30*
X69050000Y-50000000D03*
D29*
X71590000Y-44920000D03*
X72860000Y-47460000D03*
D28*
X74130000Y-50000000D03*
D27*
X74550000Y-50000000D03*
D31*
X63450000Y-44920000D03*
X75950000Y-47460000D03*
%TD*%
D27*
%TO.C,SW5*%
X63550000Y-69050000D03*
D28*
X63970000Y-69050000D03*
D29*
X65240000Y-66510000D03*
X66510000Y-63970000D03*
D30*
X69050000Y-69050000D03*
D29*
X71590000Y-63970000D03*
X72860000Y-66510000D03*
D28*
X74130000Y-69050000D03*
D27*
X74550000Y-69050000D03*
D31*
X63450000Y-63970000D03*
X75950000Y-66510000D03*
%TD*%
D27*
%TO.C,SW6*%
X63550000Y-88100000D03*
D28*
X63970000Y-88100000D03*
D29*
X65240000Y-85560000D03*
X66510000Y-83020000D03*
D30*
X69050000Y-88100000D03*
D29*
X71590000Y-83020000D03*
X72860000Y-85560000D03*
D28*
X74130000Y-88100000D03*
D27*
X74550000Y-88100000D03*
D31*
X63450000Y-83020000D03*
X75950000Y-85560000D03*
%TD*%
D27*
%TO.C,SW7*%
X82600000Y-50000000D03*
D28*
X83020000Y-50000000D03*
D29*
X84290000Y-47460000D03*
X85560000Y-44920000D03*
D30*
X88100000Y-50000000D03*
D29*
X90640000Y-44920000D03*
X91910000Y-47460000D03*
D28*
X93180000Y-50000000D03*
D27*
X93600000Y-50000000D03*
D31*
X82500000Y-44920000D03*
X95000000Y-47460000D03*
%TD*%
D27*
%TO.C,SW8*%
X82600000Y-69050000D03*
D28*
X83020000Y-69050000D03*
D29*
X84290000Y-66510000D03*
X85560000Y-63970000D03*
D30*
X88100000Y-69050000D03*
D29*
X90640000Y-63970000D03*
X91910000Y-66510000D03*
D28*
X93180000Y-69050000D03*
D27*
X93600000Y-69050000D03*
D31*
X82500000Y-63970000D03*
X95000000Y-66510000D03*
%TD*%
D27*
%TO.C,SW9*%
X82600000Y-88100000D03*
D28*
X83020000Y-88100000D03*
D29*
X84290000Y-85560000D03*
X85560000Y-83020000D03*
D30*
X88100000Y-88100000D03*
D29*
X90640000Y-83020000D03*
X91910000Y-85560000D03*
D28*
X93180000Y-88100000D03*
D27*
X93600000Y-88100000D03*
D31*
X82500000Y-83020000D03*
X95000000Y-85560000D03*
%TD*%
D27*
%TO.C,SW10*%
X101650000Y-50000000D03*
D28*
X102070000Y-50000000D03*
D29*
X103340000Y-47460000D03*
X104610000Y-44920000D03*
D30*
X107150000Y-50000000D03*
D29*
X109690000Y-44920000D03*
X110960000Y-47460000D03*
D28*
X112230000Y-50000000D03*
D27*
X112650000Y-50000000D03*
D31*
X101550000Y-44920000D03*
X114050000Y-47460000D03*
%TD*%
D27*
%TO.C,SW11*%
X101650000Y-69050000D03*
D28*
X102070000Y-69050000D03*
D29*
X103340000Y-66510000D03*
X104610000Y-63970000D03*
D30*
X107150000Y-69050000D03*
D29*
X109690000Y-63970000D03*
X110960000Y-66510000D03*
D28*
X112230000Y-69050000D03*
D27*
X112650000Y-69050000D03*
D31*
X101550000Y-63970000D03*
X114050000Y-66510000D03*
%TD*%
D27*
%TO.C,SW12*%
X101650000Y-88100000D03*
D28*
X102070000Y-88100000D03*
D29*
X103340000Y-85560000D03*
X104610000Y-83020000D03*
D30*
X107150000Y-88100000D03*
D29*
X109690000Y-83020000D03*
X110960000Y-85560000D03*
D28*
X112230000Y-88100000D03*
D27*
X112650000Y-88100000D03*
D31*
X101550000Y-83020000D03*
X114050000Y-85560000D03*
%TD*%
D27*
%TO.C,SW13*%
X120700000Y-50000000D03*
D28*
X121120000Y-50000000D03*
D29*
X122390000Y-47460000D03*
X123660000Y-44920000D03*
D30*
X126200000Y-50000000D03*
D29*
X128740000Y-44920000D03*
X130010000Y-47460000D03*
D28*
X131280000Y-50000000D03*
D27*
X131700000Y-50000000D03*
D31*
X120600000Y-44920000D03*
X133100000Y-47460000D03*
%TD*%
D27*
%TO.C,SW14*%
X120700000Y-69050000D03*
D28*
X121120000Y-69050000D03*
D29*
X122390000Y-66510000D03*
X123660000Y-63970000D03*
D30*
X126200000Y-69050000D03*
D29*
X128740000Y-63970000D03*
X130010000Y-66510000D03*
D28*
X131280000Y-69050000D03*
D27*
X131700000Y-69050000D03*
D31*
X120600000Y-63970000D03*
X133100000Y-66510000D03*
%TD*%
D27*
%TO.C,SW15*%
X120700000Y-88100000D03*
D28*
X121120000Y-88100000D03*
D29*
X122390000Y-85560000D03*
X123660000Y-83020000D03*
D30*
X126200000Y-88100000D03*
D29*
X128740000Y-83020000D03*
X130010000Y-85560000D03*
D28*
X131280000Y-88100000D03*
D27*
X131700000Y-88100000D03*
D31*
X120600000Y-83020000D03*
X133100000Y-85560000D03*
%TD*%
D27*
%TO.C,SW16*%
X139750000Y-50000000D03*
D28*
X140170000Y-50000000D03*
D29*
X141440000Y-47460000D03*
X142710000Y-44920000D03*
D30*
X145250000Y-50000000D03*
D29*
X147790000Y-44920000D03*
X149060000Y-47460000D03*
D28*
X150330000Y-50000000D03*
D27*
X150750000Y-50000000D03*
D31*
X139650000Y-44920000D03*
X152150000Y-47460000D03*
%TD*%
D27*
%TO.C,SW17*%
X139750000Y-69050000D03*
D28*
X140170000Y-69050000D03*
D29*
X141440000Y-66510000D03*
X142710000Y-63970000D03*
D30*
X145250000Y-69050000D03*
D29*
X147790000Y-63970000D03*
X149060000Y-66510000D03*
D28*
X150330000Y-69050000D03*
D27*
X150750000Y-69050000D03*
D31*
X139650000Y-63970000D03*
X152150000Y-66510000D03*
%TD*%
D27*
%TO.C,SW18*%
X139750000Y-88100000D03*
D28*
X140170000Y-88100000D03*
D29*
X141440000Y-85560000D03*
X142710000Y-83020000D03*
D30*
X145250000Y-88100000D03*
D29*
X147790000Y-83020000D03*
X149060000Y-85560000D03*
D28*
X150330000Y-88100000D03*
D27*
X150750000Y-88100000D03*
D31*
X139650000Y-83020000D03*
X152150000Y-85560000D03*
%TD*%
D27*
%TO.C,SW19*%
X158800000Y-88100000D03*
D28*
X159220000Y-88100000D03*
D29*
X160490000Y-85560000D03*
X161760000Y-83020000D03*
D30*
X164300000Y-88100000D03*
D29*
X166840000Y-83020000D03*
X168110000Y-85560000D03*
D28*
X169380000Y-88100000D03*
D27*
X169800000Y-88100000D03*
D31*
X158700000Y-83020000D03*
X171200000Y-85560000D03*
%TD*%
D32*
%TO.C,U1*%
X163453500Y-64065500D03*
X163453500Y-64865500D03*
X163453500Y-65665500D03*
X163453500Y-66465500D03*
X163453500Y-67265500D03*
X163453500Y-68065500D03*
X163453500Y-68865500D03*
X163453500Y-69665500D03*
D33*
X164903500Y-71115500D03*
X165703500Y-71115500D03*
X166503500Y-71115500D03*
X167303500Y-71115500D03*
X168103500Y-71115500D03*
X168903500Y-71115500D03*
X169703500Y-71115500D03*
X170503500Y-71115500D03*
D32*
X171953500Y-69665500D03*
X171953500Y-68865500D03*
X171953500Y-68065500D03*
X171953500Y-67265500D03*
X171953500Y-66465500D03*
X171953500Y-65665500D03*
X171953500Y-64865500D03*
X171953500Y-64065500D03*
D33*
X170503500Y-62615500D03*
X169703500Y-62615500D03*
X168903500Y-62615500D03*
X168103500Y-62615500D03*
X167303500Y-62615500D03*
X166503500Y-62615500D03*
X165703500Y-62615500D03*
X164903500Y-62615500D03*
%TD*%
D34*
%TO.C,Y1*%
X159850000Y-63525500D03*
X157650000Y-63525500D03*
X157650000Y-65125500D03*
X159850000Y-65125500D03*
%TD*%
D35*
%TO.C,J2*%
X171704000Y-42723000D03*
X171704000Y-49723000D03*
D36*
X174954000Y-47323000D03*
X174954000Y-44323000D03*
X168454000Y-52423000D03*
X174954000Y-51323000D03*
%TD*%
D37*
%TO.C,D_H1*%
X157927500Y-74485500D03*
X161477500Y-74485500D03*
%TD*%
D38*
%TO.C,RSTSW1*%
X172847000Y-54572000D03*
X172847000Y-56272000D03*
D39*
X170597000Y-55372000D03*
X175097000Y-55372000D03*
%TD*%
D40*
%TO.C,D1*%
X58293000Y-53781500D03*
X58293000Y-50231500D03*
%TD*%
%TO.C,D2*%
X58293000Y-72831500D03*
X58293000Y-69281500D03*
%TD*%
%TO.C,D3*%
X58293000Y-91881500D03*
X58293000Y-88331500D03*
%TD*%
%TO.C,D7*%
X96393000Y-53781500D03*
X96393000Y-50231500D03*
%TD*%
%TO.C,D8*%
X96393000Y-72831500D03*
X96393000Y-69281500D03*
%TD*%
%TO.C,D10*%
X115443000Y-53781500D03*
X115443000Y-50231500D03*
%TD*%
%TO.C,D11*%
X115443000Y-72831500D03*
X115443000Y-69281500D03*
%TD*%
%TO.C,D12*%
X115443000Y-91881500D03*
X115443000Y-88331500D03*
%TD*%
%TO.C,D14*%
X134493000Y-72831500D03*
X134493000Y-69281500D03*
%TD*%
%TO.C,D15*%
X134493000Y-91881500D03*
X134493000Y-88331500D03*
%TD*%
%TO.C,D17*%
X153543000Y-72831500D03*
X153543000Y-69281500D03*
%TD*%
%TO.C,D18*%
X153543000Y-91881500D03*
X153543000Y-88331500D03*
%TD*%
%TO.C,D4*%
X77342999Y-53781500D03*
X77342999Y-50231500D03*
%TD*%
%TO.C,D5*%
X77342999Y-72831500D03*
X77342999Y-69281500D03*
%TD*%
%TO.C,D6*%
X77342999Y-91881500D03*
X77342999Y-88331500D03*
%TD*%
%TO.C,D9*%
X96393000Y-91881500D03*
X96393000Y-88331500D03*
%TD*%
%TO.C,D13*%
X134493000Y-53781500D03*
X134493000Y-50231500D03*
%TD*%
%TO.C,D16*%
X153543000Y-53781500D03*
X153543000Y-50231500D03*
%TD*%
%TO.C,D19*%
X172593000Y-91881500D03*
X172593000Y-88331500D03*
%TD*%
%LPD*%
M02*
