%TF.GenerationSoftware,KiCad,Pcbnew,8.0.7*%
%TF.CreationDate,2024-12-30T11:09:25+09:00*%
%TF.ProjectId,pisces,70697363-6573-42e6-9b69-6361645f7063,rev?*%
%TF.SameCoordinates,Original*%
%TF.FileFunction,Paste,Bot*%
%TF.FilePolarity,Positive*%
%FSLAX46Y46*%
G04 Gerber Fmt 4.6, Leading zero omitted, Abs format (unit mm)*
G04 Created by KiCad (PCBNEW 8.0.7) date 2024-12-30 11:09:25*
%MOMM*%
%LPD*%
G01*
G04 APERTURE LIST*
%ADD10R,2.000000X2.000000*%
%ADD11R,2.500000X1.200000*%
%ADD12R,1.300000X0.950000*%
%ADD13R,1.100000X1.600000*%
%ADD14R,0.950000X1.300000*%
G04 APERTURE END LIST*
D10*
%TO.C,SW1*%
X50232000Y-39078500D03*
X62732000Y-36538500D03*
%TD*%
%TO.C,SW2*%
X50232000Y-58128500D03*
X62732000Y-55588500D03*
%TD*%
%TO.C,SW3*%
X50232000Y-77178500D03*
X62732000Y-74638500D03*
%TD*%
%TO.C,SW4*%
X69282000Y-39078500D03*
X81782000Y-36538500D03*
%TD*%
%TO.C,SW5*%
X69282000Y-58128500D03*
X81782000Y-55588500D03*
%TD*%
%TO.C,SW6*%
X69282000Y-77178500D03*
X81782000Y-74638500D03*
%TD*%
%TO.C,SW7*%
X88332000Y-39078500D03*
X100832000Y-36538500D03*
%TD*%
%TO.C,SW8*%
X88332000Y-58128500D03*
X100832000Y-55588500D03*
%TD*%
%TO.C,SW9*%
X88332000Y-77178500D03*
X100832000Y-74638500D03*
%TD*%
%TO.C,SW10*%
X107382000Y-39078500D03*
X119882000Y-36538500D03*
%TD*%
%TO.C,SW11*%
X107382000Y-58128500D03*
X119882000Y-55588500D03*
%TD*%
%TO.C,SW12*%
X107382000Y-77178500D03*
X119882000Y-74638500D03*
%TD*%
%TO.C,SW13*%
X126432000Y-39078500D03*
X138932000Y-36538500D03*
%TD*%
%TO.C,SW14*%
X126432000Y-58128500D03*
X138932000Y-55588500D03*
%TD*%
%TO.C,SW15*%
X126432000Y-77178500D03*
X138932000Y-74638500D03*
%TD*%
%TO.C,SW16*%
X145482000Y-39078500D03*
X157982000Y-36538500D03*
%TD*%
%TO.C,SW17*%
X145482000Y-58128500D03*
X157982000Y-55588500D03*
%TD*%
%TO.C,SW18*%
X145482000Y-77178500D03*
X157982000Y-74638500D03*
%TD*%
%TO.C,SW19*%
X164532000Y-77178500D03*
X177032000Y-74638500D03*
%TD*%
D11*
%TO.C,J2*%
X175586000Y-38931500D03*
X175586000Y-35931500D03*
X182086000Y-44031500D03*
X175586000Y-42931500D03*
%TD*%
D12*
%TO.C,D_H1*%
X165059500Y-66104000D03*
X168609500Y-66104000D03*
%TD*%
D13*
%TO.C,RSTSW1*%
X177729000Y-46990500D03*
X182229000Y-46990500D03*
%TD*%
D14*
%TO.C,D1*%
X65425000Y-45400000D03*
X65425000Y-41850000D03*
%TD*%
%TO.C,D2*%
X65425000Y-64450000D03*
X65425000Y-60900000D03*
%TD*%
%TO.C,D3*%
X65425000Y-83500000D03*
X65425000Y-79950000D03*
%TD*%
%TO.C,D7*%
X103525000Y-45400000D03*
X103525000Y-41850000D03*
%TD*%
%TO.C,D8*%
X103525000Y-64450000D03*
X103525000Y-60900000D03*
%TD*%
%TO.C,D10*%
X122575000Y-45400000D03*
X122575000Y-41850000D03*
%TD*%
%TO.C,D11*%
X122575000Y-64450000D03*
X122575000Y-60900000D03*
%TD*%
%TO.C,D12*%
X122575000Y-83500000D03*
X122575000Y-79950000D03*
%TD*%
%TO.C,D14*%
X141625000Y-64450000D03*
X141625000Y-60900000D03*
%TD*%
%TO.C,D15*%
X141625000Y-83500000D03*
X141625000Y-79950000D03*
%TD*%
%TO.C,D17*%
X160675000Y-64450000D03*
X160675000Y-60900000D03*
%TD*%
%TO.C,D18*%
X160675000Y-83500000D03*
X160675000Y-79950000D03*
%TD*%
%TO.C,D4*%
X84474999Y-45400000D03*
X84474999Y-41850000D03*
%TD*%
%TO.C,D5*%
X84474999Y-64450000D03*
X84474999Y-60900000D03*
%TD*%
%TO.C,D6*%
X84474999Y-83500000D03*
X84474999Y-79950000D03*
%TD*%
%TO.C,D9*%
X103525000Y-83500000D03*
X103525000Y-79950000D03*
%TD*%
%TO.C,D13*%
X141625000Y-45400000D03*
X141625000Y-41850000D03*
%TD*%
%TO.C,D16*%
X160675000Y-45400000D03*
X160675000Y-41850000D03*
%TD*%
%TO.C,D19*%
X179725000Y-83500000D03*
X179725000Y-79950000D03*
%TD*%
M02*
