%TF.GenerationSoftware,KiCad,Pcbnew,8.0.7*%
%TF.CreationDate,2024-12-30T11:09:25+09:00*%
%TF.ProjectId,pisces,70697363-6573-42e6-9b69-6361645f7063,rev?*%
%TF.SameCoordinates,Original*%
%TF.FileFunction,Soldermask,Top*%
%TF.FilePolarity,Negative*%
%FSLAX46Y46*%
G04 Gerber Fmt 4.6, Leading zero omitted, Abs format (unit mm)*
G04 Created by KiCad (PCBNEW 8.0.7) date 2024-12-30 11:09:25*
%MOMM*%
%LPD*%
G01*
G04 APERTURE LIST*
G04 Aperture macros list*
%AMRoundRect*
0 Rectangle with rounded corners*
0 $1 Rounding radius*
0 $2 $3 $4 $5 $6 $7 $8 $9 X,Y pos of 4 corners*
0 Add a 4 corners polygon primitive as box body*
4,1,4,$2,$3,$4,$5,$6,$7,$8,$9,$2,$3,0*
0 Add four circle primitives for the rounded corners*
1,1,$1+$1,$2,$3*
1,1,$1+$1,$4,$5*
1,1,$1+$1,$6,$7*
1,1,$1+$1,$8,$9*
0 Add four rect primitives between the rounded corners*
20,1,$1+$1,$2,$3,$4,$5,0*
20,1,$1+$1,$4,$5,$6,$7,0*
20,1,$1+$1,$6,$7,$8,$9,0*
20,1,$1+$1,$8,$9,$2,$3,0*%
G04 Aperture macros list end*
%ADD10C,0.150000*%
%ADD11C,5.000000*%
%ADD12RoundRect,0.140000X0.140000X0.170000X-0.140000X0.170000X-0.140000X-0.170000X0.140000X-0.170000X0*%
%ADD13RoundRect,0.140000X-0.140000X-0.170000X0.140000X-0.170000X0.140000X0.170000X-0.140000X0.170000X0*%
%ADD14RoundRect,0.250000X0.250000X0.475000X-0.250000X0.475000X-0.250000X-0.475000X0.250000X-0.475000X0*%
%ADD15RoundRect,0.225000X0.225000X0.250000X-0.225000X0.250000X-0.225000X-0.250000X0.225000X-0.250000X0*%
%ADD16R,1.060000X1.820000*%
%ADD17C,0.650000*%
%ADD18R,0.300000X1.150000*%
%ADD19O,1.000000X2.100000*%
%ADD20O,1.000000X1.600000*%
%ADD21RoundRect,0.200000X0.200000X0.275000X-0.200000X0.275000X-0.200000X-0.275000X0.200000X-0.275000X0*%
%ADD22RoundRect,0.200000X-0.200000X-0.275000X0.200000X-0.275000X0.200000X0.275000X-0.200000X0.275000X0*%
%ADD23C,1.900000*%
%ADD24C,1.700000*%
%ADD25C,3.000000*%
%ADD26C,4.000000*%
%ADD27R,2.000000X2.000000*%
%ADD28R,1.600000X0.550000*%
%ADD29R,0.550000X1.600000*%
%ADD30R,1.400000X1.200000*%
%ADD31C,1.500000*%
%ADD32R,2.500000X1.200000*%
%ADD33R,1.300000X0.950000*%
%ADD34C,0.750000*%
%ADD35R,1.100000X1.600000*%
%ADD36RoundRect,0.135000X0.135000X0.185000X-0.135000X0.185000X-0.135000X-0.185000X0.135000X-0.185000X0*%
%ADD37R,0.950000X1.300000*%
G04 APERTURE END LIST*
D10*
X164486023Y-88625152D02*
X164486023Y-89625152D01*
X164486023Y-88672771D02*
X164581261Y-88625152D01*
X164581261Y-88625152D02*
X164771737Y-88625152D01*
X164771737Y-88625152D02*
X164866975Y-88672771D01*
X164866975Y-88672771D02*
X164914594Y-88720390D01*
X164914594Y-88720390D02*
X164962213Y-88815628D01*
X164962213Y-88815628D02*
X164962213Y-89101342D01*
X164962213Y-89101342D02*
X164914594Y-89196580D01*
X164914594Y-89196580D02*
X164866975Y-89244200D01*
X164866975Y-89244200D02*
X164771737Y-89291819D01*
X164771737Y-89291819D02*
X164581261Y-89291819D01*
X164581261Y-89291819D02*
X164486023Y-89244200D01*
X165390785Y-89291819D02*
X165390785Y-88625152D01*
X165390785Y-88291819D02*
X165343166Y-88339438D01*
X165343166Y-88339438D02*
X165390785Y-88387057D01*
X165390785Y-88387057D02*
X165438404Y-88339438D01*
X165438404Y-88339438D02*
X165390785Y-88291819D01*
X165390785Y-88291819D02*
X165390785Y-88387057D01*
X165819356Y-89244200D02*
X165914594Y-89291819D01*
X165914594Y-89291819D02*
X166105070Y-89291819D01*
X166105070Y-89291819D02*
X166200308Y-89244200D01*
X166200308Y-89244200D02*
X166247927Y-89148961D01*
X166247927Y-89148961D02*
X166247927Y-89101342D01*
X166247927Y-89101342D02*
X166200308Y-89006104D01*
X166200308Y-89006104D02*
X166105070Y-88958485D01*
X166105070Y-88958485D02*
X165962213Y-88958485D01*
X165962213Y-88958485D02*
X165866975Y-88910866D01*
X165866975Y-88910866D02*
X165819356Y-88815628D01*
X165819356Y-88815628D02*
X165819356Y-88768009D01*
X165819356Y-88768009D02*
X165866975Y-88672771D01*
X165866975Y-88672771D02*
X165962213Y-88625152D01*
X165962213Y-88625152D02*
X166105070Y-88625152D01*
X166105070Y-88625152D02*
X166200308Y-88672771D01*
X167105070Y-89244200D02*
X167009832Y-89291819D01*
X167009832Y-89291819D02*
X166819356Y-89291819D01*
X166819356Y-89291819D02*
X166724118Y-89244200D01*
X166724118Y-89244200D02*
X166676499Y-89196580D01*
X166676499Y-89196580D02*
X166628880Y-89101342D01*
X166628880Y-89101342D02*
X166628880Y-88815628D01*
X166628880Y-88815628D02*
X166676499Y-88720390D01*
X166676499Y-88720390D02*
X166724118Y-88672771D01*
X166724118Y-88672771D02*
X166819356Y-88625152D01*
X166819356Y-88625152D02*
X167009832Y-88625152D01*
X167009832Y-88625152D02*
X167105070Y-88672771D01*
X167914594Y-89244200D02*
X167819356Y-89291819D01*
X167819356Y-89291819D02*
X167628880Y-89291819D01*
X167628880Y-89291819D02*
X167533642Y-89244200D01*
X167533642Y-89244200D02*
X167486023Y-89148961D01*
X167486023Y-89148961D02*
X167486023Y-88768009D01*
X167486023Y-88768009D02*
X167533642Y-88672771D01*
X167533642Y-88672771D02*
X167628880Y-88625152D01*
X167628880Y-88625152D02*
X167819356Y-88625152D01*
X167819356Y-88625152D02*
X167914594Y-88672771D01*
X167914594Y-88672771D02*
X167962213Y-88768009D01*
X167962213Y-88768009D02*
X167962213Y-88863247D01*
X167962213Y-88863247D02*
X167486023Y-88958485D01*
X168343166Y-89244200D02*
X168438404Y-89291819D01*
X168438404Y-89291819D02*
X168628880Y-89291819D01*
X168628880Y-89291819D02*
X168724118Y-89244200D01*
X168724118Y-89244200D02*
X168771737Y-89148961D01*
X168771737Y-89148961D02*
X168771737Y-89101342D01*
X168771737Y-89101342D02*
X168724118Y-89006104D01*
X168724118Y-89006104D02*
X168628880Y-88958485D01*
X168628880Y-88958485D02*
X168486023Y-88958485D01*
X168486023Y-88958485D02*
X168390785Y-88910866D01*
X168390785Y-88910866D02*
X168343166Y-88815628D01*
X168343166Y-88815628D02*
X168343166Y-88768009D01*
X168343166Y-88768009D02*
X168390785Y-88672771D01*
X168390785Y-88672771D02*
X168486023Y-88625152D01*
X168486023Y-88625152D02*
X168628880Y-88625152D01*
X168628880Y-88625152D02*
X168724118Y-88672771D01*
X169866976Y-88625152D02*
X170105071Y-89291819D01*
X170105071Y-89291819D02*
X170343166Y-88625152D01*
X170676500Y-88387057D02*
X170724119Y-88339438D01*
X170724119Y-88339438D02*
X170819357Y-88291819D01*
X170819357Y-88291819D02*
X171057452Y-88291819D01*
X171057452Y-88291819D02*
X171152690Y-88339438D01*
X171152690Y-88339438D02*
X171200309Y-88387057D01*
X171200309Y-88387057D02*
X171247928Y-88482295D01*
X171247928Y-88482295D02*
X171247928Y-88577533D01*
X171247928Y-88577533D02*
X171200309Y-88720390D01*
X171200309Y-88720390D02*
X170628881Y-89291819D01*
X170628881Y-89291819D02*
X171247928Y-89291819D01*
X171676500Y-89196580D02*
X171724119Y-89244200D01*
X171724119Y-89244200D02*
X171676500Y-89291819D01*
X171676500Y-89291819D02*
X171628881Y-89244200D01*
X171628881Y-89244200D02*
X171676500Y-89196580D01*
X171676500Y-89196580D02*
X171676500Y-89291819D01*
X172105071Y-88387057D02*
X172152690Y-88339438D01*
X172152690Y-88339438D02*
X172247928Y-88291819D01*
X172247928Y-88291819D02*
X172486023Y-88291819D01*
X172486023Y-88291819D02*
X172581261Y-88339438D01*
X172581261Y-88339438D02*
X172628880Y-88387057D01*
X172628880Y-88387057D02*
X172676499Y-88482295D01*
X172676499Y-88482295D02*
X172676499Y-88577533D01*
X172676499Y-88577533D02*
X172628880Y-88720390D01*
X172628880Y-88720390D02*
X172057452Y-89291819D01*
X172057452Y-89291819D02*
X172676499Y-89291819D01*
X173866976Y-89291819D02*
X173866976Y-88291819D01*
X173866976Y-88672771D02*
X173962214Y-88625152D01*
X173962214Y-88625152D02*
X174152690Y-88625152D01*
X174152690Y-88625152D02*
X174247928Y-88672771D01*
X174247928Y-88672771D02*
X174295547Y-88720390D01*
X174295547Y-88720390D02*
X174343166Y-88815628D01*
X174343166Y-88815628D02*
X174343166Y-89101342D01*
X174343166Y-89101342D02*
X174295547Y-89196580D01*
X174295547Y-89196580D02*
X174247928Y-89244200D01*
X174247928Y-89244200D02*
X174152690Y-89291819D01*
X174152690Y-89291819D02*
X173962214Y-89291819D01*
X173962214Y-89291819D02*
X173866976Y-89244200D01*
X174676500Y-88625152D02*
X174914595Y-89291819D01*
X175152690Y-88625152D02*
X174914595Y-89291819D01*
X174914595Y-89291819D02*
X174819357Y-89529914D01*
X174819357Y-89529914D02*
X174771738Y-89577533D01*
X174771738Y-89577533D02*
X174676500Y-89625152D01*
X176295548Y-89291819D02*
X176295548Y-88291819D01*
X176390786Y-88910866D02*
X176676500Y-89291819D01*
X176676500Y-88625152D02*
X176295548Y-89006104D01*
X177105072Y-88625152D02*
X177105072Y-89291819D01*
X177105072Y-88720390D02*
X177152691Y-88672771D01*
X177152691Y-88672771D02*
X177247929Y-88625152D01*
X177247929Y-88625152D02*
X177390786Y-88625152D01*
X177390786Y-88625152D02*
X177486024Y-88672771D01*
X177486024Y-88672771D02*
X177533643Y-88768009D01*
X177533643Y-88768009D02*
X177533643Y-89291819D01*
X178438405Y-89291819D02*
X178438405Y-88768009D01*
X178438405Y-88768009D02*
X178390786Y-88672771D01*
X178390786Y-88672771D02*
X178295548Y-88625152D01*
X178295548Y-88625152D02*
X178105072Y-88625152D01*
X178105072Y-88625152D02*
X178009834Y-88672771D01*
X178438405Y-89244200D02*
X178343167Y-89291819D01*
X178343167Y-89291819D02*
X178105072Y-89291819D01*
X178105072Y-89291819D02*
X178009834Y-89244200D01*
X178009834Y-89244200D02*
X177962215Y-89148961D01*
X177962215Y-89148961D02*
X177962215Y-89053723D01*
X177962215Y-89053723D02*
X178009834Y-88958485D01*
X178009834Y-88958485D02*
X178105072Y-88910866D01*
X178105072Y-88910866D02*
X178343167Y-88910866D01*
X178343167Y-88910866D02*
X178438405Y-88863247D01*
X178914596Y-89291819D02*
X178914596Y-88625152D01*
X178914596Y-88815628D02*
X178962215Y-88720390D01*
X178962215Y-88720390D02*
X179009834Y-88672771D01*
X179009834Y-88672771D02*
X179105072Y-88625152D01*
X179105072Y-88625152D02*
X179200310Y-88625152D01*
X179962215Y-88625152D02*
X179962215Y-89291819D01*
X179533644Y-88625152D02*
X179533644Y-89148961D01*
X179533644Y-89148961D02*
X179581263Y-89244200D01*
X179581263Y-89244200D02*
X179676501Y-89291819D01*
X179676501Y-89291819D02*
X179819358Y-89291819D01*
X179819358Y-89291819D02*
X179914596Y-89244200D01*
X179914596Y-89244200D02*
X179962215Y-89196580D01*
X180581263Y-89291819D02*
X180486025Y-89244200D01*
X180486025Y-89244200D02*
X180438406Y-89196580D01*
X180438406Y-89196580D02*
X180390787Y-89101342D01*
X180390787Y-89101342D02*
X180390787Y-88815628D01*
X180390787Y-88815628D02*
X180438406Y-88720390D01*
X180438406Y-88720390D02*
X180486025Y-88672771D01*
X180486025Y-88672771D02*
X180581263Y-88625152D01*
X180581263Y-88625152D02*
X180724120Y-88625152D01*
X180724120Y-88625152D02*
X180819358Y-88672771D01*
X180819358Y-88672771D02*
X180866977Y-88720390D01*
X180866977Y-88720390D02*
X180914596Y-88815628D01*
X180914596Y-88815628D02*
X180914596Y-89101342D01*
X180914596Y-89101342D02*
X180866977Y-89196580D01*
X180866977Y-89196580D02*
X180819358Y-89244200D01*
X180819358Y-89244200D02*
X180724120Y-89291819D01*
X180724120Y-89291819D02*
X180581263Y-89291819D01*
D11*
%TO.C,HOLE1*%
X66657000Y-51143500D03*
%TD*%
%TO.C,HOLE2*%
X66657000Y-70193500D03*
%TD*%
%TO.C,HOLE7*%
X104757000Y-51143500D03*
%TD*%
%TO.C,HOLE8*%
X104757000Y-70193500D03*
%TD*%
%TO.C,HOLE13*%
X142857000Y-51143500D03*
%TD*%
%TO.C,HOLE14*%
X142857000Y-70193500D03*
%TD*%
D12*
%TO.C,C1*%
X167632000Y-53213500D03*
X166672000Y-53213500D03*
%TD*%
D13*
%TO.C,C2*%
X166672000Y-58928500D03*
X167632000Y-58928500D03*
%TD*%
D12*
%TO.C,C3*%
X176522000Y-49721000D03*
X175562000Y-49721000D03*
%TD*%
D14*
%TO.C,C4*%
X172420000Y-49975000D03*
X170520000Y-49975000D03*
%TD*%
D15*
%TO.C,C5*%
X167292000Y-61000000D03*
X165742000Y-61000000D03*
%TD*%
D12*
%TO.C,C6*%
X171950000Y-52070500D03*
X170990000Y-52070500D03*
%TD*%
D16*
%TO.C,F1*%
X167028000Y-43500000D03*
X163972000Y-43500000D03*
%TD*%
D17*
%TO.C,J1*%
X170550000Y-37298500D03*
X164770000Y-37298500D03*
D18*
X171010000Y-38363500D03*
X170210000Y-38363500D03*
X168910000Y-38363500D03*
X167910000Y-38363500D03*
X167410000Y-38363500D03*
X166410000Y-38363500D03*
X165110000Y-38363500D03*
X164310000Y-38363500D03*
X164610000Y-38363500D03*
X165410000Y-38363500D03*
X165910000Y-38363500D03*
X166910000Y-38363500D03*
X168410000Y-38363500D03*
X169410000Y-38363500D03*
X169910000Y-38363500D03*
X170710000Y-38363500D03*
D19*
X171980000Y-37798500D03*
D20*
X171980000Y-33618500D03*
D19*
X163340000Y-37798500D03*
D20*
X163340000Y-33618500D03*
%TD*%
D21*
%TO.C,R1*%
X171457000Y-43118500D03*
X169807000Y-43118500D03*
%TD*%
%TO.C,R2*%
X171482000Y-44618500D03*
X169832000Y-44618500D03*
%TD*%
D22*
%TO.C,R3*%
X180297000Y-49911500D03*
X181947000Y-49911500D03*
%TD*%
D21*
%TO.C,R4*%
X174390500Y-66802500D03*
X172740500Y-66802500D03*
%TD*%
D23*
%TO.C,SW1*%
X51632000Y-41618500D03*
D24*
X52052000Y-41618500D03*
D25*
X53322000Y-39078500D03*
X54592000Y-36538500D03*
D26*
X57132000Y-41618500D03*
D25*
X59672000Y-36538500D03*
X60942000Y-39078500D03*
D24*
X62212000Y-41618500D03*
D23*
X62632000Y-41618500D03*
D27*
X51532000Y-36538500D03*
X64032000Y-39078500D03*
%TD*%
D23*
%TO.C,SW2*%
X51632000Y-60668500D03*
D24*
X52052000Y-60668500D03*
D25*
X53322000Y-58128500D03*
X54592000Y-55588500D03*
D26*
X57132000Y-60668500D03*
D25*
X59672000Y-55588500D03*
X60942000Y-58128500D03*
D24*
X62212000Y-60668500D03*
D23*
X62632000Y-60668500D03*
D27*
X51532000Y-55588500D03*
X64032000Y-58128500D03*
%TD*%
D23*
%TO.C,SW3*%
X51632000Y-79718500D03*
D24*
X52052000Y-79718500D03*
D25*
X53322000Y-77178500D03*
X54592000Y-74638500D03*
D26*
X57132000Y-79718500D03*
D25*
X59672000Y-74638500D03*
X60942000Y-77178500D03*
D24*
X62212000Y-79718500D03*
D23*
X62632000Y-79718500D03*
D27*
X51532000Y-74638500D03*
X64032000Y-77178500D03*
%TD*%
D23*
%TO.C,SW4*%
X70682000Y-41618500D03*
D24*
X71102000Y-41618500D03*
D25*
X72372000Y-39078500D03*
X73642000Y-36538500D03*
D26*
X76182000Y-41618500D03*
D25*
X78722000Y-36538500D03*
X79992000Y-39078500D03*
D24*
X81262000Y-41618500D03*
D23*
X81682000Y-41618500D03*
D27*
X70582000Y-36538500D03*
X83082000Y-39078500D03*
%TD*%
D23*
%TO.C,SW5*%
X70682000Y-60668500D03*
D24*
X71102000Y-60668500D03*
D25*
X72372000Y-58128500D03*
X73642000Y-55588500D03*
D26*
X76182000Y-60668500D03*
D25*
X78722000Y-55588500D03*
X79992000Y-58128500D03*
D24*
X81262000Y-60668500D03*
D23*
X81682000Y-60668500D03*
D27*
X70582000Y-55588500D03*
X83082000Y-58128500D03*
%TD*%
D23*
%TO.C,SW6*%
X70682000Y-79718500D03*
D24*
X71102000Y-79718500D03*
D25*
X72372000Y-77178500D03*
X73642000Y-74638500D03*
D26*
X76182000Y-79718500D03*
D25*
X78722000Y-74638500D03*
X79992000Y-77178500D03*
D24*
X81262000Y-79718500D03*
D23*
X81682000Y-79718500D03*
D27*
X70582000Y-74638500D03*
X83082000Y-77178500D03*
%TD*%
D23*
%TO.C,SW7*%
X89732000Y-41618500D03*
D24*
X90152000Y-41618500D03*
D25*
X91422000Y-39078500D03*
X92692000Y-36538500D03*
D26*
X95232000Y-41618500D03*
D25*
X97772000Y-36538500D03*
X99042000Y-39078500D03*
D24*
X100312000Y-41618500D03*
D23*
X100732000Y-41618500D03*
D27*
X89632000Y-36538500D03*
X102132000Y-39078500D03*
%TD*%
D23*
%TO.C,SW8*%
X89732000Y-60668500D03*
D24*
X90152000Y-60668500D03*
D25*
X91422000Y-58128500D03*
X92692000Y-55588500D03*
D26*
X95232000Y-60668500D03*
D25*
X97772000Y-55588500D03*
X99042000Y-58128500D03*
D24*
X100312000Y-60668500D03*
D23*
X100732000Y-60668500D03*
D27*
X89632000Y-55588500D03*
X102132000Y-58128500D03*
%TD*%
D23*
%TO.C,SW9*%
X89732000Y-79718500D03*
D24*
X90152000Y-79718500D03*
D25*
X91422000Y-77178500D03*
X92692000Y-74638500D03*
D26*
X95232000Y-79718500D03*
D25*
X97772000Y-74638500D03*
X99042000Y-77178500D03*
D24*
X100312000Y-79718500D03*
D23*
X100732000Y-79718500D03*
D27*
X89632000Y-74638500D03*
X102132000Y-77178500D03*
%TD*%
D23*
%TO.C,SW10*%
X108782000Y-41618500D03*
D24*
X109202000Y-41618500D03*
D25*
X110472000Y-39078500D03*
X111742000Y-36538500D03*
D26*
X114282000Y-41618500D03*
D25*
X116822000Y-36538500D03*
X118092000Y-39078500D03*
D24*
X119362000Y-41618500D03*
D23*
X119782000Y-41618500D03*
D27*
X108682000Y-36538500D03*
X121182000Y-39078500D03*
%TD*%
D23*
%TO.C,SW11*%
X108782000Y-60668500D03*
D24*
X109202000Y-60668500D03*
D25*
X110472000Y-58128500D03*
X111742000Y-55588500D03*
D26*
X114282000Y-60668500D03*
D25*
X116822000Y-55588500D03*
X118092000Y-58128500D03*
D24*
X119362000Y-60668500D03*
D23*
X119782000Y-60668500D03*
D27*
X108682000Y-55588500D03*
X121182000Y-58128500D03*
%TD*%
D23*
%TO.C,SW12*%
X108782000Y-79718500D03*
D24*
X109202000Y-79718500D03*
D25*
X110472000Y-77178500D03*
X111742000Y-74638500D03*
D26*
X114282000Y-79718500D03*
D25*
X116822000Y-74638500D03*
X118092000Y-77178500D03*
D24*
X119362000Y-79718500D03*
D23*
X119782000Y-79718500D03*
D27*
X108682000Y-74638500D03*
X121182000Y-77178500D03*
%TD*%
D23*
%TO.C,SW13*%
X127832000Y-41618500D03*
D24*
X128252000Y-41618500D03*
D25*
X129522000Y-39078500D03*
X130792000Y-36538500D03*
D26*
X133332000Y-41618500D03*
D25*
X135872000Y-36538500D03*
X137142000Y-39078500D03*
D24*
X138412000Y-41618500D03*
D23*
X138832000Y-41618500D03*
D27*
X127732000Y-36538500D03*
X140232000Y-39078500D03*
%TD*%
D23*
%TO.C,SW14*%
X127832000Y-60668500D03*
D24*
X128252000Y-60668500D03*
D25*
X129522000Y-58128500D03*
X130792000Y-55588500D03*
D26*
X133332000Y-60668500D03*
D25*
X135872000Y-55588500D03*
X137142000Y-58128500D03*
D24*
X138412000Y-60668500D03*
D23*
X138832000Y-60668500D03*
D27*
X127732000Y-55588500D03*
X140232000Y-58128500D03*
%TD*%
D23*
%TO.C,SW15*%
X127832000Y-79718500D03*
D24*
X128252000Y-79718500D03*
D25*
X129522000Y-77178500D03*
X130792000Y-74638500D03*
D26*
X133332000Y-79718500D03*
D25*
X135872000Y-74638500D03*
X137142000Y-77178500D03*
D24*
X138412000Y-79718500D03*
D23*
X138832000Y-79718500D03*
D27*
X127732000Y-74638500D03*
X140232000Y-77178500D03*
%TD*%
D23*
%TO.C,SW16*%
X146882000Y-41618500D03*
D24*
X147302000Y-41618500D03*
D25*
X148572000Y-39078500D03*
X149842000Y-36538500D03*
D26*
X152382000Y-41618500D03*
D25*
X154922000Y-36538500D03*
X156192000Y-39078500D03*
D24*
X157462000Y-41618500D03*
D23*
X157882000Y-41618500D03*
D27*
X146782000Y-36538500D03*
X159282000Y-39078500D03*
%TD*%
D23*
%TO.C,SW17*%
X146882000Y-60668500D03*
D24*
X147302000Y-60668500D03*
D25*
X148572000Y-58128500D03*
X149842000Y-55588500D03*
D26*
X152382000Y-60668500D03*
D25*
X154922000Y-55588500D03*
X156192000Y-58128500D03*
D24*
X157462000Y-60668500D03*
D23*
X157882000Y-60668500D03*
D27*
X146782000Y-55588500D03*
X159282000Y-58128500D03*
%TD*%
D23*
%TO.C,SW18*%
X146882000Y-79718500D03*
D24*
X147302000Y-79718500D03*
D25*
X148572000Y-77178500D03*
X149842000Y-74638500D03*
D26*
X152382000Y-79718500D03*
D25*
X154922000Y-74638500D03*
X156192000Y-77178500D03*
D24*
X157462000Y-79718500D03*
D23*
X157882000Y-79718500D03*
D27*
X146782000Y-74638500D03*
X159282000Y-77178500D03*
%TD*%
D23*
%TO.C,SW19*%
X165932000Y-79718500D03*
D24*
X166352000Y-79718500D03*
D25*
X167622000Y-77178500D03*
X168892000Y-74638500D03*
D26*
X171432000Y-79718500D03*
D25*
X173972000Y-74638500D03*
X175242000Y-77178500D03*
D24*
X176512000Y-79718500D03*
D23*
X176932000Y-79718500D03*
D27*
X165832000Y-74638500D03*
X178332000Y-77178500D03*
%TD*%
D28*
%TO.C,U1*%
X170585500Y-55684000D03*
X170585500Y-56484000D03*
X170585500Y-57284000D03*
X170585500Y-58084000D03*
X170585500Y-58884000D03*
X170585500Y-59684000D03*
X170585500Y-60484000D03*
X170585500Y-61284000D03*
D29*
X172035500Y-62734000D03*
X172835500Y-62734000D03*
X173635500Y-62734000D03*
X174435500Y-62734000D03*
X175235500Y-62734000D03*
X176035500Y-62734000D03*
X176835500Y-62734000D03*
X177635500Y-62734000D03*
D28*
X179085500Y-61284000D03*
X179085500Y-60484000D03*
X179085500Y-59684000D03*
X179085500Y-58884000D03*
X179085500Y-58084000D03*
X179085500Y-57284000D03*
X179085500Y-56484000D03*
X179085500Y-55684000D03*
D29*
X177635500Y-54234000D03*
X176835500Y-54234000D03*
X176035500Y-54234000D03*
X175235500Y-54234000D03*
X174435500Y-54234000D03*
X173635500Y-54234000D03*
X172835500Y-54234000D03*
X172035500Y-54234000D03*
%TD*%
D30*
%TO.C,Y1*%
X166982000Y-55144000D03*
X164782000Y-55144000D03*
X164782000Y-56744000D03*
X166982000Y-56744000D03*
%TD*%
D31*
%TO.C,J2*%
X178836000Y-34341500D03*
X178836000Y-41341500D03*
D32*
X182086000Y-38941500D03*
X182086000Y-35941500D03*
X175586000Y-44041500D03*
X182086000Y-42941500D03*
%TD*%
D33*
%TO.C,D_H1*%
X165059500Y-66104000D03*
X168609500Y-66104000D03*
%TD*%
D34*
%TO.C,RSTSW1*%
X179979000Y-46190500D03*
X179979000Y-47890500D03*
D35*
X177729000Y-46990500D03*
X182229000Y-46990500D03*
%TD*%
D36*
%TO.C,R5*%
X171142000Y-41118500D03*
X170122000Y-41118500D03*
%TD*%
%TO.C,R6*%
X167132000Y-41118500D03*
X166112000Y-41118500D03*
%TD*%
D37*
%TO.C,D1*%
X65425000Y-45400000D03*
X65425000Y-41850000D03*
%TD*%
%TO.C,D2*%
X65425000Y-64450000D03*
X65425000Y-60900000D03*
%TD*%
%TO.C,D3*%
X65425000Y-83500000D03*
X65425000Y-79950000D03*
%TD*%
%TO.C,D7*%
X103525000Y-45400000D03*
X103525000Y-41850000D03*
%TD*%
%TO.C,D8*%
X103525000Y-64450000D03*
X103525000Y-60900000D03*
%TD*%
%TO.C,D10*%
X122575000Y-45400000D03*
X122575000Y-41850000D03*
%TD*%
%TO.C,D11*%
X122575000Y-64450000D03*
X122575000Y-60900000D03*
%TD*%
%TO.C,D12*%
X122575000Y-83500000D03*
X122575000Y-79950000D03*
%TD*%
%TO.C,D14*%
X141625000Y-64450000D03*
X141625000Y-60900000D03*
%TD*%
%TO.C,D15*%
X141625000Y-83500000D03*
X141625000Y-79950000D03*
%TD*%
%TO.C,D17*%
X160675000Y-64450000D03*
X160675000Y-60900000D03*
%TD*%
%TO.C,D18*%
X160675000Y-83500000D03*
X160675000Y-79950000D03*
%TD*%
%TO.C,D4*%
X84474999Y-45400000D03*
X84474999Y-41850000D03*
%TD*%
%TO.C,D5*%
X84474999Y-64450000D03*
X84474999Y-60900000D03*
%TD*%
%TO.C,D6*%
X84474999Y-83500000D03*
X84474999Y-79950000D03*
%TD*%
%TO.C,D9*%
X103525000Y-83500000D03*
X103525000Y-79950000D03*
%TD*%
%TO.C,D13*%
X141625000Y-45400000D03*
X141625000Y-41850000D03*
%TD*%
%TO.C,D16*%
X160675000Y-45400000D03*
X160675000Y-41850000D03*
%TD*%
%TO.C,D19*%
X179725000Y-83500000D03*
X179725000Y-79950000D03*
%TD*%
M02*
