G04 #@! TF.GenerationSoftware,KiCad,Pcbnew,(5.1.7)-1*
G04 #@! TF.CreationDate,2020-12-07T09:59:57+09:00*
G04 #@! TF.ProjectId,pisces,70697363-6573-42e6-9b69-6361645f7063,rev?*
G04 #@! TF.SameCoordinates,Original*
G04 #@! TF.FileFunction,Paste,Bot*
G04 #@! TF.FilePolarity,Positive*
%FSLAX46Y46*%
G04 Gerber Fmt 4.6, Leading zero omitted, Abs format (unit mm)*
G04 Created by KiCad (PCBNEW (5.1.7)-1) date 2020-12-07 09:59:57*
%MOMM*%
%LPD*%
G01*
G04 APERTURE LIST*
%ADD10R,2.500000X1.200000*%
%ADD11R,1.500000X1.000000*%
%ADD12R,1.100000X1.600000*%
%ADD13R,1.300000X0.950000*%
%ADD14R,2.000000X2.000000*%
%ADD15R,1.900000X2.000000*%
G04 APERTURE END LIST*
D10*
X183948000Y-44392000D03*
X183948000Y-41392000D03*
X190448000Y-49492000D03*
X183948000Y-48392000D03*
D11*
X165698000Y-74752000D03*
X170598000Y-74752000D03*
X165698000Y-71552000D03*
X170598000Y-71552000D03*
D12*
X173645000Y-73116000D03*
X178145000Y-73116000D03*
D13*
X58036000Y-41783000D03*
X54486000Y-41783000D03*
X55536000Y-60833000D03*
X51986000Y-60833000D03*
X51986000Y-79883000D03*
X55536000Y-79883000D03*
X73536000Y-41783000D03*
X77086000Y-41783000D03*
X77086000Y-60833000D03*
X73536000Y-60833000D03*
X73536000Y-79883000D03*
X77086000Y-79883000D03*
X96135999Y-41783000D03*
X92585999Y-41783000D03*
X93635999Y-60833000D03*
X90085999Y-60833000D03*
X90085999Y-79883000D03*
X93635999Y-79883000D03*
X111636000Y-41783000D03*
X115186000Y-41783000D03*
X115186000Y-60833000D03*
X111636000Y-60833000D03*
X115186000Y-79883000D03*
X111636000Y-79883000D03*
X130686000Y-41783000D03*
X134236000Y-41783000D03*
X131736000Y-60833000D03*
X128186000Y-60833000D03*
X128186000Y-79883000D03*
X131736000Y-79883000D03*
X149736000Y-41783000D03*
X153286000Y-41783000D03*
X153286000Y-60833000D03*
X149736000Y-60833000D03*
X149736000Y-79883000D03*
X153286000Y-79883000D03*
X168786000Y-79883000D03*
X172336000Y-79883000D03*
D14*
X55600000Y-44920000D03*
X43100000Y-47460000D03*
D15*
X52800000Y-55900000D03*
D14*
X41900000Y-53700000D03*
X41900000Y-72750000D03*
D15*
X52800000Y-74950000D03*
D14*
X43100000Y-66510000D03*
X55600000Y-63970000D03*
X55600000Y-83020000D03*
X43100000Y-85560000D03*
D15*
X52800000Y-94000000D03*
D14*
X41900000Y-91800000D03*
X60950000Y-53700000D03*
D15*
X71850000Y-55900000D03*
D14*
X62150000Y-47460000D03*
X74650000Y-44920000D03*
X74650000Y-63970000D03*
X62150000Y-66510000D03*
D15*
X71850000Y-74950000D03*
D14*
X60950000Y-72750000D03*
X60950000Y-91800000D03*
D15*
X71850000Y-94000000D03*
D14*
X62150000Y-85560000D03*
X74650000Y-83020000D03*
X93700000Y-44920000D03*
X81200000Y-47460000D03*
D15*
X90900000Y-55900000D03*
D14*
X80000000Y-53700000D03*
X80000000Y-72750000D03*
D15*
X90900000Y-74950000D03*
D14*
X81200000Y-66510000D03*
X93700000Y-63970000D03*
X93700000Y-83020000D03*
X81200000Y-85560000D03*
D15*
X90900000Y-94000000D03*
D14*
X80000000Y-91800000D03*
X99050000Y-53700000D03*
D15*
X109950000Y-55900000D03*
D14*
X100250000Y-47460000D03*
X112750000Y-44920000D03*
X99050000Y-72750000D03*
D15*
X109950000Y-74950000D03*
D14*
X100250000Y-66510000D03*
X112750000Y-63970000D03*
X112750000Y-83020000D03*
X100250000Y-85560000D03*
D15*
X109950000Y-94000000D03*
D14*
X99050000Y-91800000D03*
X118100000Y-53700000D03*
D15*
X129000000Y-55900000D03*
D14*
X119300000Y-47460000D03*
X131800000Y-44920000D03*
X118100000Y-72750000D03*
D15*
X129000000Y-74950000D03*
D14*
X119300000Y-66510000D03*
X131800000Y-63970000D03*
X118100000Y-91800000D03*
D15*
X129000000Y-94000000D03*
D14*
X119300000Y-85560000D03*
X131800000Y-83020000D03*
X150850000Y-44920000D03*
X138350000Y-47460000D03*
D15*
X148050000Y-55900000D03*
D14*
X137150000Y-53700000D03*
X150850000Y-63970000D03*
X138350000Y-66510000D03*
D15*
X148050000Y-74950000D03*
D14*
X137150000Y-72750000D03*
X150850000Y-83020000D03*
X138350000Y-85560000D03*
D15*
X148050000Y-94000000D03*
D14*
X137150000Y-91800000D03*
X169900000Y-83020000D03*
X157400000Y-85560000D03*
D15*
X167100000Y-94000000D03*
D14*
X156200000Y-91800000D03*
M02*
