M48
; DRILL file {KiCad (5.1.7)-1} date 12/07/20 10:01:48
; FORMAT={-:-/ absolute / inch / decimal}
; #@! TF.CreationDate,2020-12-07T10:01:48+09:00
; #@! TF.GenerationSoftware,Kicad,Pcbnew,(5.1.7)-1
; #@! TF.FileFunction,NonPlated,1,2,NPTH
FMAT,2
INCH
T1C0.0295
T2C0.0591
T3C0.0669
T4C0.0748
T5C0.1181
T6C0.1575
T7C0.1890
%
G90
G05
T1
X6.925Y-2.8471
X6.925Y-2.914
T2
X7.37Y-1.567
X7.37Y-1.8426
T3
X4.7685Y-3.4685
X5.1685Y-3.4685
X4.7685Y-1.9685
X5.1685Y-1.9685
X6.2685Y-3.4685
X6.6685Y-3.4685
X4.0185Y-3.4685
X4.4185Y-3.4685
X3.2685Y-3.4685
X3.6685Y-3.4685
X4.0185Y-1.9685
X4.4185Y-1.9685
X5.5185Y-3.4685
X5.9185Y-3.4685
X4.0185Y-2.7185
X4.4185Y-2.7185
X2.5185Y-3.4685
X2.9185Y-3.4685
X3.2685Y-1.9685
X3.6685Y-1.9685
X1.7685Y-1.9685
X2.1685Y-1.9685
X2.5185Y-1.9685
X2.9185Y-1.9685
X5.5185Y-2.7185
X5.9185Y-2.7185
X3.2685Y-2.7185
X3.6685Y-2.7185
X1.7685Y-2.7185
X2.1685Y-2.7185
X4.7685Y-2.7185
X5.1685Y-2.7185
X2.5185Y-2.7185
X2.9185Y-2.7185
X1.7685Y-3.4685
X2.1685Y-3.4685
X5.5185Y-1.9685
X5.9185Y-1.9685
T4
X2.502Y-2.7185
X2.935Y-2.7185
X1.752Y-3.4685
X2.185Y-3.4685
X5.502Y-1.9685
X5.935Y-1.9685
X4.752Y-3.4685
X5.185Y-3.4685
X4.752Y-1.9685
X5.185Y-1.9685
X6.252Y-3.4685
X6.685Y-3.4685
X4.002Y-3.4685
X4.435Y-3.4685
X3.252Y-3.4685
X3.685Y-3.4685
X4.002Y-1.9685
X4.435Y-1.9685
X5.502Y-3.4685
X5.935Y-3.4685
X4.002Y-2.7185
X4.435Y-2.7185
X2.502Y-3.4685
X2.935Y-3.4685
X3.252Y-1.9685
X3.685Y-1.9685
X1.752Y-1.9685
X2.185Y-1.9685
X2.502Y-1.9685
X2.935Y-1.9685
X5.502Y-2.7185
X5.935Y-2.7185
X3.252Y-2.7185
X3.685Y-2.7185
X1.752Y-2.7185
X2.185Y-2.7185
X4.752Y-2.7185
X5.185Y-2.7185
T5
X2.5217Y-2.8642
X2.5685Y-2.6185
X2.6185Y-2.5185
X2.7185Y-2.9508
X2.8185Y-2.5185
X2.8685Y-2.6185
X2.9154Y-2.8642
X1.7717Y-3.6142
X1.8185Y-3.3685
X1.8685Y-3.2685
X1.9685Y-3.7008
X2.0685Y-3.2685
X2.1185Y-3.3685
X2.1654Y-3.6142
X5.5217Y-2.1142
X5.5685Y-1.8685
X5.6185Y-1.7685
X5.7185Y-2.2008
X5.8185Y-1.7685
X5.8685Y-1.8685
X5.9154Y-2.1142
X4.7717Y-3.6142
X4.8185Y-3.3685
X4.8685Y-3.2685
X4.9685Y-3.7008
X5.0685Y-3.2685
X5.1185Y-3.3685
X5.1654Y-3.6142
X4.7717Y-2.1142
X4.8185Y-1.8685
X4.8685Y-1.7685
X4.9685Y-2.2008
X5.0685Y-1.7685
X5.1185Y-1.8685
X5.1654Y-2.1142
X6.2717Y-3.6142
X6.3185Y-3.3685
X6.3685Y-3.2685
X6.4685Y-3.7008
X6.5685Y-3.2685
X6.6185Y-3.3685
X6.6654Y-3.6142
X4.0217Y-3.6142
X4.0685Y-3.3685
X4.1185Y-3.2685
X4.2185Y-3.7008
X4.3185Y-3.2685
X4.3685Y-3.3685
X4.4154Y-3.6142
X3.2717Y-3.6142
X3.3185Y-3.3685
X3.3685Y-3.2685
X3.4685Y-3.7008
X3.5685Y-3.2685
X3.6185Y-3.3685
X3.6654Y-3.6142
X4.0217Y-2.1142
X4.0685Y-1.8685
X4.1185Y-1.7685
X4.2185Y-2.2008
X4.3185Y-1.7685
X4.3685Y-1.8685
X4.4154Y-2.1142
X5.5217Y-3.6142
X5.5685Y-3.3685
X5.6185Y-3.2685
X5.7185Y-3.7008
X5.8185Y-3.2685
X5.8685Y-3.3685
X5.9154Y-3.6142
X4.0217Y-2.8642
X4.0685Y-2.6185
X4.1185Y-2.5185
X4.2185Y-2.9508
X4.3185Y-2.5185
X4.3685Y-2.6185
X4.4154Y-2.8642
X2.5217Y-3.6142
X2.5685Y-3.3685
X2.6185Y-3.2685
X2.7185Y-3.7008
X2.8185Y-3.2685
X2.8685Y-3.3685
X2.9154Y-3.6142
X3.2717Y-2.1142
X3.3185Y-1.8685
X3.3685Y-1.7685
X3.4685Y-2.2008
X3.5685Y-1.7685
X3.6185Y-1.8685
X3.6654Y-2.1142
X1.7717Y-2.1142
X1.8185Y-1.8685
X1.8685Y-1.7685
X1.9685Y-2.2008
X2.0685Y-1.7685
X2.1185Y-1.8685
X2.1654Y-2.1142
X2.5217Y-2.1142
X2.5685Y-1.8685
X2.6185Y-1.7685
X2.7185Y-2.2008
X2.8185Y-1.7685
X2.8685Y-1.8685
X2.9154Y-2.1142
X5.5217Y-2.8642
X5.5685Y-2.6185
X5.6185Y-2.5185
X5.7185Y-2.9508
X5.8185Y-2.5185
X5.8685Y-2.6185
X5.9154Y-2.8642
X3.2717Y-2.8642
X3.3185Y-2.6185
X3.3685Y-2.5185
X3.4685Y-2.9508
X3.5685Y-2.5185
X3.6185Y-2.6185
X3.6654Y-2.8642
X1.7717Y-2.8642
X1.8185Y-2.6185
X1.8685Y-2.5185
X1.9685Y-2.9508
X2.0685Y-2.5185
X2.1185Y-2.6185
X2.1654Y-2.8642
X4.7717Y-2.8642
X4.8185Y-2.6185
X4.8685Y-2.5185
X4.9685Y-2.9508
X5.0685Y-2.5185
X5.1185Y-2.6185
X5.1654Y-2.8642
T6
X3.4685Y-2.7185
X1.9685Y-2.7185
X4.9685Y-2.7185
X2.7185Y-2.7185
X1.9685Y-3.4685
X5.7185Y-1.9685
X4.9685Y-3.4685
X4.9685Y-1.9685
X6.4685Y-3.4685
X4.2185Y-3.4685
X3.4685Y-3.4685
X4.2185Y-1.9685
X5.7185Y-3.4685
X4.2185Y-2.7185
X2.7185Y-3.4685
X3.4685Y-1.9685
X1.9685Y-1.9685
X2.7185Y-1.9685
X5.7185Y-2.7185
T7
X5.3435Y-2.3435
X3.8435Y-2.3435
X2.3435Y-2.3435
X7.445Y-2.16
X6.285Y-2.86
X7.445Y-2.86
X3.8435Y-3.0935
X5.3435Y-3.0935
X6.285Y-1.715
X2.3435Y-3.0935
T0
M30
