M48
; DRILL file {KiCad (5.1.7)-1} date 12/07/20 10:01:48
; FORMAT={-:-/ absolute / inch / decimal}
; #@! TF.CreationDate,2020-12-07T10:01:48+09:00
; #@! TF.GenerationSoftware,Kicad,Pcbnew,(5.1.7)-1
; #@! TF.FileFunction,Plated,1,2,PTH
FMAT,2
INCH
T1C0.0157
T2C0.0430
%
G90
G05
T1
X1.65Y-1.8
X1.65Y-2.55
X1.65Y-3.3
X2.085Y-2.43
X2.1Y-3.19
X2.145Y-1.695
X2.16Y-3.02
X2.16Y-3.78
X2.165Y-2.265
X2.185Y-2.445
X2.185Y-3.195
X2.285Y-1.695
X2.4Y-1.8
X2.4Y-3.3
X2.405Y-2.55
X2.895Y-1.695
X2.895Y-2.445
X2.895Y-3.03
X2.895Y-3.195
X2.915Y-3.8
X2.92Y-2.27
X3.035Y-1.695
X3.035Y-2.445
X3.035Y-3.195
X3.15Y-1.8
X3.15Y-2.55
X3.15Y-3.3
X3.595Y-2.435
X3.6011Y-3.1925
X3.64Y-3.04
X3.64Y-3.785
X3.645Y-1.695
X3.675Y-2.285
X3.685Y-2.445
X3.685Y-3.195
X3.785Y-1.695
X3.9Y-1.8
X3.9Y-2.55
X3.9Y-3.3
X4.38Y-3.8
X4.395Y-1.695
X4.395Y-2.445
X4.395Y-3.195
X4.4Y-3.035
X4.42Y-2.285
X4.535Y-1.695
X4.535Y-2.445
X4.535Y-3.195
X4.65Y-1.8
X4.65Y-2.55
X4.65Y-3.3
X5.1Y-2.44
X5.1Y-3.19
X5.13Y-3.04
X5.145Y-1.695
X5.15Y-2.285
X5.155Y-3.79
X5.185Y-2.445
X5.185Y-3.195
X5.285Y-1.695
X5.4Y-1.8
X5.4Y-2.55
X5.4Y-3.3
X5.895Y-1.695
X5.895Y-2.445
X5.895Y-3.195
X5.905Y-2.285
X5.91Y-3.04
X5.92Y-3.775
X6.035Y-1.695
X6.035Y-2.445
X6.035Y-3.195
X6.15Y-3.3
X6.5Y-2.89
X6.59Y-2.94
X6.645Y-3.195
X6.65Y-3.785
X6.665Y-3.005
X6.785Y-3.195
X6.835Y-2.825
X6.875Y-3.535
X7.015Y-2.825
X7.29Y-1.865
X7.33Y-1.63
X7.38Y-1.95
T2
X6.485Y-1.565
X6.485Y-1.665
X6.485Y-1.765
X6.485Y-1.865
X6.485Y-1.965
X6.485Y-2.065
X6.485Y-2.165
X6.485Y-2.265
X6.485Y-2.365
X6.485Y-2.465
X6.485Y-2.565
X6.485Y-2.665
X7.085Y-1.565
X7.085Y-1.665
X7.085Y-1.765
X7.085Y-1.865
X7.085Y-1.965
X7.085Y-2.065
X7.085Y-2.165
X7.085Y-2.265
X7.085Y-2.365
X7.085Y-2.465
X7.085Y-2.565
X7.085Y-2.665
T0
M30
