G04 #@! TF.GenerationSoftware,KiCad,Pcbnew,(5.1.7)-1*
G04 #@! TF.CreationDate,2020-12-07T09:59:57+09:00*
G04 #@! TF.ProjectId,pisces,70697363-6573-42e6-9b69-6361645f7063,rev?*
G04 #@! TF.SameCoordinates,Original*
G04 #@! TF.FileFunction,Legend,Bot*
G04 #@! TF.FilePolarity,Positive*
%FSLAX46Y46*%
G04 Gerber Fmt 4.6, Leading zero omitted, Abs format (unit mm)*
G04 Created by KiCad (PCBNEW (5.1.7)-1) date 2020-12-07 09:59:57*
%MOMM*%
%LPD*%
G01*
G04 APERTURE LIST*
%ADD10C,0.120000*%
%ADD11C,0.150000*%
%ADD12C,0.381000*%
%ADD13C,0.100000*%
G04 APERTURE END LIST*
D10*
X164488000Y-70392000D02*
X171788000Y-70392000D01*
X164488000Y-75892000D02*
X171788000Y-75892000D01*
X171788000Y-75892000D02*
X171788000Y-74742000D01*
X177595000Y-74566000D02*
X174195000Y-74566000D01*
X174195000Y-71666000D02*
X174195000Y-74566000D01*
X174195000Y-71666000D02*
X177595000Y-71666000D01*
X177595000Y-74566000D02*
X177595000Y-71666000D01*
D11*
X53561000Y-41033000D02*
X53561000Y-42533000D01*
X58961000Y-41033000D02*
X53561000Y-41033000D01*
X58961000Y-42533000D02*
X58961000Y-41033000D01*
X53561000Y-42533000D02*
X58961000Y-42533000D01*
X55761000Y-41283000D02*
X56661000Y-41783000D01*
X55761000Y-42283000D02*
X55761000Y-41283000D01*
X56661000Y-41783000D02*
X55761000Y-42283000D01*
X56761000Y-42283000D02*
X56761000Y-41283000D01*
X51061000Y-60083000D02*
X51061000Y-61583000D01*
X56461000Y-60083000D02*
X51061000Y-60083000D01*
X56461000Y-61583000D02*
X56461000Y-60083000D01*
X51061000Y-61583000D02*
X56461000Y-61583000D01*
X53261000Y-60333000D02*
X54161000Y-60833000D01*
X53261000Y-61333000D02*
X53261000Y-60333000D01*
X54161000Y-60833000D02*
X53261000Y-61333000D01*
X54261000Y-61333000D02*
X54261000Y-60333000D01*
X54261000Y-80383000D02*
X54261000Y-79383000D01*
X54161000Y-79883000D02*
X53261000Y-80383000D01*
X53261000Y-80383000D02*
X53261000Y-79383000D01*
X53261000Y-79383000D02*
X54161000Y-79883000D01*
X51061000Y-80633000D02*
X56461000Y-80633000D01*
X56461000Y-80633000D02*
X56461000Y-79133000D01*
X56461000Y-79133000D02*
X51061000Y-79133000D01*
X51061000Y-79133000D02*
X51061000Y-80633000D01*
X75811000Y-42283000D02*
X75811000Y-41283000D01*
X75711000Y-41783000D02*
X74811000Y-42283000D01*
X74811000Y-42283000D02*
X74811000Y-41283000D01*
X74811000Y-41283000D02*
X75711000Y-41783000D01*
X72611000Y-42533000D02*
X78011000Y-42533000D01*
X78011000Y-42533000D02*
X78011000Y-41033000D01*
X78011000Y-41033000D02*
X72611000Y-41033000D01*
X72611000Y-41033000D02*
X72611000Y-42533000D01*
X72611000Y-60083000D02*
X72611000Y-61583000D01*
X78011000Y-60083000D02*
X72611000Y-60083000D01*
X78011000Y-61583000D02*
X78011000Y-60083000D01*
X72611000Y-61583000D02*
X78011000Y-61583000D01*
X74811000Y-60333000D02*
X75711000Y-60833000D01*
X74811000Y-61333000D02*
X74811000Y-60333000D01*
X75711000Y-60833000D02*
X74811000Y-61333000D01*
X75811000Y-61333000D02*
X75811000Y-60333000D01*
X75811000Y-80383000D02*
X75811000Y-79383000D01*
X75711000Y-79883000D02*
X74811000Y-80383000D01*
X74811000Y-80383000D02*
X74811000Y-79383000D01*
X74811000Y-79383000D02*
X75711000Y-79883000D01*
X72611000Y-80633000D02*
X78011000Y-80633000D01*
X78011000Y-80633000D02*
X78011000Y-79133000D01*
X78011000Y-79133000D02*
X72611000Y-79133000D01*
X72611000Y-79133000D02*
X72611000Y-80633000D01*
X91660999Y-41033000D02*
X91660999Y-42533000D01*
X97060999Y-41033000D02*
X91660999Y-41033000D01*
X97060999Y-42533000D02*
X97060999Y-41033000D01*
X91660999Y-42533000D02*
X97060999Y-42533000D01*
X93860999Y-41283000D02*
X94760999Y-41783000D01*
X93860999Y-42283000D02*
X93860999Y-41283000D01*
X94760999Y-41783000D02*
X93860999Y-42283000D01*
X94860999Y-42283000D02*
X94860999Y-41283000D01*
X89160999Y-60083000D02*
X89160999Y-61583000D01*
X94560999Y-60083000D02*
X89160999Y-60083000D01*
X94560999Y-61583000D02*
X94560999Y-60083000D01*
X89160999Y-61583000D02*
X94560999Y-61583000D01*
X91360999Y-60333000D02*
X92260999Y-60833000D01*
X91360999Y-61333000D02*
X91360999Y-60333000D01*
X92260999Y-60833000D02*
X91360999Y-61333000D01*
X92360999Y-61333000D02*
X92360999Y-60333000D01*
X92360999Y-80383000D02*
X92360999Y-79383000D01*
X92260999Y-79883000D02*
X91360999Y-80383000D01*
X91360999Y-80383000D02*
X91360999Y-79383000D01*
X91360999Y-79383000D02*
X92260999Y-79883000D01*
X89160999Y-80633000D02*
X94560999Y-80633000D01*
X94560999Y-80633000D02*
X94560999Y-79133000D01*
X94560999Y-79133000D02*
X89160999Y-79133000D01*
X89160999Y-79133000D02*
X89160999Y-80633000D01*
X113911000Y-42283000D02*
X113911000Y-41283000D01*
X113811000Y-41783000D02*
X112911000Y-42283000D01*
X112911000Y-42283000D02*
X112911000Y-41283000D01*
X112911000Y-41283000D02*
X113811000Y-41783000D01*
X110711000Y-42533000D02*
X116111000Y-42533000D01*
X116111000Y-42533000D02*
X116111000Y-41033000D01*
X116111000Y-41033000D02*
X110711000Y-41033000D01*
X110711000Y-41033000D02*
X110711000Y-42533000D01*
X110711000Y-60083000D02*
X110711000Y-61583000D01*
X116111000Y-60083000D02*
X110711000Y-60083000D01*
X116111000Y-61583000D02*
X116111000Y-60083000D01*
X110711000Y-61583000D02*
X116111000Y-61583000D01*
X112911000Y-60333000D02*
X113811000Y-60833000D01*
X112911000Y-61333000D02*
X112911000Y-60333000D01*
X113811000Y-60833000D02*
X112911000Y-61333000D01*
X113911000Y-61333000D02*
X113911000Y-60333000D01*
X110711000Y-79133000D02*
X110711000Y-80633000D01*
X116111000Y-79133000D02*
X110711000Y-79133000D01*
X116111000Y-80633000D02*
X116111000Y-79133000D01*
X110711000Y-80633000D02*
X116111000Y-80633000D01*
X112911000Y-79383000D02*
X113811000Y-79883000D01*
X112911000Y-80383000D02*
X112911000Y-79383000D01*
X113811000Y-79883000D02*
X112911000Y-80383000D01*
X113911000Y-80383000D02*
X113911000Y-79383000D01*
X132961000Y-42283000D02*
X132961000Y-41283000D01*
X132861000Y-41783000D02*
X131961000Y-42283000D01*
X131961000Y-42283000D02*
X131961000Y-41283000D01*
X131961000Y-41283000D02*
X132861000Y-41783000D01*
X129761000Y-42533000D02*
X135161000Y-42533000D01*
X135161000Y-42533000D02*
X135161000Y-41033000D01*
X135161000Y-41033000D02*
X129761000Y-41033000D01*
X129761000Y-41033000D02*
X129761000Y-42533000D01*
X127261000Y-60083000D02*
X127261000Y-61583000D01*
X132661000Y-60083000D02*
X127261000Y-60083000D01*
X132661000Y-61583000D02*
X132661000Y-60083000D01*
X127261000Y-61583000D02*
X132661000Y-61583000D01*
X129461000Y-60333000D02*
X130361000Y-60833000D01*
X129461000Y-61333000D02*
X129461000Y-60333000D01*
X130361000Y-60833000D02*
X129461000Y-61333000D01*
X130461000Y-61333000D02*
X130461000Y-60333000D01*
X130461000Y-80383000D02*
X130461000Y-79383000D01*
X130361000Y-79883000D02*
X129461000Y-80383000D01*
X129461000Y-80383000D02*
X129461000Y-79383000D01*
X129461000Y-79383000D02*
X130361000Y-79883000D01*
X127261000Y-80633000D02*
X132661000Y-80633000D01*
X132661000Y-80633000D02*
X132661000Y-79133000D01*
X132661000Y-79133000D02*
X127261000Y-79133000D01*
X127261000Y-79133000D02*
X127261000Y-80633000D01*
X152011000Y-42283000D02*
X152011000Y-41283000D01*
X151911000Y-41783000D02*
X151011000Y-42283000D01*
X151011000Y-42283000D02*
X151011000Y-41283000D01*
X151011000Y-41283000D02*
X151911000Y-41783000D01*
X148811000Y-42533000D02*
X154211000Y-42533000D01*
X154211000Y-42533000D02*
X154211000Y-41033000D01*
X154211000Y-41033000D02*
X148811000Y-41033000D01*
X148811000Y-41033000D02*
X148811000Y-42533000D01*
X148811000Y-60083000D02*
X148811000Y-61583000D01*
X154211000Y-60083000D02*
X148811000Y-60083000D01*
X154211000Y-61583000D02*
X154211000Y-60083000D01*
X148811000Y-61583000D02*
X154211000Y-61583000D01*
X151011000Y-60333000D02*
X151911000Y-60833000D01*
X151011000Y-61333000D02*
X151011000Y-60333000D01*
X151911000Y-60833000D02*
X151011000Y-61333000D01*
X152011000Y-61333000D02*
X152011000Y-60333000D01*
X152011000Y-80383000D02*
X152011000Y-79383000D01*
X151911000Y-79883000D02*
X151011000Y-80383000D01*
X151011000Y-80383000D02*
X151011000Y-79383000D01*
X151011000Y-79383000D02*
X151911000Y-79883000D01*
X148811000Y-80633000D02*
X154211000Y-80633000D01*
X154211000Y-80633000D02*
X154211000Y-79133000D01*
X154211000Y-79133000D02*
X148811000Y-79133000D01*
X148811000Y-79133000D02*
X148811000Y-80633000D01*
X171061000Y-80383000D02*
X171061000Y-79383000D01*
X170961000Y-79883000D02*
X170061000Y-80383000D01*
X170061000Y-80383000D02*
X170061000Y-79383000D01*
X170061000Y-79383000D02*
X170961000Y-79883000D01*
X167861000Y-80633000D02*
X173261000Y-80633000D01*
X173261000Y-80633000D02*
X173261000Y-79133000D01*
X173261000Y-79133000D02*
X167861000Y-79133000D01*
X167861000Y-79133000D02*
X167861000Y-80633000D01*
X43900000Y-49104000D02*
X47510000Y-49104000D01*
X43900000Y-45150000D02*
X43900000Y-49095000D01*
X54800000Y-43196000D02*
X46175000Y-43196000D01*
X54800000Y-47104000D02*
X54800000Y-43196000D01*
X54800000Y-47150000D02*
X49750000Y-47196000D01*
X52275000Y-58225000D02*
X47725000Y-58225000D01*
X52275000Y-53575000D02*
X49725000Y-53575000D01*
X47425000Y-51375000D02*
X42725000Y-51375000D01*
X46500000Y-56025000D02*
X42725000Y-56025000D01*
X52300000Y-53600000D02*
X52300000Y-58200000D01*
X42725000Y-51400000D02*
X42700000Y-56000000D01*
X47720000Y-57500000D02*
X47720000Y-58200000D01*
X43911000Y-45080000D02*
G75*
G02*
X46175000Y-43196000I2074000J-190000D01*
G01*
X47515000Y-49080000D02*
G75*
G02*
X49775000Y-47200000I2070000J-190000D01*
G01*
X47430000Y-51400000D02*
G75*
G03*
X49800000Y-53570000I2270000J100000D01*
G01*
X47720000Y-57450000D02*
G75*
G03*
X46500000Y-56030000I-1320000J100000D01*
G01*
X47720000Y-76550000D02*
X47720000Y-77250000D01*
X42725000Y-70450000D02*
X42700000Y-75050000D01*
X52300000Y-72650000D02*
X52300000Y-77250000D01*
X46500000Y-75075000D02*
X42725000Y-75075000D01*
X47425000Y-70425000D02*
X42725000Y-70425000D01*
X52275000Y-72625000D02*
X49725000Y-72625000D01*
X52275000Y-77275000D02*
X47725000Y-77275000D01*
X54800000Y-66200000D02*
X49750000Y-66246000D01*
X54800000Y-66154000D02*
X54800000Y-62246000D01*
X54800000Y-62246000D02*
X46175000Y-62246000D01*
X43900000Y-64200000D02*
X43900000Y-68145000D01*
X43900000Y-68154000D02*
X47510000Y-68154000D01*
X47720000Y-76500000D02*
G75*
G03*
X46500000Y-75080000I-1320000J100000D01*
G01*
X47430000Y-70450000D02*
G75*
G03*
X49800000Y-72620000I2270000J100000D01*
G01*
X47515000Y-68130000D02*
G75*
G02*
X49775000Y-66250000I2070000J-190000D01*
G01*
X43911000Y-64130000D02*
G75*
G02*
X46175000Y-62246000I2074000J-190000D01*
G01*
X43900000Y-87204000D02*
X47510000Y-87204000D01*
X43900000Y-83250000D02*
X43900000Y-87195000D01*
X54800000Y-81296000D02*
X46175000Y-81296000D01*
X54800000Y-85204000D02*
X54800000Y-81296000D01*
X54800000Y-85250000D02*
X49750000Y-85296000D01*
X52275000Y-96325000D02*
X47725000Y-96325000D01*
X52275000Y-91675000D02*
X49725000Y-91675000D01*
X47425000Y-89475000D02*
X42725000Y-89475000D01*
X46500000Y-94125000D02*
X42725000Y-94125000D01*
X52300000Y-91700000D02*
X52300000Y-96300000D01*
X42725000Y-89500000D02*
X42700000Y-94100000D01*
X47720000Y-95600000D02*
X47720000Y-96300000D01*
X43911000Y-83180000D02*
G75*
G02*
X46175000Y-81296000I2074000J-190000D01*
G01*
X47515000Y-87180000D02*
G75*
G02*
X49775000Y-85300000I2070000J-190000D01*
G01*
X47430000Y-89500000D02*
G75*
G03*
X49800000Y-91670000I2270000J100000D01*
G01*
X47720000Y-95550000D02*
G75*
G03*
X46500000Y-94130000I-1320000J100000D01*
G01*
X66770000Y-57500000D02*
X66770000Y-58200000D01*
X61775000Y-51400000D02*
X61750000Y-56000000D01*
X71350000Y-53600000D02*
X71350000Y-58200000D01*
X65550000Y-56025000D02*
X61775000Y-56025000D01*
X66475000Y-51375000D02*
X61775000Y-51375000D01*
X71325000Y-53575000D02*
X68775000Y-53575000D01*
X71325000Y-58225000D02*
X66775000Y-58225000D01*
X73850000Y-47150000D02*
X68800000Y-47196000D01*
X73850000Y-47104000D02*
X73850000Y-43196000D01*
X73850000Y-43196000D02*
X65225000Y-43196000D01*
X62950000Y-45150000D02*
X62950000Y-49095000D01*
X62950000Y-49104000D02*
X66560000Y-49104000D01*
X66770000Y-57450000D02*
G75*
G03*
X65550000Y-56030000I-1320000J100000D01*
G01*
X66480000Y-51400000D02*
G75*
G03*
X68850000Y-53570000I2270000J100000D01*
G01*
X66565000Y-49080000D02*
G75*
G02*
X68825000Y-47200000I2070000J-190000D01*
G01*
X62961000Y-45080000D02*
G75*
G02*
X65225000Y-43196000I2074000J-190000D01*
G01*
X62950000Y-68154000D02*
X66560000Y-68154000D01*
X62950000Y-64200000D02*
X62950000Y-68145000D01*
X73850000Y-62246000D02*
X65225000Y-62246000D01*
X73850000Y-66154000D02*
X73850000Y-62246000D01*
X73850000Y-66200000D02*
X68800000Y-66246000D01*
X71325000Y-77275000D02*
X66775000Y-77275000D01*
X71325000Y-72625000D02*
X68775000Y-72625000D01*
X66475000Y-70425000D02*
X61775000Y-70425000D01*
X65550000Y-75075000D02*
X61775000Y-75075000D01*
X71350000Y-72650000D02*
X71350000Y-77250000D01*
X61775000Y-70450000D02*
X61750000Y-75050000D01*
X66770000Y-76550000D02*
X66770000Y-77250000D01*
X62961000Y-64130000D02*
G75*
G02*
X65225000Y-62246000I2074000J-190000D01*
G01*
X66565000Y-68130000D02*
G75*
G02*
X68825000Y-66250000I2070000J-190000D01*
G01*
X66480000Y-70450000D02*
G75*
G03*
X68850000Y-72620000I2270000J100000D01*
G01*
X66770000Y-76500000D02*
G75*
G03*
X65550000Y-75080000I-1320000J100000D01*
G01*
X66770000Y-95600000D02*
X66770000Y-96300000D01*
X61775000Y-89500000D02*
X61750000Y-94100000D01*
X71350000Y-91700000D02*
X71350000Y-96300000D01*
X65550000Y-94125000D02*
X61775000Y-94125000D01*
X66475000Y-89475000D02*
X61775000Y-89475000D01*
X71325000Y-91675000D02*
X68775000Y-91675000D01*
X71325000Y-96325000D02*
X66775000Y-96325000D01*
X73850000Y-85250000D02*
X68800000Y-85296000D01*
X73850000Y-85204000D02*
X73850000Y-81296000D01*
X73850000Y-81296000D02*
X65225000Y-81296000D01*
X62950000Y-83250000D02*
X62950000Y-87195000D01*
X62950000Y-87204000D02*
X66560000Y-87204000D01*
X66770000Y-95550000D02*
G75*
G03*
X65550000Y-94130000I-1320000J100000D01*
G01*
X66480000Y-89500000D02*
G75*
G03*
X68850000Y-91670000I2270000J100000D01*
G01*
X66565000Y-87180000D02*
G75*
G02*
X68825000Y-85300000I2070000J-190000D01*
G01*
X62961000Y-83180000D02*
G75*
G02*
X65225000Y-81296000I2074000J-190000D01*
G01*
X82000000Y-49104000D02*
X85610000Y-49104000D01*
X82000000Y-45150000D02*
X82000000Y-49095000D01*
X92900000Y-43196000D02*
X84275000Y-43196000D01*
X92900000Y-47104000D02*
X92900000Y-43196000D01*
X92900000Y-47150000D02*
X87850000Y-47196000D01*
X90375000Y-58225000D02*
X85825000Y-58225000D01*
X90375000Y-53575000D02*
X87825000Y-53575000D01*
X85525000Y-51375000D02*
X80825000Y-51375000D01*
X84600000Y-56025000D02*
X80825000Y-56025000D01*
X90400000Y-53600000D02*
X90400000Y-58200000D01*
X80825000Y-51400000D02*
X80800000Y-56000000D01*
X85820000Y-57500000D02*
X85820000Y-58200000D01*
X82011000Y-45080000D02*
G75*
G02*
X84275000Y-43196000I2074000J-190000D01*
G01*
X85615000Y-49080000D02*
G75*
G02*
X87875000Y-47200000I2070000J-190000D01*
G01*
X85530000Y-51400000D02*
G75*
G03*
X87900000Y-53570000I2270000J100000D01*
G01*
X85820000Y-57450000D02*
G75*
G03*
X84600000Y-56030000I-1320000J100000D01*
G01*
X85820000Y-76550000D02*
X85820000Y-77250000D01*
X80825000Y-70450000D02*
X80800000Y-75050000D01*
X90400000Y-72650000D02*
X90400000Y-77250000D01*
X84600000Y-75075000D02*
X80825000Y-75075000D01*
X85525000Y-70425000D02*
X80825000Y-70425000D01*
X90375000Y-72625000D02*
X87825000Y-72625000D01*
X90375000Y-77275000D02*
X85825000Y-77275000D01*
X92900000Y-66200000D02*
X87850000Y-66246000D01*
X92900000Y-66154000D02*
X92900000Y-62246000D01*
X92900000Y-62246000D02*
X84275000Y-62246000D01*
X82000000Y-64200000D02*
X82000000Y-68145000D01*
X82000000Y-68154000D02*
X85610000Y-68154000D01*
X85820000Y-76500000D02*
G75*
G03*
X84600000Y-75080000I-1320000J100000D01*
G01*
X85530000Y-70450000D02*
G75*
G03*
X87900000Y-72620000I2270000J100000D01*
G01*
X85615000Y-68130000D02*
G75*
G02*
X87875000Y-66250000I2070000J-190000D01*
G01*
X82011000Y-64130000D02*
G75*
G02*
X84275000Y-62246000I2074000J-190000D01*
G01*
X82000000Y-87204000D02*
X85610000Y-87204000D01*
X82000000Y-83250000D02*
X82000000Y-87195000D01*
X92900000Y-81296000D02*
X84275000Y-81296000D01*
X92900000Y-85204000D02*
X92900000Y-81296000D01*
X92900000Y-85250000D02*
X87850000Y-85296000D01*
X90375000Y-96325000D02*
X85825000Y-96325000D01*
X90375000Y-91675000D02*
X87825000Y-91675000D01*
X85525000Y-89475000D02*
X80825000Y-89475000D01*
X84600000Y-94125000D02*
X80825000Y-94125000D01*
X90400000Y-91700000D02*
X90400000Y-96300000D01*
X80825000Y-89500000D02*
X80800000Y-94100000D01*
X85820000Y-95600000D02*
X85820000Y-96300000D01*
X82011000Y-83180000D02*
G75*
G02*
X84275000Y-81296000I2074000J-190000D01*
G01*
X85615000Y-87180000D02*
G75*
G02*
X87875000Y-85300000I2070000J-190000D01*
G01*
X85530000Y-89500000D02*
G75*
G03*
X87900000Y-91670000I2270000J100000D01*
G01*
X85820000Y-95550000D02*
G75*
G03*
X84600000Y-94130000I-1320000J100000D01*
G01*
X104870000Y-57500000D02*
X104870000Y-58200000D01*
X99875000Y-51400000D02*
X99850000Y-56000000D01*
X109450000Y-53600000D02*
X109450000Y-58200000D01*
X103650000Y-56025000D02*
X99875000Y-56025000D01*
X104575000Y-51375000D02*
X99875000Y-51375000D01*
X109425000Y-53575000D02*
X106875000Y-53575000D01*
X109425000Y-58225000D02*
X104875000Y-58225000D01*
X111950000Y-47150000D02*
X106900000Y-47196000D01*
X111950000Y-47104000D02*
X111950000Y-43196000D01*
X111950000Y-43196000D02*
X103325000Y-43196000D01*
X101050000Y-45150000D02*
X101050000Y-49095000D01*
X101050000Y-49104000D02*
X104660000Y-49104000D01*
X104870000Y-57450000D02*
G75*
G03*
X103650000Y-56030000I-1320000J100000D01*
G01*
X104580000Y-51400000D02*
G75*
G03*
X106950000Y-53570000I2270000J100000D01*
G01*
X104665000Y-49080000D02*
G75*
G02*
X106925000Y-47200000I2070000J-190000D01*
G01*
X101061000Y-45080000D02*
G75*
G02*
X103325000Y-43196000I2074000J-190000D01*
G01*
X104870000Y-76550000D02*
X104870000Y-77250000D01*
X99875000Y-70450000D02*
X99850000Y-75050000D01*
X109450000Y-72650000D02*
X109450000Y-77250000D01*
X103650000Y-75075000D02*
X99875000Y-75075000D01*
X104575000Y-70425000D02*
X99875000Y-70425000D01*
X109425000Y-72625000D02*
X106875000Y-72625000D01*
X109425000Y-77275000D02*
X104875000Y-77275000D01*
X111950000Y-66200000D02*
X106900000Y-66246000D01*
X111950000Y-66154000D02*
X111950000Y-62246000D01*
X111950000Y-62246000D02*
X103325000Y-62246000D01*
X101050000Y-64200000D02*
X101050000Y-68145000D01*
X101050000Y-68154000D02*
X104660000Y-68154000D01*
X104870000Y-76500000D02*
G75*
G03*
X103650000Y-75080000I-1320000J100000D01*
G01*
X104580000Y-70450000D02*
G75*
G03*
X106950000Y-72620000I2270000J100000D01*
G01*
X104665000Y-68130000D02*
G75*
G02*
X106925000Y-66250000I2070000J-190000D01*
G01*
X101061000Y-64130000D02*
G75*
G02*
X103325000Y-62246000I2074000J-190000D01*
G01*
X101050000Y-87204000D02*
X104660000Y-87204000D01*
X101050000Y-83250000D02*
X101050000Y-87195000D01*
X111950000Y-81296000D02*
X103325000Y-81296000D01*
X111950000Y-85204000D02*
X111950000Y-81296000D01*
X111950000Y-85250000D02*
X106900000Y-85296000D01*
X109425000Y-96325000D02*
X104875000Y-96325000D01*
X109425000Y-91675000D02*
X106875000Y-91675000D01*
X104575000Y-89475000D02*
X99875000Y-89475000D01*
X103650000Y-94125000D02*
X99875000Y-94125000D01*
X109450000Y-91700000D02*
X109450000Y-96300000D01*
X99875000Y-89500000D02*
X99850000Y-94100000D01*
X104870000Y-95600000D02*
X104870000Y-96300000D01*
X101061000Y-83180000D02*
G75*
G02*
X103325000Y-81296000I2074000J-190000D01*
G01*
X104665000Y-87180000D02*
G75*
G02*
X106925000Y-85300000I2070000J-190000D01*
G01*
X104580000Y-89500000D02*
G75*
G03*
X106950000Y-91670000I2270000J100000D01*
G01*
X104870000Y-95550000D02*
G75*
G03*
X103650000Y-94130000I-1320000J100000D01*
G01*
X123920000Y-57500000D02*
X123920000Y-58200000D01*
X118925000Y-51400000D02*
X118900000Y-56000000D01*
X128500000Y-53600000D02*
X128500000Y-58200000D01*
X122700000Y-56025000D02*
X118925000Y-56025000D01*
X123625000Y-51375000D02*
X118925000Y-51375000D01*
X128475000Y-53575000D02*
X125925000Y-53575000D01*
X128475000Y-58225000D02*
X123925000Y-58225000D01*
X131000000Y-47150000D02*
X125950000Y-47196000D01*
X131000000Y-47104000D02*
X131000000Y-43196000D01*
X131000000Y-43196000D02*
X122375000Y-43196000D01*
X120100000Y-45150000D02*
X120100000Y-49095000D01*
X120100000Y-49104000D02*
X123710000Y-49104000D01*
X123920000Y-57450000D02*
G75*
G03*
X122700000Y-56030000I-1320000J100000D01*
G01*
X123630000Y-51400000D02*
G75*
G03*
X126000000Y-53570000I2270000J100000D01*
G01*
X123715000Y-49080000D02*
G75*
G02*
X125975000Y-47200000I2070000J-190000D01*
G01*
X120111000Y-45080000D02*
G75*
G02*
X122375000Y-43196000I2074000J-190000D01*
G01*
X123920000Y-76550000D02*
X123920000Y-77250000D01*
X118925000Y-70450000D02*
X118900000Y-75050000D01*
X128500000Y-72650000D02*
X128500000Y-77250000D01*
X122700000Y-75075000D02*
X118925000Y-75075000D01*
X123625000Y-70425000D02*
X118925000Y-70425000D01*
X128475000Y-72625000D02*
X125925000Y-72625000D01*
X128475000Y-77275000D02*
X123925000Y-77275000D01*
X131000000Y-66200000D02*
X125950000Y-66246000D01*
X131000000Y-66154000D02*
X131000000Y-62246000D01*
X131000000Y-62246000D02*
X122375000Y-62246000D01*
X120100000Y-64200000D02*
X120100000Y-68145000D01*
X120100000Y-68154000D02*
X123710000Y-68154000D01*
X123920000Y-76500000D02*
G75*
G03*
X122700000Y-75080000I-1320000J100000D01*
G01*
X123630000Y-70450000D02*
G75*
G03*
X126000000Y-72620000I2270000J100000D01*
G01*
X123715000Y-68130000D02*
G75*
G02*
X125975000Y-66250000I2070000J-190000D01*
G01*
X120111000Y-64130000D02*
G75*
G02*
X122375000Y-62246000I2074000J-190000D01*
G01*
X123920000Y-95600000D02*
X123920000Y-96300000D01*
X118925000Y-89500000D02*
X118900000Y-94100000D01*
X128500000Y-91700000D02*
X128500000Y-96300000D01*
X122700000Y-94125000D02*
X118925000Y-94125000D01*
X123625000Y-89475000D02*
X118925000Y-89475000D01*
X128475000Y-91675000D02*
X125925000Y-91675000D01*
X128475000Y-96325000D02*
X123925000Y-96325000D01*
X131000000Y-85250000D02*
X125950000Y-85296000D01*
X131000000Y-85204000D02*
X131000000Y-81296000D01*
X131000000Y-81296000D02*
X122375000Y-81296000D01*
X120100000Y-83250000D02*
X120100000Y-87195000D01*
X120100000Y-87204000D02*
X123710000Y-87204000D01*
X123920000Y-95550000D02*
G75*
G03*
X122700000Y-94130000I-1320000J100000D01*
G01*
X123630000Y-89500000D02*
G75*
G03*
X126000000Y-91670000I2270000J100000D01*
G01*
X123715000Y-87180000D02*
G75*
G02*
X125975000Y-85300000I2070000J-190000D01*
G01*
X120111000Y-83180000D02*
G75*
G02*
X122375000Y-81296000I2074000J-190000D01*
G01*
X139150000Y-49104000D02*
X142760000Y-49104000D01*
X139150000Y-45150000D02*
X139150000Y-49095000D01*
X150050000Y-43196000D02*
X141425000Y-43196000D01*
X150050000Y-47104000D02*
X150050000Y-43196000D01*
X150050000Y-47150000D02*
X145000000Y-47196000D01*
X147525000Y-58225000D02*
X142975000Y-58225000D01*
X147525000Y-53575000D02*
X144975000Y-53575000D01*
X142675000Y-51375000D02*
X137975000Y-51375000D01*
X141750000Y-56025000D02*
X137975000Y-56025000D01*
X147550000Y-53600000D02*
X147550000Y-58200000D01*
X137975000Y-51400000D02*
X137950000Y-56000000D01*
X142970000Y-57500000D02*
X142970000Y-58200000D01*
X139161000Y-45080000D02*
G75*
G02*
X141425000Y-43196000I2074000J-190000D01*
G01*
X142765000Y-49080000D02*
G75*
G02*
X145025000Y-47200000I2070000J-190000D01*
G01*
X142680000Y-51400000D02*
G75*
G03*
X145050000Y-53570000I2270000J100000D01*
G01*
X142970000Y-57450000D02*
G75*
G03*
X141750000Y-56030000I-1320000J100000D01*
G01*
X139150000Y-68154000D02*
X142760000Y-68154000D01*
X139150000Y-64200000D02*
X139150000Y-68145000D01*
X150050000Y-62246000D02*
X141425000Y-62246000D01*
X150050000Y-66154000D02*
X150050000Y-62246000D01*
X150050000Y-66200000D02*
X145000000Y-66246000D01*
X147525000Y-77275000D02*
X142975000Y-77275000D01*
X147525000Y-72625000D02*
X144975000Y-72625000D01*
X142675000Y-70425000D02*
X137975000Y-70425000D01*
X141750000Y-75075000D02*
X137975000Y-75075000D01*
X147550000Y-72650000D02*
X147550000Y-77250000D01*
X137975000Y-70450000D02*
X137950000Y-75050000D01*
X142970000Y-76550000D02*
X142970000Y-77250000D01*
X139161000Y-64130000D02*
G75*
G02*
X141425000Y-62246000I2074000J-190000D01*
G01*
X142765000Y-68130000D02*
G75*
G02*
X145025000Y-66250000I2070000J-190000D01*
G01*
X142680000Y-70450000D02*
G75*
G03*
X145050000Y-72620000I2270000J100000D01*
G01*
X142970000Y-76500000D02*
G75*
G03*
X141750000Y-75080000I-1320000J100000D01*
G01*
X139150000Y-87204000D02*
X142760000Y-87204000D01*
X139150000Y-83250000D02*
X139150000Y-87195000D01*
X150050000Y-81296000D02*
X141425000Y-81296000D01*
X150050000Y-85204000D02*
X150050000Y-81296000D01*
X150050000Y-85250000D02*
X145000000Y-85296000D01*
X147525000Y-96325000D02*
X142975000Y-96325000D01*
X147525000Y-91675000D02*
X144975000Y-91675000D01*
X142675000Y-89475000D02*
X137975000Y-89475000D01*
X141750000Y-94125000D02*
X137975000Y-94125000D01*
X147550000Y-91700000D02*
X147550000Y-96300000D01*
X137975000Y-89500000D02*
X137950000Y-94100000D01*
X142970000Y-95600000D02*
X142970000Y-96300000D01*
X139161000Y-83180000D02*
G75*
G02*
X141425000Y-81296000I2074000J-190000D01*
G01*
X142765000Y-87180000D02*
G75*
G02*
X145025000Y-85300000I2070000J-190000D01*
G01*
X142680000Y-89500000D02*
G75*
G03*
X145050000Y-91670000I2270000J100000D01*
G01*
X142970000Y-95550000D02*
G75*
G03*
X141750000Y-94130000I-1320000J100000D01*
G01*
X158200000Y-87204000D02*
X161810000Y-87204000D01*
X158200000Y-83250000D02*
X158200000Y-87195000D01*
X169100000Y-81296000D02*
X160475000Y-81296000D01*
X169100000Y-85204000D02*
X169100000Y-81296000D01*
X169100000Y-85250000D02*
X164050000Y-85296000D01*
X166575000Y-96325000D02*
X162025000Y-96325000D01*
X166575000Y-91675000D02*
X164025000Y-91675000D01*
X161725000Y-89475000D02*
X157025000Y-89475000D01*
X160800000Y-94125000D02*
X157025000Y-94125000D01*
X166600000Y-91700000D02*
X166600000Y-96300000D01*
X157025000Y-89500000D02*
X157000000Y-94100000D01*
X162020000Y-95600000D02*
X162020000Y-96300000D01*
X158211000Y-83180000D02*
G75*
G02*
X160475000Y-81296000I2074000J-190000D01*
G01*
X161815000Y-87180000D02*
G75*
G02*
X164075000Y-85300000I2070000J-190000D01*
G01*
X161730000Y-89500000D02*
G75*
G03*
X164100000Y-91670000I2270000J100000D01*
G01*
X162020000Y-95550000D02*
G75*
G03*
X160800000Y-94130000I-1320000J100000D01*
G01*
D12*
X165989000Y-41021000D02*
X163449000Y-41021000D01*
X165989000Y-38481000D02*
X165989000Y-41021000D01*
D11*
G36*
X178383635Y-44770030D02*
G01*
X178383635Y-44870030D01*
X178483635Y-44870030D01*
X178483635Y-44770030D01*
X178383635Y-44770030D01*
G37*
X178383635Y-44770030D02*
X178383635Y-44870030D01*
X178483635Y-44870030D01*
X178483635Y-44770030D01*
X178383635Y-44770030D01*
G36*
X178583635Y-44370030D02*
G01*
X178583635Y-45170030D01*
X178683635Y-45170030D01*
X178683635Y-44370030D01*
X178583635Y-44370030D01*
G37*
X178583635Y-44370030D02*
X178583635Y-45170030D01*
X178683635Y-45170030D01*
X178683635Y-44370030D01*
X178583635Y-44370030D01*
G36*
X178183635Y-44970030D02*
G01*
X178183635Y-45170030D01*
X178283635Y-45170030D01*
X178283635Y-44970030D01*
X178183635Y-44970030D01*
G37*
X178183635Y-44970030D02*
X178183635Y-45170030D01*
X178283635Y-45170030D01*
X178283635Y-44970030D01*
X178183635Y-44970030D01*
G36*
X178183635Y-44370030D02*
G01*
X178183635Y-44670030D01*
X178283635Y-44670030D01*
X178283635Y-44370030D01*
X178183635Y-44370030D01*
G37*
X178183635Y-44370030D02*
X178183635Y-44670030D01*
X178283635Y-44670030D01*
X178283635Y-44370030D01*
X178183635Y-44370030D01*
G36*
X178183635Y-44370030D02*
G01*
X178183635Y-44470030D01*
X178683635Y-44470030D01*
X178683635Y-44370030D01*
X178183635Y-44370030D01*
G37*
X178183635Y-44370030D02*
X178183635Y-44470030D01*
X178683635Y-44470030D01*
X178683635Y-44370030D01*
X178183635Y-44370030D01*
D12*
X181229000Y-68961000D02*
X181229000Y-35941000D01*
X163449000Y-68961000D02*
X181229000Y-68961000D01*
X163449000Y-35941000D02*
X163449000Y-68961000D01*
X181229000Y-35941000D02*
X163449000Y-35941000D01*
X165989000Y-38481000D02*
X163449000Y-38481000D01*
D13*
X163892700Y-38924700D02*
X163892700Y-40577300D01*
X165545300Y-40577300D01*
X165545300Y-38924700D01*
X163892700Y-38924700D01*
X165545300Y-42291000D02*
G75*
G03*
X165545300Y-42291000I-826300J0D01*
G01*
X165545300Y-44831000D02*
G75*
G03*
X165545300Y-44831000I-826300J0D01*
G01*
X165545300Y-47371000D02*
G75*
G03*
X165545300Y-47371000I-826300J0D01*
G01*
X165545300Y-49911000D02*
G75*
G03*
X165545300Y-49911000I-826300J0D01*
G01*
X165545300Y-52451000D02*
G75*
G03*
X165545300Y-52451000I-826300J0D01*
G01*
X165545300Y-54991000D02*
G75*
G03*
X165545300Y-54991000I-826300J0D01*
G01*
X165545300Y-57531000D02*
G75*
G03*
X165545300Y-57531000I-826300J0D01*
G01*
X165545300Y-60071000D02*
G75*
G03*
X165545300Y-60071000I-826300J0D01*
G01*
X165545300Y-62611000D02*
G75*
G03*
X165545300Y-62611000I-826300J0D01*
G01*
X165545300Y-65151000D02*
G75*
G03*
X165545300Y-65151000I-826300J0D01*
G01*
X180785300Y-67691000D02*
G75*
G03*
X180785300Y-67691000I-826300J0D01*
G01*
X180785300Y-65151000D02*
G75*
G03*
X180785300Y-65151000I-826300J0D01*
G01*
X180785300Y-62611000D02*
G75*
G03*
X180785300Y-62611000I-826300J0D01*
G01*
X180785300Y-60071000D02*
G75*
G03*
X180785300Y-60071000I-826300J0D01*
G01*
X180785300Y-57531000D02*
G75*
G03*
X180785300Y-57531000I-826300J0D01*
G01*
X180785300Y-54991000D02*
G75*
G03*
X180785300Y-54991000I-826300J0D01*
G01*
X180785300Y-52451000D02*
G75*
G03*
X180785300Y-52451000I-826300J0D01*
G01*
X180785300Y-49911000D02*
G75*
G03*
X180785300Y-49911000I-826300J0D01*
G01*
X180785300Y-47371000D02*
G75*
G03*
X180785300Y-47371000I-826300J0D01*
G01*
X180785300Y-44831000D02*
G75*
G03*
X180785300Y-44831000I-826300J0D01*
G01*
X180785300Y-42291000D02*
G75*
G03*
X180785300Y-42291000I-826300J0D01*
G01*
X165545300Y-67691000D02*
G75*
G03*
X165545300Y-67691000I-826300J0D01*
G01*
X180785300Y-39751000D02*
G75*
G03*
X180785300Y-39751000I-826300J0D01*
G01*
D11*
X172012285Y-72004380D02*
X172583714Y-72004380D01*
X172298000Y-72004380D02*
X172298000Y-71004380D01*
X172393238Y-71147238D01*
X172488476Y-71242476D01*
X172583714Y-71290095D01*
X167468476Y-42652904D02*
X167468476Y-41852904D01*
X167278000Y-41852904D01*
X167163714Y-41891000D01*
X167087523Y-41967190D01*
X167049428Y-42043380D01*
X167011333Y-42195761D01*
X167011333Y-42310047D01*
X167049428Y-42462428D01*
X167087523Y-42538619D01*
X167163714Y-42614809D01*
X167278000Y-42652904D01*
X167468476Y-42652904D01*
X166706571Y-41929095D02*
X166668476Y-41891000D01*
X166592285Y-41852904D01*
X166401809Y-41852904D01*
X166325619Y-41891000D01*
X166287523Y-41929095D01*
X166249428Y-42005285D01*
X166249428Y-42081476D01*
X166287523Y-42195761D01*
X166744666Y-42652904D01*
X166249428Y-42652904D01*
X167468476Y-52812904D02*
X167468476Y-52012904D01*
X167278000Y-52012904D01*
X167163714Y-52051000D01*
X167087523Y-52127190D01*
X167049428Y-52203380D01*
X167011333Y-52355761D01*
X167011333Y-52470047D01*
X167049428Y-52622428D01*
X167087523Y-52698619D01*
X167163714Y-52774809D01*
X167278000Y-52812904D01*
X167468476Y-52812904D01*
X166516095Y-52012904D02*
X166439904Y-52012904D01*
X166363714Y-52051000D01*
X166325619Y-52089095D01*
X166287523Y-52165285D01*
X166249428Y-52317666D01*
X166249428Y-52508142D01*
X166287523Y-52660523D01*
X166325619Y-52736714D01*
X166363714Y-52774809D01*
X166439904Y-52812904D01*
X166516095Y-52812904D01*
X166592285Y-52774809D01*
X166630380Y-52736714D01*
X166668476Y-52660523D01*
X166706571Y-52508142D01*
X166706571Y-52317666D01*
X166668476Y-52165285D01*
X166630380Y-52089095D01*
X166592285Y-52051000D01*
X166516095Y-52012904D01*
X167468476Y-50272904D02*
X167468476Y-49472904D01*
X167278000Y-49472904D01*
X167163714Y-49511000D01*
X167087523Y-49587190D01*
X167049428Y-49663380D01*
X167011333Y-49815761D01*
X167011333Y-49930047D01*
X167049428Y-50082428D01*
X167087523Y-50158619D01*
X167163714Y-50234809D01*
X167278000Y-50272904D01*
X167468476Y-50272904D01*
X166249428Y-50272904D02*
X166706571Y-50272904D01*
X166478000Y-50272904D02*
X166478000Y-49472904D01*
X166554190Y-49587190D01*
X166630380Y-49663380D01*
X166706571Y-49701476D01*
X167487523Y-46971000D02*
X167563714Y-46932904D01*
X167678000Y-46932904D01*
X167792285Y-46971000D01*
X167868476Y-47047190D01*
X167906571Y-47123380D01*
X167944666Y-47275761D01*
X167944666Y-47390047D01*
X167906571Y-47542428D01*
X167868476Y-47618619D01*
X167792285Y-47694809D01*
X167678000Y-47732904D01*
X167601809Y-47732904D01*
X167487523Y-47694809D01*
X167449428Y-47656714D01*
X167449428Y-47390047D01*
X167601809Y-47390047D01*
X167106571Y-47732904D02*
X167106571Y-46932904D01*
X166649428Y-47732904D01*
X166649428Y-46932904D01*
X166268476Y-47732904D02*
X166268476Y-46932904D01*
X166078000Y-46932904D01*
X165963714Y-46971000D01*
X165887523Y-47047190D01*
X165849428Y-47123380D01*
X165811333Y-47275761D01*
X165811333Y-47390047D01*
X165849428Y-47542428D01*
X165887523Y-47618619D01*
X165963714Y-47694809D01*
X166078000Y-47732904D01*
X166268476Y-47732904D01*
X167487523Y-44431000D02*
X167563714Y-44392904D01*
X167678000Y-44392904D01*
X167792285Y-44431000D01*
X167868476Y-44507190D01*
X167906571Y-44583380D01*
X167944666Y-44735761D01*
X167944666Y-44850047D01*
X167906571Y-45002428D01*
X167868476Y-45078619D01*
X167792285Y-45154809D01*
X167678000Y-45192904D01*
X167601809Y-45192904D01*
X167487523Y-45154809D01*
X167449428Y-45116714D01*
X167449428Y-44850047D01*
X167601809Y-44850047D01*
X167106571Y-45192904D02*
X167106571Y-44392904D01*
X166649428Y-45192904D01*
X166649428Y-44392904D01*
X166268476Y-45192904D02*
X166268476Y-44392904D01*
X166078000Y-44392904D01*
X165963714Y-44431000D01*
X165887523Y-44507190D01*
X165849428Y-44583380D01*
X165811333Y-44735761D01*
X165811333Y-44850047D01*
X165849428Y-45002428D01*
X165887523Y-45078619D01*
X165963714Y-45154809D01*
X166078000Y-45192904D01*
X166268476Y-45192904D01*
X167468476Y-55352904D02*
X167468476Y-54552904D01*
X167278000Y-54552904D01*
X167163714Y-54591000D01*
X167087523Y-54667190D01*
X167049428Y-54743380D01*
X167011333Y-54895761D01*
X167011333Y-55010047D01*
X167049428Y-55162428D01*
X167087523Y-55238619D01*
X167163714Y-55314809D01*
X167278000Y-55352904D01*
X167468476Y-55352904D01*
X166325619Y-54819571D02*
X166325619Y-55352904D01*
X166516095Y-54514809D02*
X166706571Y-55086238D01*
X166211333Y-55086238D01*
X167011333Y-57816714D02*
X167049428Y-57854809D01*
X167163714Y-57892904D01*
X167239904Y-57892904D01*
X167354190Y-57854809D01*
X167430380Y-57778619D01*
X167468476Y-57702428D01*
X167506571Y-57550047D01*
X167506571Y-57435761D01*
X167468476Y-57283380D01*
X167430380Y-57207190D01*
X167354190Y-57131000D01*
X167239904Y-57092904D01*
X167163714Y-57092904D01*
X167049428Y-57131000D01*
X167011333Y-57169095D01*
X166325619Y-57092904D02*
X166478000Y-57092904D01*
X166554190Y-57131000D01*
X166592285Y-57169095D01*
X166668476Y-57283380D01*
X166706571Y-57435761D01*
X166706571Y-57740523D01*
X166668476Y-57816714D01*
X166630380Y-57854809D01*
X166554190Y-57892904D01*
X166401809Y-57892904D01*
X166325619Y-57854809D01*
X166287523Y-57816714D01*
X166249428Y-57740523D01*
X166249428Y-57550047D01*
X166287523Y-57473857D01*
X166325619Y-57435761D01*
X166401809Y-57397666D01*
X166554190Y-57397666D01*
X166630380Y-57435761D01*
X166668476Y-57473857D01*
X166706571Y-57550047D01*
X167468476Y-60432904D02*
X167468476Y-59632904D01*
X167278000Y-59632904D01*
X167163714Y-59671000D01*
X167087523Y-59747190D01*
X167049428Y-59823380D01*
X167011333Y-59975761D01*
X167011333Y-60090047D01*
X167049428Y-60242428D01*
X167087523Y-60318619D01*
X167163714Y-60394809D01*
X167278000Y-60432904D01*
X167468476Y-60432904D01*
X166744666Y-59632904D02*
X166211333Y-59632904D01*
X166554190Y-60432904D01*
X167430380Y-62553857D02*
X167163714Y-62553857D01*
X167049428Y-62972904D02*
X167430380Y-62972904D01*
X167430380Y-62172904D01*
X167049428Y-62172904D01*
X166363714Y-62172904D02*
X166516095Y-62172904D01*
X166592285Y-62211000D01*
X166630380Y-62249095D01*
X166706571Y-62363380D01*
X166744666Y-62515761D01*
X166744666Y-62820523D01*
X166706571Y-62896714D01*
X166668476Y-62934809D01*
X166592285Y-62972904D01*
X166439904Y-62972904D01*
X166363714Y-62934809D01*
X166325619Y-62896714D01*
X166287523Y-62820523D01*
X166287523Y-62630047D01*
X166325619Y-62553857D01*
X166363714Y-62515761D01*
X166439904Y-62477666D01*
X166592285Y-62477666D01*
X166668476Y-62515761D01*
X166706571Y-62553857D01*
X166744666Y-62630047D01*
X167201809Y-65093857D02*
X167087523Y-65131952D01*
X167049428Y-65170047D01*
X167011333Y-65246238D01*
X167011333Y-65360523D01*
X167049428Y-65436714D01*
X167087523Y-65474809D01*
X167163714Y-65512904D01*
X167468476Y-65512904D01*
X167468476Y-64712904D01*
X167201809Y-64712904D01*
X167125619Y-64751000D01*
X167087523Y-64789095D01*
X167049428Y-64865285D01*
X167049428Y-64941476D01*
X167087523Y-65017666D01*
X167125619Y-65055761D01*
X167201809Y-65093857D01*
X167468476Y-65093857D01*
X166325619Y-64979571D02*
X166325619Y-65512904D01*
X166516095Y-64674809D02*
X166706571Y-65246238D01*
X166211333Y-65246238D01*
X167201809Y-67633857D02*
X167087523Y-67671952D01*
X167049428Y-67710047D01*
X167011333Y-67786238D01*
X167011333Y-67900523D01*
X167049428Y-67976714D01*
X167087523Y-68014809D01*
X167163714Y-68052904D01*
X167468476Y-68052904D01*
X167468476Y-67252904D01*
X167201809Y-67252904D01*
X167125619Y-67291000D01*
X167087523Y-67329095D01*
X167049428Y-67405285D01*
X167049428Y-67481476D01*
X167087523Y-67557666D01*
X167125619Y-67595761D01*
X167201809Y-67633857D01*
X167468476Y-67633857D01*
X166287523Y-67252904D02*
X166668476Y-67252904D01*
X166706571Y-67633857D01*
X166668476Y-67595761D01*
X166592285Y-67557666D01*
X166401809Y-67557666D01*
X166325619Y-67595761D01*
X166287523Y-67633857D01*
X166249428Y-67710047D01*
X166249428Y-67900523D01*
X166287523Y-67976714D01*
X166325619Y-68014809D01*
X166401809Y-68052904D01*
X166592285Y-68052904D01*
X166668476Y-68014809D01*
X166706571Y-67976714D01*
X178123809Y-67633857D02*
X178009523Y-67671952D01*
X177971428Y-67710047D01*
X177933333Y-67786238D01*
X177933333Y-67900523D01*
X177971428Y-67976714D01*
X178009523Y-68014809D01*
X178085714Y-68052904D01*
X178390476Y-68052904D01*
X178390476Y-67252904D01*
X178123809Y-67252904D01*
X178047619Y-67291000D01*
X178009523Y-67329095D01*
X177971428Y-67405285D01*
X177971428Y-67481476D01*
X178009523Y-67557666D01*
X178047619Y-67595761D01*
X178123809Y-67633857D01*
X178390476Y-67633857D01*
X177247619Y-67252904D02*
X177400000Y-67252904D01*
X177476190Y-67291000D01*
X177514285Y-67329095D01*
X177590476Y-67443380D01*
X177628571Y-67595761D01*
X177628571Y-67900523D01*
X177590476Y-67976714D01*
X177552380Y-68014809D01*
X177476190Y-68052904D01*
X177323809Y-68052904D01*
X177247619Y-68014809D01*
X177209523Y-67976714D01*
X177171428Y-67900523D01*
X177171428Y-67710047D01*
X177209523Y-67633857D01*
X177247619Y-67595761D01*
X177323809Y-67557666D01*
X177476190Y-67557666D01*
X177552380Y-67595761D01*
X177590476Y-67633857D01*
X177628571Y-67710047D01*
X178123809Y-62553857D02*
X178009523Y-62591952D01*
X177971428Y-62630047D01*
X177933333Y-62706238D01*
X177933333Y-62820523D01*
X177971428Y-62896714D01*
X178009523Y-62934809D01*
X178085714Y-62972904D01*
X178390476Y-62972904D01*
X178390476Y-62172904D01*
X178123809Y-62172904D01*
X178047619Y-62211000D01*
X178009523Y-62249095D01*
X177971428Y-62325285D01*
X177971428Y-62401476D01*
X178009523Y-62477666D01*
X178047619Y-62515761D01*
X178123809Y-62553857D01*
X178390476Y-62553857D01*
X177666666Y-62172904D02*
X177171428Y-62172904D01*
X177438095Y-62477666D01*
X177323809Y-62477666D01*
X177247619Y-62515761D01*
X177209523Y-62553857D01*
X177171428Y-62630047D01*
X177171428Y-62820523D01*
X177209523Y-62896714D01*
X177247619Y-62934809D01*
X177323809Y-62972904D01*
X177552380Y-62972904D01*
X177628571Y-62934809D01*
X177666666Y-62896714D01*
X178123809Y-60013857D02*
X178009523Y-60051952D01*
X177971428Y-60090047D01*
X177933333Y-60166238D01*
X177933333Y-60280523D01*
X177971428Y-60356714D01*
X178009523Y-60394809D01*
X178085714Y-60432904D01*
X178390476Y-60432904D01*
X178390476Y-59632904D01*
X178123809Y-59632904D01*
X178047619Y-59671000D01*
X178009523Y-59709095D01*
X177971428Y-59785285D01*
X177971428Y-59861476D01*
X178009523Y-59937666D01*
X178047619Y-59975761D01*
X178123809Y-60013857D01*
X178390476Y-60013857D01*
X177171428Y-60432904D02*
X177628571Y-60432904D01*
X177400000Y-60432904D02*
X177400000Y-59632904D01*
X177476190Y-59747190D01*
X177552380Y-59823380D01*
X177628571Y-59861476D01*
X178066666Y-49853857D02*
X178333333Y-49853857D01*
X178333333Y-50272904D02*
X178333333Y-49472904D01*
X177952380Y-49472904D01*
X177304761Y-49739571D02*
X177304761Y-50272904D01*
X177495238Y-49434809D02*
X177685714Y-50006238D01*
X177190476Y-50006238D01*
X178866666Y-46932904D02*
X178600000Y-47732904D01*
X178333333Y-46932904D01*
X177609523Y-47656714D02*
X177647619Y-47694809D01*
X177761904Y-47732904D01*
X177838095Y-47732904D01*
X177952380Y-47694809D01*
X178028571Y-47618619D01*
X178066666Y-47542428D01*
X178104761Y-47390047D01*
X178104761Y-47275761D01*
X178066666Y-47123380D01*
X178028571Y-47047190D01*
X177952380Y-46971000D01*
X177838095Y-46932904D01*
X177761904Y-46932904D01*
X177647619Y-46971000D01*
X177609523Y-47009095D01*
X176809523Y-47656714D02*
X176847619Y-47694809D01*
X176961904Y-47732904D01*
X177038095Y-47732904D01*
X177152380Y-47694809D01*
X177228571Y-47618619D01*
X177266666Y-47542428D01*
X177304761Y-47390047D01*
X177304761Y-47275761D01*
X177266666Y-47123380D01*
X177228571Y-47047190D01*
X177152380Y-46971000D01*
X177038095Y-46932904D01*
X176961904Y-46932904D01*
X176847619Y-46971000D01*
X176809523Y-47009095D01*
X178409523Y-41891000D02*
X178485714Y-41852904D01*
X178600000Y-41852904D01*
X178714285Y-41891000D01*
X178790476Y-41967190D01*
X178828571Y-42043380D01*
X178866666Y-42195761D01*
X178866666Y-42310047D01*
X178828571Y-42462428D01*
X178790476Y-42538619D01*
X178714285Y-42614809D01*
X178600000Y-42652904D01*
X178523809Y-42652904D01*
X178409523Y-42614809D01*
X178371428Y-42576714D01*
X178371428Y-42310047D01*
X178523809Y-42310047D01*
X178028571Y-42652904D02*
X178028571Y-41852904D01*
X177571428Y-42652904D01*
X177571428Y-41852904D01*
X177190476Y-42652904D02*
X177190476Y-41852904D01*
X177000000Y-41852904D01*
X176885714Y-41891000D01*
X176809523Y-41967190D01*
X176771428Y-42043380D01*
X176733333Y-42195761D01*
X176733333Y-42310047D01*
X176771428Y-42462428D01*
X176809523Y-42538619D01*
X176885714Y-42614809D01*
X177000000Y-42652904D01*
X177190476Y-42652904D01*
X178352380Y-40112904D02*
X178619047Y-39731952D01*
X178809523Y-40112904D02*
X178809523Y-39312904D01*
X178504761Y-39312904D01*
X178428571Y-39351000D01*
X178390476Y-39389095D01*
X178352380Y-39465285D01*
X178352380Y-39579571D01*
X178390476Y-39655761D01*
X178428571Y-39693857D01*
X178504761Y-39731952D01*
X178809523Y-39731952D01*
X178047619Y-39884333D02*
X177666666Y-39884333D01*
X178123809Y-40112904D02*
X177857142Y-39312904D01*
X177590476Y-40112904D01*
X177400000Y-39312904D02*
X177209523Y-40112904D01*
X177057142Y-39541476D01*
X176904761Y-40112904D01*
X176714285Y-39312904D01*
X178066666Y-52393857D02*
X178333333Y-52393857D01*
X178333333Y-52812904D02*
X178333333Y-52012904D01*
X177952380Y-52012904D01*
X177266666Y-52012904D02*
X177647619Y-52012904D01*
X177685714Y-52393857D01*
X177647619Y-52355761D01*
X177571428Y-52317666D01*
X177380952Y-52317666D01*
X177304761Y-52355761D01*
X177266666Y-52393857D01*
X177228571Y-52470047D01*
X177228571Y-52660523D01*
X177266666Y-52736714D01*
X177304761Y-52774809D01*
X177380952Y-52812904D01*
X177571428Y-52812904D01*
X177647619Y-52774809D01*
X177685714Y-52736714D01*
X178066666Y-54933857D02*
X178333333Y-54933857D01*
X178333333Y-55352904D02*
X178333333Y-54552904D01*
X177952380Y-54552904D01*
X177304761Y-54552904D02*
X177457142Y-54552904D01*
X177533333Y-54591000D01*
X177571428Y-54629095D01*
X177647619Y-54743380D01*
X177685714Y-54895761D01*
X177685714Y-55200523D01*
X177647619Y-55276714D01*
X177609523Y-55314809D01*
X177533333Y-55352904D01*
X177380952Y-55352904D01*
X177304761Y-55314809D01*
X177266666Y-55276714D01*
X177228571Y-55200523D01*
X177228571Y-55010047D01*
X177266666Y-54933857D01*
X177304761Y-54895761D01*
X177380952Y-54857666D01*
X177533333Y-54857666D01*
X177609523Y-54895761D01*
X177647619Y-54933857D01*
X177685714Y-55010047D01*
X178066666Y-57473857D02*
X178333333Y-57473857D01*
X178333333Y-57892904D02*
X178333333Y-57092904D01*
X177952380Y-57092904D01*
X177723809Y-57092904D02*
X177190476Y-57092904D01*
X177533333Y-57892904D01*
X178123809Y-65093857D02*
X178009523Y-65131952D01*
X177971428Y-65170047D01*
X177933333Y-65246238D01*
X177933333Y-65360523D01*
X177971428Y-65436714D01*
X178009523Y-65474809D01*
X178085714Y-65512904D01*
X178390476Y-65512904D01*
X178390476Y-64712904D01*
X178123809Y-64712904D01*
X178047619Y-64751000D01*
X178009523Y-64789095D01*
X177971428Y-64865285D01*
X177971428Y-64941476D01*
X178009523Y-65017666D01*
X178047619Y-65055761D01*
X178123809Y-65093857D01*
X178390476Y-65093857D01*
X177628571Y-64789095D02*
X177590476Y-64751000D01*
X177514285Y-64712904D01*
X177323809Y-64712904D01*
X177247619Y-64751000D01*
X177209523Y-64789095D01*
X177171428Y-64865285D01*
X177171428Y-64941476D01*
X177209523Y-65055761D01*
X177666666Y-65512904D01*
X177171428Y-65512904D01*
X170957604Y-39312904D02*
X170500461Y-39312904D01*
X170729032Y-40112904D02*
X170729032Y-39312904D01*
X170309985Y-39312904D02*
X169776651Y-40112904D01*
X169776651Y-39312904D02*
X170309985Y-40112904D01*
X169319508Y-39312904D02*
X169243318Y-39312904D01*
X169167128Y-39351000D01*
X169129032Y-39389095D01*
X169090937Y-39465285D01*
X169052842Y-39617666D01*
X169052842Y-39808142D01*
X169090937Y-39960523D01*
X169129032Y-40036714D01*
X169167128Y-40074809D01*
X169243318Y-40112904D01*
X169319508Y-40112904D01*
X169395699Y-40074809D01*
X169433794Y-40036714D01*
X169471889Y-39960523D01*
X169509985Y-39808142D01*
X169509985Y-39617666D01*
X169471889Y-39465285D01*
X169433794Y-39389095D01*
X169395699Y-39351000D01*
X169319508Y-39312904D01*
X168138556Y-39274809D02*
X168824270Y-40303380D01*
X167871889Y-40112904D02*
X167871889Y-39312904D01*
X167681413Y-39312904D01*
X167567128Y-39351000D01*
X167490937Y-39427190D01*
X167452842Y-39503380D01*
X167414747Y-39655761D01*
X167414747Y-39770047D01*
X167452842Y-39922428D01*
X167490937Y-39998619D01*
X167567128Y-40074809D01*
X167681413Y-40112904D01*
X167871889Y-40112904D01*
X167148080Y-39312904D02*
X166652842Y-39312904D01*
X166919508Y-39617666D01*
X166805223Y-39617666D01*
X166729032Y-39655761D01*
X166690937Y-39693857D01*
X166652842Y-39770047D01*
X166652842Y-39960523D01*
X166690937Y-40036714D01*
X166729032Y-40074809D01*
X166805223Y-40112904D01*
X167033794Y-40112904D01*
X167109985Y-40074809D01*
X167148080Y-40036714D01*
X177912333Y-45134809D02*
X177798047Y-45172904D01*
X177607571Y-45172904D01*
X177531380Y-45134809D01*
X177493285Y-45096714D01*
X177455190Y-45020523D01*
X177455190Y-44944333D01*
X177493285Y-44868142D01*
X177531380Y-44830047D01*
X177607571Y-44791952D01*
X177759952Y-44753857D01*
X177836142Y-44715761D01*
X177874238Y-44677666D01*
X177912333Y-44601476D01*
X177912333Y-44525285D01*
X177874238Y-44449095D01*
X177836142Y-44411000D01*
X177759952Y-44372904D01*
X177569476Y-44372904D01*
X177455190Y-44411000D01*
X177226619Y-44372904D02*
X176769476Y-44372904D01*
X176998047Y-45172904D02*
X176998047Y-44372904D01*
M02*
