G04 #@! TF.GenerationSoftware,KiCad,Pcbnew,(5.1.7)-1*
G04 #@! TF.CreationDate,2020-12-07T09:59:57+09:00*
G04 #@! TF.ProjectId,pisces,70697363-6573-42e6-9b69-6361645f7063,rev?*
G04 #@! TF.SameCoordinates,Original*
G04 #@! TF.FileFunction,Soldermask,Bot*
G04 #@! TF.FilePolarity,Negative*
%FSLAX46Y46*%
G04 Gerber Fmt 4.6, Leading zero omitted, Abs format (unit mm)*
G04 Created by KiCad (PCBNEW (5.1.7)-1) date 2020-12-07 09:59:57*
%MOMM*%
%LPD*%
G01*
G04 APERTURE LIST*
%ADD10C,1.500000*%
%ADD11R,2.500000X1.200000*%
%ADD12R,1.500000X1.000000*%
%ADD13C,0.750000*%
%ADD14R,1.100000X1.600000*%
%ADD15C,5.000000*%
%ADD16R,1.300000X0.950000*%
%ADD17R,2.000000X2.000000*%
%ADD18C,3.000000*%
%ADD19C,1.700000*%
%ADD20C,1.900000*%
%ADD21C,4.000000*%
%ADD22R,1.900000X2.000000*%
%ADD23R,1.752600X1.752600*%
%ADD24C,1.752600*%
G04 APERTURE END LIST*
D10*
X187198000Y-46802000D03*
X187198000Y-39802000D03*
D11*
X183948000Y-44392000D03*
X183948000Y-41392000D03*
X190448000Y-49492000D03*
X183948000Y-48392000D03*
D12*
X165698000Y-74752000D03*
X170598000Y-74752000D03*
X165698000Y-71552000D03*
X170598000Y-71552000D03*
D13*
X175895000Y-72316000D03*
X175895000Y-74016000D03*
D14*
X173645000Y-73116000D03*
X178145000Y-73116000D03*
D15*
X189103000Y-72644000D03*
X159639000Y-72644000D03*
X159639000Y-43561000D03*
X189103000Y-54864000D03*
X135725000Y-78575000D03*
X135725000Y-59525000D03*
X97625000Y-78575000D03*
X97625000Y-59525000D03*
X59525000Y-78575000D03*
X59525000Y-59525000D03*
D16*
X58036000Y-41783000D03*
X54486000Y-41783000D03*
X55536000Y-60833000D03*
X51986000Y-60833000D03*
X51986000Y-79883000D03*
X55536000Y-79883000D03*
X73536000Y-41783000D03*
X77086000Y-41783000D03*
X77086000Y-60833000D03*
X73536000Y-60833000D03*
X73536000Y-79883000D03*
X77086000Y-79883000D03*
X96135999Y-41783000D03*
X92585999Y-41783000D03*
X93635999Y-60833000D03*
X90085999Y-60833000D03*
X90085999Y-79883000D03*
X93635999Y-79883000D03*
X111636000Y-41783000D03*
X115186000Y-41783000D03*
X115186000Y-60833000D03*
X111636000Y-60833000D03*
X115186000Y-79883000D03*
X111636000Y-79883000D03*
X130686000Y-41783000D03*
X134236000Y-41783000D03*
X131736000Y-60833000D03*
X128186000Y-60833000D03*
X128186000Y-79883000D03*
X131736000Y-79883000D03*
X149736000Y-41783000D03*
X153286000Y-41783000D03*
X153286000Y-60833000D03*
X149736000Y-60833000D03*
X149736000Y-79883000D03*
X153286000Y-79883000D03*
X168786000Y-79883000D03*
X172336000Y-79883000D03*
D17*
X55600000Y-44920000D03*
D18*
X46190000Y-47460000D03*
D19*
X44920000Y-50000000D03*
X55080000Y-50000000D03*
D20*
X55500000Y-50000000D03*
X44500000Y-50000000D03*
D21*
X50000000Y-50000000D03*
D18*
X52540000Y-44920000D03*
D17*
X43100000Y-47460000D03*
D18*
X50000000Y-55900000D03*
X45000000Y-53700000D03*
D22*
X52800000Y-55900000D03*
D17*
X41900000Y-53700000D03*
D18*
X55000000Y-53700000D03*
X47460000Y-44920000D03*
X53810000Y-47460000D03*
X53810000Y-66510000D03*
X47460000Y-63970000D03*
X55000000Y-72750000D03*
D17*
X41900000Y-72750000D03*
D22*
X52800000Y-74950000D03*
D18*
X45000000Y-72750000D03*
X50000000Y-74950000D03*
D17*
X43100000Y-66510000D03*
D18*
X52540000Y-63970000D03*
D21*
X50000000Y-69050000D03*
D20*
X44500000Y-69050000D03*
X55500000Y-69050000D03*
D19*
X55080000Y-69050000D03*
X44920000Y-69050000D03*
D18*
X46190000Y-66510000D03*
D17*
X55600000Y-63970000D03*
X55600000Y-83020000D03*
D18*
X46190000Y-85560000D03*
D19*
X44920000Y-88100000D03*
X55080000Y-88100000D03*
D20*
X55500000Y-88100000D03*
X44500000Y-88100000D03*
D21*
X50000000Y-88100000D03*
D18*
X52540000Y-83020000D03*
D17*
X43100000Y-85560000D03*
D18*
X50000000Y-94000000D03*
X45000000Y-91800000D03*
D22*
X52800000Y-94000000D03*
D17*
X41900000Y-91800000D03*
D18*
X55000000Y-91800000D03*
X47460000Y-83020000D03*
X53810000Y-85560000D03*
X72860000Y-47460000D03*
X66510000Y-44920000D03*
X74050000Y-53700000D03*
D17*
X60950000Y-53700000D03*
D22*
X71850000Y-55900000D03*
D18*
X64050000Y-53700000D03*
X69050000Y-55900000D03*
D17*
X62150000Y-47460000D03*
D18*
X71590000Y-44920000D03*
D21*
X69050000Y-50000000D03*
D20*
X63550000Y-50000000D03*
X74550000Y-50000000D03*
D19*
X74130000Y-50000000D03*
X63970000Y-50000000D03*
D18*
X65240000Y-47460000D03*
D17*
X74650000Y-44920000D03*
X74650000Y-63970000D03*
D18*
X65240000Y-66510000D03*
D19*
X63970000Y-69050000D03*
X74130000Y-69050000D03*
D20*
X74550000Y-69050000D03*
X63550000Y-69050000D03*
D21*
X69050000Y-69050000D03*
D18*
X71590000Y-63970000D03*
D17*
X62150000Y-66510000D03*
D18*
X69050000Y-74950000D03*
X64050000Y-72750000D03*
D22*
X71850000Y-74950000D03*
D17*
X60950000Y-72750000D03*
D18*
X74050000Y-72750000D03*
X66510000Y-63970000D03*
X72860000Y-66510000D03*
X72860000Y-85560000D03*
X66510000Y-83020000D03*
X74050000Y-91800000D03*
D17*
X60950000Y-91800000D03*
D22*
X71850000Y-94000000D03*
D18*
X64050000Y-91800000D03*
X69050000Y-94000000D03*
D17*
X62150000Y-85560000D03*
D18*
X71590000Y-83020000D03*
D21*
X69050000Y-88100000D03*
D20*
X63550000Y-88100000D03*
X74550000Y-88100000D03*
D19*
X74130000Y-88100000D03*
X63970000Y-88100000D03*
D18*
X65240000Y-85560000D03*
D17*
X74650000Y-83020000D03*
X93700000Y-44920000D03*
D18*
X84290000Y-47460000D03*
D19*
X83020000Y-50000000D03*
X93180000Y-50000000D03*
D20*
X93600000Y-50000000D03*
X82600000Y-50000000D03*
D21*
X88100000Y-50000000D03*
D18*
X90640000Y-44920000D03*
D17*
X81200000Y-47460000D03*
D18*
X88100000Y-55900000D03*
X83100000Y-53700000D03*
D22*
X90900000Y-55900000D03*
D17*
X80000000Y-53700000D03*
D18*
X93100000Y-53700000D03*
X85560000Y-44920000D03*
X91910000Y-47460000D03*
X91910000Y-66510000D03*
X85560000Y-63970000D03*
X93100000Y-72750000D03*
D17*
X80000000Y-72750000D03*
D22*
X90900000Y-74950000D03*
D18*
X83100000Y-72750000D03*
X88100000Y-74950000D03*
D17*
X81200000Y-66510000D03*
D18*
X90640000Y-63970000D03*
D21*
X88100000Y-69050000D03*
D20*
X82600000Y-69050000D03*
X93600000Y-69050000D03*
D19*
X93180000Y-69050000D03*
X83020000Y-69050000D03*
D18*
X84290000Y-66510000D03*
D17*
X93700000Y-63970000D03*
X93700000Y-83020000D03*
D18*
X84290000Y-85560000D03*
D19*
X83020000Y-88100000D03*
X93180000Y-88100000D03*
D20*
X93600000Y-88100000D03*
X82600000Y-88100000D03*
D21*
X88100000Y-88100000D03*
D18*
X90640000Y-83020000D03*
D17*
X81200000Y-85560000D03*
D18*
X88100000Y-94000000D03*
X83100000Y-91800000D03*
D22*
X90900000Y-94000000D03*
D17*
X80000000Y-91800000D03*
D18*
X93100000Y-91800000D03*
X85560000Y-83020000D03*
X91910000Y-85560000D03*
X110960000Y-47460000D03*
X104610000Y-44920000D03*
X112150000Y-53700000D03*
D17*
X99050000Y-53700000D03*
D22*
X109950000Y-55900000D03*
D18*
X102150000Y-53700000D03*
X107150000Y-55900000D03*
D17*
X100250000Y-47460000D03*
D18*
X109690000Y-44920000D03*
D21*
X107150000Y-50000000D03*
D20*
X101650000Y-50000000D03*
X112650000Y-50000000D03*
D19*
X112230000Y-50000000D03*
X102070000Y-50000000D03*
D18*
X103340000Y-47460000D03*
D17*
X112750000Y-44920000D03*
D18*
X110960000Y-66510000D03*
X104610000Y-63970000D03*
X112150000Y-72750000D03*
D17*
X99050000Y-72750000D03*
D22*
X109950000Y-74950000D03*
D18*
X102150000Y-72750000D03*
X107150000Y-74950000D03*
D17*
X100250000Y-66510000D03*
D18*
X109690000Y-63970000D03*
D21*
X107150000Y-69050000D03*
D20*
X101650000Y-69050000D03*
X112650000Y-69050000D03*
D19*
X112230000Y-69050000D03*
X102070000Y-69050000D03*
D18*
X103340000Y-66510000D03*
D17*
X112750000Y-63970000D03*
X112750000Y-83020000D03*
D18*
X103340000Y-85560000D03*
D19*
X102070000Y-88100000D03*
X112230000Y-88100000D03*
D20*
X112650000Y-88100000D03*
X101650000Y-88100000D03*
D21*
X107150000Y-88100000D03*
D18*
X109690000Y-83020000D03*
D17*
X100250000Y-85560000D03*
D18*
X107150000Y-94000000D03*
X102150000Y-91800000D03*
D22*
X109950000Y-94000000D03*
D17*
X99050000Y-91800000D03*
D18*
X112150000Y-91800000D03*
X104610000Y-83020000D03*
X110960000Y-85560000D03*
X130010000Y-47460000D03*
X123660000Y-44920000D03*
X131200000Y-53700000D03*
D17*
X118100000Y-53700000D03*
D22*
X129000000Y-55900000D03*
D18*
X121200000Y-53700000D03*
X126200000Y-55900000D03*
D17*
X119300000Y-47460000D03*
D18*
X128740000Y-44920000D03*
D21*
X126200000Y-50000000D03*
D20*
X120700000Y-50000000D03*
X131700000Y-50000000D03*
D19*
X131280000Y-50000000D03*
X121120000Y-50000000D03*
D18*
X122390000Y-47460000D03*
D17*
X131800000Y-44920000D03*
D18*
X130010000Y-66510000D03*
X123660000Y-63970000D03*
X131200000Y-72750000D03*
D17*
X118100000Y-72750000D03*
D22*
X129000000Y-74950000D03*
D18*
X121200000Y-72750000D03*
X126200000Y-74950000D03*
D17*
X119300000Y-66510000D03*
D18*
X128740000Y-63970000D03*
D21*
X126200000Y-69050000D03*
D20*
X120700000Y-69050000D03*
X131700000Y-69050000D03*
D19*
X131280000Y-69050000D03*
X121120000Y-69050000D03*
D18*
X122390000Y-66510000D03*
D17*
X131800000Y-63970000D03*
D18*
X130010000Y-85560000D03*
X123660000Y-83020000D03*
X131200000Y-91800000D03*
D17*
X118100000Y-91800000D03*
D22*
X129000000Y-94000000D03*
D18*
X121200000Y-91800000D03*
X126200000Y-94000000D03*
D17*
X119300000Y-85560000D03*
D18*
X128740000Y-83020000D03*
D21*
X126200000Y-88100000D03*
D20*
X120700000Y-88100000D03*
X131700000Y-88100000D03*
D19*
X131280000Y-88100000D03*
X121120000Y-88100000D03*
D18*
X122390000Y-85560000D03*
D17*
X131800000Y-83020000D03*
X150850000Y-44920000D03*
D18*
X141440000Y-47460000D03*
D19*
X140170000Y-50000000D03*
X150330000Y-50000000D03*
D20*
X150750000Y-50000000D03*
X139750000Y-50000000D03*
D21*
X145250000Y-50000000D03*
D18*
X147790000Y-44920000D03*
D17*
X138350000Y-47460000D03*
D18*
X145250000Y-55900000D03*
X140250000Y-53700000D03*
D22*
X148050000Y-55900000D03*
D17*
X137150000Y-53700000D03*
D18*
X150250000Y-53700000D03*
X142710000Y-44920000D03*
X149060000Y-47460000D03*
D17*
X150850000Y-63970000D03*
D18*
X141440000Y-66510000D03*
D19*
X140170000Y-69050000D03*
X150330000Y-69050000D03*
D20*
X150750000Y-69050000D03*
X139750000Y-69050000D03*
D21*
X145250000Y-69050000D03*
D18*
X147790000Y-63970000D03*
D17*
X138350000Y-66510000D03*
D18*
X145250000Y-74950000D03*
X140250000Y-72750000D03*
D22*
X148050000Y-74950000D03*
D17*
X137150000Y-72750000D03*
D18*
X150250000Y-72750000D03*
X142710000Y-63970000D03*
X149060000Y-66510000D03*
D17*
X150850000Y-83020000D03*
D18*
X141440000Y-85560000D03*
D19*
X140170000Y-88100000D03*
X150330000Y-88100000D03*
D20*
X150750000Y-88100000D03*
X139750000Y-88100000D03*
D21*
X145250000Y-88100000D03*
D18*
X147790000Y-83020000D03*
D17*
X138350000Y-85560000D03*
D18*
X145250000Y-94000000D03*
X140250000Y-91800000D03*
D22*
X148050000Y-94000000D03*
D17*
X137150000Y-91800000D03*
D18*
X150250000Y-91800000D03*
X142710000Y-83020000D03*
X149060000Y-85560000D03*
D17*
X169900000Y-83020000D03*
D18*
X160490000Y-85560000D03*
D19*
X159220000Y-88100000D03*
X169380000Y-88100000D03*
D20*
X169800000Y-88100000D03*
X158800000Y-88100000D03*
D21*
X164300000Y-88100000D03*
D18*
X166840000Y-83020000D03*
D17*
X157400000Y-85560000D03*
D18*
X164300000Y-94000000D03*
X159300000Y-91800000D03*
D22*
X167100000Y-94000000D03*
D17*
X156200000Y-91800000D03*
D18*
X169300000Y-91800000D03*
X161760000Y-83020000D03*
X168110000Y-85560000D03*
D23*
X164719000Y-39751000D03*
D24*
X164719000Y-42291000D03*
X164719000Y-44831000D03*
X164719000Y-47371000D03*
X164719000Y-49911000D03*
X164719000Y-52451000D03*
X164719000Y-54991000D03*
X164719000Y-57531000D03*
X164719000Y-60071000D03*
X164719000Y-62611000D03*
X164719000Y-65151000D03*
X179959000Y-67691000D03*
X179959000Y-65151000D03*
X179959000Y-62611000D03*
X179959000Y-60071000D03*
X179959000Y-57531000D03*
X179959000Y-54991000D03*
X179959000Y-52451000D03*
X179959000Y-49911000D03*
X179959000Y-47371000D03*
X179959000Y-44831000D03*
X179959000Y-42291000D03*
X164719000Y-67691000D03*
X179959000Y-39751000D03*
M02*
